<svg xmlns="http://www.w3.org/2000/svg" width="53" height="53" fill="none" viewBox="0 0 53 53">
    <g stroke="#000" stroke-miterlimit="10" stroke-width="2.5" clip-path="url(#clip0)">
        <path fill="#FAD45C" d="M26.55 51.797c13.944 0 25.248-11.303 25.248-25.247 0-13.944-11.304-25.248-25.248-25.248S1.302 12.606 1.302 26.55 12.606 51.797 26.55 51.797z"/>
        <path fill="#fff" d="M18.735 23.544H16.03c-1.603 0-3.005 1.103-3.106 2.706-.2 1.703 1.203 3.206 2.906 3.206h21.44c.802 0 1.603-.3 2.104-.902.601-.601.902-1.403.902-2.304-.1-1.603-1.603-2.806-3.206-2.806h-2.705c-2.705.1-13.025.1-15.63.1z"/>
    </g>
    <defs>
        <clipPath id="clip0">
            <path fill="#fff" d="M0 0H53V53H0z"/>
        </clipPath>
    </defs>
</svg>
