<svg xmlns="http://www.w3.org/2000/svg" width="53" height="53" fill="none" viewBox="0 0 53 53">
    <g stroke="#000" stroke-miterlimit="10" stroke-width="2.5" clip-path="url(#clip0)">
        <path fill="#FAD45C" d="M26.55 51.798c13.944 0 25.248-11.304 25.248-25.248S40.494 1.303 26.55 1.303 1.302 12.606 1.302 26.55c0 13.944 11.304 25.248 25.248 25.248z"/>
        <path fill="#fff" d="M29.456 18.735V16.03c0-1.603-1.102-3.005-2.706-3.106-1.703-.2-3.206 1.203-3.206 2.906v2.905c0 2.706-2.204 4.91-4.909 4.91H15.93c-1.603 0-3.006 1.102-3.106 2.705-.2 1.703 1.203 3.206 2.906 3.206h2.905c2.705 0 4.91 2.204 4.91 4.909v2.705c0 1.603 1.202 3.106 2.805 3.206.901.1 1.703-.3 2.304-.901.501-.502.902-1.303.902-2.105v-2.905c0-2.705 2.204-4.91 4.91-4.91h2.904c.802 0 1.604-.3 2.105-.9.6-.602.901-1.404.901-2.305-.1-1.603-1.603-2.806-3.206-2.806h-2.705c-2.805 0-5.01-2.204-5.01-4.809z"/>
    </g>
    <defs>
        <clipPath id="clip0">
            <path fill="#fff" d="M0 0H53V53H0z"/>
        </clipPath>
    </defs>
</svg>
