<svg xmlns="http://www.w3.org/2000/svg" width="270" height="217" fill="none" viewBox="0 0 270 217">
    <g clip-path="url(#clip0)">
        <path fill="#3E8487" d="M162.7 141l.2 20.3s23.7-6.9 24.1-9c.5-2.1.3-19.6-.1-20.4-.5-.8-3.1.5-4.2.7-1 .2-19.7 7-19.7 7l-.3 1.4zM63.4 139.1v15.4s-1 3.8 5.5 5.9c6.5 2.1 45.4 15.9 45.4 15.9s5.2 1.7 12.1-.7c6.9-2.4 22.9-8.3 22.9-8.3s3.3-.5 3.3-5.4-.2-16.8-.2-16.8 1-2.4-3.6-.2c-4.7 2.3-17.8 9.4-30.8 10.4-.6.1-51.8-18.2-51.8-18.2s-3.3-.8-2.8 2z"/>
        <path fill="#73BAC6" d="M79.6 134.8s-2.1 1.1-9.6.6c0 0-6.2-.4-6.6.2-.4.6.3 1.2 5.1 2.8 4.8 1.6 47.9 16.8 47.9 16.8s3.5.4 9.3-1.1c5.7-1.6 59.6-22.6 59.6-22.6s4.1-.9-.6-1.9l-2.9-.5-34.6 9.3-67.6-3.6z"/>
        <path fill="#90CEDD" d="M116.7 120.5c6.3-2.5 11.7-3.2 25.4-9.8l42.5 12.6s2.5 3.9-13.7 9.9c-13 4.8-26.6 11.2-40.2 14.9-7.1 1.9-16.7-.1-16.7-.1s-37.5-15.6-47.6-20c-.2-.1.7-.8.7-.8s22.8 4.1 49.6-6.7z"/>
        <g fill="#3E8487" opacity=".4">
            <path d="M135.9 116.3c-.3-.2-.7-.4-1-.5-.3-.1-.7-.2-1-.1-.4 0-.7.1-1 .1-.2 0-.4 0-.5.1-.2.1-.3.2-.5.3-.3.2-.6.4-.7.6-.1.3-.2.6-.2.9 0 .2-.1.3-.1.5v.2c0 .2-.1.3-.1.4 0 .1.1.1.2.2.1.5.5 1 1.1 1.3l.1.1c.2.3.5.6.8.9.3.3.7.6 1.1.9.3.2.4.5.8.7.3.2.7.3 1 .3.3.1.6.1.9.1H137.1l.1.1.1.1.1.1v.2c0 .1.2.2.3.2.1 0 .2 0 .2-.1s-.1-.2-.1-.3l-.3-.3-.2-.2c.3-.1.5-.3 0-.6-.3-.2-.5 0-.2.2 0 0-.1 0-.1.1-.1 0-.3.1-.4.1-.3 0-.8-.1-1.2-.2-.3-.1-.5-.2-.7-.4-.2-.2-.4-.4-.7-.6-.5-.4-1-.8-1.3-1.3.4 0 .6-.3 1-.5.3-.1.7-.1 1.1 0 .4 0 .8.1 1.3.1.2 0 .3 0 .4-.1 0 0 0-.1.1-.1H137.2c-.1.1-.2.2-.2.4 0 .1-.1.3 0 .5s.3.3.5.3c.3 0 .2-.3-.1-.3v-.1c0-.1 0-.2.1-.2 0-.1.1-.1.1-.2l.1-.1h.1c.1 0 .1 0 .2.1h.1s0 .1.1.1c0 .1.1.2.1.3 0 .1 0 .3-.1.4 0 .1-.1.3-.1.4v.2c-.1 0-.2.2 0 .3 0 0 .1 0 .1.1.1.1.2.1.3 0 .1-.1.1-.2.1-.4s.1-.3.1-.5.1-.3 0-.5c0-.1-.1-.2-.1-.3 0-.1 0-.2-.1-.3-.1-.2-.4-.3-.6-.3-.2-.1-.4-.1-.5 0l.1-.1c.4-.3.8-.7.6-1.3-.2-.5-.9-1-1.4-1.4-.3-.1-.5-.4-.8-.6zM143 132.5c-.1 0-.1-.1 0 0-.3-.1-.4 0-.3.1-.1.1-.4.1-.5.1-.3.1-.6.1-.9-.1-.3-.1-.5-.3-.8-.3-.3-.1-.5 0-.7 0-.5.2-.5-.6-.5-.8 0-.1.1-.3.1-.4 0-.1-.2-.2-.3-.3-.2-.1-.3-.3-.5-.4-.1 0-.2-.1-.2 0h-.1c-.2.1.1.3.3.3l.3.3s.1.1.1 0v.1c0 .1-.1.3-.1.4 0 .3.1.7.5.9.2.1.4.2.6.1.1 0 .3-.1.5-.1l.6.3c.3.1.6.2.8.2.3 0 .5 0 .7-.1.2 0 .5-.1.6-.3 0 .1-.1 0-.2 0z" opacity=".4"/>
            <g opacity=".4">
                <path d="M119.6 131.5c-.1-.1-.1-.1 0 0-.1-.1-.1-.1 0 0z" opacity=".4"/>
                <path d="M122.8 125.9c-.5-.2-1-.4-1.5-.5-.5 0-1 .1-1.4.2-.6.1-1.1.2-1.6.5-.8.5-.9 1.4-.9 2.2 0 .5.1 1 .3 1.5.1.3.2.5.4.8.2.3.5.5.8.7v.1l.1.1s.1 0 .1.1H119.8c.1 0 .1 0 .2-.1.1-.2.1-.5.1-.8 0-.3 0-.5.1-.7 0-.2.1-.4.2-.6.1-.2.2-.5.4-.6.4-.3 1.2-.1 1.8-.1.3 0 .5 0 .8.1.1 0 .4.1.6.2 0 .1.2.2.3.2h.1c.1 0 .1-.1.2-.2l.1-.1.1-.1s.1-.1 0-.1c.1-.2-.1-.4-.2-.6-.2-.3-.3-.6-.5-.9-.3-.7-.7-1.1-1.3-1.3z" opacity=".4"/>
            </g>
            <path d="M124.1 137.6c-.2.1.1.4.4.3.1-.1-.2-.4-.4-.3z" opacity=".4"/>
            <path d="M145.7 123.6c-1.2-.7-2.4-1.4-3.7-1.5-.6-.1-1.1-.1-1.7 0-.6 0-1.1.1-1.5.4-.4.3-.8.7-1.1 1.1-.1.2-.3.4-.4.6-.1.2-.3.4-.2.6.1.2.5.2.4 0l.1-.2c.1-.1.1-.2.2-.3.1-.2.2-.3.3-.5.2-.3.5-.6.9-.9.2-.1.3-.3.5-.3.2-.1.5-.1.8-.1.5-.1 1-.1 1.5 0 .5 0 1.1.2 1.6.4.6.2 1.2.5 1.7.8.6.3 1.1.6 1.7 1 .3.2.5.4.7.5.3.2.5.4.8.6.5.5.8.9 1 1.4l.3.6v.4c-.1 0-.1 0-.1.1l-1.5-.9c-.8-.5-1.6-1-2.3-1.6-.3-.2-.7-.5-1-.6-.3-.1-.6-.1-.9-.2-.8-.1-1.2.1-1.3.5-.1 0-.2-.1-.2-.1-.3-.1-.8-.3-1.1-.2-.1 0-.3.1-.3.2-.2-.1-.5-.3-.7-.3-.6-.2-1.3-.2-1.8-.2-.7 0-1.4.2-1.8.5-.5.4-.9.8-1.1 1.4v.1h-.2c-.2.1-.4.3-.5.5-.1.2-.1.4-.1.6 0 .4.2.8.6 1.1h-.8c-.2 0-.3.1-.5.1-.1-.1-.2-.1-.3-.1l-.1.1c0-.2 0-.4-.2-.5-.2-.2-.5-.5-.8-.6-.2-.1-.3-.1-.5-.1 0-.3-.1-.6-.4-.9-.4-.4-.8-.8-1.3-1.1-.5-.3-1.1-.6-1.7-.8-.6-.2-1.1-.2-1.6-.2s-1.1 0-1.4.3c-.3.3-.5.7-.6 1-.1.4-.2.8-.1 1.2.1.5.3 1 .6 1.5v.1l-.2-.2c-.2-.2-.4-.4-.7-.5-.3-.1-.4.2-.1.3.1 0 .2.2.3.2l.3.3.5.5c.4.4.8.8 1 1.2.2.3.2.7.1 1 0 .2 0 .3-.1.5 0 .1-.1.1-.1.2 0 0-.1.2-.2.1h-.1c-.6-.2-1.2-.3-1.8-.4-.4-.1-.7-.1-1.1-.2-.4-.1-.8-.1-1.2-.2-.3 0-.7-.1-1 0-.3-.2-.5-.4-.7-.6-.1-.1-.2-.2-.3-.4-.1-.1-.2-.2-.1-.2 0-.1 0-.1-.1-.2s-.3-.1-.3 0c-.2.2.3.7.5.9.2.2.4.4.6.5-.2 0-.4.1-.5.1-.7.2-1.3.4-2 .6-.4.1-.6.3-.9.5l-.9.6-.6.6h-.1c-.5-.2-.9-.4-1.4-.5-.2-.1-.4-.1-.6-.2-.1 0-.3-.1-.4-.1 0-.1 0-.1-.1-.2s-.2-.1-.3 0h-.1c-.1 0-.1.1 0 .2.1.2.4.3.6.3.2.1.4.2.7.2h0c-.3.2-.3.5-.4.9-.1.4-.2.7-.3 1.1-.1.3 0 .7 0 1 0 .3.1.7.2 1 .1.4.3.7.6 1.1.3.4.5.8.9 1.1.6.7 1.3 1.3 2.2 1.9.5.3 1 .5 1.5.8l1.5.6c.5.2 1.1.4 1.6.6.3.1.5.1.8.2.3.1.5.1.8.2 2.1.4 4.1 0 5.5-.7.4-.2.8-.5 1.3-.7l.6-.3c.2.2.4.3.6.5.2.2.4.3.6.4.3.1.6 0 .8-.1.2-.1.4-.2.5-.3.1-.1.1-.2 0-.3-.1-.1-.3-.2-.4-.3-.2-.1-.4-.3-.6-.3-.1 0-.2-.1-.3-.1h-.1s-.1 0-.1-.1c.2-.2.3-.4.5-.5.2-.2.4-.4.4-.7 0 0 0-.1-.1-.1 0-.1-.1-.2-.2-.2-.3-.1-.7-.2-1-.3-.3-.1-.7-.2-.9-.3h-.1c.3-.3.5-.7.6-1.1.2-.5-.1-1-.3-1.5-.1-.2-.2-.5-.3-.7h.2c.2 0 .4.1.6.1.4.1.9.1 1.3.2s.8.1 1.3.2c.3 0 .6 0 .9.1h.1c0 .2.1.5.1.7 0 .1 0 .3.1.4.1.1.2.3.2.4 0 .1.1.1.1.2.2.1.4.2.7.2.3.1.5.2.8.3.5.2 1.1.2 1.6.3 1.1.1 2.1-.1 3-.3.9-.2 1.9-.4 2.7-.7.9-.3 1.8-.6 2.6-.9.8-.4 1.5-.9 2.3-1.3.8-.4 1.4-.8 2.1-1.2.3-.2.6-.4.8-.7.2-.3.5-.5.6-.8.1-.3.1-.6 0-.9-.1-.4-.4-.6-.7-1l-.6-.6c-.2-.2-.5-.4-.7-.5-.5-.3-1.1-.6-1.7-.8-.5-.2-1.1-.5-1.6-.7-.2-.1-.5-.1-.7-.2-.1-.1-.1-.1-.2-.1h-.2c-.1 0-.2 0-.3-.1-.1 0-.2-.1-.3-.1h-.3c-.1 0-.2 0-.2.1v.1c-.4 0-.8.2-.9.3-.2.2-.4.4-.4.7-.1.3-.2.5-.1.8 0 .5.3 1.1.6 1.6.2.3.3.7.4 1 .1.3.3.6.3.9 0 .3-.2.5-.2.7-.1.3-.3.5-.7.6-.3.1-.8.2-1.1.3-.3.1-.8.1-1.1.1-.4 0-.7 0-1.1-.1h-4.3c-.4 0-.8-.1-1.1.1-.2.2-.2.5-.2.8-.2-.1-.5-.1-.7-.1-.4 0-.8-.1-1.2-.2-.4-.1-.9-.2-1.3-.2-.2 0-.5-.1-.7-.1-.1 0-.2 0-.4-.1l-.3-.6c-.3-.5-.6-1-1.1-1.5h1.1c.4 0 .9 0 1.4.1.9.1 1.9.3 2.7.3.3 0 .4-.2.3-.4-.1-.3-.3-.6-.3-.9-.1-.7-.2-1.4-.5-2.2-.1-.3-.2-.7-.3-1v-.5c0-.1.1-.1.1-.2h.1c.5-.1.9-.3 1.5-.3h.4c.1 0 .1.1.2.1.2.2.5.3.7.5.3.2.2.5.5.7.4.2.8 0 1-.1.4-.2.5-.6.8-.9.2-.1.3-.2.6 0 .3.1.5.3.8.3.4.1.7 0 .8-.3.2-.4.2-.8.4-1.2.1-.2.1-.4.3-.6.1-.1.3-.1.4-.1h.2s.1.1.2.1h2.2c.1 0 .2.1.2.1h.1c.5.2 1 .4 1.5.7.7.4 1.3.8 2 1.2.7.4 1.3.7 2.1.9.3.1.7.1 1 .2.3 0 .6.1.8 0 .1 0 .1-.1 0-.2s-.2-.2-.4-.3c-.2-.2-.5 0-.2.2-.2 0-.4 0-.6-.1-.3 0-.6-.1-.9-.2-.7-.2-1.4-.6-2.1-1-1.2-.7-2.4-1.6-3.7-1.8h-1.1c-.1 0-.3 0-.5.1 0 0 0-.1-.1-.1 0 0 0-.1-.1-.1 0 0 0-.1-.1-.1 0-.1 0-.1-.1-.2v-.1c0-.1-.1-.3-.2-.4.2-.1-.1-.3-.3-.3-.2-.1-.4-.3-.6-.5l-.1-.1.1-.1h.4c.3.1.5.1.7.3l.1.1c.2.1.3.3.4.4.1.1.1.1.1.2v.1c0 .1 0 .1-.1.1-.2.1.2.4.3.3.5-.2 0-.7-.4-1.1l-.2-.2c.1-.3.3-.6 1-.5.4.1.9.1 1.3.4.5.3.9.7 1.4 1 .5.3 1 .6 1.5 1 1 .6 1.9 1.2 3 1.7.5.3 1.6.7 1.9.4.1-.1 0-.2-.1-.2-.2-.1-.3-.1-.4-.1v.1c-.2 0-.5-.1-.6-.2l-1.2-.6c-.2-.1-.3-.2-.5-.3.1-.1 0-.1 0-.2s.1-.2.1-.2c0-.2 0-.4-.2-.6-.1-.2-.2-.4-.3-.7-.1-.2-.3-.5-.5-.7-1.4-.7-2.7-1.6-3.9-2.3zm-12.6 19.9c0 .1 0 .1 0 0 0 .1 0 .1 0 0v.1c-.1.1-.1.1-.2.1s-.1.1-.2.1h-.1c-.1 0-.2-.1-.2-.1-.1-.1-.2-.1-.3-.2-.2-.2-.4-.3-.6-.5h-.1c.1-.1.2-.2.4-.2l.1.1c.1.1.3.1.5.2h.2c.1 0 .1.1.2.1-.1 0 .1.1.3.3-.1 0-.1 0 0 0zm-1-2.3c0 .1.1.2.2.2-.1.1-.2.3-.3.4-.2.2-.3.4-.6.6-.3.2-.6.4-1 .6-.3.2-.7.3-1.1.5-1.2.7-2.8 1.2-4.7 1.1-.5 0-1-.1-1.5-.2-.2-.1-.4-.1-.6-.2-.2-.1-.5-.1-.7-.1-.5-.2-1-.4-1.5-.5-.5-.2-1-.4-1.4-.6-.5-.2-.9-.4-1.3-.7-.4-.3-.8-.6-1.1-.9-.7-.6-1.2-1.2-1.6-1.9-.3-.4-.5-.7-.6-1.1-.1-.4-.1-.8-.2-1.2-.1-.5 0-.8.1-1.2.1-.4 0-.9.4-1.2.1 0 .1-.1 0-.1.3.1.7.3 1 .4-.2.2-.3.4-.4.7-.3.5-.2 1.1 0 1.7.1.3.3.6.5.9.3.3.5.7.9 1l.3.3.4.4c.2.2.4.3.6.5.1 0 .1.1.2 0 .4.6 1.2.9 2 1.2.4.1.8.3 1.2.4.4.2.9.3 1.3.4.8.2 1.5.2 2.3.2.8 0 1.5 0 2.1-.3.7-.2 1.3-.5 1.9-.9.5-.4 1-.8 1.4-1.2l.1.1s.1 0 .1.1c.1 0 .2.1.3.1.2.1.3.1.5.1.3.3.6.4.8.4zm1.2-9.3c.1.4.2.7.3 1.1.1.3.1.6.1.9 0 .1.1.3.2.4 0 .1.2.3.2.4h-.5c-.2 0-.5 0-.7-.1-.4 0-.9-.1-1.3-.2-.5-.1-1-.1-1.4-.1h-1.5c-.2-.2-.5-.4-.8-.6-.3-.2-.7-.4-1-.6.1 0 .1-.1.2-.1.1-.2.2-.3.2-.5s.1-.4.1-.6c0-.2 0-.5-.1-.7-.1-.2-.2-.4-.4-.6.1.1.2.2.4.3.4.3.9.7 1.4 1 .8.5 1.8.7 2.6.6.8-.1 1.7-.3 2.1-.8 0-.1.1-.1.1-.2-.3.1-.2.3-.2.4zm-.4-2.9v.4h-.1c-.1 0-.2 0-.2.1s.1.2.3.2h.3v.2l-.1-.1c-.3-.2-.5.1-.2.2.1.1.1.3.1.3.1.1.1.3.1.4 0 .3-.1.5-.3.6-.4.3-1.1.5-1.7.5-.6.1-1.5-.1-2.1-.5-.4-.2-.7-.5-1.1-.7-.3-.3-.7-.5-.8-.8.2-.1.2-.2.2-.4s.2-.3.3-.5c.1-.1.4-.2.5-.4.1-.1.1-.2.2-.2h.4l1.5.3c.5.1 1.1.2 1.6.3 0 0 0 .1.1.1.1.1.2.1.3.1.1 0 .1-.1 0-.2v-.1l-.1-.1V128.4c0-.1.1-.1.1-.1l.1-.1h.7c.1 0 .1.1.2.1l.1.1v.1c-.5.4-.5.4-.4.5-.1-.1 0-.1 0 0z" opacity=".4"/>
            <path d="M143.1 128.8l-.6-.3c-.2 0-.4-.1-.5-.1-.3 0-.6.2-.5.5 0 .1.1.3.3.5.1.1.3.2.5.2s.1-.2-.1-.3c-.1-.1-.2-.2-.2-.3 0-.1 0-.1.1-.2s.4-.1.6 0c.3.1.5.3.6.5.1.1.1.2.1.3v.1c-.2 0-.1.3.1.3h.3v-.1-.4c0-.1-.1-.3-.2-.4-.2-.1-.4-.2-.5-.3z" opacity=".4"/>
        </g>
        <path fill="#3E8487" d="M183.6 126.3c-.9.9-2.7 1.8-4 2.9-1.1-.3-8.2-2.4-9.2-2.7-3.6-1.1-7.3-2.1-11-3.1-4.1-1.1-8-2.6-12-3.8-2.2-.6-4.4-1.2-6.6-1.9-1.3-.4-8-2-9.3-2.3 1.5-.9 4.4-1.6 5.9-2.6 1.9.5 7.8 2.2 9.7 2.7 4.1 1.2 8 2.6 12.1 3.8 3.7 1.1 7.5 2.2 11.2 3.2 2.1.5 11 3.2 13.2 3.8z"/>
        <path fill="#fff" d="M152.4 140l-53-15.6 11.1-2.9 51.8 14.9-9.9 3.6z"/>
        <path fill="#fff" d="M161.7 163.1l-10.3 3.9.9-27.3 10.1-3.4-.7 26.8z"/>
        <path stroke="#000" stroke-linecap="round" stroke-linejoin="round" stroke-miterlimit="10" stroke-width="2" d="M100.4 125.1c-8.5 2.2-12.6 3.2-33.4 1.8-.8-.1-1 1.1-.3 1.3 6.4 2.4 15.4 6.6 24.3 10.5 14.8 6.5 21.5 9 23 9.3 16.2 4.2 37.1-7 37.1-7M163.8 136.2s21.3-7.6 21.5-12.7l-43.1-12.6s-15.9 7.4-28.1 10.4"/>
        <path stroke="#000" stroke-linecap="round" stroke-linejoin="round" stroke-miterlimit="10" stroke-width="2" d="M80.5 134.5c-2.8.6-16.3.8-16.3.8-1.3.1-.8 1.2-.3 1.3l52.3 18.5h.2c.7.1 1.8.3 2.6.2 8.4-.8 21.7-6.6 32.7-11.3"/>
        <path stroke="#000" stroke-linecap="round" stroke-linejoin="round" stroke-miterlimit="10" stroke-width="2" d="M63.9 142.5l52.3 18.5h.2c.7.1 1.8.3 2.6.2 8.4-.8 21.7-6.6 32.7-11.3"/>
        <path stroke="#000" stroke-linecap="round" stroke-linejoin="round" stroke-miterlimit="10" stroke-width="2" d="M101.2 124.8l51.2 15.2-.1 27.2 10.2-3.6-.1-27.3-52-14.9-10 2.5M152.4 140l9.1-2.9"/>
        <path stroke="#000" stroke-linecap="round" stroke-linejoin="round" stroke-miterlimit="10" stroke-width="2" d="M162.4 140.1l24-9c.7-.2.6-1.2-.1-1.3l-6.8-.6M162.4 146.6l24.1-8.9M63.9 148l52.3 18.5h.2c.7.1 1.8.3 2.6.2 8.4-.8 21.7-6.6 32.7-11.3M162.4 152.1l24.1-9"/>
        <path stroke="#000" stroke-linecap="round" stroke-linejoin="round" stroke-miterlimit="10" stroke-width="2" d="M63.9 153l52.3 18.5h.2c.7.1 1.8.3 2.6.2 8.4-.8 21.7-6.6 32.7-11.3M162.4 157.1l24.1-9"/>
        <path stroke="#000" stroke-linecap="round" stroke-linejoin="round" stroke-miterlimit="10" stroke-width="2" d="M63.4 135.5s-.2 22.2.5 22.7c12.1 7 52.3 18.5 52.3 18.5h.2c.7.1 1.8.3 2.6.2 8.4-.8 21.7-6.6 32.7-11.3M162.4 161.6l24-9c.7-.2.5-22.3.5-22.3"/>
        <path stroke="#E2E2E2" stroke-linecap="round" stroke-linejoin="round" stroke-miterlimit="10" stroke-width="2" d="M106.8 124.6l45.5 13.2M154.4 141.4l-.2 22.9"/>
        <path fill="#5EA3AA" d="M83.2 133.5c-.1 0-.1 0-.2-.1-.9-.4-1.5-.7-1.6-.9-.1-.2.1-.3.6-.3-.1 0-.1-.1-.2-.1s-.2-.1-.2-.1H82.2c.1 0 .2.1.3.1.1 0 .1.1.2.1.6 0 1.1.1 1.7.2.7.1 1.3.3 1.8.5.3.1.4.2.4.2s0 .1-.1.1h-.9c-.1 0-.3-.1-.3-.1-.1 0-.2-.1-.3-.1h-.3c.3.1.5.2.8.3.5 0 1.1 0 1.7.2.6.1 1.1.3 1.6.4.1 0 .1.1.2.1.9.3 1.4.6 1.5.8.1.2-.1.3-.5.4.1 0 .2.1.3.1.1 0 .2.1.2.1H90c-.1 0-.2 0-.3-.1-.1 0-.1-.1-.2-.1-.5.1-1.1 0-1.7-.1-.7-.1-1.2-.3-1.7-.5-.3-.1-.4-.2-.4-.2s0-.1.2-.1h.9c.2 0 .3.1.3.1.1 0 .2.1.3.1h.3c-.3-.1-.4-.2-.7-.3-.6 0-1.1 0-1.8-.1-.9-.2-1.4-.4-2-.6zm.8-.4s.1.1.2.1.2.1.3.1h.3c-.3-.1-.4-.2-.7-.3-.1.1-.2.1-.1.1zm4.2 1.2s-.1-.1-.2-.1-.2-.1-.3-.1h-.3c.3.1.4.2.8.2 0 .1 0 0 0 0zM94.8 134.6c.3.1.4.2.2.2-.4.1-.6.1-1 .2-.2 0-.4 0-.7-.1-3.5-1.3-5.9-2.2-9.8-3.6-.2-.1-.3-.1-.4-.1h-.3c-.2 0-.5-.1-.8-.2-.7-.2-1-.4-1.6-.6-.3-.1-.4-.2-.2-.2h1.6c.4 0 .9.1 1.6.3 4.2 1.5 7.4 2.7 11.4 4.1zM93.3 133.7c-2.8-1-4.6-1.7-7.5-2.7-1.9-.7-2.2-1-1.3-1 1.2-.1 1.7-.1 2.8-.2.8-.1 1.9.1 3.7.7 2.7 1 4.5 1.6 7.2 2.5 1.8.6 2 .9 1.3 1-.9.2-1.4.2-2.4.4-.7.2-1.9 0-3.8-.7zm3-.7c-2.3-.8-3.6-1.3-5.9-2.1-.6-.2-1-.3-1.2-.3-.6.1-.9.1-1.5.1-.3 0-.1.1.5.3 2.4.8 3.7 1.3 6 2.1.6.2 1 .3 1.2.3.6-.1.9-.1 1.4-.2.2.1 0 0-.5-.2zM98.9 133c-2.6-.9-4.4-1.6-7.1-2.5-1.8-.6-2-.9-1.3-1 1-.1 1.4-.2 2.3-.3.7-.1 1.5 0 3.2.7 2.6 1 4.5 1.6 7 2.5 1.7.6 1.8.8 1.2.9-.7.1-1.1.2-1.9.4-.8 0-1.7-.1-3.4-.7zm2.3-.7c-2.1-.8-3.5-1.3-5.8-2.1-.5-.2-.9-.3-1.1-.2-.5.1-.7.1-1.2.2-.2 0-.1.1.5.3 2.2.8 3.6 1.3 5.8 2.1.5.2.9.3 1.1.2.5-.1.7-.1 1.1-.2.3 0 .1-.1-.4-.3zM105.2 132.5c.6.2.8.4.9.5 0 .1 0 .1-.1.2h-.4c0-.1 0-.1-.1-.2-.3 0-.6 0-1.2-.2-.3-.1-.4-.2-.8-.3-.2-.1-.3-.1-.2-.1.2 0 .4-.1.6-.1.1 0 .2 0 .4.1.5-.1.7 0 .9.1zM104.6 132c-2.4-.9-4.4-1.6-7-2.6-1.7-.6-1.9-.9-1.4-1 .6-.1.9-.2 1.4-.3.4-.1.9 0 2.7.7 2.6 1 4.7 1.7 7.2 2.6 1.6.6 1.7.7 1.3.9-.5.1-.8.2-1.4.3-.6.1-1.2 0-2.8-.6zm1.5-.6c-2.1-.8-3.6-1.3-5.9-2.1-.6-.2-.9-.3-1-.3-.3.1-.4.1-.8.2-.1 0 0 .1.6.3 2.2.8 3.7 1.3 5.8 2.1.5.2.8.3 1 .2.3-.1.5-.1.8-.2.2.1.1 0-.5-.2zM107.8 131.3c-2.5-.9-4.6-1.6-7.3-2.6-1.8-.6-2-.8-1.7-.9.3-.1.5-.1.6-.2.1 0 .6.1 2.5.7 2.9.9 5.3 1.7 8 2.5 1.8.5 1.8.6 1.5.7-.4.1-.7.2-1.2.3-.3.2-.7.1-2.4-.5zm1-.6c-2.3-.7-4-1.3-6.4-2.1-.6-.2-.9-.3-1-.3-.1 0-.2.1-.4.1-.1 0 .1.1.7.3 2.3.8 3.9 1.4 6.1 2.1.5.2.8.3.9.2.3-.1.4-.1.6-.2.2.2 0 .1-.5-.1zM110.2 130.7c-2.7-.8-5.2-1.5-8.1-2.4-2-.6-2.3-.7-2.3-.7s1.9-.6 2.5-.7c.4-.1.6 0 2.5.6 2.8.9 5.3 1.7 7.9 2.5 1.7.5 1.6.6 1.3.7-.4.1-.7.3-1.1.4-.5.1-.9.2-2.7-.4zm1.2-.7c-2.2-.7-4-1.3-6.4-2.1-.6-.2-.9-.3-1.1-.2-.4.1-.6.2-1.3.4-.3.1-.1.2.5.4 2.6.8 4.5 1.3 6.9 2 .6.2.9.2 1.1.2.4-.1.5-.2.8-.2.2-.2 0-.3-.5-.5z"/>
        <path fill="#90CEDD" d="M217.2 94.9h-43v-80c0-1.9 1.5-3.4 3.4-3.4h36.1c1.9 0 3.4 1.5 3.4 3.4v80h.1z"/>
        <path stroke="#000" stroke-linecap="round" stroke-linejoin="round" stroke-miterlimit="10" stroke-width="2.18" d="M217.2 94.9h-43v-80c0-1.9 1.5-3.4 3.4-3.4h36.1c1.9 0 3.4 1.5 3.4 3.4v80h.1z"/>
        <path fill="#3E8487" d="M217.2 94.9h20.2V40.4c0-1.1-.9-2-2-2h-18.2v56.5zM174.2 94.9H154V40.4c0-1.1.9-2 2-2h18.2v56.5z"/>
        <path fill="#354C48" d="M174.2 94.9h-5V39.4c0-.5.4-1 1-1h4v56.5zM222.5 94.9h-5V39.4c0-.5.4-1 1-1h4v56.5z" opacity=".6"/>
        <path stroke="#000" stroke-linecap="round" stroke-linejoin="round" stroke-miterlimit="10" stroke-width="2.18" d="M217.2 94.9h20.2V40.4c0-1.1-.9-2-2-2h-18.2v56.5zM174.2 94.9H154V40.4c0-1.1.9-2 2-2h18.2v56.5z"/>
        <path fill="#FAD45C" d="M211.2 11.4h-28.7V3.1c0-1.1.9-2 2-2h24.7c1.1 0 2 .9 2 2v8.3z"/>
        <path stroke="#000" stroke-linecap="round" stroke-linejoin="round" stroke-miterlimit="10" stroke-width="2.18" d="M211.2 11.4h-28.7V3.1c0-1.1.9-2 2-2h24.7c1.1 0 2 .9 2 2v8.3z"/>
        <path fill="#8DA087" d="M205.2 94.9h-19V78.7c0-1.2 1-2.2 2.2-2.2h14.5c1.2 0 2.2 1 2.2 2.2v16.2h.1z"/>
        <path stroke="#000" stroke-linecap="round" stroke-linejoin="round" stroke-miterlimit="10" stroke-width="2.18" d="M205.2 94.9h-19V78.7c0-1.2 1-2.2 2.2-2.2h14.5c1.2 0 2.2 1 2.2 2.2v16.2h.1z"/>
        <path fill="#C3E0DC" d="M190.9 22.2h-8.3v8.3h8.3v-8.3zM208.8 22.2h-8.3v8.3h8.3v-8.3zM190.9 39.3h-8.3v8.3h8.3v-8.3zM208.8 39.3h-8.3v8.3h8.3v-8.3zM190.9 56.4h-8.3v8.3h8.3v-8.3zM208.8 56.4h-8.3v8.3h8.3v-8.3z"/>
        <path stroke="#000" stroke-linecap="round" stroke-linejoin="round" stroke-miterlimit="10" stroke-width="2.18" d="M190.9 22.2h-8.3v8.3h8.3v-8.3zM208.8 22.2h-8.3v8.3h8.3v-8.3zM190.9 56.4h-8.3v8.3h8.3v-8.3zM208.8 56.4h-8.3v8.3h8.3v-8.3zM154.1 50.2h20.1M217.5 50.2H237M190.9 39.3h-8.3v8.3h8.3v-8.3zM208.8 39.3h-8.3v8.3h8.3v-8.3z"/>
        <path stroke="#E2E2E2" stroke-linecap="round" stroke-linejoin="round" stroke-miterlimit="10" stroke-width="2" d="M195.7 79.3v12.6"/>
        <path fill="#C3E0DC" d="M43.52 93.833h65.199v-62h-65.2v62z"/>
        <path fill="#5E7C76" d="M43.6 31.8H32.1v62h11.5v-62z"/>
        <path stroke="#000" stroke-linecap="round" stroke-linejoin="round" stroke-miterlimit="10" stroke-width="2.18" d="M43.6 31.8H32.1v62h11.5v-62z"/>
        <path stroke="#000" stroke-linecap="round" stroke-linejoin="round" stroke-miterlimit="10" stroke-width="2.18" d="M43.52 93.833h65.199v-62h-65.2v62z"/>
        <path fill="#F79FA8" d="M46.4 32.2s-2.9-1-2.9 1.2-1 12.6 2.4 12.8c3.4.2 63.2.7 63.4-1.4l-.7-11.6s1.9-.9-4-.9-58.2-.1-58.2-.1z"/>
        <path stroke="#000" stroke-linecap="round" stroke-linejoin="round" stroke-miterlimit="10" stroke-width="2.18" d="M36 41.5v49.2M39.9 34.8v49.7M56.1 41.1c1.38 0 2.5-1.12 2.5-2.5s-1.12-2.5-2.5-2.5-2.5 1.12-2.5 2.5 1.12 2.5 2.5 2.5zM76.4 41.1c1.38 0 2.5-1.12 2.5-2.5s-1.12-2.5-2.5-2.5-2.5 1.12-2.5 2.5 1.12 2.5 2.5 2.5zM96.8 41.1c1.38 0 2.5-1.12 2.5-2.5s-1.12-2.5-2.5-2.5-2.5 1.12-2.5 2.5 1.12 2.5 2.5 2.5z"/>
        <path stroke="#000" stroke-linecap="round" stroke-linejoin="round" stroke-miterlimit="10" stroke-width="2.18" d="M50 31.7c0-3.6 2.9-6.5 6.5-6.5s6.5 2.9 6.5 6.5-2.9 6.5-6.5 6.5M70.2 31.7c0-3.6 2.9-6.5 6.5-6.5s6.5 2.9 6.5 6.5-2.9 6.5-6.5 6.5M90.5 31.7c0-3.6 2.9-6.5 6.5-6.5s6.5 2.9 6.5 6.5-2.9 6.5-6.5 6.5"/>
        <path fill="#fff" d="M49 46l55.3.2s4.7-.9 5 1c.3 1.9 1.5 21.6 21.2 36.5 0 0 1.1.9.6 1.9-.5 1-1.9 2.1-4.7 2.1-2.8 0-57.2-.5-57.2-.5s-4.2-.2-6.4-2.8C60.6 81.8 49 69.6 45 53.6c0 0-2.4-8-.2-8.1l4.2.5z"/>
        <path stroke="#000" stroke-linecap="round" stroke-linejoin="round" stroke-miterlimit="10" stroke-width="2.18" d="M43.9 45.8H109M59.9 59.8H101M65 70.4h42M70.4 51.3S74.1 65.9 84 78.8M87.3 50.5s1.6 14.2 15.2 28"/>
        <path stroke="#000" stroke-linecap="round" stroke-linejoin="round" stroke-miterlimit="10" stroke-width="2.18" d="M108.8 31.8c0 9.8-1.9 34.1 21.7 51.9 1.7 1.3.4 4.1-1.7 4.1l-58.5-.5c-3.4 0-6.6-1.4-8.9-3.8-19.4-20.9-17.8-43-17.8-51.7h65.2z"/>
        <path fill="#F79FA8" d="M176.1 114s10.6-1.7 12.4-6.4L179 106l13.7-6.3 9.1 9.7-8.2-1.1s-.4 7.1-7.1 8.2l-10.4-2.5z"/>
        <path stroke="#000" stroke-linecap="round" stroke-linejoin="round" stroke-miterlimit="10" stroke-width="2.18" d="M176.1 114s10.6-1.7 12.4-6.4L179 106l13.7-6.3 9.1 9.7-8.2-1.1s-.4 7.1-7.1 8.2l-10.4-2.5z"/>
    </g>
    <defs>
        <clipPath id="clip0">
            <path fill="#fff" d="M0 0H207.5V177.9H0z" transform="translate(31)"/>
        </clipPath>
    </defs>
</svg>
