<svg xmlns="http://www.w3.org/2000/svg" width="240" height="193" fill="none" viewBox="0 0 240 193">
    <g clip-path="url(#clip0)">
        <path fill="#3E8487" d="M144.322 125.157l.177 18.019s20.948-6.124 21.301-7.988c.442-1.864.265-17.398-.088-18.108-.442-.71-2.74.444-3.713.621-.883.178-17.412 6.214-17.412 6.214l-.265 1.242zM56.554 123.471v13.669s-.884 3.373 4.86 5.238c5.746 1.864 40.129 14.113 40.129 14.113s4.596 1.509 10.694-.621c6.099-2.131 20.241-7.368 20.241-7.368s2.917-.444 2.917-4.793-.177-14.912-.177-14.912.884-2.131-3.182-.178c-4.154 2.042-15.733 8.344-27.223 9.232-.53.088-45.785-16.155-45.785-16.155s-2.916-.711-2.474 1.775z"/>
        <path fill="#73BAC6" d="M70.872 119.654s-1.856.976-8.485.533c0 0-5.48-.356-5.834.177-.353.533.266 1.065 4.508 2.485 4.243 1.421 42.338 14.913 42.338 14.913s3.093.355 8.22-.977c5.038-1.42 52.678-20.06 52.678-20.06s3.624-.799-.53-1.687l-2.563-.444-30.582 8.255-59.75-3.195z"/>
        <path fill="#90CEDD" d="M103.664 106.961c5.568-2.219 10.341-2.841 22.45-8.7l37.565 11.185s2.209 3.462-12.109 8.788c-11.491 4.26-23.511 9.941-35.532 13.226-6.275 1.686-14.761-.089-14.761-.089s-33.145-13.847-42.072-17.753c-.177-.089.619-.71.619-.71s20.152 3.639 43.84-5.947z"/>
        <g opacity=".4">
            <path fill="#3E8487" d="M120.634 103.233c-.265-.178-.619-.355-.884-.444-.265-.089-.618-.178-.884-.089-.353 0-.618.089-.883.089-.177 0-.354 0-.442.089-.177.088-.266.177-.442.266-.265.177-.531.355-.619.532-.088.267-.177.533-.177.799 0 .178-.088.267-.088.444v.178c0 .177-.089.266-.089.355 0 .088.089.088.177.177.089.444.442.888.972 1.154l.089.089c.177.266.442.533.707.799.265.266.619.532.972.799.265.177.354.443.707.621.265.178.619.266.884.266.265.089.531.089.796.089h.265l.088.089.089.089.088.088v.178c0 .089.177.177.265.177.089 0 .177 0 .177-.088 0-.089-.088-.178-.088-.267l-.266-.266-.176-.177c.265-.089.442-.267 0-.533-.266-.178-.442 0-.177.177 0 0-.089 0-.089.089-.088 0-.265.089-.353.089-.265 0-.707-.089-1.061-.178-.265-.088-.442-.177-.618-.355-.177-.177-.354-.355-.619-.532-.442-.355-.884-.71-1.149-1.154.353 0 .53-.266.884-.444.265-.089.618-.089.972 0 .353 0 .707.089 1.149.089.177 0 .265 0 .354-.089 0 0 0-.089.088-.089h.53c-.088.089-.177.178-.177.355 0 .089-.088.267 0 .444.089.178.266.267.442.267.266 0 .177-.267-.088-.267v-.089c0-.088 0-.177.088-.177 0-.089.089-.089.089-.178l.088-.088h.089c.088 0 .088 0 .176.088h.089s0 .089.088.089c0 .089.088.178.088.266 0 .089 0 .267-.088.356 0 .088-.088.266-.088.355v.177c-.089 0-.177.178 0 .266 0 0 .088 0 .088.089.088.089.177.089.265 0 .089-.089.089-.177.089-.355 0-.177.088-.266.088-.444 0-.177.088-.266 0-.444 0-.088-.088-.177-.088-.266 0-.089 0-.177-.089-.266-.088-.178-.353-.266-.53-.266-.177-.089-.354-.089-.442 0l.088-.089c.354-.266.707-.622.531-1.154-.177-.444-.796-.888-1.238-1.243-.265-.089-.442-.355-.707-.532zM126.91 117.612c-.089 0-.089-.088 0 0-.265-.088-.354 0-.265.089-.089.089-.354.089-.442.089-.266.089-.531.089-.796-.089-.265-.089-.442-.266-.707-.266-.265-.089-.442 0-.619 0-.442.177-.442-.533-.442-.71 0-.089.089-.267.089-.355 0-.089-.177-.178-.265-.267-.177-.088-.266-.266-.442-.355-.089 0-.177-.088-.177 0h-.088c-.177.089.088.267.265.267l.265.266s.088.089.088 0v.089c0 .088-.088.266-.088.355 0 .266.088.621.442.799.177.088.353.177.53.088.089 0 .265-.088.442-.088l.53.266c.266.089.531.177.707.177.266 0 .442 0 .619-.088.177 0 .442-.089.531-.267 0 .089-.089 0-.177 0z" opacity=".4"/>
            <g opacity=".4">
                <path fill="#3E8487" d="M106.227 116.725c-.088-.089-.088-.089 0 0-.088-.089-.088-.089 0 0zM109.055 111.754c-.442-.178-.883-.355-1.325-.444-.442 0-.884.089-1.238.178-.53.088-.972.177-1.414.443-.707.444-.796 1.243-.796 1.953 0 .444.089.888.266 1.332.088.266.176.444.353.71.177.266.442.444.707.621v.089l.089.089s.088 0 .088.088h.619c.088 0 .088 0 .177-.088.088-.178.088-.444.088-.71 0-.267 0-.444.088-.622 0-.177.089-.355.177-.532.088-.178.177-.444.354-.533.353-.266 1.06-.089 1.591-.089.265 0 .442 0 .707.089.088 0 .353.089.53.178 0 .088.177.177.265.177h.089c.088 0 .088-.089.176-.177l.089-.089.088-.089s.089-.089 0-.089c.089-.177-.088-.355-.177-.532-.176-.267-.265-.533-.442-.799-.265-.621-.618-.977-1.149-1.154z" opacity=".4"/>
            </g>
            <path fill="#3E8487" d="M110.204 122.139c-.176.089.089.355.354.267.088-.089-.177-.355-.354-.267z" opacity=".4"/>
            <path fill="#3E8487" d="M129.296 109.712c-1.061-.621-2.121-1.242-3.27-1.331-.531-.089-.973-.089-1.503 0-.53 0-.972.089-1.326.355-.353.266-.707.621-.972.976-.088.178-.265.355-.353.533-.089.177-.266.355-.177.533.088.177.442.177.353 0l.089-.178c.088-.089.088-.178.176-.266.089-.178.177-.267.266-.444.176-.266.442-.533.795-.799.177-.089.265-.266.442-.266.177-.089.442-.089.707-.089.442-.089.884-.089 1.326 0 .442 0 .972.177 1.414.355.53.178 1.061.444 1.503.71.53.266.972.533 1.502.888.265.177.442.355.619.444.265.177.442.355.707.532.442.444.707.799.884 1.243l.265.532v.356c-.088 0-.088 0-.088.088l-1.326-.799c-.707-.443-1.414-.887-2.033-1.42-.265-.177-.619-.444-.884-.532-.265-.089-.53-.089-.795-.178-.707-.089-1.061.089-1.149.444-.089 0-.177-.089-.177-.089-.265-.089-.707-.266-.972-.177-.089 0-.266.088-.266.177-.176-.089-.441-.266-.618-.266-.531-.178-1.149-.178-1.591-.178-.619 0-1.238.178-1.591.444-.442.355-.796.71-.972 1.243v.089h-.177c-.177.088-.354.266-.442.443-.089.178-.089.355-.089.533 0 .355.177.71.531.976h-.707c-.177 0-.265.089-.442.089-.089-.089-.177-.089-.265-.089l-.089.089c0-.177 0-.355-.177-.444-.176-.177-.442-.443-.707-.532-.176-.089-.265-.089-.442-.089 0-.266-.088-.533-.353-.799-.354-.355-.707-.71-1.149-.976-.442-.267-.972-.533-1.503-.71-.53-.178-.972-.178-1.414-.178-.442 0-.972 0-1.237.266-.266.267-.442.622-.531.888-.088.355-.176.71-.088 1.065.088.444.265.888.53 1.332v.088l-.177-.177c-.176-.178-.353-.355-.618-.444-.265-.089-.354.178-.089.266.089 0 .177.178.266.178l.265.266.442.444c.353.355.707.71.883 1.065.177.266.177.621.089.888 0 .177 0 .266-.089.444 0 .088-.088.088-.088.177 0 0-.088.178-.177.089h-.088c-.53-.178-1.061-.266-1.591-.355-.354-.089-.619-.089-.972-.178-.354-.088-.707-.088-1.061-.177-.265 0-.619-.089-.884 0-.265-.178-.442-.355-.619-.533-.088-.089-.176-.177-.265-.355-.088-.089-.176-.177-.088-.177 0-.089 0-.089-.088-.178-.089-.089-.266-.089-.266 0-.176.178.266.621.442.799.177.177.354.355.531.444-.177 0-.354.089-.442.089-.619.177-1.149.355-1.768.532-.354.089-.53.266-.796.444l-.795.533-.53.532h-.089c-.442-.177-.795-.355-1.237-.444-.177-.088-.354-.088-.53-.177-.089 0-.266-.089-.354-.089 0-.089 0-.089-.088-.178-.089-.088-.177-.088-.266 0h-.088c-.088 0-.088.089 0 .178.088.178.354.266.53.266.177.089.354.178.619.178h0c-.265.177-.265.444-.353.799-.089.355-.177.621-.266.976-.088.266 0 .621 0 .888 0 .266.089.621.177.887.089.355.265.622.53.977.266.355.442.71.796.976.53.622 1.149 1.154 1.944 1.687.442.266.884.444 1.326.71l1.326.532c.442.178.972.355 1.414.533.265.089.442.089.707.178.266.088.442.088.707.177 1.857.355 3.624 0 4.862-.621.353-.178.707-.444 1.149-.622l.53-.266c.177.178.354.266.53.444.177.177.354.266.531.355.265.089.53 0 .707-.089.177-.089.353-.177.442-.266.088-.089.088-.178 0-.266-.089-.089-.265-.178-.354-.267-.177-.088-.353-.266-.53-.266-.088 0-.177-.089-.265-.089h-.089s-.088 0-.088-.089c.177-.177.265-.355.442-.443.177-.178.353-.355.353-.622 0 0 0-.088-.088-.088 0-.089-.088-.178-.177-.178-.265-.089-.618-.178-.884-.266-.265-.089-.618-.178-.795-.267h-.088c.265-.266.442-.621.53-.976.177-.444-.088-.888-.265-1.331-.089-.178-.177-.444-.265-.622h.176c.177 0 .354.089.531.089.353.089.795.089 1.149.178.353.088.707.088 1.149.177.265 0 .53 0 .795.089h.089c0 .177.088.444.088.621 0 .089 0 .266.088.355.089.089.177.266.177.355 0 .089.089.089.089.178.176.089.353.177.618.177.265.089.442.178.707.267.442.177.973.177 1.415.266.972.089 1.856-.089 2.651-.266.796-.178 1.68-.355 2.387-.622.795-.266 1.591-.532 2.298-.799.707-.355 1.325-.798 2.033-1.154.707-.355 1.237-.71 1.856-1.065.265-.177.53-.355.707-.621.177-.266.442-.444.53-.71.089-.266.089-.533 0-.799-.088-.355-.353-.533-.619-.888l-.53-.532c-.177-.178-.442-.355-.619-.444-.442-.266-.972-.533-1.502-.71-.442-.178-.972-.444-1.414-.622-.177-.088-.442-.088-.619-.177-.088-.089-.088-.089-.177-.089h-.177c-.088 0-.176 0-.265-.089-.088 0-.177-.088-.265-.088h-.265c-.089 0-.177 0-.177.088v.089c-.353 0-.707.178-.795.266-.177.178-.354.355-.354.622-.088.266-.177.444-.088.71 0 .444.265.976.53 1.42.177.266.265.621.354.888.088.266.265.532.265.799 0 .266-.177.443-.177.621-.088.266-.265.444-.619.533-.265.088-.707.177-.972.266-.265.089-.707.089-.972.089-.354 0-.619 0-.973-.089H121.253c-.354 0-.707-.089-.972.089-.177.177-.177.443-.177.71-.177-.089-.442-.089-.619-.089-.353 0-.707-.089-1.061-.178-.353-.088-.795-.177-1.149-.177-.176 0-.442-.089-.618-.089-.089 0-.177 0-.354-.089l-.265-.532c-.265-.444-.53-.888-.972-1.332h.972c.354 0 .795 0 1.237.089.796.089 1.68.266 2.387.266.265 0 .353-.177.265-.355-.088-.266-.265-.532-.265-.799-.089-.621-.177-1.242-.442-1.952-.088-.267-.177-.622-.265-.888v-.444c0-.089.088-.089.088-.177h.089c.441-.089.795-.267 1.325-.267h.354c.088 0 .088.089.177.089.176.178.442.266.618.444.266.177.177.444.442.621.354.178.707 0 .884-.088.354-.178.442-.533.707-.799.177-.089.265-.178.531 0 .265.088.442.266.707.266.353.089.618 0 .707-.266.177-.355.177-.71.353-1.065.089-.178.089-.356.265-.533.089-.089.266-.089.354-.089h.177s.088.089.177.089h1.944c.088 0 .177.089.177.089h.088c.442.177.884.355 1.326.621.619.355 1.149.71 1.768 1.065s1.149.622 1.856.799c.265.089.619.089.884.178.265 0 .53.088.707 0 .088 0 .088-.089 0-.178s-.177-.177-.354-.266c-.176-.178-.442 0-.176.177-.177 0-.354 0-.531-.088-.265 0-.53-.089-.795-.178-.619-.177-1.238-.533-1.856-.888-1.061-.621-2.122-1.42-3.271-1.597h-.972c-.088 0-.265 0-.442.088 0 0 0-.088-.088-.088 0 0 0-.089-.089-.089 0 0 0-.089-.088-.089 0-.089 0-.089-.088-.177v-.089c0-.089-.089-.266-.177-.355.177-.089-.089-.267-.265-.267-.177-.088-.354-.266-.531-.443l-.088-.089.088-.089h.354c.265.089.442.089.619.266l.088.089c.177.089.265.266.354.355.088.089.088.089.088.178v.089c0 .088 0 .088-.088.088-.177.089.176.355.265.267.442-.178 0-.622-.354-.977l-.177-.177c.089-.267.266-.533.884-.444.354.089.796.089 1.149.355.442.266.796.621 1.238.888.442.266.884.532 1.325.887.884.533 1.68 1.065 2.652 1.509.442.266 1.414.622 1.679.355.089-.089 0-.177-.088-.177-.177-.089-.265-.089-.353-.089v.089c-.177 0-.442-.089-.531-.178l-1.06-.532c-.177-.089-.266-.178-.442-.267.088-.088 0-.088 0-.177s.088-.178.088-.178c0-.177 0-.355-.177-.532-.088-.178-.177-.355-.265-.622-.088-.177-.265-.444-.442-.621-1.237-.621-2.386-1.42-3.447-2.042zm-11.137 17.664c0 .089 0 .089 0 0 0 .089 0 .089 0 0v.089c-.088.089-.088.089-.177.089-.088 0-.088.089-.176.089h-.089c-.088 0-.176-.089-.176-.089-.089-.089-.177-.089-.266-.178-.176-.177-.353-.266-.53-.443h-.088c.088-.089.176-.178.353-.178l.089.089c.088.089.265.089.442.177h.176c.089 0 .089.089.177.089-.088 0 .088.089.265.266-.088 0-.088 0 0 0zm-.884-2.041c0 .089.089.177.177.177-.088.089-.177.267-.265.355-.177.178-.265.355-.53.533-.265.178-.531.355-.884.533-.265.177-.619.266-.972.443-1.061.622-2.475 1.066-4.155.977-.442 0-.884-.089-1.325-.178-.177-.088-.354-.088-.531-.177-.177-.089-.442-.089-.618-.089-.442-.178-.884-.355-1.326-.444-.442-.177-.884-.355-1.238-.532-.442-.178-.795-.355-1.149-.622-.353-.266-.707-.532-.972-.799-.619-.532-1.061-1.065-1.414-1.686-.265-.355-.442-.622-.531-.977-.088-.355-.088-.71-.176-1.065-.089-.444 0-.71.088-1.065s0-.799.354-1.065c.088 0 .088-.089 0-.089.265.089.618.266.884.355-.177.178-.266.355-.354.622-.265.443-.177.976 0 1.509.088.266.265.532.442.798.265.267.442.622.795.888l.266.266.353.355c.177.178.354.267.53.444.089 0 .089.089.177 0 .354.533 1.061.799 1.768 1.065.353.089.707.267 1.061.355.353.178.795.267 1.149.356.707.177 1.325.177 2.033.177.707 0 1.325 0 1.856-.266.618-.178 1.149-.444 1.679-.799.442-.355.884-.71 1.237-1.065l.089.088s.088 0 .088.089c.089 0 .177.089.265.089.177.089.266.089.442.089.265.266.531.355.707.355zm1.061-8.255c.088.355.177.621.265.976.089.266.089.533.089.799 0 .089.088.266.176.355 0 .089.177.266.177.355h-.442c-.177 0-.442 0-.619-.089-.353 0-.795-.088-1.149-.177-.441-.089-.883-.089-1.237-.089h-1.326c-.177-.177-.442-.355-.707-.532-.265-.178-.619-.356-.884-.533.089 0 .089-.089.177-.089.088-.177.177-.266.177-.444 0-.177.088-.355.088-.532 0-.178 0-.444-.088-.622-.089-.177-.177-.355-.354-.532.089.089.177.177.354.266.353.266.795.621 1.237.888.707.444 1.591.621 2.298.532.707-.088 1.503-.266 1.856-.71 0-.089.089-.089.089-.177-.265.088-.177.266-.177.355zm-.354-2.574v.355h-.088c-.088 0-.177 0-.177.088 0 .089.089.178.265.178h.266v.177l-.089-.088c-.265-.178-.442.088-.177.177.089.089.089.267.089.267.088.088.088.266.088.355 0 .266-.088.443-.265.532-.353.266-.972.444-1.502.444-.531.089-1.326-.089-1.857-.444-.353-.177-.618-.444-.972-.621-.265-.266-.619-.444-.707-.71.177-.089.177-.178.177-.355 0-.178.177-.267.265-.444.088-.089.354-.178.442-.355.088-.089.088-.178.177-.178h.353l1.326.267c.442.088.972.177 1.414.266 0 0 0 .089.089.089.088.088.176.088.265.088.088 0 .088-.088 0-.177v-.089l-.089-.089v-.266c0-.089.089-.089.089-.089l.088-.088H118.071c.088 0 .088.088.177.088l.088.089v.089c-.442.355-.442.355-.354.444-.088-.089 0-.089 0 0z" opacity=".4"/>
            <path fill="#3E8487" d="M126.998 114.328l-.53-.266c-.177 0-.354-.089-.442-.089-.265 0-.531.178-.442.444 0 .089.088.266.265.444.088.088.265.177.442.177s.088-.177-.089-.266c-.088-.089-.176-.178-.176-.266 0-.089 0-.089.088-.178s.354-.089.53 0c.266.089.442.266.531.444.088.089.088.177.088.266v.089c-.177 0-.088.266.088.266h.266v-.089-.355c0-.088-.089-.266-.177-.355-.177-.088-.354-.177-.442-.266z" opacity=".4"/>
        </g>
        <path fill="#3E8487" d="M162.795 112.109c-.796.799-2.387 1.598-3.536 2.574-.972-.266-7.247-2.13-8.131-2.396-3.182-.977-6.453-1.865-9.723-2.752-3.624-.977-7.071-2.308-10.606-3.373-1.945-.533-3.889-1.065-5.834-1.687-1.149-.355-7.071-1.775-8.22-2.041 1.326-.799 3.889-1.421 5.215-2.308 1.679.444 6.894 1.953 8.574 2.396 3.623 1.066 7.07 2.308 10.694 3.374 3.271.976 6.629 1.952 9.9 2.84 1.856.444 9.722 2.84 11.667 3.373z"/>
        <path fill="#fff" d="M135.218 124.27l-46.845-13.848 9.81-2.574 45.785 13.226-8.75 3.196z"/>
        <path fill="#fff" d="M143.438 144.774l-9.104 3.462.796-24.233 8.927-3.018-.619 23.789z"/>
        <path stroke="#000" stroke-linecap="round" stroke-linejoin="round" stroke-miterlimit="10" stroke-width="1.5" d="M89.257 111.044c-7.513 1.953-11.137 2.84-29.522 1.598-.707-.089-.883.976-.265 1.154 5.657 2.13 13.612 5.858 21.478 9.32 13.082 5.769 19.004 7.989 20.329 8.255 14.319 3.728 32.792-6.214 32.792-6.214M145.294 120.897s18.827-6.746 19.004-11.273l-38.095-11.185s-14.054 6.569-24.837 9.232"/>
        <path stroke="#000" stroke-linecap="round" stroke-linejoin="round" stroke-miterlimit="10" stroke-width="1.5" d="M71.668 119.388c-2.475.532-14.407.71-14.407.71-1.15.089-.707 1.065-.266 1.154l46.227 16.421h.177c.618.089 1.591.266 2.298.178 7.424-.711 19.18-5.859 28.902-10.031"/>
        <path stroke="#000" stroke-linecap="round" stroke-linejoin="round" stroke-miterlimit="10" stroke-width="1.5" d="M56.995 126.489l46.227 16.421h.177c.618.089 1.591.266 2.298.178 7.424-.71 19.18-5.859 28.902-10.031"/>
        <path stroke="#000" stroke-linecap="round" stroke-linejoin="round" stroke-miterlimit="10" stroke-width="1.5" d="M89.964 110.778l45.254 13.492-.088 24.143 9.015-3.195-.088-24.233-45.961-13.225-8.84 2.219M135.218 124.27l8.043-2.574"/>
        <path stroke="#000" stroke-linecap="round" stroke-linejoin="round" stroke-miterlimit="10" stroke-width="1.5" d="M144.057 124.358l21.213-7.988c.618-.178.53-1.066-.089-1.154l-6.01-.533M144.057 130.128l21.301-7.9M56.995 131.371l46.227 16.421h.177c.618.089 1.591.266 2.298.178 7.424-.71 19.18-5.859 28.902-10.031M144.057 135.01l21.301-7.989"/>
        <path stroke="#000" stroke-linecap="round" stroke-linejoin="round" stroke-miterlimit="10" stroke-width="1.5" d="M56.995 135.809l46.227 16.421h.177c.618.089 1.591.267 2.298.178 7.424-.71 19.18-5.859 28.902-10.03M144.057 139.448l21.301-7.988"/>
        <path stroke="#000" stroke-linecap="round" stroke-linejoin="round" stroke-miterlimit="10" stroke-width="1.5" d="M56.553 120.275s-.176 19.706.443 20.15c10.694 6.213 46.226 16.421 46.226 16.421h.177c.618.089 1.591.266 2.298.178 7.424-.711 19.18-5.859 28.902-10.031M144.057 143.443l21.213-7.989c.618-.178.441-19.794.441-19.794"/>
        <path stroke="#E2E2E2" stroke-linecap="round" stroke-linejoin="round" stroke-miterlimit="10" stroke-width="1.5" d="M94.914 110.6l40.216 11.717M136.986 125.512l-.177 20.327"/>
        <path fill="#5EA3AA" d="M74.054 118.5c-.088 0-.088 0-.177-.089-.795-.355-1.325-.621-1.414-.799-.088-.177.089-.266.53-.266-.088 0-.088-.089-.176-.089-.089 0-.177-.088-.177-.088h.53c.089 0 .177.088.266.088.088 0 .088.089.176.089.53 0 .973.089 1.503.178.619.088 1.149.266 1.59.443.266.089.354.178.354.178s0 .089-.088.089H76.176c-.089 0-.266-.089-.266-.089-.088 0-.176-.089-.265-.089h-.265c.265.089.442.178.707.266.442 0 .972 0 1.503.178.53.089.972.266 1.414.355.088 0 .088.089.177.089.795.266 1.237.532 1.326.71.088.177-.089.266-.443.355.089 0 .177.089.266.089.088 0 .177.089.177.089h-.443c-.088 0-.176 0-.265-.089-.088 0-.088-.089-.176-.089-.442.089-.973 0-1.503-.089-.619-.089-1.06-.266-1.503-.444-.265-.088-.353-.177-.353-.177s0-.089.177-.089H77.236c.177 0 .265.089.265.089.089 0 .177.089.265.089h.266c-.266-.089-.354-.178-.62-.267-.53 0-.971 0-1.59-.088-.796-.178-1.237-.355-1.768-.533zm.707-.355s.089.089.177.089.177.088.265.088h.265c-.265-.088-.353-.177-.618-.266-.089.089-.177.089-.089.089zm3.713 1.065s-.089-.089-.177-.089c-.089 0-.177-.088-.265-.088h-.266c.266.088.354.177.708.177 0 .089 0 0 0 0zM84.307 119.476c.265.089.354.178.177.178-.354.089-.53.089-.884.177-.177 0-.353 0-.619-.088-3.093-1.154-5.215-1.953-8.662-3.196-.176-.089-.265-.089-.353-.089H73.7c-.177 0-.442-.088-.707-.177-.62-.178-.884-.355-1.415-.533-.265-.088-.353-.177-.176-.177h1.414c.353 0 .795.089 1.414.266 3.712 1.332 6.54 2.397 10.076 3.639zM82.981 118.678c-2.474-.888-4.065-1.509-6.629-2.397-1.679-.621-1.944-.888-1.149-.888 1.061-.089 1.503-.089 2.475-.177.707-.089 1.68.088 3.27.621 2.387.888 3.978 1.42 6.364 2.219 1.591.533 1.768.799 1.15.888-.796.177-1.238.177-2.122.355-.619.177-1.68 0-3.359-.621zm2.652-.622c-2.033-.71-3.182-1.154-5.215-1.864-.53-.177-.884-.266-1.06-.266-.53.089-.796.089-1.326.089-.266 0-.089.088.442.266 2.12.71 3.27 1.154 5.303 1.864.53.177.884.266 1.06.266.53-.089.796-.089 1.238-.177.177.088 0 0-.442-.178zM87.931 118.056c-2.298-.799-3.89-1.42-6.275-2.219-1.592-.532-1.768-.799-1.15-.888.884-.088 1.238-.177 2.033-.266.62-.089 1.326 0 2.829.622 2.298.887 3.977 1.42 6.187 2.219 1.502.532 1.59.71 1.06.798-.618.089-.972.178-1.679.356-.707 0-1.502-.089-3.005-.622zm2.033-.621c-1.856-.71-3.094-1.154-5.127-1.864-.442-.178-.795-.266-.972-.178-.442.089-.618.089-1.06.178-.177 0-.089.089.441.266 1.945.71 3.182 1.154 5.127 1.864.442.178.795.266.972.178.442-.089.619-.089.972-.178.266 0 .089-.089-.353-.266zM93.5 117.612c.53.178.707.355.795.444 0 .089 0 .089-.088.178h-.354c0-.089 0-.089-.088-.178-.266 0-.53 0-1.061-.177-.265-.089-.354-.178-.707-.267-.177-.088-.265-.088-.177-.088.177 0 .354-.089.53-.089.089 0 .177 0 .354.089.442-.089.619 0 .795.088zM92.97 117.169c-2.122-.799-3.89-1.421-6.188-2.308-1.502-.533-1.68-.799-1.237-.888.53-.089.795-.177 1.237-.266.354-.089.796 0 2.386.621 2.299.888 4.155 1.509 6.364 2.308 1.415.533 1.503.621 1.15.799-.442.089-.708.177-1.238.266-.53.089-1.06 0-2.475-.532zm1.325-.533c-1.856-.71-3.182-1.154-5.215-1.864-.53-.178-.795-.266-.884-.266-.265.088-.353.088-.707.177-.088 0 0 .089.53.266 1.945.711 3.27 1.154 5.127 1.865.442.177.707.266.884.177.265-.089.442-.089.707-.177.177.088.088-.001-.442-.178zM95.797 116.547c-2.21-.799-4.065-1.42-6.452-2.308-1.59-.532-1.768-.71-1.502-.799.265-.088.441-.088.53-.177.088 0 .53.089 2.21.621 2.563.799 4.684 1.509 7.07 2.219 1.591.444 1.591.533 1.326.622-.353.089-.618.177-1.06.266-.266.178-.619.089-2.122-.444zm.884-.532c-2.033-.622-3.535-1.154-5.656-1.864-.53-.178-.796-.267-.884-.267-.089 0-.177.089-.354.089-.088 0 .088.089.619.266 2.033.71 3.447 1.243 5.391 1.864.442.178.707.267.796.178.265-.089.353-.089.53-.178.177.178 0 .089-.442-.088zM97.919 116.015c-2.387-.71-4.596-1.332-7.16-2.131-1.767-.532-2.032-.621-2.032-.621s1.679-.533 2.21-.621c.353-.089.53 0 2.209.532 2.475.799 4.684 1.509 6.982 2.219 1.503.444 1.415.533 1.15.622-.354.088-.619.266-.973.355-.442.088-.795.177-2.386-.355zm1.06-.622c-1.944-.621-3.535-1.154-5.656-1.864-.53-.177-.796-.266-.973-.177-.353.088-.53.177-1.149.355-.265.089-.088.177.442.355 2.298.71 3.978 1.154 6.099 1.775.53.178.795.178.972.178.354-.089.442-.178.707-.178.177-.177 0-.266-.442-.444z"/>
        <path fill="#90CEDD" d="M192.493 84.237h-38.006V13.226c0-1.687 1.325-3.018 3.005-3.018h31.907c1.68 0 3.006 1.331 3.006 3.018v71.011h.088z"/>
        <path stroke="#000" stroke-linecap="round" stroke-linejoin="round" stroke-miterlimit="10" stroke-width="1.5" d="M192.493 84.237h-38.006V13.226c0-1.687 1.325-3.018 3.005-3.018h31.907c1.68 0 3.006 1.331 3.006 3.018v71.011h.088z"/>
        <path fill="#3E8487" d="M192.493 84.237h17.854V35.861c0-.977-.795-1.776-1.768-1.776h-16.086v50.152zM154.487 84.237h-17.855V35.861c0-.977.796-1.776 1.768-1.776h16.087v50.152z"/>
        <path fill="#354C48" d="M154.486 84.237h-4.419V34.973c0-.444.354-.888.884-.888h3.535v50.152zM197.177 84.237h-4.419V34.973c0-.444.354-.888.884-.888h3.535v50.152z" opacity=".6"/>
        <path stroke="#000" stroke-linecap="round" stroke-linejoin="round" stroke-miterlimit="10" stroke-width="1.5" d="M192.493 84.237h17.854V35.861c0-.977-.795-1.776-1.768-1.776h-16.086v50.152zM154.487 84.237h-17.855V35.861c0-.977.796-1.776 1.768-1.776h16.087v50.152z"/>
        <path fill="#FAD45C" d="M187.19 10.12h-25.367V2.751c0-.977.795-1.776 1.767-1.776h21.832c.972 0 1.768.8 1.768 1.776v7.367z"/>
        <path stroke="#000" stroke-linecap="round" stroke-linejoin="round" stroke-miterlimit="10" stroke-width="1.5" d="M187.19 10.12h-25.367V2.751c0-.977.795-1.776 1.767-1.776h21.832c.972 0 1.768.8 1.768 1.776v7.367z"/>
        <path fill="#8DA087" d="M181.887 84.237h-16.794v-14.38c0-1.065.884-1.953 1.945-1.953h12.816c1.06 0 1.944.888 1.944 1.953v14.38h.089z"/>
        <path stroke="#000" stroke-linecap="round" stroke-linejoin="round" stroke-miterlimit="10" stroke-width="1.5" d="M181.887 84.237h-16.794v-14.38c0-1.065.884-1.953 1.945-1.953h12.816c1.06 0 1.944.888 1.944 1.953v14.38h.089z"/>
        <path fill="#C3E0DC" d="M169.247 19.706h-7.336v7.367h7.336v-7.367zM185.069 19.706h-7.337v7.367h7.337v-7.367zM169.247 34.884h-7.336v7.368h7.336v-7.368zM185.069 34.884h-7.337v7.368h7.337v-7.368zM169.247 50.063h-7.336v7.367h7.336v-7.367zM185.069 50.063h-7.337v7.367h7.337v-7.367z"/>
        <path stroke="#000" stroke-linecap="round" stroke-linejoin="round" stroke-miterlimit="10" stroke-width="1.5" d="M169.247 19.706h-7.336v7.367h7.336v-7.367zM185.069 19.706h-7.337v7.367h7.337v-7.367zM169.247 50.063h-7.336v7.367h7.336v-7.367zM185.069 50.063h-7.337v7.367h7.337v-7.367zM136.721 44.56h17.766M192.758 44.56h17.236M169.247 34.884h-7.336v7.368h7.336v-7.368zM185.069 34.884h-7.337v7.368h7.337v-7.368z"/>
        <path stroke="#E2E2E2" stroke-linecap="round" stroke-linejoin="round" stroke-miterlimit="10" stroke-width="1.5" d="M173.49 70.39v11.184"/>
        <path fill="#C3E0DC" d="M38.981 83.29H96.61V28.256H38.98V83.29z"/>
        <path fill="#5E7C76" d="M39.053 28.227H28.888v55.034h10.165V28.227z"/>
        <path stroke="#000" stroke-linecap="round" stroke-linejoin="round" stroke-miterlimit="10" stroke-width="1.5" d="M39.053 28.227H28.888v55.034h10.165V28.227z"/>
        <path stroke="#000" stroke-linecap="round" stroke-linejoin="round" stroke-miterlimit="10" stroke-width="1.5" d="M38.981 83.29H96.61V28.256H38.98V83.29z"/>
        <path fill="#F79FA8" d="M41.528 28.582s-2.563-.888-2.563 1.065c0 1.953-.884 11.184 2.12 11.362 3.006.178 55.862.621 56.038-1.243l-.618-10.296s1.679-.8-3.536-.8-51.441-.088-51.441-.088z"/>
        <path stroke="#000" stroke-linecap="round" stroke-linejoin="round" stroke-miterlimit="10" stroke-width="1.5" d="M32.335 36.837V80.51M35.783 30.89v44.116M50.101 36.482c1.22 0 2.21-.993 2.21-2.22 0-1.225-.99-2.218-2.21-2.218s-2.21.993-2.21 2.219.99 2.219 2.21 2.219zM68.044 36.482c1.22 0 2.21-.993 2.21-2.22 0-1.225-.99-2.218-2.21-2.218s-2.21.993-2.21 2.219.99 2.219 2.21 2.219zM86.075 36.482c1.22 0 2.21-.993 2.21-2.22 0-1.225-.99-2.218-2.21-2.218s-2.21.993-2.21 2.219.99 2.219 2.21 2.219z"/>
        <path stroke="#000" stroke-linecap="round" stroke-linejoin="round" stroke-miterlimit="10" stroke-width="1.5" d="M44.71 28.138c0-3.195 2.563-5.77 5.745-5.77s5.745 2.575 5.745 5.77c0 3.196-2.563 5.77-5.745 5.77M62.564 28.138c0-3.195 2.563-5.77 5.745-5.77s5.745 2.575 5.745 5.77c0 3.196-2.563 5.77-5.745 5.77M80.506 28.138c0-3.195 2.564-5.77 5.745-5.77 3.182 0 5.746 2.575 5.746 5.77 0 3.196-2.564 5.77-5.746 5.77"/>
        <path fill="#fff" d="M43.826 40.831l48.878.178s4.154-.799 4.42.888c.264 1.686 1.325 19.173 18.737 32.399 0 0 .973.798.531 1.686-.442.888-1.68 1.864-4.154 1.864-2.475 0-50.558-.444-50.558-.444s-3.712-.177-5.657-2.485C54.08 72.609 43.826 61.78 40.29 47.577c0 0-2.12-7.1-.176-7.19l3.712.444z"/>
        <path stroke="#000" stroke-linecap="round" stroke-linejoin="round" stroke-miterlimit="10" stroke-width="1.5" d="M39.318 40.654h57.54M53.46 53.08h36.327M57.968 62.49H95.09M62.74 45.536s3.271 12.96 12.021 24.41M77.678 44.826S79.092 57.43 91.113 69.68"/>
        <path stroke="#000" stroke-linecap="round" stroke-linejoin="round" stroke-miterlimit="10" stroke-width="1.5" d="M96.681 28.227c0 8.699-1.679 30.268 19.18 46.069 1.503 1.153.354 3.639-1.502 3.639l-51.707-.444c-3.005 0-5.833-1.243-7.866-3.373-17.147-18.552-15.733-38.169-15.733-45.891h57.628z"/>
        <path fill="#F79FA8" d="M156.166 101.191s9.369-1.509 10.96-5.68l-8.397-1.421 12.109-5.592 8.043 8.61-7.247-.977s-.354 6.303-6.276 7.279l-9.192-2.219z"/>
        <path stroke="#000" stroke-linecap="round" stroke-linejoin="round" stroke-miterlimit="10" stroke-width="1.5" d="M156.166 101.191s9.369-1.509 10.96-5.68l-8.397-1.421 12.109-5.592 8.043 8.61-7.247-.977s-.354 6.303-6.276 7.279l-9.192-2.219z"/>
    </g>
    <defs>
        <clipPath id="clip0">
            <path fill="#fff" d="M0 0H183.403V157.911H0z" transform="translate(27.916)"/>
        </clipPath>
    </defs>
</svg>
