<svg xmlns="http://www.w3.org/2000/svg" width="270" height="217" fill="none" viewBox="0 0 270 217">
    <g clip-path="url(#clip0)">
        <path fill="#73B267" d="M204.5 42.5l-73.8-9.3V14.1l73.8 9.3v19.1z"/>
        <path fill="#FAD45C" d="M210 21.9s1.8-11.3-2.6-12C192.2 7.7 142 1 142 1c-9.8 1-10.8 4.6-10.8 4.6l-.5 8.5 73.8 9.3 5.5-1.5z"/>
        <path fill="#73B267" d="M204.5 42.5L210 41V21.9l-5.5 1.5v19.1z"/>
        <path fill="#BCC9B8" d="M118.2 34.3l8.4-3.5 3.8.5.2 2.6 73.6 9.6 6.7-2.1 9.6 1.2s-9.4 3.1-11.8 6.1l-90.5-14.4z"/>
        <path fill="#DAEAD6" d="M209.1 47.9c-.1.3-.3.5-.5.7-.3.3-.6.5-.6.5-10.1 17.6-15.9 46.4-19.2 75.6-3.3 28.9-4.1 58.2-4.2 77.5l-.4.2-92.8-22.8h-.2l-.3-.1c.2-6.4.5-13.5.9-21.4.5-9.7 1.1-20.4 2-32.4 0-.6.1-1.2.1-1.8 4.1-53.5 17.8-81.8 21-87.8.4-.8.7-1.2.7-1.2.4-.3 1.1-.4 1.7-.4.9-.1 1.8 0 1.8 0s78.5 10.2 85.8 11.1c4.1.4 4.6 1.5 4.2 2.3z"/>
        <path fill="#C3CEC0" d="M189.5 124.8v.1l-.3 2.5V128.2c0 .4 0 .9-.1 1.6v.5c-.3 6.6-1.1 24.1-1.9 44-.3 8.8-.7 18-1 27l-1 .7-.2.1-.4.3-.4.2-92.8-22.8h-.2c.1-7 .2-14.2.5-21.5.4-11.2 1-22.4 2-32.4.6-6.3 1.4-12 2.3-17.1 0 0 53.2 10.8 92.7 16.1.3-.2.5-.1.8-.1z"/>
        <path fill="#788974" d="M143.7 133l-40.7-7.4.1-7.9s-.2-2.6 3.5-1.8c3.7.7 37.4 7.1 37.4 7.1l-.3 10z"/>
        <path fill="#C3E0DC" d="M194.7 56.5L127 46.4s-1.8.6-2.7 1.8c-.9 1.2-8 20.3-12.3 44.7 0 0-2.1 6.7 2.2 7.4l66.4 10.8s2.6-27.6 14.1-54.6z"/>
        <path fill="#DFF4F0" d="M111.6 95.9s4.7-23.3 6.9-30.9c4.8-16.8 7.2-18.3 7.2-18.3l5.4.4 12.9 2-32.4 46.8zM180.9 111.3l-17.9-2.8 26.9-39.2-7 28.8-2 13.2zM158.7 107.3l-13-1.9 35-50.6 13 2-35 50.5z"/>
        <path fill="#BCC9B8" d="M125.7 46.8s-1.3 0-3 4.4-9.6 31.5-10.6 41.5c0 0-1.9 5.3.4 6.7 1.1.6 68.2 11.5 68.2 11.5l-.4 2.5s.6 2.5-3.4 2.4c-4-.1-70.7-12.1-70.7-12.1s-1.8-.3-1-5.5c.7-5.2 7.2-40.5 15.7-55.9 0 0 1.3-2.2 3.4-1.6 2.1.6 70.2 9.5 70.2 9.5s2.4.6 1.8 2.5c-.6 1.9-1.6 3.7-1.6 3.7l-66.9-10-2.1.4z"/>
        <path fill="#73B267" d="M225.7 175.5l-.1.1-39.4 25.6-1 .7c.1-7.7.3-15.1.5-20.9.3-7.2.6-15 1.2-23.1v-.1c.6-9 1.3-18.5 2.3-27.9 1.3-12.6 3-25.2 5.2-36.8 0-.1 0-.2.1-.3 3.4-17.7 7.9-33.4 14.2-43.7 0 0 0-.1.1-.3.1-.2.2-.4.5-.7l.6-.6c1-.9 2.7-2.1 5.6-3.1 4.8-1.7 6.6-2.7 7.7-.2 0 .1 0 .1.1.2.2.5.3 1.1.5 1.8 0 0 .1 1.1.2 3.5 0 .5.1 1.1.1 1.8v.6c0 .5.1 1 .1 1.5v.3c0 .3 0 .7.1 1.1 0 1 .1 2 .2 3.1 0 .5 0 1.1.1 1.6 0 .8.1 1.6.1 2.4.1 1.4.1 2.9.2 4.4 0 .5 0 1 .1 1.6v1.4c0 .7.1 1.5.1 2.3v.5c0 .6 0 1.2.1 1.9 0 1.2.1 2.5.1 3.8 0 .9 0 1.8.1 2.7.1 2.2.1 4.6.2 7 .1 4.1.2 8.5.3 13.2.1 4.4.1 9.1.2 14v.4c-.2 16.4-.1 36.3-.4 60.2z"/>
        <path fill="#8AC47E" d="M225.5 100.5c-21.8 9.1-34.4 54.1-39.9 80.6 1.6-42 6.7-105.1 22.9-132 0 0 1.1-2.7 6.9-4.7 5.8-2 7.3-3.1 8.2 1.8-.1 0 1.3 17.1 1.9 54.3z"/>
        <path stroke="#000" stroke-linecap="round" stroke-linejoin="round" stroke-miterlimit="10" stroke-width="2" d="M220.4 42.7c1.1-.3 2.2.2 2.6 1.2 0 .1 0 .1.1.2 0 .1.1.3.1.4v.2s.4 2.1.8 8.5v.2c0 .3 0 .7.1 1.1.6 9.6 1.4 27.7 1.7 59.8v.4c.1 16.4.1 36.4-.2 60.8M92.2 146.8c-.4 15.4-.7 29.8-.8 32.9M103.8 65c4.2-16.5 8.5-24.9 10.8-28.6 1-1.6 2.8-2.4 4.6-2.2L208.7 46c.9.1 1.3 1.1.8 1.8-4.5 6.5-20.8 35.4-23.7 132.1M102.5 70.5c.1-.5.2-1 .4-1.5M94.6 122.2c2-20.8 4.6-36.9 7.3-49.3"/>
        <path stroke="#000" stroke-linecap="round" stroke-linejoin="round" stroke-miterlimit="10" stroke-width="2" d="M187.6 77c2.9-10.7 6-18.1 8.5-23.1.8-1.6-.2-3.5-2-3.8L124 40.7c-1.1-.1-2.1.4-2.7 1.3-4.6 8.4-11.8 27.1-16.4 58.8-.2 1.4.7 2.7 2.1 3l70.4 12.1c1.5.3 2.8-.8 3-2.2 1.7-13.2 3.8-23.9 6-32.7"/>
        <path stroke="#000" stroke-linecap="round" stroke-linejoin="round" stroke-miterlimit="10" stroke-width="2" d="M180.6 111.2l-67-11.2c-1.4-.2-2.4-1.6-2.1-3 3.6-22.7 8.6-39 12.6-48.4.6-1.4 2.1-2.3 3.6-2l67 10.1M137.4 121.7l-31.8-6c-1.3-.2-2.5.7-2.5 2v7M221.5 42.7l-10.9-1.4M117.9 34l8.2-3.2 4.1.5M204.8 16.2c0-2.6-1.9-4.8-4.5-5.2l-62.8-8.3-.8-.1c-3.1-.4-5.9 2-5.9 5.2v25.1l74 9.7V16.2z"/>
        <path stroke="#000" stroke-linecap="round" stroke-linejoin="round" stroke-miterlimit="10" stroke-width="2" d="M134.1 3s6-1.8 6.5-1.9c.5-.1.9-.1 1.4-.1l63.6 8.4c2.6.3 4.5 2.6 4.5 5.2V41l-5.4 1.6M122.8 41l2.9 5.8M111.2 99.8l-5.4 2.9M180.384 134.717c.22-3.251-2.104-6.055-5.189-6.264-3.086-.209-5.766 2.258-5.985 5.509-.22 3.251 2.103 6.055 5.189 6.264 3.085.208 5.765-2.258 5.985-5.509z"/>
        <path fill="#EFEFEF" stroke="#000" stroke-linecap="round" stroke-linejoin="round" stroke-miterlimit="10" stroke-width="2" d="M180.384 134.717c.22-3.251-2.104-6.055-5.189-6.264-3.086-.209-5.766 2.258-5.985 5.509-.22 3.251 2.103 6.055 5.189 6.264 3.085.208 5.765-2.258 5.985-5.509z"/>
        <path fill="#788974" d="M177.69 134.535c.116-1.708-1.086-3.18-2.684-3.288-1.598-.109-2.987 1.189-3.103 2.897-.115 1.708 1.087 3.18 2.685 3.288 1.598.108 2.987-1.189 3.102-2.897z"/>
        <path stroke="#000" stroke-linecap="round" stroke-linejoin="round" stroke-miterlimit="10" stroke-width="2" d="M177.69 134.535c.116-1.708-1.086-3.18-2.684-3.288-1.598-.109-2.987 1.189-3.103 2.897-.115 1.708 1.087 3.18 2.685 3.288 1.598.108 2.987-1.189 3.102-2.897zM220.4 42.7l-9.4 3.5"/>
        <path fill="#fff" d="M174.1 134.3c.497 0 .9-.403.9-.9s-.403-.9-.9-.9-.9.403-.9.9.403.9.9.9z"/>
        <path stroke="#fff" stroke-linecap="round" stroke-linejoin="round" stroke-miterlimit="10" stroke-width="2" d="M212.4 51.1s-9 14-15.1 46.4M196.5 101.3s-.5 2.8-.8 5.9M102.8 81.9c-1 1.8-3.8 25-3.8 25l38.9 7.5"/>
        <path stroke="#87AAA4" stroke-linecap="round" stroke-linejoin="round" stroke-miterlimit="10" stroke-width="2" d="M117 98l61.1 10.3"/>
        <path stroke="#fff" stroke-linecap="round" stroke-linejoin="round" stroke-miterlimit="10" stroke-width="2" d="M190.4 58.9l-61.1-8.8s-1.6 0-2.6 2-9 26.6-12.1 44.3"/>
        <path fill="#fff" d="M153.7 32.8c-.5-.1-.8-.2-1-.3-.2-.2-.4-.5-.5-.8-.2-.5-.3-.8-.5-1.3-2.2-.3-3.4-.4-5.6-.7-.2.5-.3.7-.5 1.2-.1.3-.3.6-.5.7-.2.1-.5.1-1 .1-.6-.1-.9-.1-1.5-.2-.5-.1-.8-.2-1-.4-.2-.2-.3-.4-.3-.7.1-.2.2-.5.3-.8 1.8-3.8 2.6-5.7 4.4-9.4.2-.4.4-.7.6-.8.1-.1.4-.2 1.1-.1 1 .1 1.5.2 2.4.3.7.1 1 .2 1.1.3.2.2.4.5.6 1 1.8 4.2 2.6 6.3 4.4 10.6.2.3.3.6.3.9 0 .3-.1.5-.3.6-.2.1-.5.1-1 .1-.6-.2-.9-.3-1.5-.3zm-6.3-6.1c1.2.1 1.7.2 2.9.4l-1.5-3.5c-.5 1.2-.8 1.8-1.4 3.1zM165.3 34.2c-.5-.1-.8-.2-1-.3-.2-.2-.3-.4-.3-.8v-8.3c-1.6-.2-2.3-.3-3.9-.5-.5-.1-.9-.2-1-.4-.2-.2-.3-.5-.3-.9v-1.4c0-.6.1-.8.3-.9.2-.1.5-.2 1-.1 4.8.6 7.3.9 12.1 1.5.5.1.9.2 1 .4.2.2.3.5.3.9v1.5c0 .4-.1.7-.3.8-.2.1-.5.2-1 .1-1.4-.2-2.1-.3-3.6-.5v8.3c0 .3-.1.6-.3.7-.2.1-.5.1-1 .1-.7 0-1.1-.1-2-.2zM188.7 37.2c-.5-.1-.8-.2-1-.3-.2-.2-.3-.4-.3-.8v-4.3c-.2 0-.3-.1-.6-.1-.5 1.6-.7 2.4-1.2 4-.1.4-.3.7-.5.8-.1.1-.4.2-1.1.1-.4 0-.6-.1-.9-.1-.7-.1-1-.2-1.1-.3-.2-.2-.4-.5-.5-.9-.5-1.7-.7-2.6-1.2-4.3h-.6v4.2c0 .3-.1.6-.3.7-.2.1-.5.1-1 .1-.4 0-.6-.1-1-.1-.5-.1-.8-.2-1-.3-.2-.2-.3-.4-.3-.8V24c0-.4.1-.7.3-.8.2-.1.5-.1 1-.1.9.1 1.3.2 2.1.3.5.1.8.2 1 .3.2.2.4.5.5.8.9 3.1 1.4 4.7 2.3 7.9.2 0 .3 0 .5.1.9-2.9 1.4-4.4 2.3-7.3.1-.3.3-.6.5-.7.2-.1.5-.1 1-.1.9.1 1.3.2 2.2.3.4.1.7.2.9.3.2.2.3.5.3.9v10.8c0 .3-.1.6-.3.7-.2.1-.5.1-1 .1-.4-.2-.6-.3-1-.3z"/>
        <path stroke="#000" stroke-linecap="round" stroke-linejoin="round" stroke-miterlimit="10" stroke-width="2" d="M184.9 201.9c.1-11.1.2-19.4.2-19.4M141.4 122.4c2 .4 2.4.4 2.4 3.9s-.2 6.6-.2 6.6l-39.1-7"/>
        <path fill="#2C5B5B" d="M139.15 73.78l.084-.546c.531-2.732 1.627-4.53 3.287-5.393 1.642-.866 4.045-1.103 7.208-.712l.097-.628c.05-.327.154-.582.312-.762.159-.18.474-.235.948-.162l1.829.28c.292.045.531.184.719.418.188.234.27.488.246.764l-.109.71c3.099.569 5.313 1.505 6.641 2.808 1.439 1.431 2.045 2.885 1.819 4.36-.115.746-.358 1.24-.73 1.48-.37.223-.992.268-1.865.134l-2.841-.436c-.837-.128-1.399-.354-1.684-.677-.283-.342-.417-.623-.402-.845.015-.22-.183-.447-.595-.678-.256-.151-.664-.288-1.222-.411l-.34 2.212c3.099.569 5.313 1.504 6.641 2.807 1.328 1.303 1.944 2.637 1.846 4l-.109.71c-.525 2.697-1.607 4.469-3.247 5.317-1.639.848-4.04 1.076-7.204.683l-.125.82c-.063.288-.221.525-.473.71-.255.203-.522.246-.802.129l-1.912-.294c-.267-.078-.486-.233-.655-.464-.154-.21-.218-.462-.192-.756l.118-.764c-3.1-.569-5.313-1.504-6.641-2.808-1.442-1.413-2.05-2.857-1.824-4.332.115-.746.357-1.231.727-1.454.372-.24.995-.294 1.869-.16l2.84.435c.837.129 1.398.364 1.681.705.285.323.421.596.405.817-.015.221.183.447.595.678.257.151.664.288 1.223.411l.331-2.157c-3.099-.569-5.313-1.504-6.641-2.807-1.344-1.324-1.961-2.705-1.853-4.142zm8.389-.753c-.4.18-.632.48-.697.899-.039.255.114.474.459.657.256.151.662.297 1.218.439l.327-2.13c-.591-.035-1.027.01-1.307.135zm5.158 10.294c.379-.166.598-.44.657-.822.018-.24-.134-.468-.454-.684-.257-.152-.664-.289-1.223-.412l-.318 2.076c.593.016 1.039-.036 1.338-.158z" opacity=".72"/>
        <path fill="#3E8487" d="M109.5 142.4l-.3 14.1s14.8-6.6 15-8c.1-1.4.6-13.4.2-13.9-.4-.5-2 .5-2.6.8-.7.2-12.2 6.1-12.2 6.1l-.1.9zM45.3 149.1l-.4 9.5s1.3 3 5.7 3.8c4.4.8 29.3 7 29.3 7s4.8.3 9-1.8c4.3-2.1 11.9-6.5 11.9-6.5s2.1-.6 1.7-3.7c-.4-3.1.7-11.6.7-11.6s.5-1.6-2.4.2-10.7 7.5-19 9.2c-.4.1-34.9-7.6-34.9-7.6s-2.1-.2-1.6 1.5z"/>
        <path fill="#73BAC6" d="M55.4 145s-1.3.9-6.2 1.1c0 0-4 .3-4.2.6-.2.4.3.8 3.5 1.4 3.2.6 32.3 7 32.3 7s1.9.7 5.9-1.5c3.4-1.9 36.6-19.4 36.6-19.4s2.6-.9-.5-1.2l-1.9-.1-21.6 8.8-43.9 3.3z"/>
        <path fill="#90CEDD" d="M78.2 132.9c3.9-2.1 7.3-3 15.6-8.3l28.4 4.7s2 2.3-8 7.5c-8 4.2-16.2 9.4-24.7 12.8-4.4 1.8-10.8 1.3-10.8 1.3s-25.5-7.1-32.4-9.2c-.2 0 .4-.5.4-.5s15 .7 31.5-8.3z"/>
        <g fill="#3E8487" opacity=".4">
            <path d="M90 128.2c-.2-.1-.4-.2-.7-.3-.2 0-.4-.1-.6 0-.2 0-.4.1-.6.1-.1 0-.2 0-.3.1-.1.1-.2.1-.3.2-.2.1-.3.3-.4.5-.1.2 0 .4 0 .6v.8c0 .1.1.1.1.1.1.3.4.7.8.8l.1.1c.2.2.4.4.6.5.2.2.5.4.8.6.2.2.3.3.5.4.2.1.5.2.7.2h.6l.1.1.1.1v.1c0 .1.1.1.2.1s.1 0 .1-.1-.1-.1-.1-.2l-.2-.2-.1-.1c.2-.1.3-.2 0-.4-.2-.1-.3 0-.1.1h-.1c-.1 0-.2.1-.2.1-.2 0-.5 0-.7-.1-.2 0-.3-.1-.5-.2-.1-.1-.3-.3-.5-.4-.3-.3-.7-.5-1-.8.3 0 .4-.3.6-.4.2-.1.4-.1.7-.1h.8c.1 0 .2 0 .2-.1v-.1h.4c0 .1-.1.2-.1.3 0 .1 0 .2.1.3.1.1.2.2.3.2.2 0 .1-.2-.1-.2v-.1-.2s0-.1.1-.1h.2v.1c0 .1.1.1.1.2v.7c-.1 0-.1.1 0 .2H91.9c.1-.1 0-.2 0-.2v-.3-.3c0-.1-.1-.1-.1-.2s0-.1-.1-.2-.3-.2-.4-.2H91c.2-.2.4-.5.3-.9-.2-.4-.6-.6-1-.9.1 0-.1-.2-.3-.3zM96 138.8c-.2 0-.2 0-.2.1-.1 0-.2.1-.3.1-.1 0-.4.1-.6 0-.2-.1-.3-.2-.5-.2s-.3 0-.4.1c-.3.1-.4-.4-.4-.5 0-.1.1-.2 0-.3 0-.1-.1-.1-.2-.2s-.2-.2-.4-.2h-.1-.1c-.1.1.1.2.2.2.1.1.2.1.2.2h.1v.4c0 .2.1.5.4.6.1.1.3.1.4 0 .1 0 .1-.1.3-.1.1 0 .3.1.4.2.2.1.4.1.5.1.2 0 .3-.1.4-.1.1 0 .3-.1.3-.2.2-.1.1-.1 0-.2zM82.9 135.4c-.3-.1-.7-.2-1-.2-.3 0-.6.1-.9.2-.3.1-.7.2-.9.4-.5.4-.4 1-.4 1.6 0 .3.2.6.4 1 .1.2.2.3.3.5.1.2.4.3.6.4v.1l.1.1H81.7s.1 0 .1-.1v-.5-.5c0-.2 0-.3.1-.4 0-.2.1-.3.2-.5.2-.2.7-.1 1.1-.2h.5c.1 0 .3 0 .4.1 0 .1.1.1.2.1h.1l.1-.1s0-.1.1-.1v-.1c0-.1-.1-.3-.2-.4-.1-.2-.3-.4-.4-.6-.4-.4-.8-.7-1.1-.8zM85 143.2c-.1.1.1.3.3.2 0-.1-.2-.3-.3-.2z" opacity=".4"/>
            <path d="M96.7 132.7c-.8-.4-1.6-.8-2.4-.8-.4 0-.7 0-1 .1-.3.1-.7.1-.9.3-.2.2-.4.5-.6.8-.1.1-.1.3-.2.4 0 .1-.2.3-.1.4.1.1.4.1.3 0 0 0 0-.1.1-.1 0-.1 0-.1.1-.2s.1-.2.2-.3c.1-.2.3-.5.4-.7l.3-.3c.1-.1.3-.1.5-.1.3-.1.6-.1.9-.1.3 0 .7 0 1 .2.4.1.8.3 1.1.5.4.2.8.4 1.1.6.2.1.3.2.5.3.2.1.4.2.5.4.3.3.6.6.8.9.1.1.2.3.2.4v.4c-.3-.2-.7-.4-1-.6-.5-.3-1.1-.6-1.6-1-.2-.1-.4-.3-.7-.4-.2-.1-.4-.1-.6-.1-.5 0-.7.1-.8.4-.1 0-.1 0-.2-.1-.2-.1-.5-.1-.7-.1-.1 0-.2.1-.2.1-.2-.1-.3-.2-.5-.2-.4-.1-.8-.1-1.1 0-.4.1-.8.2-1.1.5-.2.3-.5.6-.5 1h-.1c-.1.1-.2.2-.2.3v.4c0 .3.2.5.5.7-.2 0-.3 0-.5.1-.1 0-.2.1-.3.1-.1 0-.1-.1-.2 0l-.1.1c0-.1-.1-.2-.2-.4-.1-.1-.4-.3-.6-.4h-.3c0-.2-.2-.4-.4-.6-.3-.2-.6-.5-.9-.7-.4-.2-.8-.3-1.1-.4-.4-.1-.7-.1-1 0-.3 0-.7.1-.8.3-.2.2-.2.5-.3.7 0 .3 0 .5.1.8.1.3.3.7.5 1v.1l-.1-.1c-.1-.1-.3-.3-.5-.3s-.2.2 0 .2c.1 0 .2.1.2.1.1.1.2.1.2.2.1.1.3.2.4.3.3.2.6.5.8.7.1.2.2.5.2.7v.3c0 .1 0 .1-.1.1 0 0 0 .1-.1.1h-.1c-.4-.1-.8-.2-1.2-.2h-.7c-.3 0-.5 0-.7-.1h-.6c-.2-.1-.3-.2-.5-.4-.1-.1-.2-.1-.2-.2 0 0-.1-.1-.1-.2 0 0 0-.1-.1-.1h-.2c-.1.2.2.4.4.6.1.1.3.2.4.3-.1 0-.2.1-.3.1-.4.1-.8.4-1.2.5-.2.1-.4.2-.5.4-.2.1-.3.3-.5.4-.1.1-.2.3-.3.4-.3-.1-.6-.2-1-.3-.1 0-.3-.1-.4-.1-.1 0-.2 0-.3-.1 0 0 0-.1-.1-.1h-.2v.1c.1.1.3.2.4.2.1 0 .3.1.4.1-.2.2-.1.4-.1.6v.7c0 .2.1.4.2.7.1.2.1.5.2.7.1.2.3.5.5.7.2.2.4.5.7.7.5.4 1 .8 1.6 1.1.3.2.7.3 1.1.5.3.1.7.2 1 .3.3.1.7.2 1.1.3.2 0 .3 0 .5.1.2 0 .3.1.5.1 1.4.2 2.6-.2 3.3-.7.2-.2.5-.3.7-.5.1-.1.2-.2.3-.2.2.1.3.2.5.3.1.1.3.2.4.3.2.1.4 0 .5-.1.1-.1.2-.1.3-.2 0-.1 0-.2-.1-.2-.1-.1-.2-.1-.3-.2-.1-.1-.3-.2-.4-.2h-.2-.2c.1-.1.2-.3.2-.4.1-.1.2-.3.2-.5v-.1c0-.1-.1-.1-.2-.1-.2-.1-.4-.1-.7-.2-.2 0-.4-.1-.6-.2.1-.2.2-.5.2-.8 0-.3-.2-.6-.4-1-.1-.2-.2-.3-.3-.5h.5c.3 0 .5 0 .8.1.3 0 .5.1.8.1h.6c.1.2.1.3.2.5 0 .1 0 .2.1.3.1.1.2.2.2.3l.1.1c.1.1.3.1.4.1.2 0 .4.1.5.1.3.1.7.1 1 .1.7 0 1.3-.1 1.8-.3.5-.2 1.1-.4 1.6-.6.5-.2 1-.5 1.5-.8.5-.3.8-.7 1.2-1 .4-.3.7-.6 1.1-.9.2-.1.3-.3.4-.5l.3-.6c0-.2 0-.4-.1-.6-.1-.2-.3-.4-.6-.6l-.4-.4c-.2-.1-.3-.2-.5-.3-.4-.2-.7-.4-1.1-.5-.3-.1-.7-.3-1-.4-.2 0-.3-.1-.4-.1l-.1-.1h-.7c-.1 0-.1 0-.1.1-.2 0-.4.2-.5.3-.1.1-.2.3-.2.5v.6c.1.4.3.7.5 1.1.1.2.3.4.4.6l.3.6c0 .2 0 .3-.1.5 0 .2-.2.3-.4.4-.2.1-.4.2-.7.2-.2.1-.5.1-.7.1h-.7c-.3 0-.6 0-.9.1h-1.8c-.3 0-.5 0-.6.1-.1.1-.1.3 0 .5h-.5c-.3 0-.5 0-.8-.1-.3 0-.6-.1-.9-.1h-.7c-.1-.1-.2-.2-.2-.4-.2-.3-.5-.6-.9-.9h.2c.1 0 .3-.1.4-.1h.9c.6 0 1.2.1 1.7.1.2 0 .2-.1.1-.3l-.3-.6c-.1-.5-.3-.9-.6-1.4-.1-.2-.2-.5-.3-.7 0-.1-.1-.3 0-.4 0 0 0-.1.1-.1.3-.1.5-.2.9-.3h.2l.1.1c.2.1.3.2.5.3.2.1.2.3.4.4.2.1.5 0 .6-.1.2-.2.2-.4.4-.6.1-.1.2-.1.4 0s.3.1.5.2c.3 0 .4-.1.4-.2.1-.3 0-.5.1-.8 0-.1 0-.3.1-.4.1-.1.1-.1.2-.1h.5c.1 0 .2 0 .2-.1H95.7c.3.1.7.2 1 .4.4.2.9.5 1.3.7.4.2.9.4 1.4.5.2 0 .4.1.6.1h.5c.1 0 0-.1 0-.1-.1-.1-.2-.1-.3-.2-.2-.1-.3 0-.1.1h-.4c-.2 0-.4 0-.6-.1-.5-.1-.9-.4-1.4-.6-.8-.4-1.7-1-2.5-1H94.9c-.1 0-.2 0-.3.1-.1 0-.2 0-.3.1v-.1-.2s0-.1-.1-.1v-.1c0-.1-.1-.2-.2-.3.1-.1-.1-.2-.2-.2-.2-.1-.3-.2-.4-.3 0 0-.1 0-.1-.1h.2c.2 0 .3.1.5.2l.1.1.3.3.1.1v.2c-.1.1.1.2.2.2.3-.1-.1-.5-.3-.7l-.1-.1c0-.2.2-.4.5-.4s.5 0 .8.2c.3.2.6.4 1 .6.3.2.7.4 1 .6.6.4 1.3.7 2 1 .3.1 1 .4 1.2.2 0 0 0-.1-.1-.2s-.2-.1-.3 0c-.1 0-.3-.1-.4-.1-.3-.1-.5-.2-.8-.3-.1-.1-.2-.1-.3-.2v-.1-.2c0-.1-.1-.3-.2-.4-.1-.1-.2-.3-.3-.4-.1-.2-.2-.3-.4-.5.4-.2-.5-.7-1.3-1.1zm-5.4 14s0 .1 0 0c0 .1 0 .1 0 0 0 .1 0 .1 0 0 0 .1 0 .1 0 0 0 .1-.1.2-.1.2l-.1.1H91c-.1 0-.1-.1-.2-.1s-.1-.1-.2-.1c-.1-.1-.3-.2-.4-.3l.2-.2c.1.1.2.1.3.1h.1s.1 0 .1.1c.1.1.2.1.4.2-.1 0 0 0 0 0zm-.9-1.4l.1.1c0 .1-.1.2-.2.3-.1.1-.2.3-.3.4-.2.2-.3.3-.5.4-.2.2-.4.3-.6.4-.7.5-1.6.9-2.8 1-.3 0-.6 0-1-.1-.1 0-.3-.1-.4-.1-.2 0-.3 0-.5-.1-.3-.1-.7-.2-1-.3-.3-.1-.6-.2-1-.3-.3-.1-.6-.2-.9-.4-.3-.2-.6-.3-.8-.5-.5-.4-.9-.8-1.3-1.2-.2-.2-.4-.5-.5-.7-.1-.3-.2-.5-.3-.8-.1-.3-.1-.6-.1-.8 0-.3-.1-.6.1-.8v-.1c.2.1.5.1.7.2-.1.2-.1.3-.2.5-.1.4 0 .7.2 1.1.1.2.3.4.4.6.2.2.4.4.7.6l.2.2.3.3c.1.1.3.2.4.3h.1c.3.4.9.6 1.4.7.3.1.5.2.8.2.3.1.6.1.9.2.5.1 1 .1 1.5.1s.9-.1 1.3-.3c.4-.2.8-.4 1-.7.3-.3.5-.6.7-.9 0 0 .1 0 .1.1h.1c.1 0 .1 0 .2.1.1 0 .2.1.3.1.6.1.7.1.9.2zm-.4-6.4c.1.2.2.5.3.7.1.2.1.4.2.6 0 .1.1.2.1.3 0 0 .2.2.1.3H90c-.3 0-.6 0-.9-.1h-1.8l-.6-.3c-.2-.1-.5-.2-.7-.3l.1-.1c.1-.1.1-.2.1-.4v-.4c0-.2-.1-.3-.2-.5-.1-.1-.2-.3-.3-.4.1.1.2.1.3.2.3.2.6.4 1 .6.5.3 1.2.4 1.7.3.5-.1 1-.3 1.2-.6v-.1c.1.1.1.1.1.2zm-.6-1.9c.1 0 .1 0 0 0 .1.1.1.1 0 0V137.3c-.1 0-.1 0-.1.1s.1.1.2.1h.2v.2s-.1 0-.1-.1c-.2-.1-.3.1-.1.2.1 0 .1.2.1.2 0 .1.1.2.1.3 0 .2 0 .3-.1.4-.2.2-.6.4-1 .4-.4.1-.9 0-1.4-.2-.3-.1-.5-.3-.7-.4-.2-.2-.5-.3-.6-.5.1-.1.1-.1.1-.2s.1-.2.1-.3l.3-.3c0-.1 0-.1.1-.1h.2c.3 0 .6.1.9.1.3 0 .7.1 1 .1.1.1.2.1.2.1.1 0 .1-.1 0-.1v-.1h-.1v-.1-.2l.1-.1.1.1.1.1c.4-.1.4-.1.4 0 0-.1 0-.1 0 0 0-.1 0-.1 0 0 0-.1 0-.1 0 0z" opacity=".4"/>
            <path d="M95.7 136.3c-.1-.1-.3-.1-.4-.2H95c-.2 0-.3.2-.3.3 0 .1.1.2.2.3.1.1.2.1.3.1.1 0 0-.2-.1-.2s-.1-.1-.1-.2v-.1c.1-.1.2-.1.4 0s.3.2.4.3c0 .1.1.1.1.2v.1c-.1 0 0 .2.1.2h.2v-.1c0-.1 0-.2-.1-.3 0-.1-.1-.2-.2-.3 0 .1-.1 0-.2-.1z" opacity=".4"/>
        </g>
        <path fill="#3E8487" d="M121.8 131.2c-.5.7-1.6 1.4-2.4 2.2-.7-.1-5.5-.9-6.2-1-2.4-.4-4.9-.8-7.3-1.1-2.7-.4-5.4-1-8.1-1.5-1.5-.2-3-.4-4.4-.7-.8-.1-5.3-.7-6.2-.8.9-.7 2.7-1.4 3.6-2.2l6.5 1c2.7.4 5.4 1 8.1 1.5 2.5.4 5 .8 7.5 1.1 1.5.3 7.4 1.3 8.9 1.5z"/>
        <path fill="#fff" d="M102.8 142.5l-35.5-5.8 7-2.7 34.6 5.4-6.1 3.1z"/>
        <path fill="#fff" d="M108.9 158l-6.4 3.1.2-18.7 6.2-3.1V158z"/>
        <path stroke="#000" stroke-linecap="round" stroke-linejoin="round" stroke-miterlimit="10" stroke-width="2" d="M68.1 137.1c-5.3 2.1-7.9 3.1-21.4 3.9-.5 0-.6.8-.1.9 4.3 1.1 10.4 3 16.5 4.8 10.1 3 14.6 4 15.6 4.2 10.8 1.4 23.4-7.5 23.4-7.5M109.8 139.1s13.2-6.6 12.8-9.9l-28.8-4.7s-9.7 6-17.3 9"/>
        <path stroke="#000" stroke-linecap="round" stroke-linejoin="round" stroke-miterlimit="10" stroke-width="2" d="M56 144.8c-1.8.6-10.5 1.8-10.5 1.8-.8.2-.4.8-.1.9l35.2 7.7h.1c.5 0 1.2.1 1.7 0 5.4-1.2 13.5-6 20.2-9.9"/>
        <path stroke="#000" stroke-linecap="round" stroke-linejoin="round" stroke-miterlimit="10" stroke-width="2" d="M45.3 152l34.6 8.3h.1c.5 0 1.2.1 1.7 0 5.4-1.2 13.9-6.5 20.7-10.4"/>
        <path stroke="#000" stroke-linecap="round" stroke-linejoin="round" stroke-miterlimit="10" stroke-width="2" d="M68.5 136.9l34.3 5.6-.1 18.4 6.4-3-.2-18.6-34.7-5.4-6.3 2.5M102.8 142.5l5.6-2.5M109.3 141.8l14.8-7.7c.4-.2.3-.8-.2-.9l-4.4.2M109.4 147l13.2-7.1"/>
        <path stroke="#000" stroke-linecap="round" stroke-linejoin="round" stroke-miterlimit="10" stroke-width="2" d="M45.8 156.4l34.8 8.3h.1c.5 0 1.2.1 1.7 0 5.4-1.2 13.9-6.1 20.6-10M109.5 151.7l13.8-7.4"/>
        <path stroke="#000" stroke-linecap="round" stroke-linejoin="round" stroke-miterlimit="10" stroke-width="2" d="M45 146.8s0 13.9.5 14.2c8.3 3.5 35.6 8.5 35.6 8.5h.1c.5 0 1.2.1 1.7 0 5.4-1.2 12.6-5.7 19.3-9.6M109.9 156.2l13.9-7.5c.4-.2.5-15.1.5-15.1"/>
        <path stroke="#E2E2E2" stroke-linecap="round" stroke-linejoin="round" stroke-miterlimit="10" stroke-width="2" d="M72.1 136.3l29.4 4.7M104.8 143.8l.3 13.7"/>
        <path fill="#5EA3AA" d="M59.8 144c-.5-.2-.7-.3-.7-.4 0-.1.1-.2.4-.2h-.2.5c.3 0 .6-.1.9 0 .3 0 .6.1.8.2.1 0 .2.1.2.1l-.1.1h-.8c.1 0 .2.1.3.1.3-.1.6-.1.9 0 .3 0 .5.1.7.1h.1c.4.1.5.2.6.3 0 .1-.1.1-.4.2h.2-.5c-.3.1-.6.1-.8.1-.3 0-.6-.1-.8-.1-.1 0-.2-.1-.2-.1l.1-.1c.1 0 .2 0 .3-.1h.6c-.1 0-.2-.1-.3-.1-.3.1-.6.1-.9 0-.4 0-.6 0-.9-.1zm.5-.3c0 .1 0 .1 0 0 .1.1.2.1.2.1h.2c-.1 0-.2 0-.4-.1zm1.9.4s0-.1 0 0c-.1-.1-.2-.1-.2-.1h-.1c.1.1.1.1.3.1zM65.5 143.8c.1.1.1.1 0 0-.1.1-.3.2-.5.2h-.3c-1.5-.5-2.3-.8-4.1-1.3h-.4c-.1 0-.2 0-.4-.1-.3-.1-.5-.2-.8-.3-.2-.1-.2-.1-.1-.1.3-.1.5-.1.9-.1.2 0 .5 0 .8.1 2.1.7 3.2 1.1 4.9 1.6zM64.9 143.4c-1.2-.4-1.8-.6-3.1-1-.9-.3-1.1-.5-.6-.6.6-.1.9-.2 1.4-.3.4-.1 1 0 1.9.3 1.3.4 1.9.6 3 1 .7.2.9.4.5.5-.5.1-.8.2-1.3.3-.4.1-1 .1-1.8-.2zm1.7-.5c-.9-.3-1.5-.5-2.5-.8-.3-.1-.4-.1-.6-.1-.3.1-.5.1-.8.2-.1 0-.1.1.2.2 1 .3 1.6.5 2.5.8.2.1.4.1.5.1.3-.1.5-.1.7-.2.3-.1.2-.1 0-.2zM67.8 142.7c-1.1-.3-1.8-.6-3-1-.8-.3-1-.4-.7-.5.5-.1.7-.2 1.1-.3.3-.1.8 0 1.6.2 1.2.4 1.9.6 3 1 .7.2.9.4.6.5-.4.1-.6.2-1.1.3-.2.1-.7.1-1.5-.2zm1.3-.5c-.9-.3-1.4-.5-2.4-.8-.2-.1-.4-.1-.5-.1-.2.1-.4.1-.6.2-.1 0 0 .1.2.2 1 .3 1.5.5 2.5.8.2.1.4.1.5.1.2-.1.4-.1.6-.2 0-.1-.1-.1-.3-.2zM71.1 142.1c.3.1.5.2.5.3v.1h-.2s0-.1-.1-.1-.4 0-.6-.1c-.1 0-.2-.1-.4-.1-.1 0-.1-.1-.1-.1.1 0 .2-.1.3-.1h.2c.1 0 .2 0 .4.1zM70.8 141.8c-1.1-.4-1.8-.6-3-1-.8-.3-1-.4-.8-.5.3-.1.4-.2.7-.3.2-.1.5 0 1.3.2 1.1.4 1.9.6 3.1 1 .8.3 1.1.4.9.5-.3.1-.4.2-.7.3-.4.1-.8.1-1.5-.2zm.6-.5c-1-.3-1.5-.5-2.5-.8-.2-.1-.4-.1-.4-.1-.1.1-.2.1-.3.2-.1 0 0 .1.3.2 1 .3 1.5.5 2.4.8.2.1.4.1.4.1l.4-.2c.1-.1 0-.1-.3-.2zM72.1 141.1c-1.2-.4-1.9-.6-3.1-1-.8-.3-1-.4-.9-.5.1-.1.2-.1.2-.2s.3 0 1 .2c1.1.3 1.9.6 3.2 1 .9.3 1.3.4 1.2.5-.1.1-.2.2-.4.3.1.1-.3 0-1.2-.3zm.2-.4c-1.1-.3-1.7-.5-2.6-.8-.2-.1-.3-.1-.4-.1 0 .1-.1.1-.1.1s.1.1.3.2c.9.3 1.5.5 2.5.8.3.1.4.1.4.1l.2-.2c.1 0 0-.1-.3-.1zM72.7 140.5c-1.4-.4-2.2-.6-3.3-1-.7-.2-1-.3-1-.3-.1 0 .8-.3 1.2-.5.3-.1.4-.1 1 .1.9.3 1.6.5 3 1 .9.3 1.4.4 1.3.5-.2.1-.3.2-.7.4-.3.3-.5.1-1.5-.2zm.5-.6c-1.1-.3-1.7-.5-2.6-.8-.2-.1-.3-.1-.5 0s-.4.2-.8.3c-.2.1 0 .1.3.1 1 .3 1.6.4 2.8.7.3.1.5.1.6 0 .2-.1.3-.2.5-.3.1.2 0 .1-.3 0z"/>
    </g>
    <defs>
        <clipPath id="clip0">
            <path fill="#fff" d="M0 0H182.8V202.9H0z" transform="translate(44)"/>
        </clipPath>
    </defs>
</svg>
