<svg xmlns="http://www.w3.org/2000/svg" width="240" height="193" fill="none" viewBox="0 0 240 193">
    <g clip-path="url(#clip0)">
        <path fill="#90CEDD" d="M143.792 161.639h-38.007v-71.01c0-1.687 1.326-3.019 3.005-3.019h31.908c1.679 0 3.005 1.332 3.005 3.018v71.011h.089z"/>
        <path stroke="#000" stroke-linecap="round" stroke-linejoin="round" stroke-miterlimit="10" stroke-width="1.5" d="M143.792 161.639h-38.007v-71.01c0-1.687 1.326-3.019 3.005-3.019h31.908c1.679 0 3.005 1.332 3.005 3.018v71.011h.089z"/>
        <path fill="#3E8487" d="M143.792 161.639h17.854v-48.376c0-.977-.796-1.775-1.768-1.775h-16.086v50.151zM105.873 161.639H88.019v-48.376c0-.977.796-1.775 1.768-1.775h16.086v50.151z"/>
        <path fill="#354C48" d="M105.873 161.639h-4.419v-49.264c0-.444.354-.887.884-.887h3.535v50.151zM148.476 161.639h-4.419v-49.264c0-.444.353-.887.884-.887h3.535v50.151z" opacity=".6"/>
        <path stroke="#000" stroke-linecap="round" stroke-linejoin="round" stroke-miterlimit="10" stroke-width="1.5" d="M143.792 161.639h17.854v-48.376c0-.977-.796-1.775-1.768-1.775h-16.086v50.151zM105.873 161.639H88.019v-48.376c0-.977.796-1.775 1.768-1.775h16.086v50.151z"/>
        <path fill="#FAD45C" d="M138.488 87.61h-25.367v-7.367c0-.977.796-1.776 1.768-1.776h21.832c.972 0 1.767.8 1.767 1.776v7.367z"/>
        <path stroke="#000" stroke-linecap="round" stroke-linejoin="round" stroke-miterlimit="10" stroke-width="1.5" d="M138.488 87.61h-25.367v-7.367c0-.977.796-1.776 1.768-1.776h21.832c.972 0 1.767.8 1.767 1.776v7.367z"/>
        <path fill="#8DA087" d="M133.185 161.639h-16.793v-14.291c0-1.065.883-1.952 1.944-1.952h12.816c1.061 0 1.945.887 1.945 1.952v14.291h.088z"/>
        <path stroke="#000" stroke-linecap="round" stroke-linejoin="round" stroke-miterlimit="10" stroke-width="1.5" d="M133.185 161.639h-16.793v-14.291c0-1.065.883-1.952 1.944-1.952h12.816c1.061 0 1.945.887 1.945 1.952v14.291h.088z"/>
        <path fill="#C3E0DC" d="M120.546 97.197h-7.336v7.367h7.336v-7.367zM136.456 97.197h-7.337v7.367h7.337v-7.367zM120.546 112.375h-7.336v7.368h7.336v-7.368zM136.456 112.375h-7.337v7.368h7.337v-7.368zM120.546 127.554h-7.336v7.367h7.336v-7.367zM136.456 127.554h-7.337v7.367h7.337v-7.367z"/>
        <path stroke="#000" stroke-linecap="round" stroke-linejoin="round" stroke-miterlimit="10" stroke-width="1.5" d="M120.546 97.197h-7.336v7.367h7.336v-7.367zM136.456 97.197h-7.337v7.367h7.337v-7.367zM120.546 127.554h-7.336v7.367h7.336v-7.367zM136.456 127.554h-7.337v7.367h7.337v-7.367zM88.02 122.051h17.853M144.145 122.051h17.236M120.546 112.375h-7.336v7.368h7.336v-7.368zM136.456 112.375h-7.337v7.368h7.337v-7.368z"/>
        <path stroke="#E2E2E2" stroke-linecap="round" stroke-linejoin="round" stroke-miterlimit="10" stroke-width="1.5" d="M124.877 147.881v11.184"/>
        <path fill="#3E8487" d="M219.363 66.04l-.266-13.58s0-1.243-4.949 1.952c-4.95 3.196-26.782 14.913-26.782 14.913s-1.237 1.154-2.563 1.065c-1.237-.089-22.539-7.723-22.539-7.723L161.646 64l.353 12.96s.265 1.686 1.768 2.307c1.503.622 20.594 7.101 20.594 7.101s32.88-17.841 32.615-17.575c-.265.266 2.475-1.331 2.475-1.864 0-.532-.088-.888-.088-.888z"/>
        <path fill="#90CEDD" d="M218.744 52.016l-15.291 8.432-17.943 9.942c-.353.177-.707.177-1.06.089l-6.541-2.22-15.114-5.236c-1.061-.356-1.238-1.865-.177-2.397l33.234-18.374c.353-.178.707-.178 1.06-.09l21.655 7.368c.972.444 1.149 1.953.177 2.486z"/>
        <g fill="#3E8487" opacity=".4">
            <path d="M194.703 49.441l-.531-.266c-.176-.088-.353-.088-.53-.088-.177 0-.354.088-.53.088h-.266c-.088 0-.176.089-.265.178-.176.088-.265.177-.353.355-.089.177-.089.266-.089.444 0 .088 0 .177-.088.266v.089c0 .089-.088.089 0 .177 0 0 0 .089.088.089.089.266.266.533.531.71l.088.089c.088.177.265.266.354.444.176.177.353.266.53.444.088.088.177.266.354.355.176.088.353.177.53.177.177 0 .353.089.442 0h.088l.089.089v.089c0 .088.088.088.176.088.089 0 .089 0 .089-.088 0-.09 0-.09-.089-.178 0-.089-.088-.089-.176-.177l-.089-.09c.177-.088.265-.177 0-.354-.088-.089-.265 0-.088.088h-.265c-.177 0-.442 0-.619-.088-.177-.089-.265-.089-.354-.178l-.353-.355c-.265-.177-.531-.444-.707-.621.265 0 .353-.178.53-.267.177-.088.354 0 .53 0 .177 0 .442.09.619.09h.177v-.09h.353c-.088.09-.088.09-.088.178v.266c0 .09.177.178.265.178.177 0 .089-.178 0-.178v-.178s0-.088.089-.088h.176v.711c-.088 0-.088.088 0 .177h.265c.089 0 .089-.09.089-.178v-.266-.266s0-.09-.089-.09c0 0 0-.088-.088-.088-.088-.089-.177-.178-.353-.178h-.266c.177-.177.442-.355.354-.62-.088-.267-.442-.445-.707-.71.442.088.353 0 .177-.178zM198.326 57.785c-.088 0-.088 0 0 0-.176 0-.176 0-.176.09-.089 0-.177 0-.266.088h-.441c-.089-.089-.266-.089-.354-.178-.177-.088-.265 0-.354 0-.265.09-.265-.355-.265-.355 0-.088.089-.177 0-.177 0-.089-.088-.089-.177-.178-.088-.089-.176-.177-.265-.177h-.088-.088c-.089 0 0 .177.088.177.088.09.088.09.177.178 0 0 .088 0 0 0v.266c0 .178 0 .355.265.444.088.089.265.089.353.089.089 0 .177-.09.266 0 .088 0 .176.089.353.177.177.089.265.089.442.089s.265 0 .354-.089c.088 0 .265-.088.265-.177 0-.178-.089-.267-.089-.267zM188.073 54.412c-.265-.088-.53-.266-.795-.266s-.53 0-.707.089c-.265.089-.619.089-.796.266-.442.266-.442.71-.442 1.154 0 .266.089.533.177.71.089.089.089.267.177.355.088.178.265.267.354.355l.088.089h.619c.088-.089 0-.266 0-.444v-.355c0-.089.088-.177.088-.355.088-.089.088-.266.177-.355.177-.178.619-.089.884-.089h.353c.089 0 .177.089.265.089 0 .089.089.089.177.089h.089l.088-.089.088-.089v-.089c0-.088 0-.177-.088-.266-.088-.177-.177-.266-.265-.444-.089-.088-.265-.266-.531-.355zM188.692 60.36c-.088.088.089.177.177.177.088-.089-.088-.177-.177-.177z" opacity=".4"/>
            <path d="M199.652 53.258c-.619-.355-1.237-.71-1.856-.799h-.884c-.265 0-.53.09-.707.178-.265.178-.442.355-.619.533-.088.088-.176.177-.176.266-.089.089-.177.178-.089.355.089.089.265.089.177 0l.088-.089c0-.088.089-.088.089-.177.088-.09.088-.178.177-.267.088-.177.265-.355.441-.443.089-.09.177-.09.266-.178.088 0 .265-.089.353-.089h.796c.265 0 .53.09.795.178.265.089.619.266.884.444.265.177.619.355.884.532.088.089.265.178.353.267.177.088.266.177.354.355.265.266.442.443.53.71.089.089.089.266.177.355v.266l-.088.089c-.265-.178-.531-.267-.796-.444-.442-.266-.795-.533-1.149-.799-.177-.089-.353-.266-.53-.266-.177-.089-.265-.089-.442-.089-.354-.089-.619.089-.707.266 0 0-.089 0-.089-.088-.176-.09-.353-.09-.53-.09-.088 0-.177 0-.177.09-.088-.09-.265-.178-.353-.178-.354-.089-.619-.089-.972-.089-.354 0-.708.09-.973.267-.265.177-.442.443-.53.71h-.088l-.266.266c0 .089-.088.178-.088.355 0 .178.088.355.354.621h-.442c-.089 0-.177 0-.266.09 0 0-.088-.09-.176 0h-.089c0-.09 0-.178-.088-.267-.088-.089-.265-.266-.442-.355-.088 0-.177-.089-.265 0 0-.178-.089-.355-.265-.444-.177-.177-.442-.444-.707-.533-.266-.177-.531-.266-.884-.355-.265-.088-.531-.088-.796-.088s-.53 0-.707.177c-.177.178-.265.355-.265.533-.088.177-.088.444-.088.621l.265.799v.089l-.089-.09c-.088-.088-.176-.177-.353-.265-.177-.09-.177.088 0 .177.088 0 .088.089.177.089l.176.177.266.267c.176.177.441.355.53.621.088.178.088.355.088.533 0 .088 0 .177-.088.266 0 0 0 .089-.089.089l-.088.089h-.088c-.265-.09-.619-.178-.884-.178-.177 0-.354 0-.531-.089-.176-.089-.353-.089-.618-.089h-.531c-.176-.088-.265-.177-.353-.266l-.177-.177-.088-.09s0-.088-.089-.088h-.176c-.089.089.176.355.265.444.088.089.177.177.353.266-.088 0-.176 0-.265.089-.353.089-.707.266-.972.355-.177.089-.354.177-.442.266-.177.09-.265.178-.442.355-.088.09-.177.178-.265.355-.265-.088-.442-.177-.707-.266-.089 0-.177-.089-.265-.089-.089 0-.089 0-.177-.088 0 0 0-.09-.089-.09h-.176v.09c.088.088.176.177.265.177.088 0 .265.089.353.089-.176.089-.176.266-.176.444 0 .177-.089.355-.089.532v.533c0 .177 0 .355.089.532l.265.533c.177.178.265.355.442.621.265.355.707.71 1.149.977.265.177.53.266.795.444.265.088.531.266.796.355.265.088.53.266.795.266.177 0 .265 0 .354.089.088 0 .265.088.442.088 1.06.178 2.121 0 2.828-.355.265-.088.442-.266.619-.355.088-.088.177-.088.265-.177.088.089.177.177.353.266.089.089.177.178.354.178.177.088.265 0 .354-.09.088-.088.176-.088.265-.177V64l-.177-.178c-.088-.088-.177-.177-.354-.177-.088 0-.088 0-.176-.089h-.089-.088l.265-.266c.088-.089.265-.178.177-.355v-.09l-.089-.088c-.176-.089-.353-.089-.53-.177-.177 0-.353-.09-.442-.178.177-.177.265-.355.265-.533.089-.266-.088-.532-.176-.71-.089-.088-.089-.266-.177-.355h.353c.177 0 .442.09.619.09s.442.088.619.088c.176 0 .353 0 .442.089 0 .088.088.266.088.355v.177c0 .089.088.178.088.178s0 .088.089.088c.088.09.265.09.353.09.177 0 .266.088.442.088.265.089.531.089.796.178.618 0 1.06 0 1.502-.178.442-.089.973-.178 1.415-.355.441-.178.883-.266 1.325-.444.442-.177.796-.444 1.149-.621.354-.178.707-.444 1.061-.621.177-.09.265-.178.354-.356.088-.088.265-.266.265-.355.088-.177.088-.266 0-.444-.089-.177-.177-.355-.354-.532l-.265-.266c-.088-.09-.265-.178-.354-.267-.265-.177-.53-.266-.883-.443-.266-.09-.531-.267-.796-.355-.088 0-.265-.09-.353-.09l-.089-.088h-.619c-.088 0-.088 0-.088.089-.177 0-.353.088-.442.177-.088.089-.177.267-.265.355-.088.09-.088.267-.088.444 0 .266.176.533.265.799l.265.533c.088.177.177.355.177.443 0 .178-.089.267-.089.355 0 .178-.176.267-.353.267-.177.088-.354.088-.619.088-.177 0-.353 0-.619.09H194.437c-.176 0-.442-.09-.53.088-.088.089-.088.266-.088.355-.089 0-.266 0-.354-.089-.177 0-.442-.088-.619-.088-.265 0-.442-.09-.707-.09-.088 0-.265 0-.353-.088h-.177c0-.089-.088-.178-.177-.266-.177-.267-.353-.533-.53-.71h1.237c.442.088.973.177 1.414.177.177 0 .177-.089.177-.177-.088-.178-.177-.355-.177-.444-.088-.355-.088-.71-.265-1.065-.088-.178-.088-.355-.176-.533v-.266s0-.089.088-.089c.265-.089.442-.178.795-.178h.177l.089.09c.088.088.265.177.353.266.177.088.089.266.265.355.177.088.354 0 .531-.09.176-.088.265-.354.442-.443.088-.089.176-.089.353 0 .088.089.265.089.354.178.265.088.353 0 .442-.178.088-.178.088-.444.176-.621 0-.09.089-.267.177-.267.089 0 .089-.088.177-.088h1.326c.265.088.53.177.795.355.354.177.707.444.972.621.354.178.708.355 1.061.444.177 0 .354.089.53.089h.354c.088 0 0-.09 0-.09l-.177-.177c-.088-.088-.265 0-.088.09h-.354c-.177 0-.265-.09-.442-.09-.353-.088-.707-.355-1.06-.532-.619-.355-1.238-.8-1.945-.888h-.795v-.089-.178-.088c0-.089-.089-.178-.089-.178.089 0 0-.177-.088-.177-.088-.089-.177-.177-.354-.266l-.088-.09h.177c.088 0 .265.09.353.178l.089.09c.088.088.176.088.176.177l.089.088v.09c-.089 0 .088.177.177.177.265-.089 0-.355-.177-.533l-.089-.088c.089-.178.177-.267.442-.267.266 0 .442.089.619.178.265.177.442.355.707.532l.796.533c.442.266.972.621 1.502.888.265.088.796.355.973.266 0 0 0-.089-.089-.089-.088-.089-.177-.089-.177 0-.088 0-.265-.089-.353-.089-.177-.089-.442-.177-.619-.266-.088-.089-.177-.089-.265-.178v-.178c0-.088 0-.177-.088-.354-.089-.089-.089-.266-.177-.355-.089-.089-.177-.267-.265-.355.088-1.332-.531-1.776-1.238-2.13zm-6.364 10.12c0 .088 0 .088 0 0 0 .088 0 .088 0 0 0 .088 0 .088 0 0 0 .088 0 .088 0 0 0 .088 0 .088 0 0 0 .088 0 .088 0 0 0 .088-.088.088 0 0l-.176.177s-.089 0-.089.089h-.088l-.089-.089c-.088 0-.088-.089-.176-.089l-.266-.266c.089 0 .089-.089.177-.089.089.089.177.089.265.089h.089s.088 0 .088.089c.089 0 .089.088.265.088-.088 0-.088 0 0 0zm-.53-1.154s0 .088.088.088c0 .09-.088.178-.176.178-.089.089-.177.266-.266.355l-.53.266-.53.267c-.619.355-1.414.62-2.387.62-.265 0-.53-.088-.795-.088-.089 0-.177-.089-.265-.089-.089 0-.265 0-.354-.088l-.795-.267c-.265-.089-.531-.177-.707-.355-.266-.088-.442-.266-.708-.355-.176-.177-.441-.266-.618-.444-.354-.266-.619-.621-.796-.976-.176-.178-.265-.355-.265-.533-.088-.177-.088-.444-.088-.621 0-.266 0-.444.088-.621.089-.178 0-.444.177-.622v-.089c.177.09.353.178.53.178-.088.089-.177.266-.177.355-.176.266-.088.533 0 .888.089.177.177.266.266.444.088.177.265.355.442.532l.176.178c.089.089.089.177.177.266l.265.266h.089c.176.267.618.444.972.622.177.088.442.177.619.266.265.089.442.178.707.178.442.088.795.088 1.149.088.353 0 .795 0 1.06-.088.354-.09.707-.267.973-.444.265-.178.53-.355.707-.622l.088.09h.089s.088 0 .176.088c.089 0 .177.089.265.089h.354zm.619-4.794c.088.178.088.355.176.533 0 .177 0 .355.089.444 0 .089 0 .177.088.177l.089.178h-.619c-.265 0-.442-.089-.707-.089-.265 0-.53-.089-.707-.089h-.796c-.088-.089-.265-.177-.442-.266l-.53-.266.088-.09c.089-.088.089-.177.089-.265 0-.09.088-.178 0-.355 0-.09 0-.267-.089-.355-.088-.09-.088-.267-.176-.356l.176.178c.177.178.442.355.707.533.442.266.884.355 1.326.266.442-.089.884-.178 1.061-.444 0 0 0-.089.088-.089.089.267.089.355.089.355zm-.177-1.42c0 .089 0 .089 0 0 0 .089 0 .089 0 0v.089c-.088 0-.088 0-.088.089 0 .088.088.088.088.088h.177v.09l-.089-.09c-.088-.088-.265 0-.088.09l.088.177c0 .088.089.177.089.177 0 .089 0 .267-.177.355-.265.178-.53.267-.884.267-.353 0-.707-.09-1.061-.267-.176-.089-.353-.266-.53-.355-.177-.089-.353-.266-.442-.444.089 0 .089-.088.089-.177s.088-.178.176-.266c.089-.09.177-.09.265-.178 0 0 0-.089.089-.089h.177c.265 0 .53.089.707.178.265 0 .53.089.795.177 0 0 .089.09.177.09s.088-.09 0-.09v-.088s0-.09.088-.09h.089s.088 0 .088.09l.177.177c-.088-.089-.088-.089 0 0-.088-.089-.088-.089 0 0-.088-.089-.088-.089 0 0-.088-.089-.088-.089 0 0-.088 0-.088 0 0 0z" opacity=".4"/>
            <path d="M198.326 55.921c-.088-.088-.176-.088-.265-.177h-.265c-.177 0-.265.089-.265.266 0 .089.088.178.177.266.088.09.177.09.265.09.088 0 .088-.09 0-.178-.088 0-.088-.09-.088-.178v-.089c.088 0 .176-.088.353 0 .088.09.265.178.354.267v.266c-.089 0-.089.089.088.178h.177v-.09-.177c0-.089-.089-.177-.089-.177-.265-.178-.353-.267-.442-.267z" opacity=".4"/>
        </g>
        <path fill="#3E8487" d="M216.269 52.548c-.442.533-1.326.977-1.856 1.598-.531-.177-3.978-1.509-4.508-1.686-1.768-.71-3.535-1.332-5.392-1.953-1.944-.71-3.889-1.598-5.833-2.397-1.061-.444-2.121-.799-3.27-1.154-.619-.266-3.889-1.242-4.508-1.509.707-.444 2.121-.887 2.828-1.42.884.355 3.801 1.331 4.685 1.687 1.944.71 3.889 1.597 5.922 2.396 1.856.71 3.624 1.332 5.48 1.953 1.06.444 5.391 2.13 6.452 2.485z"/>
        <path fill="#fff" d="M201.066 61.78l.531 15.445 5.038-2.84.088-16.067-5.657 3.462z"/>
        <path fill="#fff" d="M201.066 61.78l-24.218-8.965 5.038-2.84 24.837 8.343-5.657 3.462z"/>
        <path stroke="#E2E2E2" stroke-linecap="round" stroke-linejoin="round" stroke-miterlimit="10" stroke-width="1.5" d="M179.854 52.46l21.566 7.367M202.481 75.36l-.089-12.781"/>
        <path stroke="#000" stroke-linecap="round" stroke-linejoin="round" stroke-miterlimit="10" stroke-width="1.5" d="M200.359 62.135L185.51 70.39c-.353.177-.707.177-1.06.089l-6.541-2.22-15.114-5.236c-1.061-.356-1.238-1.865-.177-2.397l33.234-18.374c.353-.178.707-.178 1.06-.09l21.655 7.368c1.061.355 1.238 1.864.177 2.397l-12.021 6.657M206.37 58.85l-3.447 1.865"/>
        <path stroke="#000" stroke-linecap="round" stroke-linejoin="round" stroke-miterlimit="10" stroke-width="1.5" d="M161.911 61.957v14.735c0 1.243.795 2.308 1.944 2.663l20.595 7.101c.353.089.707.089 1.06-.089l31.908-17.664M218.744 56.454l-12.109 6.569"/>
        <path stroke="#000" stroke-linecap="round" stroke-linejoin="round" stroke-miterlimit="10" stroke-width="1.5" d="M175.081 71.189l9.722 3.373c.354.089.707.089 1.061-.089l15.202-8.344M162.441 66.84l9.723 3.372M218.744 60.27l-12.109 6.658"/>
        <path stroke="#000" stroke-linecap="round" stroke-linejoin="round" stroke-miterlimit="10" stroke-width="1.5" d="M162.441 70.656l22.362 7.723c.354.088.707.088 1.061-.09l15.203-8.343M218.744 64.265l-12.109 6.657"/>
        <path stroke="#000" stroke-linecap="round" stroke-linejoin="round" stroke-miterlimit="10" stroke-width="1.5" d="M162.441 74.65l22.362 7.723c.354.089.707.089 1.061-.089l15.203-8.344M219.097 51.572v15.534M182.24 49.797l24.13 8.255M177.114 53.17l23.599 7.988M206.635 74.384V58.673M201.066 61.78v16.066"/>
        <path fill="#5EA3AA" d="M168.717 63.111h-.089c-.441-.177-.707-.266-.795-.355-.088-.089-.088-.177.088-.355h-.088c-.088 0-.088 0-.088-.089v-.088s.088 0 .088-.09h.354c.176-.088.441-.088.618-.088.265 0 .531.089.796.178.088.088.177.088.177.088v.09c-.089 0-.089.088-.177.088H169.07c.177.089.177.089.354.089.177-.09.354-.09.619-.09s.442.09.618.178h.089c.353.178.618.267.618.355 0 .09 0 .178-.088.267h.177s-.089 0-.089.088h-.265c-.176.09-.353.09-.53.09-.265 0-.442-.09-.707-.09-.088 0-.177-.088-.177-.088V63.2c.089 0 .089-.089.177-.089H170.396c-.088 0-.177-.088-.353-.088-.177.088-.354.088-.619.088-.177.089-.442.089-.707 0zm.177-.355l.088.089h.177c-.089-.089-.177-.089-.265-.089 0-.089 0 0 0 0zm1.679.355s-.088 0-.088-.088h-.177c.088 0 .177.088.265.088.088 0 .088 0 0 0zM172.871 62.667c.089.09.177.09.089.09-.089.088-.177.088-.354.177h-.265c-1.326-.622-2.475-1.066-4.154-1.776-.089 0-.177-.088-.177 0-.089 0-.089 0-.089.09h-.353c-.265-.09-.442-.178-.707-.267-.177-.089-.177-.089-.089-.178.266-.177.354-.177.619-.355.177-.088.354-.088.619.09 1.856.798 3.359 1.42 4.861 2.13zM172.253 62.135c-1.15-.533-1.945-.888-3.182-1.42-.884-.356-.973-.622-.708-.8.442-.266.619-.354 1.061-.532.265-.177.796-.089 1.591.266 1.237.622 2.033.888 3.094 1.51.795.355.884.62.53.798-.354.178-.53.355-.972.533-.265 0-.619 0-1.414-.355zm1.06-.888c-.972-.444-1.502-.71-2.563-1.242-.265-.09-.442-.178-.53-.09-.266.09-.354.178-.531.356-.088.088 0 .177.265.266 1.061.444 1.591.71 2.564 1.154.265.089.353.177.442.089l.53-.267c.088-.088.088-.177-.177-.266zM174.374 60.892c-1.149-.533-1.857-.888-3.094-1.509-.795-.355-.972-.621-.707-.799.353-.177.53-.266.884-.532.265-.178.707-.09 1.591.355 1.237.532 2.033.887 3.182 1.42.795.355.884.621.618.71-.353.178-.618.355-.972.533-.353.266-.795.177-1.502-.178zm1.06-.888c-.972-.443-1.591-.71-2.563-1.154-.265-.088-.442-.177-.53-.088-.177.088-.265.177-.531.266-.088.089 0 .089.266.266 1.06.444 1.59.71 2.563 1.243.265.089.353.178.442.089l.53-.267c.088-.177 0-.177-.177-.355zM177.467 59.738c.266.178.442.267.531.355v.178h-.265v-.178c-.177.089-.354 0-.619-.089-.177-.088-.265-.088-.354-.177-.088 0-.088-.089-.088-.089.088-.089.177-.089.353-.177h.177c0 .088.089.088.265.177zM177.114 59.294c-1.149-.532-1.945-.798-3.271-1.42-.883-.355-1.06-.621-.883-.71.353-.178.441-.266.795-.444.265-.177.796-.089 1.679.267 1.326.532 2.21.798 3.447 1.242.796.355.973.533.708.71-.354.178-.531.355-.973.533-.265.266-.707.177-1.502-.178zm.972-.798c-1.061-.444-1.679-.622-2.74-1.066-.265-.088-.442-.177-.53-.088-.177.088-.265.177-.442.266-.089 0 0 .089.265.266 1.061.444 1.679.71 2.74 1.065.265.089.442.089.53.089.177-.089.265-.178.531-.266 0-.089-.089-.178-.354-.267zM179.147 58.23c-1.238-.445-2.033-.8-3.448-1.243-.883-.356-1.237-.533-.972-.71.354-.178.442-.267.796-.444.265-.178.795-.09 1.767.266 1.415.444 2.299.799 3.536 1.154.884.266 1.061.444.795.621-.353.178-.53.266-.883.533-.266.177-.708.089-1.591-.178zm.883-.8c-1.06-.355-1.679-.621-2.916-.976-.265-.089-.442-.089-.531-.089-.176.089-.265.178-.442.266-.088 0 0 .09.354.178 1.149.444 1.768.621 2.828.976.266.09.442.09.531.09.176-.09.265-.178.442-.267.088 0 0-.089-.266-.178zM181.091 57.164c-1.326-.444-2.121-.71-3.535-1.154-.973-.355-1.238-.532-1.061-.71.353-.177.442-.266.795-.444.266-.177.796-.089 1.768.267 1.414.443 2.298.71 3.536 1.153.883.267 1.06.444.795.622-.353.177-.442.266-.795.444-.177.088-.707.088-1.503-.178zm.796-.799c-1.061-.355-1.768-.532-2.917-.976-.265-.089-.442-.089-.531-.089-.176.089-.265.178-.441.266-.089 0 0 .089.353.178 1.149.355 1.856.621 2.917.976.265.089.442.089.53.089.177-.089.265-.178.442-.266 0 0-.088-.09-.353-.178z"/>
        <path fill="#3E8487" d="M146.001 24.765l-.265-13.58s0-1.243-4.949 1.952c-4.95 3.196-26.782 14.912-26.782 14.912s-1.237 1.154-2.563 1.066c-1.237-.09-22.539-7.723-22.539-7.723l-.618 1.332.353 12.96s.265 1.686 1.768 2.307c1.502.621 20.594 7.101 20.594 7.101s32.88-17.841 32.615-17.575c-.265.266 2.475-1.332 2.475-1.864 0-.355-.089-.888-.089-.888z"/>
        <path fill="#90CEDD" d="M145.294 10.74l-15.291 8.433-17.942 9.942c-.354.177-.707.177-1.061.088l-6.541-2.219-15.114-5.148c-1.06-.355-1.237-1.864-.177-2.397l33.234-18.374c.354-.177.707-.177 1.061-.089l21.654 7.368c1.061.355 1.149 1.864.177 2.396z"/>
        <g fill="#3E8487" opacity=".4">
            <path d="M121.253 8.255l-.53-.266c-.177-.089-.354-.089-.531-.089-.177 0-.353.089-.53.089h-.265c-.089 0-.177.089-.265.177-.177.09-.266.178-.354.355-.088.178-.088.267-.088.444 0 .089 0 .178-.089.266v.09c0 .088-.088.088 0 .177 0 0 0 .089.089.089.088.266.265.532.53.71l.088.088c.089.178.266.267.354.444.177.178.353.266.53.444.089.089.177.266.354.355.177.089.353.178.53.178.177 0 .354.088.442 0h.088l.089.088v.09c0 .088.088.088.177.088.088 0 .088 0 .088-.089s0-.089-.088-.177c0-.09-.089-.09-.177-.178l-.089-.089c.177-.088.266-.177 0-.355-.088-.088-.265 0-.088.09h-.265c-.177 0-.442 0-.619-.09-.177-.088-.265-.088-.353-.177l-.354-.355c-.265-.178-.53-.444-.707-.622.265 0 .354-.177.53-.266.177-.089.354 0 .531 0 .176 0 .442.089.618.089h.177v-.089h.354c-.089.089-.089.089-.089.178v.266c0 .089.177.177.265.177.177 0 .089-.177 0-.177v-.178s0-.088.089-.088h.177v.71c-.089 0-.089.089 0 .177h.265c.088 0 .088-.088.088-.177v-.267-.266s0-.089-.088-.089c0 0 0-.088-.089-.088-.088-.09-.176-.178-.353-.178h-.265c.176-.177.442-.355.353-.621-.088-.267-.442-.444-.707-.71.442.088.354-.09.177-.178zM124.877 16.51c-.177 0-.177 0-.177.089-.088 0-.177 0-.265.089h-.442c-.088-.09-.265-.09-.353-.178-.177-.089-.266 0-.354 0-.265.089-.265-.355-.265-.355 0-.089.088-.178 0-.178 0-.088-.089-.088-.177-.177s-.177-.178-.265-.178h-.089-.088c-.088 0 0 .178.088.178l.177.177s.089 0 0 0v.267c0 .177 0 .355.265.444.089.088.266.088.354.088.088 0 .177-.088.265 0 .089 0 .177.09.354.178.176.089.265.089.442.089.176 0 .265 0 .353-.09.089 0 .265-.088.265-.177.089-.177 0-.266-.088-.266zM114.624 13.137c-.265-.089-.531-.266-.796-.266s-.53 0-.707.089c-.265.088-.619.088-.795.266-.442.266-.442.71-.442 1.154 0 .266.088.532.177.71.088.089.088.266.176.355.089.178.266.266.354.355l.088.089H113.298c.088-.089 0-.266 0-.444v-.355c0-.089.088-.178.088-.355.089-.089.089-.266.177-.355.177-.178.619-.089.884-.089h.354c.088 0 .176.089.265.089 0 .088.088.088.177.088h.088l.088-.088.089-.089v-.089c0-.088 0-.177-.089-.266-.088-.178-.177-.266-.265-.444l-.53-.355zM115.243 19.173c-.089.089.088.178.176.178.089-.09-.088-.267-.176-.178z" opacity=".4"/>
            <path d="M126.291 11.983c-.619-.355-1.237-.71-1.856-.799h-.884c-.265 0-.53.089-.707.178-.265.177-.442.355-.619.532-.088.09-.176.178-.176.267-.089.088-.177.177-.089.355.089.088.265.088.177 0l.088-.089c0-.089.089-.089.089-.178.088-.088.088-.177.176-.266.089-.177.266-.355.442-.444.089-.088.177-.088.266-.177.088 0 .265-.089.353-.089h.796c.265 0 .53.089.795.178.265.088.619.266.884.443.265.178.619.355.884.533.088.089.265.178.353.266.177.089.266.178.354.355.265.267.442.444.53.71.089.09.089.267.177.356v.266l-.088.088c-.266-.177-.531-.266-.796-.443-.442-.267-.795-.533-1.149-.8-.177-.088-.353-.265-.53-.265-.177-.09-.265-.09-.442-.09-.354-.088-.619.09-.707.267 0 0-.089 0-.089-.089-.176-.088-.353-.088-.53-.088-.088 0-.177 0-.177.088-.088-.088-.265-.177-.353-.177-.354-.089-.619-.089-.973-.089-.353 0-.707.089-.972.266-.265.178-.442.444-.53.71h-.089l-.265.267c0 .088-.088.177-.088.355 0 .177.088.355.353.621h-.441c-.089 0-.177 0-.266.089 0 0-.088-.089-.176 0h-.089c0-.089 0-.178-.088-.266-.089-.09-.265-.267-.442-.355-.088 0-.177-.09-.265 0 0-.178-.089-.355-.265-.444-.177-.178-.442-.444-.708-.533-.265-.177-.53-.266-.883-.355-.266-.089-.531-.089-.796-.089s-.53 0-.707.178c-.177.177-.265.355-.265.532-.089.178-.089.444-.089.622l.266.799v.088l-.089-.088c-.088-.09-.177-.178-.353-.267-.177-.088-.177.09 0 .178.088 0 .088.089.176.089l.177.177.265.267c.177.177.442.354.531.62.088.178.088.356.088.533 0 .09 0 .178-.088.267 0 0 0 .088-.089.088l-.088.09h-.088c-.266-.09-.619-.178-.884-.178-.177 0-.354 0-.531-.09-.176-.088-.353-.088-.618-.088h-.531c-.176-.089-.265-.177-.353-.266l-.177-.178-.088-.088s0-.09-.089-.09h-.177c-.088.09.177.356.266.445.088.088.176.177.353.266-.088 0-.177 0-.265.089-.354.088-.707.266-.972.355-.177.088-.354.177-.442.266-.177.089-.265.178-.442.355-.088.089-.177.178-.265.355-.265-.089-.442-.177-.707-.266-.089 0-.177-.089-.266-.089-.088 0-.088 0-.176-.089 0 0 0-.088-.089-.088h-.176v.088c.088.09.176.178.265.178.088 0 .265.089.353.089-.177.088-.177.266-.177.443 0 .178-.088.355-.088.533v.533c0 .177 0 .355.088.532l.266.533c.176.177.265.355.442.621.265.355.707.71 1.149.977.265.177.53.266.795.443.265.09.53.267.796.355.265.09.53.267.795.267.177 0 .265 0 .354.088.088 0 .265.09.353.09 1.061.177 2.121 0 2.829-.356.265-.089.441-.266.618-.355.089-.089.177-.089.265-.177.089.088.177.177.354.266.088.089.177.177.354.177.176.09.265 0 .353-.088.088-.09.177-.09.265-.178v-.177c-.088-.09-.088-.09-.177-.178-.088-.089-.176-.177-.353-.177-.088 0-.088 0-.177-.09h-.088-.089l.266-.265c.088-.09.265-.178.176-.356v-.088l-.088-.09c-.177-.088-.354-.088-.53-.177-.177 0-.354-.088-.442-.177.176-.178.265-.355.265-.533.088-.266-.089-.532-.177-.71-.088-.089-.088-.266-.177-.355h.354c.177 0 .442.089.619.089.176 0 .441.089.618.089s.354 0 .442.088c0 .09.089.267.089.355v.178c0 .089.088.177.088.177s0 .09.088.09c.089.088.265.088.354.088.177 0 .265.089.442.089.265.088.53.088.795.177.619 0 1.061 0 1.503-.177.442-.089.972-.178 1.414-.355.442-.178.884-.267 1.326-.444.442-.178.795-.444 1.149-.621.353-.178.707-.444 1.061-.622.176-.089.265-.177.353-.355.088-.089.265-.266.265-.355.089-.177.089-.266 0-.444-.088-.177-.177-.355-.353-.532l-.265-.267c-.089-.088-.266-.177-.354-.266-.265-.177-.53-.266-.884-.444-.265-.088-.53-.266-.795-.355-.089 0-.266-.088-.354-.088l-.088-.09h-.619c-.088 0-.088 0-.088.09-.177 0-.354.088-.442.177-.089.089-.177.266-.265.355-.089.089-.089.266-.089.444 0 .266.177.532.265.799l.265.532c.089.178.177.355.177.444 0 .178-.088.266-.088.355 0 .178-.177.267-.354.267-.176.088-.353.088-.618.088-.177 0-.354 0-.619.089H120.988c-.177 0-.442-.089-.53.089-.089.089-.089.266-.089.355-.088 0-.265 0-.353-.089-.177 0-.442-.089-.619-.089-.265 0-.442-.088-.707-.088-.089 0-.265 0-.354-.09h-.177c0-.088-.088-.177-.176-.265-.177-.267-.354-.533-.531-.71h1.238c.442.088.972.177 1.414.177.177 0 .177-.089.177-.178-.089-.177-.177-.355-.177-.443-.088-.355-.088-.71-.265-1.066-.089-.177-.089-.355-.177-.532v-.267s0-.088.088-.088c.266-.089.442-.178.796-.178h.177l.088.089c.088.089.265.177.354.266.176.09.088.267.265.355.177.09.353 0 .53-.088.177-.09.265-.355.442-.444.088-.089.177-.089.354 0 .088.088.265.088.353.177.265.09.354 0 .442-.177.088-.178.088-.444.177-.622 0-.088.088-.266.177-.266.088 0 .088-.089.176-.089h1.326c.265.09.531.178.796.355.353.178.707.444.972.622.354.177.707.355 1.061.444.176 0 .353.088.53.088h.353c.089 0 0-.088 0-.088l-.176-.178c-.089-.089-.265 0-.089.089h-.353c-.177 0-.265-.089-.442-.089-.354-.089-.707-.355-1.061-.533-.619-.355-1.237-.798-1.944-.887h-.796v-.089-.177-.09c0-.088-.088-.177-.088-.177.088 0 0-.177-.089-.177-.088-.089-.176-.178-.353-.267l-.089-.088h.177c.089 0 .265.088.354.177l.088.089c.089.089.177.089.177.178l.088.088v.089c-.088 0 .089.178.177.178.265-.09 0-.355-.177-.533l-.088-.089c.088-.177.177-.266.442-.266s.442.089.619.177c.265.178.442.356.707.533l.795.533c.442.266.972.62 1.503.887.265.089.795.355.972.266 0 0 0-.088-.088-.088-.089-.089-.177-.089-.177 0-.089 0-.265-.089-.354-.089-.176-.089-.442-.178-.618-.266-.089-.09-.177-.09-.266-.178v-.177c0-.09 0-.178-.088-.355-.088-.09-.088-.267-.177-.355-.088-.09-.176-.267-.265-.355.089-1.332-.53-1.776-1.149-2.13zm-6.452 10.208c0 .089 0 .089 0 0l-.177.178s-.088 0-.088.088h-.089l-.088-.088c-.088 0-.088-.09-.177-.09l-.265-.265c.088 0 .088-.09.177-.09.088.09.177.09.265.09h.088s.089 0 .089.088c.088-.088.176 0 .265.089zm-.442-1.154s0 .089.088.089c0 .089-.088.177-.176.177-.089.09-.177.267-.266.355-.176.09-.353.178-.53.267l-.53.266c-.619.355-1.414.621-2.387.621-.265 0-.53-.088-.795-.088-.089 0-.177-.09-.265-.09-.089 0-.266 0-.354-.088l-.795-.266c-.266-.089-.531-.178-.708-.355-.265-.089-.441-.267-.707-.355-.176-.178-.442-.267-.618-.444-.354-.267-.619-.622-.796-.977-.177-.177-.265-.355-.265-.532-.088-.178-.088-.444-.088-.622 0-.266 0-.443.088-.62.088-.178 0-.445.177-.622v-.089c.177.089.353.178.53.178-.088.088-.177.266-.177.355-.176.266-.088.532 0 .887.089.178.177.267.266.444.088.178.265.355.441.533l.177.177c.089.089.089.178.177.267l.265.266h.089c.176.266.618.444.972.621.177.089.442.178.619.266.265.09.441.178.707.178.442.089.795.089 1.149.089.353 0 .795 0 1.06-.089.354-.089.707-.266.973-.444.265-.177.53-.355.707-.621l.088.088h.088s.089 0 .177.09c.089 0 .177.088.265.088.089-.089.177-.089.354 0zm.619-4.793c.088.177.088.355.176.532 0 .178 0 .355.089.444 0 .089 0 .178.088.178l.089.177h-.619c-.265 0-.442-.088-.707-.088-.265 0-.531-.09-.707-.09h-.796c-.088-.088-.265-.177-.442-.265l-.53-.267.088-.089c.089-.088.089-.177.089-.266 0-.089.088-.177 0-.355 0-.089 0-.266-.089-.355-.088-.089-.088-.266-.176-.355l.176.178c.177.177.442.354.707.532.442.266.884.355 1.326.266.442-.088.884-.177 1.061-.444 0 0 0-.088.088-.088 0 .177 0 .266.089.355zm-.266-1.51c0 .09 0 .09 0 0 0 .09 0 .09 0 0 0 .09 0 .09 0 0v.09c-.088 0-.088 0-.088.088 0 .09.088.09.088.09h.177v.088l-.088-.089c-.089-.089-.265 0-.089.089l.089.177c0 .09.088.178.088.178 0 .089 0 .266-.177.355-.265.177-.53.266-.883.266-.354 0-.708-.088-1.061-.266-.177-.089-.354-.266-.53-.355-.177-.089-.354-.266-.442-.444.088 0 .088-.089.088-.177 0-.09.088-.178.177-.267.088-.088.177-.088.265-.177 0 0 0-.089.088-.089h.177c.265 0 .53.089.707.178.265 0 .531.088.796.177 0 0 .088.089.177.089.088 0 .088-.089 0-.089v-.089s0-.088.088-.088h.088s.089 0 .089.088l.176.178c0-.089 0 0 0 0z" opacity=".4"/>
            <path d="M124.965 14.646c-.088-.089-.177-.089-.265-.178h-.265c-.177 0-.265.09-.265.267 0 .089.088.177.176.266.089.089.177.089.266.089.088 0 .088-.089 0-.178-.089 0-.089-.088-.089-.177v-.089c.089 0 .177-.089.354 0 .088.089.265.178.353.266v.267c-.088 0-.088.088.089.177h.176v-.089-.177c0-.089-.088-.178-.088-.178-.265-.177-.353-.177-.442-.266z" opacity=".4"/>
        </g>
        <path fill="#3E8487" d="M142.908 11.273c-.442.533-1.326.976-1.856 1.598-.531-.178-3.978-1.51-4.508-1.687-1.768-.71-3.535-1.331-5.392-1.953-1.944-.71-3.889-1.597-5.833-2.396-1.061-.444-2.121-.8-3.27-1.154-.619-.266-3.89-1.243-4.508-1.51.707-.443 2.121-.887 2.828-1.42.884.356 3.801 1.332 4.685 1.687 1.944.71 3.889 1.598 5.922 2.397 1.856.71 3.623 1.331 5.48 1.953.972.443 5.391 2.13 6.452 2.485z"/>
        <path fill="#fff" d="M127.617 20.505l.53 15.533 5.126-2.84V17.13l-5.656 3.373z"/>
        <path fill="#fff" d="M127.617 20.505l-24.218-8.966 5.126-2.84 24.749 8.432-5.657 3.373z"/>
        <path stroke="#E2E2E2" stroke-linecap="round" stroke-linejoin="round" stroke-miterlimit="10" stroke-width="1.5" d="M106.492 11.273l21.478 7.367M129.119 34.085l-.176-12.693"/>
        <path stroke="#000" stroke-linecap="round" stroke-linejoin="round" stroke-miterlimit="10" stroke-width="1.5" d="M126.91 20.948l-14.849 8.255c-.354.178-.707.178-1.061.09l-6.541-2.22-15.114-5.148c-1.06-.355-1.237-1.864-.177-2.397l33.234-18.374c.354-.178.707-.178 1.061-.089l21.654 7.368c1.061.355 1.238 1.864.177 2.396l-12.02 6.657M133.008 17.575l-3.447 1.864"/>
        <path stroke="#000" stroke-linecap="round" stroke-linejoin="round" stroke-miterlimit="10" stroke-width="1.5" d="M88.461 20.682v14.735c0 1.242.796 2.308 1.945 2.663L111 45.18c.354.09.707.09 1.061-.088l31.908-17.575M145.382 15.179l-12.109 6.657"/>
        <path stroke="#000" stroke-linecap="round" stroke-linejoin="round" stroke-miterlimit="10" stroke-width="1.5" d="M101.631 29.913l9.723 3.373c.353.09.707.09 1.06-.088l15.203-8.344M88.992 25.564l9.722 3.373M145.382 19.084l-12.109 6.569"/>
        <path stroke="#000" stroke-linecap="round" stroke-linejoin="round" stroke-miterlimit="10" stroke-width="1.5" d="M88.992 29.47l22.362 7.722c.353.089.707.089 1.06-.089l15.203-8.343M145.382 22.99l-12.109 6.657"/>
        <path stroke="#000" stroke-linecap="round" stroke-linejoin="round" stroke-miterlimit="10" stroke-width="1.5" d="M88.992 33.375l22.362 7.723c.353.089.707.089 1.06-.089l15.203-8.344M145.736 10.385V25.92M108.879 8.61l24.129 8.166M103.664 11.983l23.599 7.989M133.273 33.109V17.398M127.617 20.505V36.57"/>
        <path fill="#5EA3AA" d="M95.355 21.836h-.088c-.442-.177-.707-.266-.796-.355-.088-.089-.088-.178.089-.355h-.089c-.088 0-.088 0-.088-.089v-.089s.088 0 .088-.088h.354c.177-.09.442-.09.619-.09.265 0 .53.09.795.178.089.09.177.09.177.09v.088c-.088 0-.088.089-.177.089H95.71c.177.088.177.088.353.088.177-.088.354-.088.62-.088.264 0 .441.088.618.177h.088c.354.178.619.267.619.355.088.089 0 .178-.089.267h.177s-.088 0-.088.088h-.265c-.177.089-.354.089-.53.089-.266 0-.443-.089-.708-.089-.088 0-.176-.088-.176-.088v-.09c.088 0 .088-.088.176-.088H97.035c-.089 0-.177-.089-.354-.089-.177.089-.353.089-.619.089-.265.178-.441.089-.707 0zm.089-.355l.088.089h.177c0-.09-.088-.09-.265-.09zm1.767.355s-.088 0-.088-.089h-.177c.089.089.089.089.266.089zM99.421 21.392c.089.089.177.089.089.089-.089.089-.177.089-.354.177h-.265c-1.326-.62-2.475-1.065-4.154-1.775-.089 0-.177-.089-.177 0-.088 0-.088 0-.088.089h-.354c-.265-.089-.442-.178-.707-.266-.088-.09-.088-.178-.088-.178.265-.177.353-.177.618-.355.177-.089.354-.089.619.089 1.856.799 3.359 1.42 4.861 2.13zM98.802 20.86c-1.149-.533-1.944-.888-3.181-1.42-.884-.356-.973-.622-.707-.8.441-.266.618-.355 1.06-.532.265-.178.796-.089 1.591.266 1.237.622 2.033.888 3.094 1.51.795.354.884.62.53.798-.354.178-.53.355-.972.533-.177.088-.619 0-1.415-.355zm1.061-.888c-.972-.444-1.502-.71-2.563-1.243-.177-.088-.354-.088-.442-.088-.265.088-.354.177-.53.355-.089.088 0 .177.265.266 1.06.444 1.59.71 2.563 1.154.265.088.354.177.442.088l.53-.266c.089-.089 0-.177-.265-.266zM100.924 19.706c-1.15-.533-1.856-.888-3.094-1.51-.795-.355-.972-.62-.707-.798.354-.178.53-.267.884-.533.265-.177.707-.089 1.591.355 1.237.533 2.033.888 3.182 1.42.795.355.884.622.619.71-.354.178-.619.356-.973.533-.353.178-.707.178-1.502-.177zm1.061-.888c-.973-.444-1.591-.71-2.564-1.154-.265-.089-.442-.178-.53-.089-.177.089-.265.178-.53.267-.089.088 0 .088.265.266 1.06.444 1.591.71 2.563 1.242.265.09.354.178.442.09l.53-.267c.177-.177.089-.266-.176-.355zM104.017 18.463c.266.177.442.266.531.355v.177h-.265v-.177c-.177.089-.354 0-.619-.089-.177-.088-.265-.088-.354-.177-.088 0-.088-.09-.088-.09.088-.088.177-.088.353-.177h.177c.089.09.089.09.265.178zM103.752 18.108c-1.149-.533-1.944-.799-3.27-1.42-.884-.355-1.06-.622-.884-.71.353-.178.442-.267.795-.444.266-.178.796-.09 1.68.266 1.326.533 2.21.799 3.447 1.243.795.355.972.532.707.71-.354.177-.53.355-.972.532-.265.178-.707.178-1.503-.177zm.972-.888c-1.06-.444-1.679-.621-2.74-1.065-.265-.089-.442-.178-.53-.089-.177.09-.265.178-.442.267-.088 0 0 .088.265.266 1.061.444 1.68.71 2.74 1.065.265.089.442.089.531.089.176-.089.265-.178.53-.267 0-.088-.088-.088-.354-.266zM105.785 16.954c-1.237-.444-2.033-.799-3.447-1.243-.884-.355-1.237-.532-.972-.71.353-.177.442-.266.795-.444.265-.177.796-.088 1.768.267 1.414.443 2.298.798 3.535 1.153.884.267 1.061.444.796.622-.354.177-.53.266-.884.532-.354.178-.796.178-1.591-.177zm.884-.799c-1.061-.355-1.679-.621-2.917-.976-.265-.09-.442-.09-.53-.09-.177.09-.265.178-.442.267-.089 0 0 .089.353.178 1.149.443 1.768.621 2.829.976.265.089.442.089.53.089.177-.089.265-.178.442-.266.088 0 0-.09-.265-.178zM107.641 15.889c-1.326-.444-2.121-.71-3.535-1.154-.973-.355-1.238-.533-1.061-.71.354-.178.442-.267.795-.444.266-.178.796-.089 1.768.266 1.414.444 2.298.71 3.536 1.154.884.266 1.06.444.795.622-.353.177-.442.266-.795.443-.177.178-.619.089-1.503-.177zm.796-.71c-1.061-.355-1.768-.533-2.917-.977-.265-.088-.442-.088-.531-.088-.176.088-.265.177-.441.266-.089 0 0 .088.353.177 1.149.355 1.856.622 2.917.977.265.088.442.088.53.088.177-.088.265-.177.442-.266 0-.089-.088-.089-.353-.177z"/>
        <path fill="#3E8487" d="M78.385 70.035l-.265-13.581s0-1.243-4.95 1.953c-4.95 3.284-26.78 14.912-26.78 14.912s-1.327 1.243-2.564 1.154c-1.237-.089-22.539-7.722-22.539-7.722l-.618 1.331.353 12.96s.265 1.686 1.768 2.307c1.502.622 20.594 7.102 20.594 7.102s32.88-17.842 32.615-17.576c-.265.267 2.475-1.331 2.475-1.864-.089-.444-.089-.976-.089-.976z"/>
        <path fill="#90CEDD" d="M77.678 56.01l-15.29 8.433-17.943 9.941c-.354.178-.708.178-1.061.089l-6.54-2.22-15.115-5.147c-1.06-.355-1.237-1.864-.177-2.397l33.234-18.374c.353-.178.707-.178 1.06-.089l21.567 7.367c1.06.355 1.237 1.864.265 2.397z"/>
        <g fill="#3E8487" opacity=".4">
            <path d="M53.637 53.525l-.53-.267c-.177-.088-.354-.088-.53-.088-.178 0-.354.088-.531.088h-.265c-.089 0-.177.09-.265.178-.177.089-.266.178-.354.355-.088.178-.088.266-.088.444 0 .089 0 .177-.089.266v.089c0 .089-.088.089 0 .177 0 0 0 .09.089.09.088.266.265.532.53.71l.088.088c.089.178.266.266.354.444.177.177.353.266.53.444.089.089.177.266.354.355.176.088.353.177.53.177.177 0 .354.09.442 0h.088l.089.09v.088c0 .089.088.089.176.089.089 0 .089 0 .089-.09 0-.088 0-.088-.089-.177 0-.089-.088-.089-.176-.177l-.089-.089c.177-.089.265-.177 0-.355-.088-.089-.265 0-.088.089h-.265c-.177 0-.442 0-.619-.09-.177-.088-.265-.088-.353-.177l-.354-.355c-.265-.177-.53-.444-.707-.621.265 0 .354-.177.53-.266.177-.089.354 0 .53 0 .177 0 .442.089.62.089h.176v-.09h.354c-.089.09-.089.09-.089.178v.267c0 .088.177.177.265.177.177 0 .089-.178 0-.178V55.3s0-.089.089-.089h.176v.71c-.088 0-.088.09 0 .178h.266c.088 0 .088-.089.088-.178v-.266-.266s0-.089-.088-.089c0 0 0-.089-.089-.089-.088-.088-.177-.177-.353-.177h-.265c.176-.178.441-.355.353-.622-.088-.266-.442-.443-.707-.71.442.089.354-.088.177-.177zM57.26 61.78s-.088 0 0 0c-.176 0-.176 0-.176.088-.088 0-.177 0-.265.09h-.442c-.089-.09-.265-.09-.354-.178-.177-.089-.265 0-.353 0-.265.088-.265-.355-.265-.355 0-.09.088-.178 0-.178 0-.089-.089-.089-.177-.177-.089-.09-.177-.178-.265-.178h-.089-.088c-.089 0 0 .178.088.178l.177.177s.088 0 0 0v.266c0 .178 0 .355.265.444.089.089.265.089.354.089.088 0 .176-.089.265 0 .088 0 .177.089.353.178.177.088.266.088.442.088.177 0 .266 0 .354-.088.088 0 .265-.09.265-.178 0-.178 0-.266-.088-.266zM47.008 58.407c-.266-.089-.53-.267-.796-.267-.265 0-.53 0-.707.09-.265.088-.619.088-.795.266-.442.266-.442.71-.442 1.153 0 .267.088.533.176.71.089.09.089.267.177.356.089.177.265.266.354.355l.088.088h.619c.088-.088 0-.266 0-.443v-.356c0-.088.088-.177.088-.355.089-.088.089-.266.177-.355.177-.177.619-.088.884-.088h.353c.089 0 .177.088.266.088 0 .09.088.09.176.09h.089l.088-.09.089-.088v-.09c0-.088 0-.177-.089-.265-.088-.178-.177-.267-.265-.444-.088 0-.265-.267-.53-.355zM47.626 64.443c-.088.088.089.177.177.177.089-.089-.088-.266-.177-.177z" opacity=".4"/>
            <path d="M58.586 57.253c-.618-.355-1.237-.71-1.856-.8h-.884c-.265 0-.53.09-.707.178-.265.178-.442.355-.618.533-.089.089-.177.178-.177.266-.089.09-.177.178-.089.355.089.09.266.09.177 0l.089-.088c0-.09.088-.09.088-.178.088-.089.088-.177.177-.266.088-.178.265-.355.442-.444.088-.089.176-.089.265-.178.088 0 .265-.088.353-.088h.796c.265 0 .53.088.795.177.266.089.62.267.884.444.265.178.619.355.884.533.089.088.265.177.354.266.176.089.265.177.353.355.265.266.442.444.53.71.089.089.089.266.177.355v.266l-.088.09c-.265-.178-.53-.267-.796-.445-.441-.266-.795-.532-1.149-.798-.176-.09-.353-.267-.53-.267-.177-.089-.265-.089-.442-.089-.353-.088-.619.09-.707.267 0 0-.088 0-.088-.089-.177-.089-.354-.089-.53-.089-.09 0-.177 0-.177.089-.089-.089-.266-.178-.354-.178-.354-.088-.619-.088-.972-.088-.354 0-.707.088-.973.266-.265.178-.441.444-.53.71h-.088l-.265.266c0 .09-.089.178-.089.355 0 .178.089.355.354.622h-.442c-.089 0-.177 0-.265.088 0 0-.089-.088-.177 0h-.089c0-.088 0-.177-.088-.266-.088-.089-.265-.266-.442-.355-.088 0-.177-.089-.265 0 0-.177-.088-.355-.265-.444-.177-.177-.442-.444-.707-.532-.265-.178-.53-.267-.884-.355-.265-.089-.53-.089-.796-.089-.265 0-.53 0-.707.178-.176.177-.265.354-.265.532-.088.178-.088.444-.088.621l.265.8v.088l-.088-.089c-.089-.089-.177-.177-.354-.266-.177-.089-.177.089 0 .177.088 0 .088.09.177.09l.177.177.265.266c.177.178.442.355.53.621.088.178.088.355.088.533 0 .089 0 .178-.088.266 0 0 0 .09-.088.09l-.089.088h-.088c-.265-.089-.619-.178-.884-.178-.177 0-.353 0-.53-.088-.177-.09-.354-.09-.619-.09h-.53c-.177-.088-.266-.177-.354-.266l-.177-.177-.088-.089s0-.088-.088-.088h-.177c-.089.088.177.354.265.443.088.09.177.178.353.267-.088 0-.176 0-.265.088-.353.09-.707.267-.972.355-.177.09-.354.178-.442.267-.177.089-.265.177-.442.355-.088.088-.177.177-.265.355-.265-.089-.442-.178-.707-.267-.088 0-.177-.088-.265-.088-.089 0-.089 0-.177-.089 0 0 0-.089-.088-.089h-.177v.089c.088.089.177.177.265.177.088 0 .265.09.354.09-.177.088-.177.266-.177.443 0 .178-.089.355-.089.533v.532c0 .178 0 .355.089.533l.265.532c.177.178.265.355.442.622.265.355.707.71 1.149.976.265.178.53.266.795.444.266.089.53.266.796.355.265.089.53.266.795.266.177 0 .266 0 .354.09.088 0 .265.088.353.088 1.061.177 2.122 0 2.829-.355.265-.089.442-.266.619-.355.088-.089.176-.089.265-.178.088.089.177.178.353.267.089.088.177.177.354.177.177.089.265 0 .353-.089.089-.088.177-.088.265-.177v-.178l-.176-.177c-.089-.09-.177-.178-.354-.178-.088 0-.088 0-.177-.089h-.088-.088l.265-.266c.088-.089.265-.177.177-.355v-.089l-.089-.088c-.177-.09-.353-.09-.53-.178-.177 0-.354-.089-.442-.177.177-.178.265-.356.265-.533.089-.266-.088-.533-.177-.71-.088-.089-.088-.267-.176-.355h.353c.177 0 .442.088.619.088s.442.09.618.09c.177 0 .354 0 .442.088 0 .089.089.266.089.355v.178c0 .088.088.177.088.177s0 .089.089.089c.088.089.265.089.353.089.177 0 .265.088.442.088.265.09.53.09.796.178.618 0 1.06 0 1.502-.178.442-.088.972-.177 1.414-.355.442-.177.884-.266 1.326-.443.442-.178.796-.444 1.15-.622.353-.177.706-.444 1.06-.621.177-.089.265-.178.353-.355.089-.089.266-.267.266-.355.088-.178.088-.267 0-.444-.089-.178-.177-.355-.354-.533l-.265-.266c-.088-.089-.265-.178-.354-.266-.265-.178-.53-.267-.884-.444-.265-.089-.53-.266-.795-.355-.088 0-.265-.089-.354-.089l-.088-.089h-.619c-.088 0-.088 0-.088.09-.177 0-.354.088-.442.177-.088.088-.177.266-.265.355-.089.089-.089.266-.089.444 0 .266.177.532.266.798l.265.533c.088.177.176.355.176.444 0 .177-.088.266-.088.355 0 .177-.177.266-.353.266-.177.089-.354.089-.62.089-.176 0-.353 0-.618.089H53.283c-.177 0-.442-.09-.53.088-.089.09-.089.267-.089.355-.088 0-.265 0-.353-.088-.177 0-.442-.089-.619-.089-.265 0-.442-.089-.707-.089-.088 0-.265 0-.353-.089h-.177c0-.088-.089-.177-.177-.266-.177-.266-.353-.532-.53-.71h1.237c.442.089.972.178 1.414.178.177 0 .177-.09.177-.178-.088-.178-.177-.355-.177-.444-.088-.355-.088-.71-.265-1.065-.088-.178-.088-.355-.177-.532v-.267s0-.089.089-.089c.265-.088.442-.177.795-.177h.177l.088.089c.089.088.266.177.354.266.177.089.088.266.265.355.177.089.354 0 .53-.089.177-.088.266-.355.442-.444.089-.088.177-.088.354 0 .088.09.265.09.353.178.266.089.354 0 .442-.178.089-.177.089-.443.177-.62 0-.09.089-.267.177-.267s.088-.089.177-.089h1.326c.265.089.53.177.795.355.354.178.707.444.972.621.354.178.707.355 1.06.444.178 0 .355.089.531.089h.354c.088 0 0-.089 0-.089l-.177-.177c-.088-.09-.265 0-.088.089h-.354c-.177 0-.265-.09-.442-.09-.353-.088-.707-.354-1.06-.532-.62-.355-1.238-.799-1.945-.888h-.796v-.088-.178-.089c0-.088-.088-.177-.088-.177.088 0 0-.178-.088-.178-.089-.088-.177-.177-.354-.266l-.088-.089h.177c.088 0 .265.09.353.178l.088.089c.089.088.177.088.177.177l.089.089v.089c-.089 0 .088.177.176.177.266-.089 0-.355-.176-.532l-.089-.09c.089-.177.177-.265.442-.265s.442.088.619.177c.265.178.442.355.707.533l.796.532c.441.266.972.622 1.502.888.265.089.796.355.972.266 0 0 0-.089-.088-.089-.088-.088-.177-.088-.177 0-.088 0-.265-.088-.353-.088-.177-.09-.442-.178-.62-.267-.087-.088-.176-.088-.264-.177v-.178c0-.089 0-.177-.089-.355-.088-.089-.088-.266-.176-.355-.089-.089-.177-.266-.266-.355.177-1.331-.441-1.775-1.149-2.13zM52.222 67.46l-.176.177s-.089 0-.089.089h-.088l-.088-.089c-.089 0-.089-.089-.177-.089l-.265-.266c.088 0 .088-.089.176-.089.089.09.177.09.266.09h.088s.088 0 .088.088c.089-.089.089 0 .265.089-.088 0 0 0 0 0zm-.53-1.154s0 .088.089.088c0 .09-.089.178-.177.178-.089.089-.177.266-.265.355l-.53.266-.531.267c-.619.355-1.414.621-2.386.621-.266 0-.53-.089-.796-.089-.088 0-.177-.088-.265-.088-.089 0-.265 0-.354-.09l-.795-.266c-.265-.088-.53-.177-.707-.355-.265-.088-.442-.266-.707-.355-.177-.177-.442-.266-.619-.444-.354-.266-.619-.62-.796-.976-.176-.177-.265-.355-.265-.532-.088-.178-.088-.444-.088-.622 0-.266 0-.444.088-.621.089-.178 0-.444.177-.621v-.09c.177.09.354.178.53.178-.088.089-.176.267-.176.355-.177.267-.089.533 0 .888.088.177.176.266.265.444.088.177.265.355.442.532l.176.178c.089.089.089.177.177.266l.265.266h.089c.177.267.619.444.972.622.177.088.442.177.619.266.265.089.442.178.707.178.442.088.795.088 1.149.088s.795 0 1.06-.088c.354-.09.708-.267.973-.444.265-.178.53-.355.707-.622l.088.09h.089s.088 0 .177.088c.088 0 .176.089.265.089.088-.089.265-.089.353 0zm.619-4.794c.088.178.088.355.177.533 0 .178 0 .355.088.444 0 .089 0 .177.088.177l.089.178h-.619c-.265 0-.442-.089-.707-.089-.265 0-.53-.089-.707-.089H49.925c-.089-.088-.266-.177-.442-.266l-.53-.266.088-.089c.088-.089.088-.178.088-.266 0-.089.088-.178 0-.355 0-.09 0-.267-.088-.355-.089-.09-.089-.267-.177-.355l.177.177c.176.178.442.355.707.533.442.266.884.355 1.326.266.441-.089.883-.178 1.06-.444 0 0 0-.089.088-.089.089.178.089.267.089.355zm-.177-1.508s0 .088 0 0c0 .088 0 .088 0 0 0 .088 0 .088 0 0v.088c-.088 0-.088 0-.088.089s.088.089.088.089h.177v.088l-.089-.088c-.088-.089-.265 0-.088.088l.088.178c0 .089.089.178.089.178 0 .088 0 .266-.177.355-.265.177-.53.266-.884.266-.353 0-.707-.089-1.06-.266-.177-.09-.354-.267-.53-.355-.177-.09-.354-.267-.443-.444.089 0 .089-.089.089-.178s.088-.177.177-.266c.088-.089.176-.089.265-.178 0 0 0-.088.088-.088h.177c.265 0 .53.088.707.177.265 0 .53.089.795.178 0 0 .089.089.177.089.089 0 .089-.09 0-.09v-.088s0-.089.089-.089h.088s.088 0 .088.089l.177.178c-.088-.09-.088-.09 0 0-.088 0-.088 0 0 0-.088 0-.088 0 0 0-.088 0-.088 0 0 0z" opacity=".4"/>
            <path d="M57.26 59.916c-.088-.089-.176-.089-.264-.178h-.266c-.176 0-.265.089-.265.267 0 .088.089.177.177.266.088.089.177.089.265.089.089 0 .089-.09 0-.178-.088 0-.088-.089-.088-.178v-.088c.088 0 .176-.089.353 0 .089.089.266.177.354.266v.266c-.089 0-.089.09.088.178h.177v-.089-.177c0-.09-.088-.178-.088-.178-.266-.178-.354-.266-.442-.266z" opacity=".4"/>
        </g>
        <path fill="#3E8487" d="M75.203 56.543c-.442.532-1.326.976-1.856 1.598-.53-.178-3.977-1.51-4.508-1.687-1.767-.71-3.535-1.331-5.391-1.953-1.945-.71-3.89-1.598-5.834-2.396-1.06-.444-2.121-.8-3.27-1.154-.619-.267-3.89-1.243-4.508-1.51.707-.443 2.122-.887 2.829-1.42.883.355 3.8 1.332 4.684 1.687 1.945.71 3.89 1.598 5.922 2.397 1.856.71 3.624 1.331 5.48 1.952 1.06.444 5.392 2.13 6.452 2.486z"/>
        <path fill="#fff" d="M60 65.774l.531 15.534 5.038-2.84.088-16.156-5.656 3.462z"/>
        <path fill="#fff" d="M60 65.774L35.784 56.81l5.126-2.84 24.748 8.343-5.656 3.462z"/>
        <path stroke="#E2E2E2" stroke-linecap="round" stroke-linejoin="round" stroke-miterlimit="10" stroke-width="1.5" d="M38.788 56.454l21.566 7.367M61.415 79.355l-.088-12.693"/>
        <path stroke="#000" stroke-linecap="round" stroke-linejoin="round" stroke-miterlimit="10" stroke-width="1.5" d="M59.294 66.218l-14.85 8.255c-.353.177-.707.177-1.06.089l-6.54-2.22-15.115-5.236c-1.06-.355-1.237-1.864-.177-2.397l33.234-18.374c.353-.178.707-.178 1.06-.089l21.567 7.367c1.06.355 1.237 1.864.177 2.397l-12.02 6.657M65.304 62.845l-3.447 1.864"/>
        <path stroke="#000" stroke-linecap="round" stroke-linejoin="round" stroke-miterlimit="10" stroke-width="1.5" d="M20.845 65.952v14.734c0 1.243.796 2.308 1.945 2.663l20.594 7.102c.353.088.707.088 1.06-.09l31.82-17.575M77.678 60.448L65.57 67.106"/>
        <path stroke="#000" stroke-linecap="round" stroke-linejoin="round" stroke-miterlimit="10" stroke-width="1.5" d="M34.015 75.183l9.722 3.373c.354.089.708.089 1.061-.089l15.203-8.343M21.375 70.834l9.723 3.373M77.678 64.354L65.57 70.923"/>
        <path stroke="#000" stroke-linecap="round" stroke-linejoin="round" stroke-miterlimit="10" stroke-width="1.5" d="M21.375 74.74l22.362 7.722c.354.089.707.089 1.061-.089l15.203-8.344M77.678 68.26L65.57 74.917"/>
        <path stroke="#000" stroke-linecap="round" stroke-linejoin="round" stroke-miterlimit="10" stroke-width="1.5" d="M21.375 78.645l22.362 7.722c.354.09.707.09 1.061-.088l15.203-8.344M78.031 55.655V71.1M41.263 53.88l24.04 8.166M36.048 57.253l23.6 7.989M65.57 78.379V62.667M60 65.774v16.067"/>
        <path fill="#5EA3AA" d="M27.74 67.106h-.089c-.442-.178-.707-.267-.795-.355-.089-.09-.089-.178.088-.356h-.088c-.089 0-.089 0-.089-.088v-.09s.089 0 .089-.088h.353c.177-.089.442-.089.619-.089.265 0 .53.09.795.178.089.089.177.089.177.089v.088c-.088 0-.088.09-.177.09H28.093c.177.088.177.088.354.088.088.089.353 0 .53 0 .265 0 .442.089.619.178h.088c.354.177.619.266.619.355.088.088 0 .177-.089.266h.177s-.088 0-.088.089h-.265c-.177.088-.354.088-.53.088-.266 0-.443-.088-.708-.088h-.088v-.09c.088 0 .088-.088.177-.088H29.419c-.089 0-.177-.089-.354-.089-.177.09-.353.09-.618.09-.266-.09-.53-.09-.707-.178zm.088-.355l.088.088h.177c-.088-.088-.177-.088-.265-.088zm1.768.355s-.089 0-.089-.09h-.177c0 .09.089.09.266.09zM31.805 66.662c.089.088.177.088.089.088-.089.09-.177.09-.354.178h-.265c-1.326-.621-2.475-1.065-4.154-1.775-.089 0-.177-.089-.177 0-.088 0-.088 0-.088.088h-.354c-.265-.088-.442-.177-.707-.266-.089-.177-.177-.177-.089-.266.266-.178.354-.178.62-.355.176-.089.353-.089.618.089 1.856.887 3.359 1.509 4.861 2.219zM31.187 66.13c-1.15-.533-1.945-.888-3.182-1.421-.884-.355-.973-.621-.707-.799.442-.266.618-.355 1.06-.532.265-.178.796-.09 1.591.266 1.238.621 2.033.887 3.094 1.509.795.355.884.621.53.799-.354.177-.53.355-.972.532-.265.089-.619 0-1.414-.355zm1.06-.888c-.972-.444-1.502-.71-2.563-1.243-.265-.089-.442-.089-.53-.089-.265.089-.354.178-.53.355-.089.089 0 .178.265.266 1.06.444 1.59.71 2.563 1.154.265.09.353.178.442.09.176-.09.353-.178.53-.267.088-.089.088-.178-.177-.266zM33.308 64.886c-1.15-.532-1.856-.887-3.094-1.508-.795-.355-.972-.622-.707-.8.354-.177.53-.266.884-.532.265-.178.707-.089 1.591.355 1.237.533 2.033.888 3.182 1.42.795.355.884.622.619.71-.354.178-.62.355-.973.533-.353.266-.795.266-1.502-.177zm1.06-.798c-.972-.444-1.59-.71-2.563-1.154-.265-.09-.442-.178-.53-.09-.177.09-.265.178-.53.267-.089.089 0 .089.265.267 1.06.443 1.59.71 2.563 1.242.265.089.353.178.442.089l.53-.266c.089-.178 0-.267-.177-.355zM36.401 63.733c.266.177.442.266.53.355v.177h-.264v-.177c-.177.088-.354 0-.62-.09-.176-.088-.264-.088-.353-.177-.088 0-.088-.088-.088-.088.088-.09.177-.09.353-.178h.177c0 .089.089.089.265.178zM36.048 63.377c-1.15-.532-1.945-.798-3.27-1.42-.884-.355-1.061-.621-.884-.71.353-.177.442-.266.795-.444.265-.177.796-.088 1.68.267 1.325.532 2.21.798 3.447 1.242.795.355.972.533.707.71-.354.178-.53.355-.973.533-.265.178-.707.178-1.502-.178zm.972-.887c-1.06-.444-1.68-.622-2.74-1.065-.265-.09-.442-.178-.53-.09-.177.09-.265.178-.442.267-.089 0 0 .089.265.267 1.06.443 1.68.71 2.74 1.065.265.089.442.089.53.089.177-.09.265-.178.53-.267 0-.089-.088-.177-.353-.266zM38.08 62.224c-1.237-.444-2.032-.8-3.446-1.243-.884-.355-1.238-.533-.973-.71.354-.178.442-.267.796-.444.265-.178.795-.089 1.768.266 1.414.444 2.298.8 3.535 1.154.884.266 1.06.444.796.621-.354.178-.53.267-.884.533-.265.178-.707.089-1.591-.177zm.885-.8c-1.061-.354-1.68-.62-2.917-.976-.265-.089-.442-.089-.53-.089-.177.09-.266.178-.442.267-.089 0 0 .089.353.177 1.15.444 1.768.622 2.829.977.265.088.441.088.53.088.177-.088.265-.177.442-.266.088 0 0-.089-.265-.177zM40.025 61.158c-1.325-.443-2.121-.71-3.535-1.154-.973-.355-1.238-.532-1.06-.71.353-.177.441-.266.795-.444.265-.177.795-.088 1.767.267 1.415.444 2.298.71 3.536 1.154.884.266 1.06.444.795.621-.353.178-.442.266-.795.444-.177.089-.619.089-1.503-.178zm.796-.799c-1.06-.355-1.768-.532-2.917-.976-.265-.089-.442-.089-.53-.089-.177.09-.266.178-.442.267-.089 0 0 .088.353.177 1.15.355 1.856.621 2.917.977.265.088.442.088.53.088.177-.088.266-.177.442-.266 0 0-.088-.089-.353-.178z"/>
        <path fill="#F79FA8" d="M115.508 50.95s5.038 5.326 6.452 9.587l-5.745.621 8.927 6.658 6.541-7.9-5.215.355s-.265-6.391-3.447-10.74l-7.513 1.42z"/>
        <path stroke="#000" stroke-linecap="round" stroke-linejoin="round" stroke-miterlimit="10" stroke-width="1.5" d="M115.508 50.95s5.038 5.326 6.452 9.587l-5.745.621 8.927 6.658 6.541-7.9-5.215.355s-.265-6.835-3.447-10.74l-7.513 1.42z"/>
        <path fill="#F79FA8" d="M73.347 88.231s5.657 3.285 8.397 7.19l-6.187 3.196 12.109 2.396 4.243-9.852-6.188 1.686s-2.916-3.462-6.364-7.545l-6.01 2.93z"/>
        <path stroke="#000" stroke-linecap="round" stroke-linejoin="round" stroke-miterlimit="10" stroke-width="1.5" d="M73.347 88.231s5.745 3.729 8.397 7.19l-6.187 3.196 12.109 2.397 4.243-9.853-5.922 2.13s-3.36-4.083-6.541-8.078l-6.099 3.019z"/>
        <path fill="#F79FA8" d="M168.628 88.231s-5.214 4.084-9.015 6.48l7.424 4.527-15.025.621-1.945-12.604 6.276 4.26s3.623-3.461 6.363-7.278l5.922 3.994z"/>
        <path stroke="#000" stroke-linecap="round" stroke-linejoin="round" stroke-miterlimit="10" stroke-width="1.5" d="M168.628 88.231s-5.214 4.084-9.015 6.48l7.424 4.527-15.025.621-1.945-12.604 6.276 4.26s3.447-3.727 6.363-7.278l5.922 3.994zM83.07 161.639h-9.28M165.712 161.639h6.629"/>
    </g>
    <defs>
        <clipPath id="clip0">
            <path fill="#fff" d="M0 0H200.285V162.616H0z" transform="translate(19.961)"/>
        </clipPath>
    </defs>
</svg>
