<svg xmlns="http://www.w3.org/2000/svg" width="270" height="217" fill="none" viewBox="0 0 270 217">
    <g clip-path="url(#clip0)">
        <path fill="#90CEDD" d="M162.1 182.1h-43v-80c0-1.9 1.5-3.4 3.4-3.4h36.1c1.9 0 3.4 1.5 3.4 3.4v80h.1z"/>
        <path stroke="#000" stroke-linecap="round" stroke-linejoin="round" stroke-miterlimit="10" stroke-width="2.18" d="M162.1 182.1h-43v-80c0-1.9 1.5-3.4 3.4-3.4h36.1c1.9 0 3.4 1.5 3.4 3.4v80h.1z"/>
        <path fill="#3E8487" d="M162.1 182.1h20.2v-54.5c0-1.1-.9-2-2-2h-18.2v56.5zM119.2 182.1H99v-54.5c0-1.1.9-2 2-2h18.2v56.5z"/>
        <path fill="#354C48" d="M119.2 182.1h-5v-55.5c0-.5.4-1 1-1h4v56.5zM167.4 182.1h-5v-55.5c0-.5.4-1 1-1h4v56.5z" opacity=".6"/>
        <path stroke="#000" stroke-linecap="round" stroke-linejoin="round" stroke-miterlimit="10" stroke-width="2.18" d="M162.1 182.1h20.2v-54.5c0-1.1-.9-2-2-2h-18.2v56.5zM119.2 182.1H99v-54.5c0-1.1.9-2 2-2h18.2v56.5z"/>
        <path fill="#FAD45C" d="M156.1 98.7h-28.7v-8.3c0-1.1.9-2 2-2h24.7c1.1 0 2 .9 2 2v8.3z"/>
        <path stroke="#000" stroke-linecap="round" stroke-linejoin="round" stroke-miterlimit="10" stroke-width="2.18" d="M156.1 98.7h-28.7v-8.3c0-1.1.9-2 2-2h24.7c1.1 0 2 .9 2 2v8.3z"/>
        <path fill="#8DA087" d="M150.1 182.1h-19V166c0-1.2 1-2.2 2.2-2.2h14.5c1.2 0 2.2 1 2.2 2.2v16.1h.1z"/>
        <path stroke="#000" stroke-linecap="round" stroke-linejoin="round" stroke-miterlimit="10" stroke-width="2.18" d="M150.1 182.1h-19V166c0-1.2 1-2.2 2.2-2.2h14.5c1.2 0 2.2 1 2.2 2.2v16.1h.1z"/>
        <path fill="#C3E0DC" d="M135.8 109.5h-8.3v8.3h8.3v-8.3zM153.8 109.5h-8.3v8.3h8.3v-8.3zM135.8 126.6h-8.3v8.3h8.3v-8.3zM153.8 126.6h-8.3v8.3h8.3v-8.3zM135.8 143.7h-8.3v8.3h8.3v-8.3zM153.8 143.7h-8.3v8.3h8.3v-8.3z"/>
        <path stroke="#000" stroke-linecap="round" stroke-linejoin="round" stroke-miterlimit="10" stroke-width="2.18" d="M135.8 109.5h-8.3v8.3h8.3v-8.3zM153.8 109.5h-8.3v8.3h8.3v-8.3zM135.8 143.7h-8.3v8.3h8.3v-8.3zM153.8 143.7h-8.3v8.3h8.3v-8.3zM99 137.5h20.2M162.5 137.5H182M135.8 126.6h-8.3v8.3h8.3v-8.3zM153.8 126.6h-8.3v8.3h8.3v-8.3z"/>
        <path stroke="#E2E2E2" stroke-linecap="round" stroke-linejoin="round" stroke-miterlimit="10" stroke-width="2" d="M140.7 166.6v12.6"/>
        <path fill="#3E8487" d="M247.6 74.4l-.3-15.3s0-1.4-5.6 2.2-30.3 16.8-30.3 16.8-1.4 1.3-2.9 1.2c-1.4-.1-25.5-8.7-25.5-8.7l-.7 1.5.4 14.6s.3 1.9 2 2.6c1.7.7 23.3 8 23.3 8s37.2-20.1 36.9-19.8c-.3.3 2.8-1.5 2.8-2.1 0-.6-.1-1-.1-1z"/>
        <path fill="#90CEDD" d="M246.9 58.6l-17.3 9.5-20.3 11.2c-.4.2-.8.2-1.2.1l-7.4-2.5-17.1-5.9c-1.2-.4-1.4-2.1-.2-2.7L221 47.6c.4-.2.8-.2 1.2-.1l24.5 8.3c1.1.5 1.3 2.2.2 2.8z"/>
        <g fill="#3E8487" opacity=".4">
            <path d="M219.7 55.7l-.6-.3c-.2-.1-.4-.1-.6-.1-.2 0-.4.1-.6.1h-.3c-.1 0-.2.1-.3.2-.2.1-.3.2-.4.4-.1.2-.1.3-.1.5 0 .1 0 .2-.1.3v.1c0 .1-.1.1 0 .2 0 0 0 .1.1.1.1.3.3.6.6.8l.1.1c.1.2.3.3.4.5.2.2.4.3.6.5.1.1.2.3.4.4.2.1.4.2.6.2.2 0 .4.1.5 0h.1l.1.1v.1c0 .1.1.1.2.1s.1 0 .1-.1 0-.1-.1-.2c0-.1-.1-.1-.2-.2l-.1-.1c.2-.1.3-.2 0-.4-.1-.1-.3 0-.1.1H219.7c-.2 0-.5 0-.7-.1-.2-.1-.3-.1-.4-.2l-.4-.4c-.3-.2-.6-.5-.8-.7.3 0 .4-.2.6-.3.2-.1.4 0 .6 0 .2 0 .5.1.7.1h.2v-.1h.4c-.1.1-.1.1-.1.2v.3c0 .1.2.2.3.2.2 0 .1-.2 0-.2v-.2s0-.1.1-.1h.2V58.4c-.1 0-.1.1 0 .2H220.7c.1 0 .1-.1.1-.2v-.3-.3s0-.1-.1-.1c0 0 0-.1-.1-.1-.1-.1-.2-.2-.4-.2h-.3c.2-.2.5-.4.4-.7-.1-.3-.5-.5-.8-.8.5.1.4 0 .2-.2zM223.8 65.1c-.1 0-.1 0 0 0-.2 0-.2 0-.2.1-.1 0-.2 0-.3.1h-.5c-.1-.1-.3-.1-.4-.2-.2-.1-.3 0-.4 0-.3.1-.3-.4-.3-.4 0-.1.1-.2 0-.2 0-.1-.1-.1-.2-.2s-.2-.2-.3-.2h-.1-.1c-.1 0 0 .2.1.2l.2.2s.1 0 0 0V64.8c0 .2 0 .4.3.5.1.1.3.1.4.1.1 0 .2-.1.3 0 .1 0 .2.1.4.2s.3.1.5.1.3 0 .4-.1c.1 0 .3-.1.3-.2 0-.2-.1-.3-.1-.3zM212.2 61.3c-.3-.1-.6-.3-.9-.3-.3 0-.6 0-.8.1-.3.1-.7.1-.9.3-.5.3-.5.8-.5 1.3 0 .3.1.6.2.8.1.1.1.3.2.4.1.2.3.3.4.4l.1.1H210.7c.1-.1 0-.3 0-.5v-.4c0-.1.1-.2.1-.4.1-.1.1-.3.2-.4.2-.2.7-.1 1-.1h.4c.1 0 .2.1.3.1 0 .1.1.1.2.1h.1l.1-.1.1-.1v-.1c0-.1 0-.2-.1-.3-.1-.2-.2-.3-.3-.5-.1-.1-.3-.3-.6-.4zM212.9 68c-.1.1.1.2.2.2.1-.1-.1-.2-.2-.2z" opacity=".4"/>
            <path d="M225.3 60c-.7-.4-1.4-.8-2.1-.9h-1c-.3 0-.6.1-.8.2-.3.2-.5.4-.7.6-.1.1-.2.2-.2.3-.1.1-.2.2-.1.4.1.1.3.1.2 0l.1-.1c0-.1.1-.1.1-.2.1-.1.1-.2.2-.3.1-.2.3-.4.5-.5.1-.1.2-.1.3-.2.1 0 .3-.1.4-.1h.9c.3 0 .6.1.9.2.3.1.7.3 1 .5.3.2.7.4 1 .6.1.1.3.2.4.3.2.1.3.2.4.4.3.3.5.5.6.8.1.1.1.3.2.4V62.7l-.1.1c-.3-.2-.6-.3-.9-.5-.5-.3-.9-.6-1.3-.9-.2-.1-.4-.3-.6-.3-.2-.1-.3-.1-.5-.1-.4-.1-.7.1-.8.3 0 0-.1 0-.1-.1-.2-.1-.4-.1-.6-.1-.1 0-.2 0-.2.1-.1-.1-.3-.2-.4-.2-.4-.1-.7-.1-1.1-.1-.4 0-.8.1-1.1.3-.3.2-.5.5-.6.8h-.1l-.3.3c0 .1-.1.2-.1.4s.1.4.4.7h-.5c-.1 0-.2 0-.3.1 0 0-.1-.1-.2 0h-.1c0-.1 0-.2-.1-.3-.1-.1-.3-.3-.5-.4-.1 0-.2-.1-.3 0 0-.2-.1-.4-.3-.5-.2-.2-.5-.5-.8-.6-.3-.2-.6-.3-1-.4-.3-.1-.6-.1-.9-.1-.3 0-.6 0-.8.2-.2.2-.3.4-.3.6-.1.2-.1.5-.1.7l.3.9v.1l-.1-.1c-.1-.1-.2-.2-.4-.3-.2-.1-.2.1 0 .2.1 0 .1.1.2.1l.2.2.3.3c.2.2.5.4.6.7.1.2.1.4.1.6 0 .1 0 .2-.1.3 0 0 0 .1-.1.1l-.1.1h-.1c-.3-.1-.7-.2-1-.2-.2 0-.4 0-.6-.1-.2-.1-.4-.1-.7-.1h-.6c-.2-.1-.3-.2-.4-.3l-.2-.2-.1-.1s0-.1-.1-.1h-.2c-.1.1.2.4.3.5.1.1.2.2.4.3-.1 0-.2 0-.3.1-.4.1-.8.3-1.1.4-.2.1-.4.2-.5.3-.2.1-.3.2-.5.4-.1.1-.2.2-.3.4-.3-.1-.5-.2-.8-.3-.1 0-.2-.1-.3-.1-.1 0-.1 0-.2-.1 0 0 0-.1-.1-.1h-.2v.1c.1.1.2.2.3.2.1 0 .3.1.4.1-.2.1-.2.3-.2.5s-.1.4-.1.6v.6c0 .2 0 .4.1.6l.3.6c.2.2.3.4.5.7.3.4.8.8 1.3 1.1.3.2.6.3.9.5.3.1.6.3.9.4.3.1.6.3.9.3.2 0 .3 0 .4.1.1 0 .3.1.5.1 1.2.2 2.4 0 3.2-.4.3-.1.5-.3.7-.4.1-.1.2-.1.3-.2.1.1.2.2.4.3.1.1.2.2.4.2.2.1.3 0 .4-.1.1-.1.2-.1.3-.2v-.2l-.2-.2c-.1-.1-.2-.2-.4-.2-.1 0-.1 0-.2-.1h-.1-.1l.3-.3c.1-.1.3-.2.2-.4v-.1l-.1-.1c-.2-.1-.4-.1-.6-.2-.2 0-.4-.1-.5-.2.2-.2.3-.4.3-.6.1-.3-.1-.6-.2-.8-.1-.1-.1-.3-.2-.4h.4c.2 0 .5.1.7.1.2 0 .5.1.7.1.2 0 .4 0 .5.1 0 .1.1.3.1.4v.2c0 .1.1.2.1.2s0 .1.1.1c.1.1.3.1.4.1.2 0 .3.1.5.1.3.1.6.1.9.2.7 0 1.2 0 1.7-.2.5-.1 1.1-.2 1.6-.4s1-.3 1.5-.5.9-.5 1.3-.7c.4-.2.8-.5 1.2-.7.2-.1.3-.2.4-.4.1-.1.3-.3.3-.4.1-.2.1-.3 0-.5s-.2-.4-.4-.6l-.3-.3c-.1-.1-.3-.2-.4-.3-.3-.2-.6-.3-1-.5-.3-.1-.6-.3-.9-.4-.1 0-.3-.1-.4-.1l-.1-.1h-.7c-.1 0-.1 0-.1.1-.2 0-.4.1-.5.2-.1.1-.2.3-.3.4-.1.1-.1.3-.1.5 0 .3.2.6.3.9l.3.6c.1.2.2.4.2.5 0 .2-.1.3-.1.4 0 .2-.2.3-.4.3-.2.1-.4.1-.7.1-.2 0-.4 0-.7.1H219.4c-.2 0-.5-.1-.6.1-.1.1-.1.3-.1.4-.1 0-.3 0-.4-.1-.2 0-.5-.1-.7-.1-.3 0-.5-.1-.8-.1-.1 0-.3 0-.4-.1h-.2c0-.1-.1-.2-.2-.3-.2-.3-.4-.6-.6-.8H216.8c.5.1 1.1.2 1.6.2.2 0 .2-.1.2-.2-.1-.2-.2-.4-.2-.5-.1-.4-.1-.8-.3-1.2-.1-.2-.1-.4-.2-.6v-.3s0-.1.1-.1c.3-.1.5-.2.9-.2h.2l.1.1c.1.1.3.2.4.3.2.1.1.3.3.4.2.1.4 0 .6-.1.2-.1.3-.4.5-.5.1-.1.2-.1.4 0 .1.1.3.1.4.2.3.1.4 0 .5-.2.1-.2.1-.5.2-.7 0-.1.1-.3.2-.3s.1-.1.2-.1H224.4c.3.1.6.2.9.4.4.2.8.5 1.1.7.4.2.8.4 1.2.5.2 0 .4.1.6.1h.4c.1 0 0-.1 0-.1l-.2-.2c-.1-.1-.3 0-.1.1h-.4c-.2 0-.3-.1-.5-.1-.4-.1-.8-.4-1.2-.6-.7-.4-1.4-.9-2.2-1H223.1V63v-.2-.1c0-.1-.1-.2-.1-.2.1 0 0-.2-.1-.2-.1-.1-.2-.2-.4-.3l-.1-.1h.2c.1 0 .3.1.4.2l.1.1c.1.1.2.1.2.2l.1.1v.1c-.1 0 .1.2.2.2.3-.1 0-.4-.2-.6l-.1-.1c.1-.2.2-.3.5-.3s.5.1.7.2c.3.2.5.4.8.6l.9.6c.5.3 1.1.7 1.7 1 .3.1.9.4 1.1.3 0 0 0-.1-.1-.1-.1-.1-.2-.1-.2 0-.1 0-.3-.1-.4-.1-.2-.1-.5-.2-.7-.3-.1-.1-.2-.1-.3-.2v-.2c0-.1 0-.2-.1-.4-.1-.1-.1-.3-.2-.4-.1-.1-.2-.3-.3-.4.1-1.5-.6-2-1.4-2.4zm-7.2 11.4c0 .1 0 .1 0 0 0 .1 0 .1 0 0 0 .1 0 .1 0 0 0 .1 0 .1 0 0 0 .1 0 .1 0 0 0 .1 0 .1 0 0 0 .1-.1.1 0 0l-.2.2s-.1 0-.1.1h-.1l-.1-.1c-.1 0-.1-.1-.2-.1l-.3-.3c.1 0 .1-.1.2-.1.1.1.2.1.3.1h.1s.1 0 .1.1c.1 0 .1.1.3.1-.1 0-.1 0 0 0zm-.6-1.3s0 .1.1.1c0 .1-.1.2-.2.2-.1.1-.2.3-.3.4l-.6.3-.6.3c-.7.4-1.6.7-2.7.7-.3 0-.6-.1-.9-.1-.1 0-.2-.1-.3-.1-.1 0-.3 0-.4-.1l-.9-.3c-.3-.1-.6-.2-.8-.4-.3-.1-.5-.3-.8-.4-.2-.2-.5-.3-.7-.5-.4-.3-.7-.7-.9-1.1-.2-.2-.3-.4-.3-.6-.1-.2-.1-.5-.1-.7 0-.3 0-.5.1-.7.1-.2 0-.5.2-.7v-.1c.2.1.4.2.6.2-.1.1-.2.3-.2.4-.2.3-.1.6 0 1 .1.2.2.3.3.5.1.2.3.4.5.6l.2.2c.1.1.1.2.2.3l.3.3h.1c.2.3.7.5 1.1.7.2.1.5.2.7.3.3.1.5.2.8.2.5.1.9.1 1.3.1s.9 0 1.2-.1c.4-.1.8-.3 1.1-.5.3-.2.6-.4.8-.7l.1.1h.1s.1 0 .2.1c.1 0 .2.1.3.1h.4zm.7-5.4c.1.2.1.4.2.6 0 .2 0 .4.1.5 0 .1 0 .2.1.2l.1.2H218c-.3 0-.5-.1-.8-.1-.3 0-.6-.1-.8-.1h-.9c-.1-.1-.3-.2-.5-.3l-.6-.3.1-.1c.1-.1.1-.2.1-.3 0-.1.1-.2 0-.4 0-.1 0-.3-.1-.4-.1-.1-.1-.3-.2-.4l.2.2c.2.2.5.4.8.6.5.3 1 .4 1.5.3.5-.1 1-.2 1.2-.5 0 0 0-.1.1-.1.1.3.1.4.1.4zm-.2-1.6c0 .1 0 .1 0 0 0 .1 0 .1 0 0v.1c-.1 0-.1 0-.1.1s.1.1.1.1h.2v.1l-.1-.1c-.1-.1-.3 0-.1.1l.1.2c0 .1.1.2.1.2 0 .1 0 .3-.2.4-.3.2-.6.3-1 .3s-.8-.1-1.2-.3c-.2-.1-.4-.3-.6-.4-.2-.1-.4-.3-.5-.5.1 0 .1-.1.1-.2s.1-.2.2-.3c.1-.1.2-.1.3-.2 0 0 0-.1.1-.1h.2c.3 0 .6.1.8.2.3 0 .6.1.9.2 0 0 .1.1.2.1s.1-.1 0-.1v-.1s0-.1.1-.1h.1s.1 0 .1.1l.2.2c-.1-.1-.1-.1 0 0-.1-.1-.1-.1 0 0-.1-.1-.1-.1 0 0-.1-.1-.1-.1 0 0-.1 0-.1 0 0 0z" opacity=".4"/>
            <path d="M223.8 63c-.1-.1-.2-.1-.3-.2h-.3c-.2 0-.3.1-.3.3 0 .1.1.2.2.3.1.1.2.1.3.1.1 0 .1-.1 0-.2-.1 0-.1-.1-.1-.2V63c.1 0 .2-.1.4 0 .1.1.3.2.4.3V63.6c-.1 0-.1.1.1.2h.2v-.1-.2c0-.1-.1-.2-.1-.2-.3-.2-.4-.3-.5-.3z" opacity=".4"/>
        </g>
        <path fill="#3E8487" d="M244.1 59.2c-.5.6-1.5 1.1-2.1 1.8-.6-.2-4.5-1.7-5.1-1.9-2-.8-4-1.5-6.1-2.2-2.2-.8-4.4-1.8-6.6-2.7-1.2-.5-2.4-.9-3.7-1.3-.7-.3-4.4-1.4-5.1-1.7.8-.5 2.4-1 3.2-1.6 1 .4 4.3 1.5 5.3 1.9 2.2.8 4.4 1.8 6.7 2.7 2.1.8 4.1 1.5 6.2 2.2 1.2.5 6.1 2.4 7.3 2.8z"/>
        <path fill="#fff" d="M226.9 69.6l.6 17.4 5.7-3.2.1-18.1-6.4 3.9z"/>
        <path fill="#fff" d="M226.9 69.6l-27.4-10.1 5.7-3.2 28.1 9.4-6.4 3.9z"/>
        <path stroke="#E2E2E2" stroke-linecap="round" stroke-linejoin="round" stroke-miterlimit="10" stroke-width="2" d="M202.9 59.1l24.4 8.3M228.5 84.9l-.1-14.4"/>
        <path stroke="#000" stroke-linecap="round" stroke-linejoin="round" stroke-miterlimit="10" stroke-width="2" d="M226.1 70l-16.8 9.3c-.4.2-.8.2-1.2.1l-7.4-2.5-17.1-5.9c-1.2-.4-1.4-2.1-.2-2.7L221 47.6c.4-.2.8-.2 1.2-.1l24.5 8.3c1.2.4 1.4 2.1.2 2.7L233.3 66M232.9 66.3l-3.9 2.1"/>
        <path stroke="#000" stroke-linecap="round" stroke-linejoin="round" stroke-miterlimit="10" stroke-width="2" d="M182.6 69.8v16.6c0 1.4.9 2.6 2.2 3l23.3 8c.4.1.8.1 1.2-.1l36.1-19.9M246.9 63.6L233.2 71"/>
        <path stroke="#000" stroke-linecap="round" stroke-linejoin="round" stroke-miterlimit="10" stroke-width="2" d="M197.5 80.2l11 3.8c.4.1.8.1 1.2-.1l17.2-9.4M183.2 75.3l11 3.8M246.9 67.9l-13.7 7.5"/>
        <path stroke="#000" stroke-linecap="round" stroke-linejoin="round" stroke-miterlimit="10" stroke-width="2" d="M183.2 79.6l25.3 8.7c.4.1.8.1 1.2-.1l17.2-9.4M246.9 72.4l-13.7 7.5"/>
        <path stroke="#000" stroke-linecap="round" stroke-linejoin="round" stroke-miterlimit="10" stroke-width="2" d="M183.2 84.1l25.3 8.7c.4.1.8.1 1.2-.1l17.2-9.4M247.3 58.1v17.5M205.6 56.1l27.3 9.3M199.8 59.9l26.7 9M233.2 83.8V66.1M226.9 69.6v18.1"/>
        <path fill="#5EA3AA" d="M190.3 71.1h-.1c-.5-.2-.8-.3-.9-.4-.1-.1-.1-.2.1-.4h-.1c-.1 0-.1 0-.1-.1v-.1s.1 0 .1-.1h.4c.2-.1.5-.1.7-.1.3 0 .6.1.9.2.1.1.2.1.2.1v.1c-.1 0-.1.1-.2.1h-.6c.2.1.2.1.4.1.2-.1.4-.1.7-.1.3 0 .5.1.7.2h.1c.4.2.7.3.7.4 0 .1 0 .2-.1.3h.2s-.1 0-.1.1H193c-.2.1-.4.1-.6.1-.3 0-.5-.1-.8-.1-.1 0-.2-.1-.2-.1v-.1c.1 0 .1-.1.2-.1h.6c-.1 0-.2-.1-.4-.1-.2.1-.4.1-.7.1-.2.1-.5.1-.8 0zm.2-.4l.1.1h.2c-.1-.1-.2-.1-.3-.1 0-.1 0 0 0 0zm1.9.4s-.1 0-.1-.1h-.2c.1 0 .2.1.3.1.1 0 .1 0 0 0zM195 70.6c.1.1.2.1.1.1-.1.1-.2.1-.4.2h-.3c-1.5-.7-2.8-1.2-4.7-2-.1 0-.2-.1-.2 0-.1 0-.1 0-.1.1h-.4c-.3-.1-.5-.2-.8-.3-.2-.1-.2-.1-.1-.2.3-.2.4-.2.7-.4.2-.1.4-.1.7.1 2.1.9 3.8 1.6 5.5 2.4zM194.3 70c-1.3-.6-2.2-1-3.6-1.6-1-.4-1.1-.7-.8-.9.5-.3.7-.4 1.2-.6.3-.2.9-.1 1.8.3 1.4.7 2.3 1 3.5 1.7.9.4 1 .7.6.9-.4.2-.6.4-1.1.6-.3 0-.7 0-1.6-.4zm1.2-1c-1.1-.5-1.7-.8-2.9-1.4-.3-.1-.5-.2-.6-.1-.3.1-.4.2-.6.4-.1.1 0 .2.3.3 1.2.5 1.8.8 2.9 1.3.3.1.4.2.5.1l.6-.3c.1-.1.1-.2-.2-.3zM196.7 68.6c-1.3-.6-2.1-1-3.5-1.7-.9-.4-1.1-.7-.8-.9.4-.2.6-.3 1-.6.3-.2.8-.1 1.8.4 1.4.6 2.3 1 3.6 1.6.9.4 1 .7.7.8-.4.2-.7.4-1.1.6-.4.3-.9.2-1.7-.2zm1.2-1c-1.1-.5-1.8-.8-2.9-1.3-.3-.1-.5-.2-.6-.1-.2.1-.3.2-.6.3-.1.1 0 .1.3.3 1.2.5 1.8.8 2.9 1.4.3.1.4.2.5.1l.6-.3c.1-.2 0-.2-.2-.4zM200.2 67.3c.3.2.5.3.6.4v.2h-.3v-.2c-.2.1-.4 0-.7-.1-.2-.1-.3-.1-.4-.2-.1 0-.1-.1-.1-.1.1-.1.2-.1.4-.2h.2c0 .1.1.1.3.2zM199.8 66.8c-1.3-.6-2.2-.9-3.7-1.6-1-.4-1.2-.7-1-.8.4-.2.5-.3.9-.5.3-.2.9-.1 1.9.3 1.5.6 2.5.9 3.9 1.4.9.4 1.1.6.8.8-.4.2-.6.4-1.1.6-.3.3-.8.2-1.7-.2zm1.1-.9c-1.2-.5-1.9-.7-3.1-1.2-.3-.1-.5-.2-.6-.1-.2.1-.3.2-.5.3-.1 0 0 .1.3.3 1.2.5 1.9.8 3.1 1.2.3.1.5.1.6.1.2-.1.3-.2.6-.3 0-.1-.1-.2-.4-.3zM202.1 65.6c-1.4-.5-2.3-.9-3.9-1.4-1-.4-1.4-.6-1.1-.8.4-.2.5-.3.9-.5.3-.2.9-.1 2 .3 1.6.5 2.6.9 4 1.3 1 .3 1.2.5.9.7-.4.2-.6.3-1 .6-.3.2-.8.1-1.8-.2zm1-.9c-1.2-.4-1.9-.7-3.3-1.1-.3-.1-.5-.1-.6-.1-.2.1-.3.2-.5.3-.1 0 0 .1.4.2 1.3.5 2 .7 3.2 1.1.3.1.5.1.6.1.2-.1.3-.2.5-.3.1 0 0-.1-.3-.2zM204.3 64.4c-1.5-.5-2.4-.8-4-1.3-1.1-.4-1.4-.6-1.2-.8.4-.2.5-.3.9-.5.3-.2.9-.1 2 .3 1.6.5 2.6.8 4 1.3 1 .3 1.2.5.9.7-.4.2-.5.3-.9.5-.2.1-.8.1-1.7-.2zm.9-.9c-1.2-.4-2-.6-3.3-1.1-.3-.1-.5-.1-.6-.1-.2.1-.3.2-.5.3-.1 0 0 .1.4.2 1.3.4 2.1.7 3.3 1.1.3.1.5.1.6.1.2-.1.3-.2.5-.3 0 0-.1-.1-.4-.2z"/>
        <path fill="#3E8487" d="M164.6 27.9l-.3-15.3s0-1.4-5.6 2.2-30.3 16.8-30.3 16.8-1.4 1.3-2.9 1.2c-1.4-.1-25.5-8.7-25.5-8.7l-.7 1.5.4 14.6s.3 1.9 2 2.6c1.7.7 23.3 8 23.3 8s37.2-20.1 36.9-19.8c-.3.3 2.8-1.5 2.8-2.1 0-.4-.1-1-.1-1z"/>
        <path fill="#90CEDD" d="M163.8 12.1l-17.3 9.5-20.3 11.2c-.4.2-.8.2-1.2.1l-7.4-2.5-17.1-5.8c-1.2-.4-1.4-2.1-.2-2.7l37.6-20.7c.4-.2.8-.2 1.2-.1l24.5 8.3c1.2.4 1.3 2.1.2 2.7z"/>
        <g fill="#3E8487" opacity=".4">
            <path d="M136.6 9.3L136 9c-.2-.1-.4-.1-.6-.1-.2 0-.4.1-.6.1h-.3c-.1 0-.2.1-.3.2-.2.1-.3.2-.4.4-.1.2-.1.3-.1.5 0 .1 0 .2-.1.3v.1c0 .1-.1.1 0 .2 0 0 0 .1.1.1.1.3.3.6.6.8l.1.1c.1.2.3.3.4.5.2.2.4.3.6.5.1.1.2.3.4.4.2.1.4.2.6.2.2 0 .4.1.5 0h.1l.1.1v.1c0 .1.1.1.2.1s.1 0 .1-.1 0-.1-.1-.2c0-.1-.1-.1-.2-.2l-.1-.1c.2-.1.3-.2 0-.4-.1-.1-.3 0-.1.1H136.6c-.2 0-.5 0-.7-.1-.2-.1-.3-.1-.4-.2l-.4-.4c-.3-.2-.6-.5-.8-.7.3 0 .4-.2.6-.3.2-.1.4 0 .6 0 .2 0 .5.1.7.1h.2V11h.4c-.1.1-.1.1-.1.2v.3c0 .1.2.2.3.2.2 0 .1-.2 0-.2v-.2s0-.1.1-.1h.2V12c-.1 0-.1.1 0 .2H137.6c.1 0 .1-.1.1-.2v-.3-.3s0-.1-.1-.1c0 0 0-.1-.1-.1-.1-.1-.2-.2-.4-.2h-.3c.2-.2.5-.4.4-.7-.1-.3-.5-.5-.8-.8.5.1.4-.1.2-.2zM140.7 18.6c-.2 0-.2 0-.2.1-.1 0-.2 0-.3.1h-.5c-.1-.1-.3-.1-.4-.2-.2-.1-.3 0-.4 0-.3.1-.3-.4-.3-.4 0-.1.1-.2 0-.2 0-.1-.1-.1-.2-.2s-.2-.2-.3-.2h-.1-.1c-.1 0 0 .2.1.2l.2.2s.1 0 0 0V18.3c0 .2 0 .4.3.5.1.1.3.1.4.1.1 0 .2-.1.3 0 .1 0 .2.1.4.2s.3.1.5.1.3 0 .4-.1c.1 0 .3-.1.3-.2.1-.2 0-.3-.1-.3zM129.1 14.8c-.3-.1-.6-.3-.9-.3-.3 0-.6 0-.8.1-.3.1-.7.1-.9.3-.5.3-.5.8-.5 1.3 0 .3.1.6.2.8.1.1.1.3.2.4.1.2.3.3.4.4l.1.1H127.6c.1-.1 0-.3 0-.5V17c0-.1.1-.2.1-.4.1-.1.1-.3.2-.4.2-.2.7-.1 1-.1h.4c.1 0 .2.1.3.1 0 .1.1.1.2.1h.1l.1-.1.1-.1V16c0-.1 0-.2-.1-.3-.1-.2-.2-.3-.3-.5l-.6-.4zM129.8 21.6c-.1.1.1.2.2.2.1-.1-.1-.3-.2-.2z" opacity=".4"/>
            <path d="M142.3 13.5c-.7-.4-1.4-.8-2.1-.9h-1c-.3 0-.6.1-.8.2-.3.2-.5.4-.7.6-.1.1-.2.2-.2.3-.1.1-.2.2-.1.4.1.1.3.1.2 0l.1-.1c0-.1.1-.1.1-.2.1-.1.1-.2.2-.3.1-.2.3-.4.5-.5.1-.1.2-.1.3-.2.1 0 .3-.1.4-.1h.9c.3 0 .6.1.9.2.3.1.7.3 1 .5.3.2.7.4 1 .6.1.1.3.2.4.3.2.1.3.2.4.4.3.3.5.5.6.8.1.1.1.3.2.4V16.2l-.1.1c-.3-.2-.6-.3-.9-.5-.5-.3-.9-.6-1.3-.9-.2-.1-.4-.3-.6-.3-.2-.1-.3-.1-.5-.1-.4-.1-.7.1-.8.3 0 0-.1 0-.1-.1-.2-.1-.4-.1-.6-.1-.1 0-.2 0-.2.1-.1-.1-.3-.2-.4-.2-.4-.1-.7-.1-1.1-.1-.4 0-.8.1-1.1.3-.3.2-.5.5-.6.8h-.1l-.3.3c0 .1-.1.2-.1.4s.1.4.4.7h-.5c-.1 0-.2 0-.3.1 0 0-.1-.1-.2 0h-.1c0-.1 0-.2-.1-.3-.1-.1-.3-.3-.5-.4-.1 0-.2-.1-.3 0 0-.2-.1-.4-.3-.5-.2-.2-.5-.5-.8-.6-.3-.2-.6-.3-1-.4-.3-.1-.6-.1-.9-.1-.3 0-.6 0-.8.2-.2.2-.3.4-.3.6-.1.2-.1.5-.1.7l.3.9v.1l-.1-.1c-.1-.1-.2-.2-.4-.3-.2-.1-.2.1 0 .2.1 0 .1.1.2.1l.2.2.3.3c.2.2.5.4.6.7.1.2.1.4.1.6 0 .1 0 .2-.1.3 0 0 0 .1-.1.1l-.1.1h-.1c-.3-.1-.7-.2-1-.2-.2 0-.4 0-.6-.1-.2-.1-.4-.1-.7-.1h-.6c-.2-.1-.3-.2-.4-.3l-.2-.2-.1-.1s0-.1-.1-.1h-.2c-.1.1.2.4.3.5.1.1.2.2.4.3-.1 0-.2 0-.3.1-.4.1-.8.3-1.1.4-.2.1-.4.2-.5.3-.2.1-.3.2-.5.4-.1.1-.2.2-.3.4-.3-.1-.5-.2-.8-.3-.1 0-.2-.1-.3-.1-.1 0-.1 0-.2-.1 0 0 0-.1-.1-.1h-.2v.1c.1.1.2.2.3.2.1 0 .3.1.4.1-.2.1-.2.3-.2.5s-.1.4-.1.6v.6c0 .2 0 .4.1.6l.3.6c.2.2.3.4.5.7.3.4.8.8 1.3 1.1.3.2.6.3.9.5.3.1.6.3.9.4.3.1.6.3.9.3.2 0 .3 0 .4.1.1 0 .3.1.4.1 1.2.2 2.4 0 3.2-.4.3-.1.5-.3.7-.4.1-.1.2-.1.3-.2.1.1.2.2.4.3.1.1.2.2.4.2.2.1.3 0 .4-.1.1-.1.2-.1.3-.2v-.2l-.2-.2c-.1-.1-.2-.2-.4-.2-.1 0-.1 0-.2-.1h-.1-.1l.3-.3c.1-.1.3-.2.2-.4v-.1l-.1-.1c-.2-.1-.4-.1-.6-.2-.2 0-.4-.1-.5-.2.2-.2.3-.4.3-.6.1-.3-.1-.6-.2-.8-.1-.1-.1-.3-.2-.4h.4c.2 0 .5.1.7.1.2 0 .5.1.7.1.2 0 .4 0 .5.1 0 .1.1.3.1.4v.2c0 .1.1.2.1.2s0 .1.1.1c.1.1.3.1.4.1.2 0 .3.1.5.1.3.1.6.1.9.2.7 0 1.2 0 1.7-.2.5-.1 1.1-.2 1.6-.4s1-.3 1.5-.5.9-.5 1.3-.7c.4-.2.8-.5 1.2-.7.2-.1.3-.2.4-.4.1-.1.3-.3.3-.4.1-.2.1-.3 0-.5s-.2-.4-.4-.6l-.3-.3c-.1-.1-.3-.2-.4-.3-.3-.2-.6-.3-1-.5-.3-.1-.6-.3-.9-.4-.1 0-.3-.1-.4-.1l-.1-.1h-.7c-.1 0-.1 0-.1.1-.2 0-.4.1-.5.2-.1.1-.2.3-.3.4-.1.1-.1.3-.1.5 0 .3.2.6.3.9l.3.6c.1.2.2.4.2.5 0 .2-.1.3-.1.4 0 .2-.2.3-.4.3-.2.1-.4.1-.7.1-.2 0-.4 0-.7.1H136.3c-.2 0-.5-.1-.6.1-.1.1-.1.3-.1.4-.1 0-.3 0-.4-.1-.2 0-.5-.1-.7-.1-.3 0-.5-.1-.8-.1-.1 0-.3 0-.4-.1h-.2c0-.1-.1-.2-.2-.3-.2-.3-.4-.6-.6-.8H133.7c.5.1 1.1.2 1.6.2.2 0 .2-.1.2-.2-.1-.2-.2-.4-.2-.5-.1-.4-.1-.8-.3-1.2-.1-.2-.1-.4-.2-.6V18s0-.1.1-.1c.3-.1.5-.2.9-.2h.2l.1.1c.1.1.3.2.4.3.2.1.1.3.3.4.2.1.4 0 .6-.1.2-.1.3-.4.5-.5.1-.1.2-.1.4 0 .1.1.3.1.4.2.3.1.4 0 .5-.2.1-.2.1-.5.2-.7 0-.1.1-.3.2-.3s.1-.1.2-.1H141.3c.3.1.6.2.9.4.4.2.8.5 1.1.7.4.2.8.4 1.2.5.2 0 .4.1.6.1h.4c.1 0 0-.1 0-.1l-.2-.2c-.1-.1-.3 0-.1.1h-.4c-.2 0-.3-.1-.5-.1-.4-.1-.8-.4-1.2-.6-.7-.4-1.4-.9-2.2-1H140v-.1-.2-.1c0-.1-.1-.2-.1-.2.1 0 0-.2-.1-.2-.1-.1-.2-.2-.4-.3l-.1-.1h.2c.1 0 .3.1.4.2l.1.1c.1.1.2.1.2.2l.1.1v.1c-.1 0 .1.2.2.2.3-.1 0-.4-.2-.6l-.1-.1c.1-.2.2-.3.5-.3s.5.1.7.2c.3.2.5.4.8.6l.9.6c.5.3 1.1.7 1.7 1 .3.1.9.4 1.1.3 0 0 0-.1-.1-.1-.1-.1-.2-.1-.2 0-.1 0-.3-.1-.4-.1-.2-.1-.5-.2-.7-.3-.1-.1-.2-.1-.3-.2v-.2c0-.1 0-.2-.1-.4-.1-.1-.1-.3-.2-.4-.1-.1-.2-.3-.3-.4.1-1.5-.6-2-1.3-2.4zM135 25c0 .1 0 .1 0 0l-.2.2s-.1 0-.1.1h-.1l-.1-.1c-.1 0-.1-.1-.2-.1l-.3-.3c.1 0 .1-.1.2-.1.1.1.2.1.3.1h.1s.1 0 .1.1c.1-.1.2 0 .3.1zm-.5-1.3s0 .1.1.1c0 .1-.1.2-.2.2-.1.1-.2.3-.3.4l-.6.3-.6.3c-.7.4-1.6.7-2.7.7-.3 0-.6-.1-.9-.1-.1 0-.2-.1-.3-.1-.1 0-.3 0-.4-.1l-.9-.3c-.3-.1-.6-.2-.8-.4-.3-.1-.5-.3-.8-.4-.2-.2-.5-.3-.7-.5-.4-.3-.7-.7-.9-1.1-.2-.2-.3-.4-.3-.6-.1-.2-.1-.5-.1-.7 0-.3 0-.5.1-.7.1-.2 0-.5.2-.7v-.1c.2.1.4.2.6.2-.1.1-.2.3-.2.4-.2.3-.1.6 0 1 .1.2.2.3.3.5.1.2.3.4.5.6l.2.2c.1.1.1.2.2.3l.3.3h.1c.2.3.7.5 1.1.7.2.1.5.2.7.3.3.1.5.2.8.2.5.1.9.1 1.3.1s.9 0 1.2-.1c.4-.1.8-.3 1.1-.5.3-.2.6-.4.8-.7l.1.1h.1s.1 0 .2.1c.1 0 .2.1.3.1.1-.1.2-.1.4 0zm.7-5.4c.1.2.1.4.2.6 0 .2 0 .4.1.5 0 .1 0 .2.1.2l.1.2H135c-.3 0-.5-.1-.8-.1-.3 0-.6-.1-.8-.1h-.9c-.1-.1-.3-.2-.5-.3l-.6-.3.1-.1c.1-.1.1-.2.1-.3 0-.1.1-.2 0-.4 0-.1 0-.3-.1-.4-.1-.1-.1-.3-.2-.4l.2.2c.2.2.5.4.8.6.5.3 1 .4 1.5.3.5-.1 1-.2 1.2-.5 0 0 0-.1.1-.1 0 .2 0 .3.1.4zm-.3-1.7c0 .1 0 .1 0 0 0 .1 0 .1 0 0 0 .1 0 .1 0 0v.1c-.1 0-.1 0-.1.1s.1.1.1.1h.2v.1l-.1-.1c-.1-.1-.3 0-.1.1l.1.2c0 .1.1.2.1.2 0 .1 0 .3-.2.4-.3.2-.6.3-1 .3s-.8-.1-1.2-.3c-.2-.1-.4-.3-.6-.4-.2-.1-.4-.3-.5-.5.1 0 .1-.1.1-.2s.1-.2.2-.3c.1-.1.2-.1.3-.2 0 0 0-.1.1-.1h.2c.3 0 .6.1.8.2.3 0 .6.1.9.2 0 0 .1.1.2.1s.1-.1 0-.1v-.1s0-.1.1-.1h.1s.1 0 .1.1l.2.2c0-.1 0 0 0 0z" opacity=".4"/>
            <path d="M140.8 16.5c-.1-.1-.2-.1-.3-.2h-.3c-.2 0-.3.1-.3.3 0 .1.1.2.2.3.1.1.2.1.3.1.1 0 .1-.1 0-.2-.1 0-.1-.1-.1-.2v-.1c.1 0 .2-.1.4 0 .1.1.3.2.4.3V17.1c-.1 0-.1.1.1.2h.2v-.1-.2c0-.1-.1-.2-.1-.2-.3-.2-.4-.2-.5-.3z" opacity=".4"/>
        </g>
        <path fill="#3E8487" d="M161.1 12.7c-.5.6-1.5 1.1-2.1 1.8-.6-.2-4.5-1.7-5.1-1.9-2-.8-4-1.5-6.1-2.2-2.2-.8-4.4-1.8-6.6-2.7-1.2-.5-2.4-.9-3.7-1.3-.7-.3-4.4-1.4-5.1-1.7.8-.5 2.4-1 3.2-1.6 1 .4 4.3 1.5 5.3 1.9 2.2.8 4.4 1.8 6.7 2.7 2.1.8 4.1 1.5 6.2 2.2 1.1.5 6.1 2.4 7.3 2.8z"/>
        <path fill="#fff" d="M143.8 23.1l.6 17.5 5.8-3.2V19.3l-6.4 3.8zM143.8 23.1L116.4 13l5.8-3.2 28 9.5-6.4 3.8z"/>
        <path stroke="#E2E2E2" stroke-linecap="round" stroke-linejoin="round" stroke-miterlimit="10" stroke-width="2" d="M119.9 12.7l24.3 8.3M145.5 38.4l-.2-14.3"/>
        <path stroke="#000" stroke-linecap="round" stroke-linejoin="round" stroke-miterlimit="10" stroke-width="2" d="M143 23.6l-16.8 9.3c-.4.2-.8.2-1.2.1l-7.4-2.5-17.1-5.8c-1.2-.4-1.4-2.1-.2-2.7l37.6-20.7c.4-.2.8-.2 1.2-.1l24.5 8.3c1.2.4 1.4 2.1.2 2.7l-13.6 7.5M149.9 19.8l-3.9 2.1"/>
        <path stroke="#000" stroke-linecap="round" stroke-linejoin="round" stroke-miterlimit="10" stroke-width="2" d="M99.5 23.3v16.6c0 1.4.9 2.6 2.2 3l23.3 8c.4.1.8.1 1.2-.1L162.3 31M163.9 17.1l-13.7 7.5"/>
        <path stroke="#000" stroke-linecap="round" stroke-linejoin="round" stroke-miterlimit="10" stroke-width="2" d="M114.4 33.7l11 3.8c.4.1.8.1 1.2-.1l17.2-9.4M100.1 28.8l11 3.8M163.9 21.5l-13.7 7.4"/>
        <path stroke="#000" stroke-linecap="round" stroke-linejoin="round" stroke-miterlimit="10" stroke-width="2" d="M100.1 33.2l25.3 8.7c.4.1.8.1 1.2-.1l17.2-9.4M163.9 25.9l-13.7 7.5"/>
        <path stroke="#000" stroke-linecap="round" stroke-linejoin="round" stroke-miterlimit="10" stroke-width="2" d="M100.1 37.6l25.3 8.7c.4.1.8.1 1.2-.1l17.2-9.4M164.3 11.7v17.5M122.6 9.7l27.3 9.2M116.7 13.5l26.7 9M150.2 37.3V19.6M143.8 23.1v18.1"/>
        <path fill="#5EA3AA" d="M107.3 24.6h-.1c-.5-.2-.8-.3-.9-.4-.1-.1-.1-.2.1-.4h-.1c-.1 0-.1 0-.1-.1v-.1s.1 0 .1-.1h.4c.2-.1.5-.1.7-.1.3 0 .6.1.9.2.1.1.2.1.2.1v.1c-.1 0-.1.1-.2.1h-.6c.2.1.2.1.4.1.2-.1.4-.1.7-.1.3 0 .5.1.7.2h.1c.4.2.7.3.7.4.1.1 0 .2-.1.3h.2s-.1 0-.1.1H110c-.2.1-.4.1-.6.1-.3 0-.5-.1-.8-.1-.1 0-.2-.1-.2-.1v-.1c.1 0 .1-.1.2-.1h.6c-.1 0-.2-.1-.4-.1-.2.1-.4.1-.7.1-.3.2-.5.1-.8 0zm.1-.4l.1.1h.2c0-.1-.1-.1-.3-.1zm2 .4s-.1 0-.1-.1h-.2c.1.1.1.1.3.1zM111.9 24.1c.1.1.2.1.1.1-.1.1-.2.1-.4.2h-.3c-1.5-.7-2.8-1.2-4.7-2-.1 0-.2-.1-.2 0-.1 0-.1 0-.1.1h-.4c-.3-.1-.5-.2-.8-.3-.1-.1-.1-.2-.1-.2.3-.2.4-.2.7-.4.2-.1.4-.1.7.1 2.1.9 3.8 1.6 5.5 2.4zM111.2 23.5c-1.3-.6-2.2-1-3.6-1.6-1-.4-1.1-.7-.8-.9.5-.3.7-.4 1.2-.6.3-.2.9-.1 1.8.3 1.4.7 2.3 1 3.5 1.7.9.4 1 .7.6.9-.4.2-.6.4-1.1.6-.2.1-.7 0-1.6-.4zm1.2-1c-1.1-.5-1.7-.8-2.9-1.4-.2-.1-.4-.1-.5-.1-.3.1-.4.2-.6.4-.1.1 0 .2.3.3 1.2.5 1.8.8 2.9 1.3.3.1.4.2.5.1l.6-.3c.1-.1 0-.2-.3-.3zM113.6 22.2c-1.3-.6-2.1-1-3.5-1.7-.9-.4-1.1-.7-.8-.9.4-.2.6-.3 1-.6.3-.2.8-.1 1.8.4 1.4.6 2.3 1 3.6 1.6.9.4 1 .7.7.8-.4.2-.7.4-1.1.6-.4.2-.8.2-1.7-.2zm1.2-1c-1.1-.5-1.8-.8-2.9-1.3-.3-.1-.5-.2-.6-.1-.2.1-.3.2-.6.3-.1.1 0 .1.3.3 1.2.5 1.8.8 2.9 1.4.3.1.4.2.5.1l.6-.3c.2-.2.1-.3-.2-.4zM117.1 20.8c.3.2.5.3.6.4v.2h-.3v-.2c-.2.1-.4 0-.7-.1-.2-.1-.3-.1-.4-.2-.1 0-.1-.1-.1-.1.1-.1.2-.1.4-.2h.2c.1.1.1.1.3.2zM116.8 20.4c-1.3-.6-2.2-.9-3.7-1.6-1-.4-1.2-.7-1-.8.4-.2.5-.3.9-.5.3-.2.9-.1 1.9.3 1.5.6 2.5.9 3.9 1.4.9.4 1.1.6.8.8-.4.2-.6.4-1.1.6-.3.2-.8.2-1.7-.2zm1.1-1c-1.2-.5-1.9-.7-3.1-1.2-.3-.1-.5-.2-.6-.1-.2.1-.3.2-.5.3-.1 0 0 .1.3.3 1.2.5 1.9.8 3.1 1.2.3.1.5.1.6.1.2-.1.3-.2.6-.3 0-.1-.1-.1-.4-.3zM119.1 19.1c-1.4-.5-2.3-.9-3.9-1.4-1-.4-1.4-.6-1.1-.8.4-.2.5-.3.9-.5.3-.2.9-.1 2 .3 1.6.5 2.6.9 4 1.3 1 .3 1.2.5.9.7-.4.2-.6.3-1 .6-.4.2-.9.2-1.8-.2zm1-.9c-1.2-.4-1.9-.7-3.3-1.1-.3-.1-.5-.1-.6-.1-.2.1-.3.2-.5.3-.1 0 0 .1.4.2 1.3.5 2 .7 3.2 1.1.3.1.5.1.6.1.2-.1.3-.2.5-.3.1 0 0-.1-.3-.2zM121.2 17.9c-1.5-.5-2.4-.8-4-1.3-1.1-.4-1.4-.6-1.2-.8.4-.2.5-.3.9-.5.3-.2.9-.1 2 .3 1.6.5 2.6.8 4 1.3 1 .3 1.2.5.9.7-.4.2-.5.3-.9.5-.2.2-.7.1-1.7-.2zm.9-.8c-1.2-.4-2-.6-3.3-1.1-.3-.1-.5-.1-.6-.1-.2.1-.3.2-.5.3-.1 0 0 .1.4.2 1.3.4 2.1.7 3.3 1.1.3.1.5.1.6.1.2-.1.3-.2.5-.3 0-.1-.1-.1-.4-.2z"/>
        <path fill="#3E8487" d="M88.1 78.9l-.3-15.3s0-1.4-5.6 2.2c-5.6 3.7-30.3 16.8-30.3 16.8S50.4 84 49 83.9c-1.4-.1-25.5-8.7-25.5-8.7l-.7 1.5.4 14.6s.3 1.9 2 2.6c1.7.7 23.3 8 23.3 8s37.2-20.1 36.9-19.8c-.3.3 2.8-1.5 2.8-2.1-.1-.5-.1-1.1-.1-1.1z"/>
        <path fill="#90CEDD" d="M87.3 63.1L70 72.6 49.7 83.8c-.4.2-.8.2-1.2.1l-7.4-2.5L24 75.6c-1.2-.4-1.4-2.1-.2-2.7l37.6-20.7c.4-.2.8-.2 1.2-.1L87 60.4c1.2.4 1.4 2.1.3 2.7z"/>
        <g fill="#3E8487" opacity=".4">
            <path d="M60.1 60.3l-.6-.3c-.2-.1-.4-.1-.6-.1-.2 0-.4.1-.6.1H58c-.1 0-.2.1-.3.2-.2.1-.3.2-.4.4-.1.2-.1.3-.1.5 0 .1 0 .2-.1.3v.1c0 .1-.1.1 0 .2 0 0 0 .1.1.1.1.3.3.6.6.8l.1.1c.1.2.3.3.4.5.2.2.4.3.6.5.1.1.2.3.4.4.2.1.4.2.6.2.2 0 .4.1.5 0h.1l.1.1v.1c0 .1.1.1.2.1s.1 0 .1-.1 0-.1-.1-.2c0-.1-.1-.1-.2-.2l-.1-.1c.2-.1.3-.2 0-.4-.1-.1-.3 0-.1.1H60.1c-.2 0-.5 0-.7-.1-.2-.1-.3-.1-.4-.2l-.4-.4c-.3-.2-.6-.5-.8-.7.3 0 .4-.2.6-.3.2-.1.4 0 .6 0 .2 0 .5.1.7.1h.2V62h.4c-.1.1-.1.1-.1.2v.3c0 .1.2.2.3.2.2 0 .1-.2 0-.2v-.2s0-.1.1-.1h.2V63c-.1 0-.1.1 0 .2H61.1c.1 0 .1-.1.1-.2v-.3-.3s0-.1-.1-.1c0 0 0-.1-.1-.1-.1-.1-.2-.2-.4-.2h-.3c.2-.2.5-.4.4-.7-.1-.3-.5-.5-.8-.8.5.1.4-.1.2-.2zM64.2 69.6s-.1 0 0 0c-.2 0-.2 0-.2.1-.1 0-.2 0-.3.1h-.5c-.1-.1-.3-.1-.4-.2-.2-.1-.3 0-.4 0-.3.1-.3-.4-.3-.4 0-.1.1-.2 0-.2 0-.1-.1-.1-.2-.2s-.2-.2-.3-.2h-.1-.1c-.1 0 0 .2.1.2l.2.2s.1 0 0 0V69.3c0 .2 0 .4.3.5.1.1.3.1.4.1.1 0 .2-.1.3 0 .1 0 .2.1.4.2s.3.1.5.1.3 0 .4-.1c.1 0 .3-.1.3-.2 0-.2 0-.3-.1-.3zM52.6 65.8c-.3-.1-.6-.3-.9-.3-.3 0-.6 0-.8.1-.3.1-.7.1-.9.3-.5.3-.5.8-.5 1.3 0 .3.1.6.2.8.1.1.1.3.2.4.1.2.3.3.4.4l.1.1H51.1c.1-.1 0-.3 0-.5V68c0-.1.1-.2.1-.4.1-.1.1-.3.2-.4.2-.2.7-.1 1-.1h.4c.1 0 .2.1.3.1 0 .1.1.1.2.1h.1l.1-.1.1-.1V67c0-.1 0-.2-.1-.3-.1-.2-.2-.3-.3-.5-.1 0-.3-.3-.6-.4zM53.3 72.6c-.1.1.1.2.2.2.1-.1-.1-.3-.2-.2z" opacity=".4"/>
            <path d="M65.7 64.5c-.7-.4-1.4-.8-2.1-.9h-1c-.3 0-.6.1-.8.2-.3.2-.5.4-.7.6-.1.1-.2.2-.2.3-.1.1-.2.2-.1.4.1.1.3.1.2 0l.1-.1c0-.1.1-.1.1-.2.1-.1.1-.2.2-.3.1-.2.3-.4.5-.5.1-.1.2-.1.3-.2.1 0 .3-.1.4-.1h.9c.3 0 .6.1.9.2.3.1.7.3 1 .5.3.2.7.4 1 .6.1.1.3.2.4.3.2.1.3.2.4.4.3.3.5.5.6.8.1.1.1.3.2.4V67.2l-.1.1c-.3-.2-.6-.3-.9-.5-.5-.3-.9-.6-1.3-.9-.2-.1-.4-.3-.6-.3-.2-.1-.3-.1-.5-.1-.4-.1-.7.1-.8.3 0 0-.1 0-.1-.1-.2-.1-.4-.1-.6-.1-.1 0-.2 0-.2.1-.1-.1-.3-.2-.4-.2-.4-.1-.7-.1-1.1-.1-.4 0-.8.1-1.1.3-.3.2-.5.5-.6.8h-.1l-.3.3c0 .1-.1.2-.1.4s.1.4.4.7h-.5c-.1 0-.2 0-.3.1 0 0-.1-.1-.2 0h-.1c0-.1 0-.2-.1-.3-.1-.1-.3-.3-.5-.4-.1 0-.2-.1-.3 0 0-.2-.1-.4-.3-.5-.2-.2-.5-.5-.8-.6-.3-.2-.6-.3-1-.4-.3-.1-.6-.1-.9-.1-.3 0-.6 0-.8.2-.2.2-.3.4-.3.6-.1.2-.1.5-.1.7l.3.9v.1l-.1-.1c-.1-.1-.2-.2-.4-.3-.2-.1-.2.1 0 .2.1 0 .1.1.2.1l.2.2.3.3c.2.2.5.4.6.7.1.2.1.4.1.6 0 .1 0 .2-.1.3 0 0 0 .1-.1.1l-.1.1h-.1c-.3-.1-.7-.2-1-.2-.2 0-.4 0-.6-.1-.2-.1-.4-.1-.7-.1h-.6c-.2-.1-.3-.2-.4-.3l-.2-.2-.1-.1s0-.1-.1-.1h-.2c-.1.1.2.4.3.5.1.1.2.2.4.3-.1 0-.2 0-.3.1-.4.1-.8.3-1.1.4-.2.1-.4.2-.5.3-.2.1-.3.2-.5.4-.1.1-.2.2-.3.4-.3-.1-.5-.2-.8-.3-.1 0-.2-.1-.3-.1-.1 0-.1 0-.2-.1 0 0 0-.1-.1-.1h-.2v.1c.1.1.2.2.3.2.1 0 .3.1.4.1-.2.1-.2.3-.2.5s-.1.4-.1.6v.6c0 .2 0 .4.1.6l.3.6c.2.2.3.4.5.7.3.4.8.8 1.3 1.1.3.2.6.3.9.5.3.1.6.3.9.4.3.1.6.3.9.3.2 0 .3 0 .4.1.1 0 .3.1.4.1 1.2.2 2.4 0 3.2-.4.3-.1.5-.3.7-.4.1-.1.2-.1.3-.2.1.1.2.2.4.3.1.1.2.2.4.2.2.1.3 0 .4-.1.1-.1.2-.1.3-.2v-.2l-.2-.2c-.1-.1-.2-.2-.4-.2-.1 0-.1 0-.2-.1h-.1-.1l.3-.3c.1-.1.3-.2.2-.4v-.1l-.1-.1c-.2-.1-.4-.1-.6-.2-.2 0-.4-.1-.5-.2.2-.2.3-.4.3-.6.1-.3-.1-.6-.2-.8-.1-.1-.1-.3-.2-.4h.4c.2 0 .5.1.7.1.2 0 .5.1.7.1.2 0 .4 0 .5.1 0 .1.1.3.1.4v.2c0 .1.1.2.1.2s0 .1.1.1c.1.1.3.1.4.1.2 0 .3.1.5.1.3.1.6.1.9.2.7 0 1.2 0 1.7-.2.5-.1 1.1-.2 1.6-.4s1-.3 1.5-.5.9-.5 1.3-.7c.4-.2.8-.5 1.2-.7.2-.1.3-.2.4-.4.1-.1.3-.3.3-.4.1-.2.1-.3 0-.5s-.2-.4-.4-.6l-.3-.3c-.1-.1-.3-.2-.4-.3-.3-.2-.6-.3-1-.5-.3-.1-.6-.3-.9-.4-.1 0-.3-.1-.4-.1l-.1-.1h-.7c-.1 0-.1 0-.1.1-.2 0-.4.1-.5.2-.1.1-.2.3-.3.4-.1.1-.1.3-.1.5 0 .3.2.6.3.9l.3.6c.1.2.2.4.2.5 0 .2-.1.3-.1.4 0 .2-.2.3-.4.3-.2.1-.4.1-.7.1-.2 0-.4 0-.7.1H59.7c-.2 0-.5-.1-.6.1-.1.1-.1.3-.1.4-.1 0-.3 0-.4-.1-.2 0-.5-.1-.7-.1-.3 0-.5-.1-.8-.1-.1 0-.3 0-.4-.1h-.2c0-.1-.1-.2-.2-.3-.2-.3-.4-.6-.6-.8H57.1c.5.1 1.1.2 1.6.2.2 0 .2-.1.2-.2-.1-.2-.2-.4-.2-.5-.1-.4-.1-.8-.3-1.2-.1-.2-.1-.4-.2-.6V69s0-.1.1-.1c.3-.1.5-.2.9-.2h.2l.1.1c.1.1.3.2.4.3.2.1.1.3.3.4.2.1.4 0 .6-.1.2-.1.3-.4.5-.5.1-.1.2-.1.4 0 .1.1.3.1.4.2.3.1.4 0 .5-.2.1-.2.1-.5.2-.7 0-.1.1-.3.2-.3s.1-.1.2-.1H64.7c.3.1.6.2.9.4.4.2.8.5 1.1.7.4.2.8.4 1.2.5.2 0 .4.1.6.1h.4c.1 0 0-.1 0-.1l-.2-.2c-.1-.1-.3 0-.1.1h-.4c-.2 0-.3-.1-.5-.1-.4-.1-.8-.4-1.2-.6-.7-.4-1.4-.9-2.2-1H63.4v-.1-.2-.1c0-.1-.1-.2-.1-.2.1 0 0-.2-.1-.2-.1-.1-.2-.2-.4-.3l-.1-.1h.2c.1 0 .3.1.4.2l.1.1c.1.1.2.1.2.2l.1.1v.1c-.1 0 .1.2.2.2.3-.1 0-.4-.2-.6l-.1-.1c.1-.2.2-.3.5-.3s.5.1.7.2c.3.2.5.4.8.6l.9.6c.5.3 1.1.7 1.7 1 .3.1.9.4 1.1.3 0 0 0-.1-.1-.1-.1-.1-.2-.1-.2 0-.1 0-.3-.1-.4-.1-.2-.1-.5-.2-.7-.3-.1-.1-.2-.1-.3-.2v-.2c0-.1 0-.2-.1-.4-.1-.1-.1-.3-.2-.4-.1-.1-.2-.3-.3-.4.2-1.5-.5-2-1.3-2.4zM58.5 76l-.2.2s-.1 0-.1.1h-.1l-.1-.1c-.1 0-.1-.1-.2-.1l-.3-.3c.1 0 .1-.1.2-.1.1.1.2.1.3.1h.1s.1 0 .1.1c.1-.1.1 0 .3.1-.1 0 0 0 0 0zm-.6-1.3s0 .1.1.1c0 .1-.1.2-.2.2-.1.1-.2.3-.3.4l-.6.3-.6.3c-.7.4-1.6.7-2.7.7-.3 0-.6-.1-.9-.1-.1 0-.2-.1-.3-.1-.1 0-.3 0-.4-.1l-.9-.3c-.3-.1-.6-.2-.8-.4-.3-.1-.5-.3-.8-.4-.2-.2-.5-.3-.7-.5-.4-.3-.7-.7-.9-1.1-.2-.2-.3-.4-.3-.6-.1-.2-.1-.5-.1-.7 0-.3 0-.5.1-.7.1-.2 0-.5.2-.7v-.1c.2.1.4.2.6.2-.1.1-.2.3-.2.4-.2.3-.1.6 0 1 .1.2.2.3.3.5.1.2.3.4.5.6l.2.2c.1.1.1.2.2.3l.3.3h.1c.2.3.7.5 1.1.7.2.1.5.2.7.3.3.1.5.2.8.2.5.1.9.1 1.3.1s.9 0 1.2-.1c.4-.1.8-.3 1.1-.5.3-.2.6-.4.8-.7l.1.1h.1s.1 0 .2.1c.1 0 .2.1.3.1.1-.1.3-.1.4 0zm.7-5.4c.1.2.1.4.2.6 0 .2 0 .4.1.5 0 .1 0 .2.1.2l.1.2H58.4c-.3 0-.5-.1-.8-.1-.3 0-.6-.1-.8-.1h-.9c-.1-.1-.3-.2-.5-.3l-.6-.3.1-.1c.1-.1.1-.2.1-.3 0-.1.1-.2 0-.4 0-.1 0-.3-.1-.4-.1-.1-.1-.3-.2-.4l.2.2c.2.2.5.4.8.6.5.3 1 .4 1.5.3.5-.1 1-.2 1.2-.5 0 0 0-.1.1-.1.1.2.1.3.1.4zm-.2-1.7s0 .1 0 0c0 .1 0 .1 0 0 0 .1 0 .1 0 0v.1c-.1 0-.1 0-.1.1s.1.1.1.1h.2v.1l-.1-.1c-.1-.1-.3 0-.1.1l.1.2c0 .1.1.2.1.2 0 .1 0 .3-.2.4-.3.2-.6.3-1 .3s-.8-.1-1.2-.3c-.2-.1-.4-.3-.6-.4-.2-.1-.4-.3-.5-.5.1 0 .1-.1.1-.2s.1-.2.2-.3c.1-.1.2-.1.3-.2 0 0 0-.1.1-.1h.2c.3 0 .6.1.8.2.3 0 .6.1.9.2 0 0 .1.1.2.1s.1-.1 0-.1v-.1s0-.1.1-.1h.1s.1 0 .1.1l.2.2c-.1-.1-.1-.1 0 0-.1 0-.1 0 0 0-.1 0-.1 0 0 0-.1 0-.1 0 0 0z" opacity=".4"/>
            <path d="M64.2 67.5c-.1-.1-.2-.1-.3-.2h-.3c-.2 0-.3.1-.3.3 0 .1.1.2.2.3.1.1.2.1.3.1.1 0 .1-.1 0-.2-.1 0-.1-.1-.1-.2v-.1c.1 0 .2-.1.4 0 .1.1.3.2.4.3V68.1c-.1 0-.1.1.1.2h.2v-.1-.2c0-.1-.1-.2-.1-.2-.3-.2-.4-.3-.5-.3z" opacity=".4"/>
        </g>
        <path fill="#3E8487" d="M84.5 63.7c-.5.6-1.5 1.1-2.1 1.8-.6-.2-4.5-1.7-5.1-1.9-2-.8-4-1.5-6.1-2.2-2.2-.8-4.4-1.8-6.6-2.7-1.2-.5-2.4-.9-3.7-1.3-.7-.3-4.4-1.4-5.1-1.7.8-.5 2.4-1 3.2-1.6 1 .4 4.3 1.5 5.3 1.9 2.2.8 4.4 1.8 6.7 2.7 2.1.8 4.1 1.5 6.2 2.2 1.2.5 6.1 2.4 7.3 2.8z"/>
        <path fill="#fff" d="M67.3 74.1l.6 17.5 5.7-3.2.1-18.2-6.4 3.9z"/>
        <path fill="#fff" d="M67.3 74.1L39.9 64l5.8-3.2 28 9.4-6.4 3.9z"/>
        <path stroke="#E2E2E2" stroke-linecap="round" stroke-linejoin="round" stroke-miterlimit="10" stroke-width="2" d="M43.3 63.6l24.4 8.3M68.9 89.4l-.1-14.3"/>
        <path stroke="#000" stroke-linecap="round" stroke-linejoin="round" stroke-miterlimit="10" stroke-width="2" d="M66.5 74.6l-16.8 9.3c-.4.2-.8.2-1.2.1l-7.4-2.5L24 75.6c-1.2-.4-1.4-2.1-.2-2.7l37.6-20.7c.4-.2.8-.2 1.2-.1L87 60.4c1.2.4 1.4 2.1.2 2.7l-13.6 7.5M73.3 70.8l-3.9 2.1"/>
        <path stroke="#000" stroke-linecap="round" stroke-linejoin="round" stroke-miterlimit="10" stroke-width="2" d="M23 74.3v16.6c0 1.4.9 2.6 2.2 3l23.3 8c.4.1.8.1 1.2-.1l36-19.8M87.3 68.1l-13.7 7.5"/>
        <path stroke="#000" stroke-linecap="round" stroke-linejoin="round" stroke-miterlimit="10" stroke-width="2" d="M37.9 84.7l11 3.8c.4.1.8.1 1.2-.1L67.3 79M23.6 79.8l11 3.8M87.3 72.5l-13.7 7.4"/>
        <path stroke="#000" stroke-linecap="round" stroke-linejoin="round" stroke-miterlimit="10" stroke-width="2" d="M23.6 84.2l25.3 8.7c.4.1.8.1 1.2-.1l17.2-9.4M87.3 76.9l-13.7 7.5"/>
        <path stroke="#000" stroke-linecap="round" stroke-linejoin="round" stroke-miterlimit="10" stroke-width="2" d="M23.6 88.6l25.3 8.7c.4.1.8.1 1.2-.1l17.2-9.4M87.7 62.7v17.4M46.1 60.7l27.2 9.2M40.2 64.5l26.7 9M73.6 88.3V70.6M67.3 74.1v18.1"/>
        <path fill="#5EA3AA" d="M30.8 75.6h-.1c-.5-.2-.8-.3-.9-.4-.1-.1-.1-.2.1-.4h-.1c-.1 0-.1 0-.1-.1v-.1s.1 0 .1-.1h.4c.2-.1.5-.1.7-.1.3 0 .6.1.9.2.1.1.2.1.2.1v.1c-.1 0-.1.1-.2.1h-.6c.2.1.2.1.4.1.1.1.4 0 .6 0 .3 0 .5.1.7.2h.1c.4.2.7.3.7.4.1.1 0 .2-.1.3h.2s-.1 0-.1.1H33.4c-.2.1-.4.1-.6.1-.3 0-.5-.1-.8-.1h-.1v-.1c.1 0 .1-.1.2-.1h.6c-.1 0-.2-.1-.4-.1-.2.1-.4.1-.7.1-.3-.1-.6-.1-.8-.2zm.1-.4l.1.1h.2c-.1-.1-.2-.1-.3-.1zm2 .4s-.1 0-.1-.1h-.2c0 .1.1.1.3.1zM35.4 75.1c.1.1.2.1.1.1-.1.1-.2.1-.4.2h-.3c-1.5-.7-2.8-1.2-4.7-2-.1 0-.2-.1-.2 0-.1 0-.1 0-.1.1h-.4c-.3-.1-.5-.2-.8-.3-.1-.2-.2-.2-.1-.3.3-.2.4-.2.7-.4.2-.1.4-.1.7.1 2.1 1 3.8 1.7 5.5 2.5zM34.7 74.5c-1.3-.6-2.2-1-3.6-1.6-1-.4-1.1-.7-.8-.9.5-.3.7-.4 1.2-.6.3-.2.9-.1 1.8.3 1.4.7 2.3 1 3.5 1.7.9.4 1 .7.6.9-.4.2-.6.4-1.1.6-.3.1-.7 0-1.6-.4zm1.2-1c-1.1-.5-1.7-.8-2.9-1.4-.3-.1-.5-.1-.6-.1-.3.1-.4.2-.6.4-.1.1 0 .2.3.3 1.2.5 1.8.8 2.9 1.3.3.1.4.2.5.1l.6-.3c.1-.1.1-.2-.2-.3zM37.1 73.1c-1.3-.6-2.1-1-3.5-1.7-.9-.4-1.1-.7-.8-.9.4-.2.6-.3 1-.6.3-.2.8-.1 1.8.4 1.4.6 2.3 1 3.6 1.6.9.4 1 .7.7.8-.4.2-.7.4-1.1.6-.4.3-.9.3-1.7-.2zm1.2-.9c-1.1-.5-1.8-.8-2.9-1.3-.3-.1-.5-.2-.6-.1-.2.1-.3.2-.6.3-.1.1 0 .1.3.3 1.2.5 1.8.8 2.9 1.4.3.1.4.2.5.1l.6-.3c.1-.2 0-.3-.2-.4zM40.6 71.8c.3.2.5.3.6.4v.2h-.3v-.2c-.2.1-.4 0-.7-.1-.2-.1-.3-.1-.4-.2-.1 0-.1-.1-.1-.1.1-.1.2-.1.4-.2h.2c0 .1.1.1.3.2zM40.2 71.4c-1.3-.6-2.2-.9-3.7-1.6-1-.4-1.2-.7-1-.8.4-.2.5-.3.9-.5.3-.2.9-.1 1.9.3 1.5.6 2.5.9 3.9 1.4.9.4 1.1.6.8.8-.4.2-.6.4-1.1.6-.3.2-.8.2-1.7-.2zm1.1-1c-1.2-.5-1.9-.7-3.1-1.2-.3-.1-.5-.2-.6-.1-.2.1-.3.2-.5.3-.1 0 0 .1.3.3 1.2.5 1.9.8 3.1 1.2.3.1.5.1.6.1.2-.1.3-.2.6-.3 0-.1-.1-.2-.4-.3zM42.5 70.1c-1.4-.5-2.3-.9-3.9-1.4-1-.4-1.4-.6-1.1-.8.4-.2.5-.3.9-.5.3-.2.9-.1 2 .3 1.6.5 2.6.9 4 1.3 1 .3 1.2.5.9.7-.4.2-.6.3-1 .6-.3.2-.8.1-1.8-.2zm1-.9c-1.2-.4-1.9-.7-3.3-1.1-.3-.1-.5-.1-.6-.1-.2.1-.3.2-.5.3-.1 0 0 .1.4.2 1.3.5 2 .7 3.2 1.1.3.1.5.1.6.1.2-.1.3-.2.5-.3.1 0 0-.1-.3-.2zM44.7 68.9c-1.5-.5-2.4-.8-4-1.3-1.1-.4-1.4-.6-1.2-.8.4-.2.5-.3.9-.5.3-.2.9-.1 2 .3 1.6.5 2.6.8 4 1.3 1 .3 1.2.5.9.7-.4.2-.5.3-.9.5-.2.1-.7.1-1.7-.2zm.9-.9c-1.2-.4-2-.6-3.3-1.1-.3-.1-.5-.1-.6-.1-.2.1-.3.2-.5.3-.1 0 0 .1.4.2 1.3.4 2.1.7 3.3 1.1.3.1.5.1.6.1.2-.1.3-.2.5-.3 0 0-.1-.1-.4-.2z"/>
        <path fill="#F79FA8" d="M130.1 57.4s5.7 6 7.3 10.8l-6.5.7 10.1 7.5 7.4-8.9-5.9.4s-.3-7.2-3.9-12.1l-8.5 1.6z"/>
        <path stroke="#000" stroke-linecap="round" stroke-linejoin="round" stroke-miterlimit="10" stroke-width="2.18" d="M130.1 57.4s5.7 6 7.3 10.8l-6.5.7 10.1 7.5 7.4-8.9-5.9.4s-.3-7.7-3.9-12.1l-8.5 1.6z"/>
        <path fill="#F79FA8" d="M82.4 99.4s6.4 3.7 9.5 8.1l-7 3.6 13.7 2.7 4.8-11.1-7 1.9s-3.3-3.9-7.2-8.5l-6.8 3.3z"/>
        <path stroke="#000" stroke-linecap="round" stroke-linejoin="round" stroke-miterlimit="10" stroke-width="2.18" d="M82.4 99.4s6.5 4.2 9.5 8.1l-7 3.6 13.7 2.7 4.8-11.1-6.7 2.4s-3.8-4.6-7.4-9.1l-6.9 3.4z"/>
        <path fill="#F79FA8" d="M190.2 99.4s-5.9 4.6-10.2 7.3l8.4 5.1-17 .7-2.2-14.2 7.1 4.8s4.1-3.9 7.2-8.2l6.7 4.5z"/>
        <path stroke="#000" stroke-linecap="round" stroke-linejoin="round" stroke-miterlimit="10" stroke-width="2.18" d="M190.2 99.4s-5.9 4.6-10.2 7.3l8.4 5.1-17 .7-2.2-14.2 7.1 4.8s3.9-4.2 7.2-8.2l6.7 4.5zM93.4 182.1H82.9M186.9 182.1h7.5"/>
    </g>
    <defs>
        <clipPath id="clip0">
            <path fill="#fff" d="M0 0H226.6V183.2H0z" transform="translate(22)"/>
        </clipPath>
    </defs>
</svg>
