<svg xmlns="http://www.w3.org/2000/svg" width="240" height="193" fill="none" viewBox="0 0 240 193">
    <g clip-path="url(#clip0)">
        <path fill="#73B267" d="M181.268 37.725l-65.23-8.255V12.516l65.23 8.255v16.954z"/>
        <path fill="#FAD45C" d="M186.129 19.44s1.591-10.031-2.298-10.652c-13.435-1.953-57.805-7.9-57.805-7.9-8.662.887-9.546 4.083-9.546 4.083l-.442 7.545 65.23 8.255 4.861-1.332z"/>
        <path fill="#73B267" d="M181.268 37.725l4.861-1.332V19.44l-4.861 1.332v16.954z"/>
        <path fill="#BCC9B8" d="M104.99 30.446l7.424-3.107 3.359.444.177 2.308 65.053 8.521 5.922-1.864 8.485 1.066s-8.309 2.751-10.43 5.414l-79.99-12.782z"/>
        <path fill="#DAEAD6" d="M185.334 42.518c-.089.266-.266.444-.442.621-.265.267-.531.444-.531.444-8.927 15.623-14.053 41.187-16.97 67.106-2.917 25.653-3.624 51.66-3.712 68.792l-.354.177-82.023-20.238h-.177l-.265-.089c.177-5.68.442-11.983.796-18.995.441-8.61.972-18.108 1.767-28.76 0-.532.089-1.065.089-1.597 3.624-47.49 15.733-72.61 18.561-77.935.354-.71.619-1.065.619-1.065.353-.267.972-.355 1.502-.355.796-.09 1.591 0 1.591 0s69.384 9.054 75.836 9.852c3.624.355 4.066 1.332 3.713 2.042z"/>
        <path fill="#C3CEC0" d="M168.01 110.778v.088l-.265 2.219v.71c0 .356 0 .799-.089 1.421V115.66c-.265 5.858-.972 21.392-1.679 39.056-.265 7.811-.619 15.977-.884 23.966l-.884.621-.177.089-.353.266-.354.178-82.023-20.238h-.177c.089-6.214.177-12.605.442-19.085.354-9.941.884-19.883 1.768-28.759.53-5.592 1.237-10.652 2.033-15.179 0 0 47.022 9.587 81.935 14.291.265-.177.442-.088.707-.088z"/>
        <path fill="#788974" d="M127.528 118.056l-35.973-6.568.088-7.013s-.177-2.308 3.094-1.597c3.27.621 33.057 6.302 33.057 6.302l-.266 8.876z"/>
        <path fill="#C3E0DC" d="M172.606 50.152l-59.838-8.965s-1.591.532-2.387 1.597c-.795 1.065-7.071 18.02-10.871 39.678 0 0-1.856 5.947 1.944 6.568 3.801.622 58.689 9.587 58.689 9.587s2.298-24.499 12.463-48.465z"/>
        <path fill="#DFF4F0" d="M99.156 85.125s4.154-20.682 6.099-27.428c4.243-14.913 6.364-16.244 6.364-16.244l4.773.355 11.402 1.775-28.638 41.542zM160.408 98.794l-15.821-2.485 23.776-34.795-6.187 25.563-1.768 11.717zM140.786 95.244l-11.49-1.687 30.936-44.914 11.49 1.775-30.936 44.826z"/>
        <path fill="#BCC9B8" d="M111.619 41.541s-1.149 0-2.652 3.906c-1.502 3.906-8.485 27.96-9.369 36.837 0 0-1.68 4.705.354 5.947.972.533 60.28 10.208 60.28 10.208l-.354 2.219s.531 2.22-3.005 2.131c-3.535-.089-62.49-10.74-62.49-10.74s-1.59-.267-.883-4.883c.618-4.615 6.363-35.95 13.876-49.619 0 0 1.149-1.953 3.005-1.42 1.857.532 62.048 8.432 62.048 8.432s2.121.533 1.591 2.22c-.53 1.686-1.414 3.284-1.414 3.284l-59.131-8.877-1.856.355z"/>
        <path fill="#73B267" d="M200.006 155.781l-.088.089-34.825 22.723-.884.622c.089-6.835.265-13.404.442-18.552.265-6.391.53-13.315 1.061-20.505v-.088c.53-7.989 1.149-16.422 2.033-24.766 1.149-11.184 2.651-22.368 4.596-32.665 0-.088 0-.177.088-.266 3.005-15.711 6.983-29.647 12.551-38.79 0 0 0-.089.089-.266.088-.178.176-.355.442-.621l.53-.533c.884-.799 2.386-1.864 4.95-2.752 4.242-1.509 5.833-2.396 6.805-.177 0 .088 0 .088.089.177.176.444.265.977.442 1.598 0 0 .088.976.176 3.107 0 .444.089.976.089 1.598v.532c0 .444.088.888.088 1.331v.267c0 .266 0 .621.089.976 0 .888.088 1.776.176 2.752 0 .444 0 .976.089 1.42 0 .71.088 1.42.088 2.13.089 1.243.089 2.575.177 3.906 0 .444 0 .888.088 1.42v1.243c0 .621.089 1.331.089 2.042v.443c0 .533 0 1.066.088 1.687 0 1.065.088 2.219.088 3.373 0 .799 0 1.598.089 2.397.088 1.952.088 4.083.177 6.213.088 3.64.176 7.545.265 11.717.088 3.906.088 8.077.177 12.427v.355c-.177 14.557-.089 32.221-.354 53.436z"/>
        <path fill="#8AC47E" d="M199.829 89.208c-19.268 8.077-30.405 48.021-35.266 71.544 1.414-37.281 5.922-93.291 20.24-117.169 0 0 .973-2.396 6.099-4.172 5.127-1.775 6.452-2.752 7.248 1.598-.089 0 1.149 15.179 1.679 48.199z"/>
        <path stroke="#000" stroke-linecap="round" stroke-linejoin="round" stroke-miterlimit="10" stroke-width="1.5" d="M195.321 37.902c.973-.266 1.945.178 2.298 1.065 0 .09 0 .09.089.178 0 .089.088.266.088.355v.178s.354 1.864.707 7.544v.178c0 .266 0 .621.089.976.53 8.522 1.237 24.588 1.502 53.081v.355c.089 14.558.089 32.31-.177 53.969M82.01 130.306c-.355 13.669-.62 26.451-.708 29.203M92.262 57.697c3.712-14.646 7.513-22.103 9.546-25.387.884-1.42 2.475-2.13 4.066-1.953l79.106 10.474c.796.09 1.149.977.707 1.598-3.977 5.77-18.384 31.423-20.948 117.258M91.113 62.579c.088-.444.177-.888.354-1.332M84.13 108.47c1.768-18.463 4.066-32.754 6.453-43.761"/>
        <path stroke="#000" stroke-linecap="round" stroke-linejoin="round" stroke-miterlimit="10" stroke-width="1.5" d="M166.33 68.348c2.564-9.497 5.304-16.066 7.513-20.504.707-1.42-.177-3.107-1.767-3.373l-61.96-8.344c-.972-.089-1.856.355-2.386 1.154-4.066 7.456-10.43 24.055-14.496 52.193-.176 1.243.619 2.397 1.856 2.663l62.225 10.741c1.326.266 2.475-.711 2.651-1.953 1.503-11.717 3.359-21.215 5.304-29.026"/>
        <path stroke="#000" stroke-linecap="round" stroke-linejoin="round" stroke-miterlimit="10" stroke-width="1.5" d="M160.143 98.706l-59.219-9.942c-1.237-.177-2.121-1.42-1.856-2.663 3.182-20.15 7.601-34.618 11.137-42.962.53-1.242 1.856-2.041 3.182-1.775l59.219 8.965M121.96 108.026L93.853 102.7c-1.149-.178-2.21.621-2.21 1.775v6.214M196.294 37.902l-9.635-1.242M104.725 30.18l7.247-2.84 3.624.443M181.533 14.38c0-2.308-1.679-4.26-3.978-4.616l-55.507-7.367-.707-.09c-2.74-.354-5.215 1.776-5.215 4.617v22.28l65.407 8.61V14.38z"/>
        <path stroke="#000" stroke-linecap="round" stroke-linejoin="round" stroke-miterlimit="10" stroke-width="1.5" d="M119.043 2.663s5.303-1.598 5.745-1.687c.442-.088.796-.088 1.238-.088l56.214 7.456c2.298.266 3.977 2.308 3.977 4.616v23.433l-4.773 1.42M109.056 36.393l2.563 5.149M98.803 88.587L94.03 91.16M159.952 119.58c.195-2.885-1.859-5.375-4.586-5.56-2.728-.185-5.096 2.004-5.29 4.89-.195 2.885 1.859 5.375 4.586 5.56 2.728.185 5.096-2.004 5.29-4.89z"/>
        <path fill="#EFEFEF" stroke="#000" stroke-linecap="round" stroke-linejoin="round" stroke-miterlimit="10" stroke-width="1.5" d="M159.952 119.58c.195-2.885-1.859-5.375-4.586-5.56-2.728-.185-5.096 2.004-5.29 4.89-.195 2.885 1.859 5.375 4.586 5.56 2.728.185 5.096-2.004 5.29-4.89z"/>
        <path fill="#788974" d="M157.571 119.419c.102-1.517-.96-2.823-2.372-2.919-1.413-.096-2.64 1.055-2.742 2.571-.103 1.517.96 2.824 2.372 2.919 1.412.096 2.64-1.055 2.742-2.571z"/>
        <path stroke="#000" stroke-linecap="round" stroke-linejoin="round" stroke-miterlimit="10" stroke-width="1.5" d="M157.571 119.419c.102-1.517-.96-2.823-2.372-2.919-1.413-.096-2.64 1.055-2.742 2.571-.103 1.517.96 2.824 2.372 2.919 1.412.096 2.64-1.055 2.742-2.571zM195.321 37.902l-8.308 3.107"/>
        <path fill="#fff" d="M154.398 119.21c.44 0 .796-.358.796-.799 0-.441-.356-.799-.796-.799-.439 0-.795.358-.795.799 0 .441.356.799.795.799z"/>
        <path stroke="#fff" stroke-linecap="round" stroke-linejoin="round" stroke-miterlimit="10" stroke-width="1.5" d="M188.251 45.358s-7.955 12.427-13.347 41.187M174.197 89.918s-.442 2.485-.707 5.237M91.378 72.698c-.884 1.598-3.359 22.19-3.359 22.19l34.383 6.658"/>
        <path stroke="#87AAA4" stroke-linecap="round" stroke-linejoin="round" stroke-miterlimit="10" stroke-width="1.5" d="M103.929 86.989l54.005 9.142"/>
        <path stroke="#fff" stroke-linecap="round" stroke-linejoin="round" stroke-miterlimit="10" stroke-width="1.5" d="M168.805 52.282l-54.004-7.811s-1.414 0-2.298 1.775c-.884 1.775-7.955 23.611-10.695 39.322"/>
        <path fill="#fff" d="M136.367 29.115c-.442-.09-.707-.178-.884-.267-.176-.177-.353-.444-.442-.71-.176-.444-.265-.71-.442-1.154-1.944-.266-3.005-.355-4.949-.621-.177.444-.265.621-.442 1.065-.089.266-.265.533-.442.621-.177.09-.442.09-.884.09-.53-.09-.795-.09-1.326-.178-.442-.09-.707-.178-.884-.355-.176-.178-.265-.355-.265-.622.089-.177.177-.444.265-.71 1.591-3.373 2.298-5.06 3.889-8.344.177-.355.354-.621.531-.71.088-.088.353-.177.972-.088.884.088 1.326.177 2.121.266.619.088.884.177.973.266.176.178.353.444.53.888 1.591 3.728 2.298 5.592 3.889 9.409.177.266.265.532.265.799 0 .266-.088.443-.265.532-.177.089-.442.089-.884.089-.53-.178-.795-.266-1.326-.266zm-5.568-5.415c1.06.089 1.502.178 2.563.355l-1.326-3.107c-.442 1.066-.707 1.598-1.237 2.752zM146.62 30.357c-.442-.088-.707-.177-.884-.266-.176-.178-.265-.355-.265-.71v-7.367c-1.414-.178-2.033-.267-3.447-.444-.442-.09-.795-.178-.884-.355-.177-.178-.265-.444-.265-.8v-1.242c0-.532.088-.71.265-.799.177-.089.442-.177.884-.089 4.243.533 6.452.8 10.695 1.332.442.089.795.177.884.355.177.177.265.444.265.799v1.331c0 .355-.088.622-.265.71-.177.09-.442.178-.884.09-1.238-.178-1.856-.267-3.182-.445v7.368c0 .266-.088.532-.265.621-.177.089-.442.089-.884.089-.619 0-.972-.089-1.768-.178zM167.303 33.02c-.442-.089-.707-.177-.884-.266-.177-.178-.265-.355-.265-.71v-3.817c-.177 0-.265-.089-.531-.089-.442 1.42-.618 2.13-1.06 3.55-.089.356-.265.622-.442.71-.089.09-.354.178-.972.09-.354 0-.531-.09-.796-.09-.619-.088-.884-.177-.972-.265-.177-.178-.354-.444-.442-.8-.442-1.508-.619-2.307-1.061-3.816h-.53v3.728c0 .266-.088.533-.265.621-.177.09-.442.09-.884.09-.354 0-.53-.09-.884-.09-.442-.088-.707-.177-.884-.266-.177-.178-.265-.355-.265-.71v-9.587c0-.355.088-.621.265-.71.177-.088.442-.088.884-.088.796.088 1.149.177 1.856.266.442.089.707.177.884.266.177.178.354.444.442.71.795 2.752 1.237 4.172 2.033 7.013.177 0 .265 0 .442.088.795-2.574 1.237-3.905 2.033-6.48.088-.266.265-.532.442-.62.176-.09.442-.09.884-.09.795.09 1.149.178 1.944.267.354.088.619.177.796.266.176.178.265.444.265.799v9.586c0 .267-.089.533-.265.622-.177.088-.442.088-.884.088-.354-.177-.531-.266-.884-.266z"/>
        <path stroke="#000" stroke-linecap="round" stroke-linejoin="round" stroke-miterlimit="10" stroke-width="1.5" d="M163.944 179.215c.088-9.853.177-17.221.177-17.221M125.496 108.647c1.767.355 2.121.355 2.121 3.462s-.177 5.858-.177 5.858l-34.56-6.213"/>
        <path fill="#2C5B5B" d="M123.387 66.703l.083-.546c.529-2.733 1.624-4.53 3.283-5.393 1.641-.865 4.044-1.1 7.207-.707l.096-.628c.05-.328.154-.582.312-.762.158-.181.474-.235.947-.162l1.829.282c.292.045.531.184.719.418.188.234.27.489.246.765l-.108.71c3.099.57 5.313 1.508 6.641 2.812 1.44 1.433 2.047 2.887 1.822 4.361-.114.747-.357 1.24-.73 1.481-.369.223-.991.267-1.864.132l-2.84-.437c-.837-.129-1.399-.355-1.685-.679-.283-.341-.417-.623-.402-.844.015-.222-.183-.448-.595-.679-.257-.151-.664-.289-1.223-.412l-.338 2.212c3.099.57 5.313 1.508 6.642 2.812 1.328 1.304 1.944 2.638 1.848 4.003l-.109.71c-.523 2.696-1.604 4.467-3.243 5.314-1.638.848-4.039 1.074-7.202.68l-.125.82c-.063.288-.22.525-.472.71-.255.203-.522.245-.802.127l-1.912-.294c-.267-.078-.486-.233-.655-.464-.155-.21-.219-.463-.192-.757l.117-.764c-3.099-.57-5.313-1.508-6.642-2.812-1.442-1.415-2.05-2.86-1.825-4.335.114-.746.355-1.23.725-1.453.372-.241.995-.294 1.869-.16l2.839.438c.838.129 1.398.364 1.681.706.286.323.422.596.406.817-.015.221.184.448.596.679.256.151.663.288 1.222.412l.33-2.158c-3.099-.57-5.313-1.508-6.642-2.812-1.344-1.325-1.962-2.706-1.854-4.143zm8.387-.749c-.401.18-.633.48-.697.9-.039.254.114.473.459.657.256.151.662.298 1.218.44l.326-2.131c-.591-.035-1.026.01-1.306.134zm5.162 10.3c.379-.166.598-.44.657-.822.018-.24-.134-.468-.455-.685-.256-.151-.664-.288-1.222-.412l-.317 2.076c.593.017 1.039-.036 1.337-.157z" opacity=".72"/>
        <path fill="#3E8487" d="M97.3 126.4l-.265 12.516s13.081-5.859 13.258-7.101c.088-1.243.53-11.895.177-12.339-.354-.443-1.768.444-2.298.711-.619.177-10.784 5.414-10.784 5.414l-.088.799zM40.556 132.347l-.354 8.433s1.15 2.663 5.038 3.373c3.89.71 25.898 6.213 25.898 6.213s4.242.267 7.954-1.597c3.801-1.864 10.518-5.77 10.518-5.77s1.857-.533 1.503-3.284c-.353-2.752.619-10.297.619-10.297s.442-1.42-2.122.178c-2.563 1.597-9.457 6.657-16.793 8.166-.354.089-30.847-6.746-30.847-6.746s-1.856-.178-1.414 1.331z"/>
        <path fill="#73BAC6" d="M49.483 128.708s-1.15.799-5.48.976c0 0-3.536.267-3.713.533-.176.355.266.71 3.094 1.243 2.828.532 28.549 6.213 28.549 6.213s1.68.621 5.215-1.331c3.005-1.687 32.349-17.221 32.349-17.221s2.298-.799-.442-1.065l-1.679-.089-19.092 7.812-38.801 2.929z"/>
        <path fill="#90CEDD" d="M69.635 117.967c3.447-1.864 6.452-2.663 13.788-7.367l25.102 4.172s1.768 2.041-7.071 6.657c-7.07 3.728-14.319 8.344-21.831 11.362-3.89 1.598-9.546 1.154-9.546 1.154s-22.539-6.302-28.638-8.166c-.176 0 .354-.444.354-.444s13.258.621 27.842-7.368z"/>
        <g fill="#3E8487" opacity=".4">
            <path d="M80.064 113.796c-.176-.089-.353-.178-.618-.267-.177 0-.354-.089-.53 0-.177 0-.354.089-.53.089-.09 0-.178 0-.266.089-.089.089-.177.089-.265.177-.177.089-.265.267-.354.444-.088.178 0 .355 0 .533v.71c0 .089.089.089.089.089.088.266.353.621.707.71l.088.088c.177.178.354.355.53.444.177.178.442.355.707.533.177.177.266.266.442.355.177.089.442.177.62.177h.529l.089.089.088.089v.089c0 .088.089.088.177.088s.088 0 .088-.088c0-.089-.088-.089-.088-.178l-.177-.177-.088-.089c.177-.089.265-.178 0-.355-.177-.089-.265 0-.089.089h-.088c-.088 0-.177.088-.177.088-.176 0-.442 0-.618-.088-.177 0-.266-.089-.442-.178-.089-.089-.266-.266-.442-.355-.265-.266-.619-.444-.884-.71.265 0 .353-.266.53-.355.177-.089.354-.089.619-.089h.707c.088 0 .177 0 .177-.089v-.088h.353c0 .088-.088.177-.088.266 0 .089 0 .177.088.266.089.089.177.178.266.178.176 0 .088-.178-.089-.178v-.089-.177s0-.089.088-.089h.177v.089c0 .089.089.089.089.177v.622c-.089 0-.089.088 0 .177h.265c.088-.089 0-.177 0-.177v-.267-.266c0-.089-.089-.089-.089-.177 0-.089 0-.089-.088-.178s-.265-.177-.353-.177h-.266c.177-.178.354-.444.266-.799-.177-.355-.53-.533-.884-.799.088 0-.089-.178-.266-.266zM85.368 123.204c-.177 0-.177 0-.177.089-.088 0-.177.089-.265.089-.088 0-.354.089-.53 0-.177-.089-.266-.178-.442-.178-.177 0-.265 0-.354.089-.265.089-.353-.355-.353-.444 0-.088.088-.177 0-.266 0-.089-.089-.089-.177-.177-.089-.089-.177-.178-.354-.178h-.088-.088c-.089.089.088.178.176.178.089.088.177.088.177.177h.088v.355c0 .178.089.444.354.533.088.089.265.089.354 0 .088 0 .088-.089.265-.089.088 0 .265.089.353.178.177.088.354.088.442.088.177 0 .265-.088.354-.088.088 0 .265-.089.265-.178.177-.089.088-.089 0-.178zM73.79 120.186c-.266-.088-.62-.177-.885-.177s-.53.089-.795.177c-.265.089-.619.178-.796.356-.442.355-.353.887-.353 1.42 0 .266.177.532.353.887.089.178.177.267.265.444.089.178.354.267.53.355v.089l.09.089H72.727s.089 0 .089-.089v-.444-.444c0-.177 0-.266.088-.355 0-.177.089-.266.177-.443.177-.178.619-.089.972-.178h.442c.089 0 .265 0 .354.089 0 .089.088.089.177.089h.088l.088-.089s0-.089.089-.089v-.089c0-.089-.089-.266-.177-.355-.088-.177-.265-.355-.354-.532-.353-.355-.707-.622-.972-.711zM75.645 127.11c-.088.089.089.266.265.178 0-.089-.176-.267-.265-.178z" opacity=".4"/>
            <path d="M85.987 117.79c-.708-.355-1.415-.71-2.122-.71-.353 0-.618 0-.884.089-.265.088-.618.088-.795.266-.177.177-.354.444-.53.71-.089.089-.089.266-.177.355 0 .089-.177.266-.089.355.089.089.354.089.266 0 0 0 0-.089.088-.089 0-.088 0-.088.088-.177.089-.089.089-.178.177-.267.088-.177.265-.443.354-.621l.265-.266c.088-.089.265-.089.442-.089.265-.089.53-.089.795-.089s.619 0 .884.178c.354.089.707.266.972.444.354.177.707.355.973.532.176.089.265.178.441.267.177.088.354.177.442.355.266.266.53.532.707.798.089.089.177.267.177.356v.355c-.265-.178-.618-.355-.884-.533-.442-.266-.972-.533-1.414-.888-.176-.088-.353-.266-.618-.355-.177-.088-.354-.088-.53-.088-.443 0-.62.088-.708.355-.088 0-.088 0-.177-.089-.176-.089-.442-.089-.618-.089-.089 0-.177.089-.177.089-.177-.089-.265-.178-.442-.178-.354-.088-.707-.088-.972 0-.354.089-.707.178-.973.444-.176.266-.441.533-.441.888h-.089c-.088.089-.177.177-.177.266v.355c0 .266.177.444.442.621-.177 0-.265 0-.442.089-.088 0-.177.089-.265.089-.088 0-.088-.089-.177 0l-.088.089c0-.089-.088-.178-.177-.355-.088-.089-.353-.267-.53-.355h-.265c0-.178-.177-.355-.354-.533-.265-.177-.53-.444-.795-.621-.354-.178-.707-.267-.973-.355-.353-.089-.618-.089-.883 0-.266 0-.62.088-.707.266-.177.177-.177.444-.266.621 0 .267 0 .444.089.71.088.267.265.622.442.888v.089l-.089-.089c-.088-.089-.265-.266-.442-.266-.176 0-.176.177 0 .177.089 0 .177.089.177.089.088.089.177.089.177.178.088.088.265.177.353.266.266.177.53.444.707.621.089.178.177.444.177.622v.266c0 .089 0 .089-.088.089 0 0 0 .088-.088.088h-.089c-.353-.088-.707-.177-1.06-.177h-.62c-.264 0-.441 0-.618-.089h-.53c-.177-.089-.265-.177-.442-.355-.089-.089-.177-.089-.177-.178 0 0-.088-.088-.088-.177 0 0 0-.089-.089-.089h-.176c-.089.178.176.355.353.533.088.089.265.177.354.266-.089 0-.177.089-.266.089-.353.089-.707.355-1.06.444-.177.088-.354.177-.442.355-.177.088-.265.266-.442.355-.089.089-.177.266-.265.355-.265-.089-.53-.178-.884-.266-.089 0-.265-.089-.354-.089-.088 0-.177 0-.265-.089 0 0 0-.089-.088-.089h-.177v.089c.088.089.265.178.353.178.089 0 .266.088.354.088-.177.178-.088.355-.088.533v.621c0 .178.088.355.176.622.089.177.089.443.177.621.089.177.265.444.442.621.177.178.354.444.619.622.442.355.884.71 1.414.976.265.178.619.266.972.444.266.089.619.177.884.266.265.089.619.178.972.266.177 0 .266 0 .442.089.177 0 .266.089.442.089 1.238.177 2.298-.178 2.917-.621.177-.178.442-.267.619-.444.088-.089.177-.178.265-.178.177.089.265.178.442.267.088.088.265.177.353.266.177.089.354 0 .442-.089.089-.089.177-.089.266-.177 0-.089 0-.178-.089-.178-.088-.089-.177-.089-.265-.177-.088-.089-.265-.178-.353-.178h-.177-.177c.088-.089.177-.266.177-.355.088-.089.177-.266.177-.444v-.089c0-.088-.089-.088-.177-.088-.177-.089-.354-.089-.619-.178-.177 0-.354-.089-.53-.177.088-.178.176-.444.176-.711 0-.266-.176-.532-.353-.887-.089-.178-.177-.267-.265-.444H79.18c.265 0 .442 0 .707.089.265 0 .442.088.707.088h.53c.089.178.089.267.177.444 0 .089 0 .178.088.267.089.088.177.177.177.266l.089.089c.088.088.265.088.353.088.177 0 .354.089.442.089.265.089.619.089.884.089.619 0 1.149-.089 1.59-.266.443-.178.973-.355 1.415-.533.442-.177.884-.444 1.326-.71.442-.266.707-.621 1.06-.888.354-.266.62-.532.973-.799.177-.088.265-.266.353-.443l.265-.533c0-.178 0-.355-.088-.533-.088-.177-.265-.355-.53-.532l-.354-.355c-.177-.089-.265-.178-.442-.266-.353-.178-.619-.356-.972-.444-.265-.089-.619-.267-.884-.355-.177 0-.265-.089-.353-.089l-.089-.089h-.618c-.089 0-.089 0-.089.089-.177 0-.353.177-.442.266-.088.089-.177.266-.177.444v.533c.089.355.266.621.442.976.089.177.266.355.354.533l.265.532c0 .178 0 .266-.088.444 0 .177-.177.266-.354.355-.177.089-.353.178-.619.178-.176.088-.442.088-.618.088h-.62c-.264 0-.53 0-.794.089H81.656c-.266 0-.442 0-.53.089-.09.089-.09.266 0 .444h-.443c-.265 0-.442 0-.707-.089-.265 0-.53-.089-.795-.089h-.619c-.088-.089-.177-.177-.177-.355-.177-.266-.442-.533-.795-.799h.176c.089 0 .266-.089.354-.089h.795c.53 0 1.061.089 1.503.089.177 0 .177-.089.088-.266l-.265-.533c-.088-.444-.265-.799-.53-1.242-.088-.178-.177-.444-.265-.622 0-.088-.089-.266 0-.355 0 0 0-.089.088-.089.265-.088.442-.177.796-.266h.177l.088.089c.177.089.265.177.442.266.177.089.177.267.353.355.177.089.442 0 .53-.088.177-.178.177-.356.354-.533.089-.089.177-.089.354 0s.265.089.442.177c.265 0 .353-.088.353-.177.089-.266 0-.444.089-.71 0-.089 0-.266.088-.355.088-.089.088-.089.177-.089H84.219c.088 0 .177 0 .177-.089h.707c.265.089.618.178.884.355.353.178.795.444 1.148.622.354.177.796.355 1.238.443.177 0 .353.089.53.089h.442c.089 0 0-.089 0-.089-.088-.088-.177-.088-.265-.177-.177-.089-.265 0-.088.089h-.354c-.177 0-.354 0-.53-.089-.442-.089-.796-.355-1.238-.533-.707-.355-1.502-.887-2.21-.887h-.265c-.088 0-.176 0-.265.088-.088 0-.176 0-.265.089v-.089-.177s0-.089-.088-.089v-.089c0-.088-.089-.177-.177-.266.088-.089-.088-.177-.177-.177-.177-.089-.265-.178-.353-.267 0 0-.089 0-.089-.088h.177c.177 0 .265.088.442.177l.088.089.266.266.088.089v.177c-.088.089.088.178.177.178.265-.089-.089-.444-.265-.621l-.089-.089c0-.178.177-.355.442-.355s.442 0 .707.177c.265.178.53.355.884.533.265.177.619.355.884.532.53.356 1.149.622 1.768.888.265.089.884.355 1.06.178 0 0 0-.089-.088-.178s-.177-.089-.265 0c-.089 0-.265-.089-.354-.089-.265-.088-.442-.177-.707-.266-.088-.089-.177-.089-.265-.177v-.089-.178c0-.089-.088-.266-.177-.355-.088-.089-.177-.266-.265-.355-.088-.177-.177-.266-.354-.444.354-.177-.441-.621-1.148-.976zm-4.773 12.427s0 .089 0 0c0 .089 0 .089 0 0 0 .089 0 .089 0 0 0 .089 0 .089 0 0 0 .089-.089.177-.089.177l-.088.089h-.089c-.088 0-.088-.089-.176-.089-.089 0-.089-.088-.177-.088-.088-.089-.265-.178-.354-.267l.177-.177c.088.089.177.089.265.089h.089s.088 0 .088.088c.088.089.177.089.354.178 0 0-.089 0 0 0zm-.796-1.243l.088.089c0 .089-.088.177-.176.266-.089.089-.177.267-.266.355-.176.178-.265.267-.441.355-.177.178-.354.267-.53.355-.62.444-1.415.799-2.476.888-.265 0-.53 0-.883-.089-.089 0-.266-.089-.354-.089-.177 0-.265 0-.442-.088-.265-.089-.619-.178-.884-.267-.265-.088-.53-.177-.884-.266-.265-.089-.53-.177-.795-.355-.265-.177-.53-.266-.707-.444-.442-.355-.796-.71-1.15-1.065-.176-.177-.353-.444-.441-.621-.089-.267-.177-.444-.265-.71-.089-.267-.089-.533-.089-.71 0-.267-.088-.533.089-.711v-.088c.176.088.442.088.618.177-.088.178-.088.266-.176.444-.089.355 0 .621.176.976.089.178.265.355.354.533.177.178.353.355.619.533l.176.177.266.266c.088.089.265.178.353.267h.089c.265.355.795.532 1.237.621.265.089.442.178.707.178.265.088.53.088.796.177.441.089.883.089 1.325.089.442 0 .796-.089 1.15-.266.353-.178.706-.356.883-.622.265-.266.442-.532.619-.799 0 0 .088 0 .088.089h.089c.088 0 .088 0 .176.089.089 0 .177.089.266.089.53.088.618.088.795.177zm-.354-5.681c.089.178.177.444.266.622.088.177.088.355.177.532 0 .089.088.178.088.266 0 0 .177.178.088.267h-.619c-.265 0-.53 0-.795-.089h-1.591l-.53-.266c-.177-.089-.442-.178-.619-.267l.088-.088c.089-.089.089-.178.089-.355v-.355c0-.178-.089-.267-.177-.444-.088-.089-.177-.267-.265-.355.088.088.177.088.265.177.265.178.53.355.884.533.442.266 1.06.355 1.502.266.442-.089.884-.266 1.061-.533v-.088c.088.088.088.088.088.177zm-.53-1.686c.089 0 .089 0 0 0 .089.089.089.089 0 0v.266c-.088 0-.088 0-.088.089s.088.089.177.089h.176v.177s-.088 0-.088-.089c-.177-.088-.265.089-.088.178.088 0 .088.177.088.177 0 .089.088.178.088.267 0 .177 0 .266-.088.355-.177.177-.53.355-.884.355-.353.089-.795 0-1.237-.178-.266-.089-.442-.266-.619-.355-.177-.177-.442-.266-.53-.444.088-.088.088-.088.088-.177s.088-.178.088-.266l.266-.267c0-.088 0-.088.088-.088h.177c.265 0 .53.088.795.088s.619.089.884.089c.088.089.177.089.177.089.088 0 .088-.089 0-.089v-.089h-.089v-.088-.178l.089-.089.088.089.089.089c.353-.089.353-.089.353 0 0-.089 0-.089 0 0 0-.089 0-.089 0 0 0-.089 0-.089 0 0z" opacity=".4"/>
            <path d="M85.103 120.985c-.089-.088-.265-.088-.354-.177h-.265c-.177 0-.265.177-.265.266 0 .089.088.178.177.266.088.089.176.089.265.089.088 0 0-.177-.089-.177-.088 0-.088-.089-.088-.178v-.089c.088-.088.177-.088.354 0 .176.089.265.178.353.267 0 .088.088.088.088.177v.089c-.088 0 0 .178.089.178h.177v-.089c0-.089 0-.178-.089-.267 0-.088-.088-.177-.177-.266 0 .089-.088 0-.176-.089z" opacity=".4"/>
        </g>
        <path fill="#3E8487" d="M108.172 116.458c-.442.622-1.415 1.243-2.122 1.953-.618-.089-4.861-.799-5.48-.887-2.121-.355-4.33-.711-6.452-.977-2.386-.355-4.773-.887-7.16-1.331-1.325-.178-2.651-.355-3.888-.622-.707-.088-4.685-.621-5.48-.71.795-.621 2.386-1.242 3.181-1.953l5.746.888c2.386.355 4.773.888 7.16 1.332 2.209.355 4.418.71 6.628.976 1.326.266 6.541 1.154 7.867 1.331z"/>
        <path fill="#fff" d="M91.378 126.489l-31.377-5.149 6.187-2.396 30.582 4.793-5.392 2.752z"/>
        <path fill="#fff" d="M96.77 140.247l-5.657 2.752.177-16.599 5.48-2.752v16.599z"/>
        <path stroke="#000" stroke-linecap="round" stroke-linejoin="round" stroke-miterlimit="10" stroke-width="1.5" d="M60.708 121.695c-4.685 1.865-6.983 2.752-18.915 3.462-.442 0-.53.71-.088.799 3.8.977 9.192 2.663 14.583 4.261 8.928 2.663 12.905 3.55 13.789 3.728 9.546 1.243 20.682-6.657 20.682-6.657M97.565 123.471s11.667-5.859 11.314-8.788l-25.456-4.172s-8.573 5.326-15.29 7.989"/>
        <path stroke="#000" stroke-linecap="round" stroke-linejoin="round" stroke-miterlimit="10" stroke-width="1.5" d="M50.013 128.53c-1.591.533-9.28 1.598-9.28 1.598-.708.178-.354.71-.09.799l31.113 6.835h.088c.443 0 1.061.089 1.503 0 4.773-1.065 11.932-5.326 17.854-8.788"/>
        <path stroke="#000" stroke-linecap="round" stroke-linejoin="round" stroke-miterlimit="10" stroke-width="1.5" d="M40.556 134.921l30.582 7.368h.088c.442 0 1.06.089 1.502 0 4.773-1.065 12.286-5.77 18.297-9.232"/>
        <path stroke="#000" stroke-linecap="round" stroke-linejoin="round" stroke-miterlimit="10" stroke-width="1.5" d="M61.061 121.518l30.317 4.971-.088 16.332 5.656-2.663-.176-16.51-30.67-4.793-5.569 2.219M91.378 126.489l4.95-2.219M97.123 125.867l13.082-6.834c.353-.178.265-.711-.177-.799l-3.889.177M97.212 130.483l11.667-6.302"/>
        <path stroke="#000" stroke-linecap="round" stroke-linejoin="round" stroke-miterlimit="10" stroke-width="1.5" d="M40.997 138.827l30.76 7.367h.087c.443 0 1.061.089 1.503 0 4.773-1.065 12.286-5.414 18.208-8.876M97.3 134.655l12.197-6.568"/>
        <path stroke="#000" stroke-linecap="round" stroke-linejoin="round" stroke-miterlimit="10" stroke-width="1.5" d="M40.29 130.306s0 12.338.442 12.604c7.337 3.107 31.466 7.545 31.466 7.545h.089c.441 0 1.06.089 1.502 0 4.773-1.065 11.137-5.06 17.059-8.521M97.654 138.649l12.285-6.657c.354-.177.442-13.403.442-13.403"/>
        <path stroke="#E2E2E2" stroke-linecap="round" stroke-linejoin="round" stroke-miterlimit="10" stroke-width="1.5" d="M64.243 120.985l25.986 4.172M93.146 127.643l.265 12.16"/>
        <path fill="#5EA3AA" d="M53.372 127.82c-.442-.177-.62-.266-.62-.355 0-.089.09-.177.354-.177h-.176H53.372c.265 0 .53-.089.795 0 .265 0 .53.088.707.177.089 0 .177.089.177.089l-.088.089H54.255c.089 0 .177.088.266.088.265-.088.53-.088.795 0 .265 0 .442.089.619.089h.088c.354.089.442.178.53.267 0 .088-.088.088-.353.177h.177H55.935c-.265.089-.53.089-.707.089-.265 0-.53-.089-.707-.089-.089 0-.177-.089-.177-.089l.088-.088c.089 0 .177 0 .265-.089H55.228c-.089 0-.177-.089-.265-.089-.266.089-.53.089-.796 0-.353 0-.53 0-.795-.089zm.442-.266c0 .089 0 .089 0 0 .088.089.176.089.176.089h.177c-.088 0-.177 0-.353-.089zm1.679.355s0-.089 0 0c-.089-.089-.177-.089-.177-.089h-.088c.088.089.088.089.265.089zM58.41 127.643c.088.088.088.088 0 0-.089.088-.265.177-.442.177h-.265c-1.326-.444-2.033-.71-3.624-1.154h-.354c-.088 0-.177 0-.353-.088-.266-.089-.442-.178-.708-.267-.176-.089-.176-.089-.088-.089.265-.088.442-.088.796-.088.176 0 .441 0 .707.088 1.856.622 2.828.977 4.33 1.421zM57.88 127.288c-1.061-.355-1.592-.533-2.74-.888-.796-.266-.973-.444-.53-.533.53-.088.794-.177 1.236-.266.354-.089.884 0 1.68.266 1.149.356 1.68.533 2.651.888.62.178.796.355.442.444-.441.089-.707.177-1.149.266-.353.089-.883.089-1.59-.177zm1.502-.444c-.795-.266-1.326-.444-2.21-.71-.265-.089-.353-.089-.53-.089-.265.089-.442.089-.707.178-.089 0-.089.088.177.177.883.266 1.414.444 2.21.71.176.089.353.089.441.089.265-.089.442-.089.619-.178.265-.088.177-.088 0-.177zM60.443 126.666c-.973-.266-1.591-.532-2.652-.887-.707-.267-.884-.355-.619-.444.442-.089.619-.178.973-.266.265-.089.707 0 1.414.177 1.06.355 1.679.533 2.651.888.619.177.796.355.53.444-.353.088-.53.177-.972.266-.176.089-.618.089-1.325-.178zm1.149-.444c-.796-.266-1.238-.443-2.122-.71-.176-.088-.353-.088-.442-.088-.176.088-.353.088-.53.177-.088 0 0 .089.177.178.884.266 1.326.443 2.21.71.176.089.353.089.441.089.177-.089.354-.089.53-.178 0-.089-.088-.089-.264-.178zM63.36 126.134c.264.088.441.177.441.266v.089h-.177s0-.089-.088-.089-.353 0-.53-.089c-.089 0-.177-.089-.354-.089-.088 0-.088-.088-.088-.088.088 0 .177-.089.265-.089h.177c.088 0 .177 0 .353.089zM63.094 125.867c-.972-.355-1.59-.532-2.651-.887-.707-.266-.884-.355-.707-.444.265-.089.353-.178.618-.266.177-.089.442 0 1.15.177.971.355 1.679.533 2.74.888.706.266.972.355.795.444-.265.088-.354.177-.619.266-.353.089-.707.089-1.326-.178zm.53-.443c-.883-.267-1.325-.444-2.21-.71-.176-.089-.353-.089-.353-.089-.088.088-.176.089-.265.177-.088 0 0 .089.265.178.884.266 1.326.444 2.122.71.176.089.353.089.353.089l.354-.178c.088-.089 0-.089-.266-.177zM64.243 125.246c-1.06-.355-1.68-.533-2.74-.888-.707-.266-.884-.355-.795-.443.088-.089.177-.089.177-.178s.265 0 .883.178c.973.266 1.68.532 2.829.887.795.267 1.149.355 1.06.444-.088.089-.176.178-.353.266.088.089-.265 0-1.06-.266zm.177-.355c-.972-.266-1.503-.444-2.298-.71-.177-.089-.265-.089-.354-.089 0 .089-.088.089-.088.089s.088.089.265.177c.796.267 1.326.444 2.21.711.265.088.353.088.353.088l.177-.177c.089 0 0-.089-.265-.089zM64.773 124.713c-1.237-.355-1.944-.532-2.916-.887-.619-.178-.884-.266-.884-.266-.088 0 .707-.267 1.06-.444.266-.089.354-.089.884.089.796.266 1.415.443 2.652.887.796.266 1.237.355 1.149.444-.177.089-.265.177-.619.355-.265.266-.442.089-1.326-.178zm.442-.532c-.972-.266-1.502-.444-2.298-.71-.176-.089-.265-.089-.442 0-.176.089-.353.177-.707.266-.176.089 0 .089.265.089.884.266 1.415.355 2.475.621.266.089.442.089.53 0 .177-.089.266-.177.443-.266.088.177 0 .089-.266 0z"/>
    </g>
    <defs>
        <clipPath id="clip0">
            <path fill="#fff" d="M0 0H161.572V180.102H0z" transform="translate(39.407)"/>
        </clipPath>
    </defs>
</svg>
