<svg xmlns="http://www.w3.org/2000/svg" width="296" height="289" fill="none" viewBox="0 0 296 289">
    <g clip-path="url(#clip0)">
        <path fill="#6D6D6D" d="M118.53 61.52c-17.14-4.36-16.37-16.67-16.37-16.67S73.59 69.13 37.09 58.53c-3.023-.331-5.86-1.622-8.097-3.682-2.237-2.06-3.755-4.783-4.333-7.768 15.8 1.12 20.11-4.81 21.73-7.61C53 27.93 65.57 16.39 84.5 19.46c0 0 42.22-6.15 38.39 45.19"/>
        <path fill="#FCE7D2" d="M121.35 89.28c5.832 0 10.56-5.49 10.56-12.26 0-6.771-4.728-12.26-10.56-12.26-5.832 0-10.56 5.489-10.56 12.26 0 6.77 4.728 12.26 10.56 12.26zM46.48 89.28c5.832 0 10.56-5.49 10.56-12.26 0-6.771-4.728-12.26-10.56-12.26-5.832 0-10.56 5.489-10.56 12.26 0 6.77 4.728 12.26 10.56 12.26z"/>
        <path fill="#FCE7D2" d="M119.48 70.31c0 25.86-12.46 46.45-35.61 46.83-22.39.37-35.61-21-35.61-46.83.003-3.399.55-6.775 1.62-10 0 0 15.67.26 25.91-2.14 9.44-2.17 26.37-13.32 26.37-13.32C105 57 111.59 58.9 118.79 62c.502 2.74.733 5.524.69 8.31z"/>
        <path stroke="#000" stroke-linecap="round" stroke-linejoin="round" stroke-width="2" d="M83 69.83s7.4 11.43-.63 17.34"/>
        <path fill="#000" d="M69.48 80.63c1.8 0 3.26-1.51 3.26-3.37 0-1.862-1.46-3.37-3.26-3.37-1.8 0-3.26 1.508-3.26 3.37 0 1.86 1.46 3.37 3.26 3.37zM98.9 80.07c1.801 0 3.26-1.51 3.26-3.37 0-1.862-1.459-3.37-3.26-3.37-1.8 0-3.26 1.508-3.26 3.37 0 1.86 1.46 3.37 3.26 3.37z"/>
        <path stroke="#000" stroke-linecap="round" stroke-linejoin="round" stroke-width="2" d="M118.52 61.15c2.23 21.35-2.63 56-35.38 56-30.77.02-36.37-36.15-33.87-56.05"/>
        <path stroke="#000" stroke-linecap="round" stroke-linejoin="round" stroke-width="2" d="M48.74 65.17s-11.14-3.9-12.67 9.77C34.51 88.77 47 91.53 50.91 88.79M119.28 65.17s11.14-3.9 12.68 9.77c1.55 13.83-10.96 16.59-14.84 13.85"/>
        <path stroke="#000" stroke-linecap="round" stroke-linejoin="round" stroke-width="2" d="M122.89 64.65c3.83-51.34-38.39-45.19-38.39-45.19-18.93-3.07-29.62 9.75-38.11 20-1.77 2.12-4.52 6.75-13.56 6.92"/>
        <path stroke="#000" stroke-linecap="round" stroke-linejoin="round" stroke-width="2" d="M118.53 61.52c-17.14-4.36-16.37-16.67-16.37-16.67s-24.31 23.6-65.07 13.68M24 48.19c4.287 2.27 8.982 3.666 13.813 4.106 4.83.44 9.701-.086 14.327-1.546M93.34 65.54c1.375-1.189 3.132-1.843 4.95-1.843s3.575.654 4.95 1.843M63.49 65.54c1.375-1.189 3.133-1.843 4.95-1.843 1.818 0 3.575.654 4.95 1.843M96.76 92.57c2.185 2.649 3.473 5.922 3.68 9.35"/>
        <path stroke="#000" stroke-linecap="round" stroke-linejoin="round" stroke-width="2" d="M70.53 97.7c4.46 2.272 9.401 3.437 14.407 3.399 5.005-.038 9.928-1.28 14.353-3.619M72.46 93.46s-2.94 3-3.82 9.18"/>
        <path fill="#FAD45C" stroke="#000" stroke-miterlimit="10" stroke-width="2" d="M140.75 228.94v-2c.01-.56-.189-1.104-.559-1.524-.37-.42-.884-.686-1.441-.746-.295-.027-.593.009-.874.104s-.538.248-.757.448c-.218.201-.392.444-.511.716-.119.272-.179.565-.178.862v2.13c-.003.934-.376 1.829-1.038 2.489-.661.66-1.558 1.031-2.492 1.031h-2c-.553-.015-1.091.175-1.512.533-.421.358-.694.859-.768 1.407-.027.295.009.593.104.875.095.281.248.539.448.759.2.219.444.394.716.514.271.119.565.181.862.182H133c.462 0 .92.091 1.347.268.427.176.815.436 1.142.763.327.326.586.715.763 1.142.177.427.268.884.268 1.347v2c-.013.561.185 1.107.555 1.53.371.422.886.69 1.445.75.291.019.583-.022.858-.12.275-.099.526-.253.739-.452.213-.2.383-.442.498-.71.116-.268.175-.556.175-.848v-2.13c.002-.935.375-1.83 1.037-2.49.662-.66 1.558-1.03 2.493-1.03h2.13c.292-.001.581-.062.849-.179.268-.116.51-.287.709-.5.2-.214.353-.466.452-.742.098-.275.139-.568.12-.859-.063-.56-.332-1.075-.756-1.446-.424-.37-.972-.568-1.534-.554h-2c-.464.001-.923-.089-1.352-.265-.429-.176-.819-.435-1.147-.762-.329-.327-.59-.715-.769-1.143-.178-.428-.271-.887-.272-1.35v0z"/>
        <path fill="#fff" stroke="#000" stroke-miterlimit="10" stroke-width="2" d="M158.31 78.92v-2c.015-.553-.175-1.09-.533-1.512-.358-.42-.859-.694-1.407-.768-.301-.033-.605-.001-.892.092-.288.094-.552.247-.776.45-.224.204-.402.452-.523.729-.121.277-.182.576-.179.879v2.13c0 .933-.371 1.829-1.031 2.489-.66.66-1.556 1.03-2.489 1.03h-2c-.562-.012-1.108.186-1.53.556-.422.37-.69.886-.75 1.445-.027.295.009.593.104.873.095.281.248.539.448.757.201.219.445.393.716.512.272.118.565.179.862.178h2.13c.929-.003 1.822.361 2.485 1.012.663.652 1.042 1.539 1.055 2.468v2c-.014.563.184 1.11.555 1.534.37.424.886.694 1.445.756.292.019.584-.022.86-.12.275-.099.527-.252.741-.452.213-.2.384-.44.501-.709.117-.268.177-.557.178-.85v-2.17c.003-.932.374-1.826 1.034-2.485.659-.66 1.553-1.031 2.486-1.034h2.2c.292 0 .581-.059.849-.175.268-.115.509-.285.709-.498.2-.213.353-.464.452-.739.098-.275.139-.567.12-.858-.06-.559-.328-1.074-.75-1.445-.422-.37-.968-.568-1.53-.555h-2c-.464.002-.924-.087-1.353-.262-.43-.176-.82-.435-1.149-.762-.329-.327-.59-.716-.768-1.144-.178-.429-.27-.888-.27-1.352zM86.56 207.67v-2.45c.018-.677-.215-1.337-.654-1.852-.44-.515-1.055-.849-1.726-.938-.36-.035-.724.006-1.068.119-.344.113-.66.296-.93.537-.27.242-.486.536-.636.866-.15.329-.23.686-.236 1.048v2.63c.005.57-.102 1.136-.316 1.665-.214.528-.53 1.009-.931 1.416-.4.406-.877.729-1.403.95-.525.221-1.09.336-1.66.339h-2.46c-.678-.019-1.34.214-1.856.654-.517.439-.853 1.054-.944 1.726-.033.364.01.731.126 1.078.117.347.304.665.55.935.247.27.547.486.882.633.335.148.696.224 1.062.224H77c1.148 0 2.25.456 3.062 1.268.812.812 1.268 1.914 1.268 3.062V224c-.02.69.222 1.363.676 1.883.454.521 1.087.852 1.774.927.359.025.719-.025 1.058-.145.339-.121.65-.31.912-.556.263-.246.472-.543.615-.873.143-.33.216-.686.215-1.046v-2.62c0-1.148.456-2.25 1.268-3.062.812-.812 1.914-1.268 3.062-1.268h2.63c.36.001.716-.072 1.046-.215.33-.143.627-.352.873-.615s.435-.573.556-.912c.12-.339.17-.699.145-1.058-.08-.689-.417-1.323-.943-1.775-.526-.452-1.204-.69-1.897-.665H90.9c-.57.001-1.134-.11-1.66-.327-.527-.217-1.005-.536-1.408-.938-.403-.402-.723-.88-.941-1.406-.219-.526-.331-1.09-.331-1.659v0z"/>
        <path fill="#FAD45C" stroke="#000" stroke-miterlimit="10" stroke-width="2" d="M213.31 84.43v-2.64c.007-.73-.253-1.437-.729-1.989-.477-.552-1.139-.912-1.861-1.011-.394-.036-.79.01-1.165.136-.374.126-.718.328-1.01.594-.292.267-.525.591-.684.953-.159.361-.242.752-.241 1.147v2.84c0 1.244-.494 2.437-1.374 3.316-.879.88-2.072 1.374-3.316 1.374h-2.64c-.73-.007-1.437.252-1.989.729s-.912 1.138-1.011 1.86c-.036.394.01.79.136 1.165s.328.719.594 1.01c.267.292.591.525.952.685.362.159.753.241 1.148.24h2.84c1.244 0 2.437.495 3.316 1.374.88.88 1.374 2.073 1.374 3.317v2.63c-.018.747.244 1.474.734 2.038.49.564 1.174.925 1.916 1.012.385.019.771-.041 1.133-.175.362-.134.693-.34.973-.605.28-.265.504-.585.658-.939.153-.354.234-.735.236-1.121V99.5c-.002-.617.119-1.229.355-1.799.236-.57.582-1.088 1.019-1.524.437-.436.956-.781 1.526-1.016.571-.234 1.183-.354 1.8-.351h2.85c.386 0 .769-.078 1.124-.23.354-.153.674-.377.939-.658.266-.281.47-.614.602-.977s.188-.75.165-1.135c-.084-.736-.437-1.414-.991-1.905-.553-.491-1.269-.76-2.009-.755H218c-.619 0-1.231-.123-1.802-.36-.571-.238-1.089-.586-1.525-1.025-.436-.438-.781-.959-1.015-1.531-.234-.573-.352-1.186-.348-1.804v0zM85.87 156.68v-1.43c.013-.399-.123-.788-.382-1.091-.26-.304-.622-.499-1.018-.549-.213-.02-.427.006-.63.074-.203.068-.389.177-.547.321-.158.144-.284.319-.37.514-.088.196-.133.407-.133.621v1.54c0 .674-.268 1.32-.744 1.796s-1.122.744-1.796.744h-1.43c-.4-.011-.791.127-1.096.388-.305.26-.502.624-.554 1.022-.018.213.008.428.078.631.069.202.18.388.324.546.145.158.32.284.516.371.196.086.408.131.622.132h1.54c.674 0 1.32.268 1.796.744s.744 1.122.744 1.796v1.43c-.01.405.132.8.399 1.105.267.306.638.5 1.041.545.219.013.438-.02.643-.097.205-.078.392-.198.547-.353.143-.143.257-.313.334-.5.078-.187.117-.388.116-.59v-1.54c0-.674.268-1.32.744-1.796s1.122-.744 1.796-.744H90c.212.002.423-.04.618-.124.195-.084.37-.207.515-.362.145-.155.256-.339.326-.539.07-.201.098-.413.081-.625-.045-.403-.24-.775-.545-1.041-.305-.267-.7-.409-1.105-.399h-1.48c-.334 0-.664-.066-.972-.193-.308-.128-.588-.315-.824-.551-.236-.236-.423-.516-.55-.824-.128-.308-.194-.639-.194-.972z"/>
        <path fill="#fff" stroke="#000" stroke-miterlimit="10" stroke-width="2" d="M216.6 143.08v-1.43c.011-.4-.126-.789-.384-1.093-.259-.305-.62-.503-1.016-.557-.214-.02-.429.005-.632.074-.204.069-.391.179-.549.324-.158.145-.284.321-.37.518-.086.197-.13.409-.129.624v1.54c0 .673-.268 1.319-.744 1.796-.476.476-1.122.744-1.796.744h-1.44c-.398-.009-.784.129-1.087.387-.302.258-.499.619-.553 1.013-.02.213.006.429.074.632.069.203.179.39.324.548.145.158.322.284.518.37.197.086.409.13.624.13H211c.675.002 1.321.272 1.797.75s.743 1.125.743 1.8v1.42c-.012.405.129.801.396 1.107.267.306.64.5 1.044.543.21.015.421-.014.619-.084.199-.07.381-.18.535-.324.154-.143.276-.317.36-.51.084-.194.126-.402.126-.612v-1.54c0-.675.267-1.322.743-1.8s1.122-.748 1.797-.75h1.54c.211 0 .42-.043.613-.126.194-.084.368-.207.513-.36.144-.154.255-.336.327-.534.071-.199.101-.41.087-.62-.045-.403-.239-.775-.545-1.042-.305-.266-.7-.408-1.105-.398h-1.43c-.335.002-.668-.062-.978-.188-.311-.126-.593-.313-.831-.549-.238-.236-.427-.517-.556-.827-.129-.309-.195-.641-.195-.976v0z"/>
        <path fill="#73B267" d="M148.78 206.39c-12.16 0-35.31-17.31-37.56-35-3.47-27.41-4.89-45.43-4.9-45.61v-.43c-.04-.527.029-1.057.202-1.556.173-.5.446-.959.803-1.348.357-.39.79-.703 1.273-.919.482-.216 1.003-.331 1.532-.337h.43c13.17-.15 22.07-2.8 27.23-5 2.902-1.15 5.602-2.753 8-4.75l.21-.22c.366-.381.806-.683 1.293-.887.487-.203 1.011-.304 1.539-.297.528.008 1.049.124 1.531.341.481.217.912.532 1.267.923.1.12.21.23.33.33 2.377 1.887 5.014 3.419 7.83 4.55 5.15 2.2 14.06 4.85 27.23 5h.43c.528.006 1.05.121 1.532.337.483.216.916.529 1.273.919.357.389.63.848.803 1.348.173.499.242 1.029.202 1.556v.43c0 .18-1.43 18.2-4.9 45.61-2.27 17.7-25.42 35.01-37.58 35.01z"/>
        <path fill="#A8D39F" d="M148 199.05c-4.29 0-11.65-3.79-17.9-9.21-7.21-6.27-11.79-13.4-12.57-19.58-2.16-16.91-3.53-30.26-4.23-37.91-.052-.554.006-1.112.171-1.643.166-.531.435-1.024.792-1.45.357-.426.795-.777 1.289-1.032.494-.255 1.034-.41 1.588-.455 14.67-1.21 23.82-5.36 28.64-8.32.663-.412 1.429-.631 2.21-.631.781 0 1.546.219 2.21.631 4.82 3 14 7.11 28.64 8.32.554.045 1.094.2 1.587.455.494.255.933.606 1.29 1.032.357.426.626.919.791 1.45.166.531.224 1.089.172 1.643-.72 7.69-2.07 21-4.22 37.91-.78 6.18-5.37 13.31-12.58 19.58-6.24 5.42-13.6 9.21-17.88 9.21z"/>
        <path fill="#DEEFCE" d="M168.8 119.07l-12.32 85.65c-2.446 1.012-5.054 1.578-7.7 1.67-5.94 0-14.48-4.11-21.94-10.4l11.54-80.11c2.689-1.099 5.192-2.606 7.42-4.47l3.07-3.2 2.92 3.23c2.395 1.991 5.097 3.582 8 4.71 2.914 1.229 5.929 2.206 9.01 2.92z" opacity=".58"/>
        <path stroke="#000" stroke-linecap="round" stroke-linejoin="round" stroke-width="2" d="M187.94 121.17c.468.004.931.104 1.358.295.428.19.812.467 1.128.812.316.345.558.752.71 1.194.152.443.211.912.174 1.379l-.07.9c0 .18-1.42 18.2-4.91 45.61-1.82 14.44-17.52 28.6-29.85 33.36-2.446 1.012-5.054 1.578-7.7 1.67-5.94 0-14.48-4.11-21.94-10.4-7.84-6.59-14.46-15.55-15.62-24.63-3.47-27.41-4.89-45.43-4.9-45.61l-.07-.91c-.035-.465.025-.932.177-1.373.152-.441.393-.846.708-1.19.315-.344.697-.62 1.123-.81.426-.191.886-.292 1.352-.297h.91c13.17-.15 22.08-2.81 27.22-5l.64-.27c2.689-1.099 5.192-2.606 7.42-4.47l.53-.56c.326-.336.718-.602 1.151-.782.433-.179.898-.267 1.366-.26.469.008.931.111 1.358.304.427.193.81.471 1.125.818l.34.38c.092.098.189.192.29.28 2.376 1.901 5.022 3.438 7.85 4.56 2.911 1.229 5.922 2.206 9 2.92 5.969 1.356 12.069 2.05 18.19 2.07l.94.01z"/>
        <path stroke="#000" stroke-linecap="round" stroke-linejoin="round" stroke-width="2" d="M148.78 199.25c-4.29 0-11.65-3.79-17.89-9.22-7.21-6.26-11.8-13.39-12.58-19.57-2.21-17.42-3.58-31-4.29-38.58-.042-.473.01-.95.154-1.403.145-.452.378-.871.686-1.233.308-.361.685-.657 1.11-.871.424-.214.886-.341 1.36-.373 15.36-1.17 24.77-5.55 29.56-8.57.567-.353 1.222-.54 1.89-.54.668 0 1.323.187 1.89.54 4.79 3 14.2 7.4 29.56 8.57.473.032.934.159 1.357.372.423.213.799.509 1.106.869.308.361.54.779.684 1.23.143.451.195.927.153 1.399-.7 7.57-2.07 21.16-4.28 38.58-.78 6.18-5.37 13.31-12.58 19.57-6.24 5.44-13.6 9.23-17.89 9.23z"/>
        <path fill="#FAD45C" d="M146.94 169.24c-.914-.125-1.763-.543-2.42-1.19l-10-9.85c-.713-.815-1.092-1.869-1.061-2.951.031-1.082.47-2.112 1.23-2.884.759-.772 1.782-1.228 2.863-1.277 1.082-.05 2.142.312 2.968 1.012l7.26 7.16L163 147c.888-.673 2.003-.973 3.109-.837 1.106.135 2.116.695 2.816 1.562.7.866 1.036 1.971.936 3.08-.1 1.11-.628 2.137-1.471 2.865l-18.15 14.7c-.461.363-.992.628-1.56.778-.567.149-1.16.181-1.74.092z"/>
        <path stroke="#000" stroke-linecap="round" stroke-linejoin="round" stroke-width="2" d="M146.94 169.24c-.914-.125-1.763-.543-2.42-1.19l-10-9.85c-.713-.815-1.092-1.869-1.061-2.951.031-1.082.47-2.112 1.23-2.884.759-.772 1.782-1.228 2.863-1.277 1.082-.05 2.142.312 2.968 1.012l7.26 7.16L163 147c.888-.673 2.003-.973 3.109-.837 1.106.135 2.116.695 2.816 1.562.7.866 1.036 1.971.936 3.08-.1 1.11-.628 2.137-1.471 2.865l-18.15 14.7c-.461.363-.992.628-1.56.778-.567.149-1.16.181-1.74.092z"/>
        <path fill="#997458" d="M267.7 220.66s3.24 13.41-4.88 29.46c0 0-1.55-12.88-10-7.48l-.24-23 15.12 1.02z"/>
        <path fill="#FCE7D2" d="M261 254.27c-1.69 5.43-10.63 9-15.46 7.53-4.83-1.47-3.73-7.58-2-13s7-8.59 11.82-7.08c4.82 1.51 7.37 7.13 5.64 12.55z"/>
        <path fill="#FCE7D2" d="M249.52 250c-6.16 20.81-22.1 36.39-42.49 28.72-16-6-23-26.47-16.49-47.18 6.51-20.71 24.94-33.36 41.23-28.26 16.29 5.1 25.45 20.8 17.75 46.72z"/>
        <path fill="#fff" d="M196.44 202.37s11.26-20.79 25.09-21.37c13.83-.58 20.54-1.15 20.54-1.15s22.78 18.28 24.3 19.38c1.52 1.1 3.52 18.45 3.52 18.45s-9.02 11.38-73.45-15.31z"/>
        <path fill="#fff" d="M171.9 207.41s24.79-9.22 40-4.45c15.21 4.77 45.1 16.22 45.1 16.22s6.49 7-34.44 9c.01.05-53.56-12.89-50.66-20.77z"/>
        <path fill="#E28A81" d="M210.26 270.54s-5.22-4.11 3.78-8.11c9-4 14.84-11.78 16.16-1.14 1.32 10.64-13.7 13.07-19.94 9.25z"/>
        <path stroke="#000" stroke-linecap="round" stroke-linejoin="round" stroke-width="2" d="M213.57 228.27s3 18.79-5.46 22.62M209.58 269.84c-4.29-4.51 14-16.55 19.21-12.48 5.21 4.07-2.48 17.71-14.88 14.44M196.44 202.37c1.33-1.65 8.76-18.45 21-20.77 7.952-1.397 16.042-1.843 24.1-1.33 0 0 14.63 7.33 22.47 16 7.84 8.67 6.13 21.87 6.13 21.87s-2.11 9.65-65.58-13"/>
        <path stroke="#000" stroke-linecap="round" stroke-linejoin="round" stroke-width="2" d="M196.44 202.37s-32 1.59-23.58 8.29c8.42 6.7 42.13 17.05 53.91 16.88 24.22-.36 31.92-7.62 31.92-7.62M268.85 219.26s2.65 24.71-12 39.93"/>
        <path stroke="#000" stroke-linecap="round" stroke-linejoin="round" stroke-width="2" d="M251.81 223.6c0 .91 2.6 13.38-1.28 20.64 4.7-5.17 10-1.61 11 3.22 1.37 6.69-4.82 15.42-13.67 14.74-.774-.041-1.539-.175-2.28-.4-6.34 11.65-17.49 19.44-30 18.61-21.39-1.41-29.25-19.9-27.67-39.23.4-4.85 2.16-15.66 6.41-20.89"/>
        <path fill="#000" d="M198.93 239.41c1.972 0 3.57-1.598 3.57-3.57 0-1.972-1.598-3.57-3.57-3.57-1.972 0-3.57 1.598-3.57 3.57 0 1.972 1.598 3.57 3.57 3.57zM225.27 242.39c1.972 0 3.57-1.598 3.57-3.57 0-1.972-1.598-3.57-3.57-3.57-1.971 0-3.57 1.598-3.57 3.57 0 1.972 1.599 3.57 3.57 3.57z"/>
        <path stroke="#000" stroke-linecap="round" stroke-linejoin="round" stroke-width="2" d="M80.48 77.48s6.15-2.8 9.23.28M111.21 83.73h-19c-.378-.043-.743-.165-1.07-.358-.328-.194-.61-.455-.83-.766-.22-.31-.37-.664-.442-1.038-.073-.373-.065-.758.022-1.128L91 73.49c.063-.742.388-1.437.918-1.96.53-.522 1.23-.838 1.972-.89h20.44c1.53 0 2.6 1.76 2.12 3.47l-.81 5.89c-.232 1.019-.79 1.935-1.589 2.608-.8.673-1.797 1.067-2.841 1.122v0zM59.32 83.73h19c.379-.041.745-.162 1.073-.355.33-.193.613-.454.833-.765.22-.311.372-.666.445-1.04.073-.374.066-.76-.021-1.13l-1.07-6.95c-.063-.742-.388-1.437-.918-1.96-.53-.522-1.23-.838-1.972-.89H56.2c-1.53 0-2.6 1.76-2.12 3.47l.8 5.84c.225 1.028.781 1.955 1.583 2.637.802.683 1.805 1.084 2.857 1.143v0z"/>
        <path fill="#fff" stroke="#000" stroke-linecap="round" stroke-linejoin="round" stroke-width="2" d="M111.21 83.73h-19c-.378-.043-.743-.165-1.07-.358-.328-.194-.61-.455-.83-.766-.22-.31-.37-.664-.442-1.038-.073-.373-.065-.758.022-1.128L91 73.49c.063-.742.388-1.437.918-1.96.53-.522 1.23-.838 1.972-.89h20.44c1.53 0 2.6 1.76 2.12 3.47l-.81 5.89c-.232 1.019-.79 1.935-1.589 2.608-.8.673-1.797 1.067-2.841 1.122v0zM59.32 83.73h19c.379-.041.745-.162 1.073-.355.33-.193.613-.454.833-.765.22-.311.372-.666.445-1.04.073-.374.066-.76-.021-1.13l-1.07-6.95c-.063-.742-.388-1.437-.918-1.96-.53-.522-1.23-.838-1.972-.89H56.2c-1.53 0-2.6 1.76-2.12 3.47l.8 5.84c.225 1.028.781 1.955 1.583 2.637.802.683 1.805 1.084 2.857 1.143v0z" opacity=".36"/>
    </g>
    <defs>
        <clipPath id="clip0">
            <path fill="#fff" d="M0 0H248.32V263.47H0z" transform="translate(23 18)"/>
        </clipPath>
    </defs>
</svg>
