<svg xmlns="http://www.w3.org/2000/svg" width="363" height="338" fill="none" viewBox="0 0 363 338">
    <g clip-path="url(#clip0)">
        <path fill="#3E8487" d="M162.4 103.2l-.6-35.3s0-3.3-13 5.2-70.2 38.8-70.2 38.8-3.3 3.1-6.6 2.9c-3.3-.2-59-20.2-59-20.2l-1.7 3.5 1 33.9s.7 4.5 4.7 6.1c4 1.6 53.9 18.5 53.9 18.5s86-46.5 85.3-45.9c-.6.6 6.4-3.5 6.4-4.7.1-1.3-.2-2.8-.2-2.8z"/>
        <path fill="#90CEDD" d="M160.6 66.7l-40 22-47 25.9c-.8.5-1.8.5-2.7.2L53.8 109 14.3 95.5c-2.8-1-3.2-4.8-.5-6.2l87-47.9c.8-.5 1.8-.6 2.7-.2l56.6 19.3c2.8 1 3.1 4.8.5 6.2z"/>
        <g fill="#3E8487" opacity=".4">
            <path d="M97.8 60.2c-.4-.3-.9-.5-1.4-.6-.4-.1-.9-.2-1.3-.2-.5 0-.9.2-1.4.2-.3 0-.5 0-.7.1-.2.1-.4.2-.6.4-.4.2-.8.5-1 .9-.2.4-.2.8-.3 1.2 0 .2-.1.5-.1.7v.3c0 .2-.1.3-.1.5 0 .1.1.2.2.2.1.6.7 1.4 1.5 1.8 0 .1.1.1.2.1.3.4.6.8 1 1.1.5.4 1 .8 1.4 1.2.3.3.6.6 1 .9.4.2.9.4 1.4.5.4.1.8.1 1.2.1.1 0 .1.1.2.1l.1.1.1.1.1.1.1.1V70.4c.1.1.2.2.4.2.1 0 .2 0 .2-.1s-.1-.3-.2-.4c-.1-.1-.2-.3-.4-.4-.1-.1-.2-.2-.3-.2.4-.1.7-.4 0-.8-.3-.2-.7 0-.3.3h.1c-.1 0-.1.1-.2.1.2-.1 0-.1-.1-.1-.4 0-1-.1-1.6-.3-.4-.1-.7-.3-.9-.5-.3-.3-.5-.5-.9-.8-.7-.6-1.3-1.1-1.8-1.7.6 0 .9-.5 1.3-.6.4-.2 1-.1 1.5 0 .6 0 1.1.1 1.7.2.2 0 .4 0 .5-.1l.1-.1c.1-.1.2 0 .3 0 .3.1.4 0 .6 0-.1.1-.2.3-.3.5 0 .2-.1.4 0 .6.1.2.4.4.6.4.4 0 .2-.4-.1-.4V66c0-.1 0-.2.1-.3 0-.1.1-.2.2-.2l.1-.1h.2c.1 0 .2.1.3.1h.1c0 .1 0 .1.1.2 0 .1.1.3.1.4 0 .2-.1.3-.1.5s-.1.3-.1.5v.2c-.2 0-.3.2 0 .4l.1.1c.1.1.3.1.3 0 .2-.1.1-.3.2-.5 0-.2.1-.4.1-.6 0-.2.1-.4.1-.6 0-.1-.1-.2-.1-.3 0-.1-.1-.2-.1-.3-.2-.2-.5-.4-.8-.4-.2-.1-.5-.1-.7-.1 0 0 .1 0 .1-.1.5-.4 1.1-.9.8-1.7-.2-.7-1.2-1.3-1.8-1.9-.3-.5-.6-.8-1-1.1zM107.2 81.8h-.1c-.2-.1-.4.1-.3.2-.2.1-.5.1-.7.1-.3.1-.8.1-1.2-.1-.3-.1-.6-.3-1-.5-.4-.1-.6 0-.9.1-.6.2-.7-.8-.6-1 0-.2.2-.4.1-.6l-.4-.4c-.2-.2-.4-.4-.7-.5-.1-.1-.2-.1-.3-.1-.1 0-.1 0-.2.1-.2.1.1.4.3.4.2.1.3.2.5.4 0 0 .1.1.1 0 0 0-.1.1-.1.2-.1.2-.1.4-.1.5 0 .4.1.9.7 1.2.3.2.6.2.8.2.2 0 .4-.2.6-.1.3.1.5.3.8.4.4.1.7.2 1.1.2.4 0 .7-.1 1-.1.3-.1.6-.1.7-.4.3 0 .1-.2-.1-.2zM80.4 72.9c-.6-.3-1.4-.6-2-.6-.7 0-1.3.1-1.9.2-.7.1-1.5.3-2.1.6-1.1.6-1.2 1.9-1.3 3 0 .6.2 1.3.4 1.9.1.3.3.7.5 1 .3.4.6.6 1 .9v.1c0 .1.1.1.1.1.1 0 .1.1.2.1h.4-.1.2c.2 0 .3.1.4 0 0 0 .1 0 .1-.1V80c.1 0 .2 0 .2-.1.1-.3.1-.7.1-1 0-.3 0-.7.1-1 .1-.3.2-.6.3-.8.1-.3.2-.7.6-.9.6-.4 1.6-.1 2.4-.2.4 0 .6 0 1 .1.2.1.5.1.8.2 0 .1.3.3.4.3h.1c.1-.1.2-.1.2-.2 0 0 0-.1.1-.1.1-.1.1-.1.2-.1l.1-.1c.1-.2-.1-.5-.2-.8-.2-.4-.4-.8-.7-1.2-.3-.3-.9-.8-1.6-1.2zM82 88.6c-.3.2.2.6.5.4.3-.2-.2-.6-.5-.4z" opacity=".4"/>
            <path d="M110.9 70c-1.6-.9-3.3-1.8-5-2-.8-.1-1.5-.1-2.2 0-.7.1-1.5.1-1.9.5-.6.4-1.1.9-1.5 1.5-.2.3-.4.5-.6.8-.1.2-.4.5-.3.8.2.3.7.3.6 0 0 0 .1-.2.2-.3.1-.1.2-.3.2-.4.2-.2.3-.4.5-.6.3-.5.7-.9 1.2-1.2.2-.2.4-.3.7-.4.3-.1.7-.1 1-.2.6-.1 1.3-.1 2-.1s1.5.2 2.2.5c.8.3 1.5.7 2.3 1.1.7.4 1.5.8 2.2 1.3.3.2.7.5 1 .7.4.3.7.5 1 .8.6.6 1.1 1.2 1.4 1.9.1.3.3.6.4.9 0 .1 0 .3-.1.4v.2c-.1 0-.1.1-.1.1-.7-.4-1.4-.8-2-1.2-1.1-.7-2.1-1.4-3.1-2.1-.4-.3-.9-.6-1.4-.8-.4-.1-.8-.2-1.2-.2-1-.2-1.5.1-1.8.7-.1-.1-.2-.1-.3-.2-.5-.2-1-.3-1.4-.3-.2 0-.4.1-.5.2-.3-.2-.6-.4-1-.5-.8-.2-1.7-.2-2.5-.2-1 .1-1.8.3-2.4.7-.6.5-1.2 1.1-1.5 1.8v.1h-.2c-.3.2-.5.3-.6.6-.1.3-.2.5-.2.8 0 .5.3 1 .8 1.5-.4 0-.7 0-1.1.1-.2 0-.4.1-.6.2-.1-.1-.3-.1-.4-.1-.1 0-.1.1-.2.1 0-.2 0-.5-.2-.7-.2-.3-.6-.7-1.1-.8-.2-.1-.4-.1-.6-.1 0-.4-.2-.9-.6-1.3-.5-.5-1-1.1-1.8-1.5-.7-.4-1.5-.8-2.3-1-.8-.2-1.5-.2-2.2-.2-.7 0-1.4.1-1.9.4-.4.3-.6.9-.8 1.4-.2.5-.2 1.1-.1 1.7.1.7.5 1.4.8 2 0 0 0 .1.1.1l-.3-.3c-.2-.2-.5-.6-.9-.7-.4-.1-.5.3-.1.4.1 0 .3.2.4.3l.4.4.7.7c.5.5 1.1 1 1.4 1.6.2.5.3 1 .2 1.4 0 .2 0 .5-.1.7 0 .1-.1.2-.2.3 0 0-.1.2-.2.2H85c-.8-.3-1.6-.4-2.4-.6-.5-.1-1-.1-1.4-.2-.5-.1-1-.2-1.5-.2s-.9-.1-1.3 0c-.4-.2-.7-.5-.9-.8-.2-.2-.3-.3-.4-.5-.1-.1-.2-.2-.2-.3 0-.1 0-.2-.1-.3-.2-.1-.4-.1-.5 0-.2.3.4.9.7 1.2.3.3.5.5.8.7-.2 0-.5.1-.7.1-.9.2-1.8.6-2.7.9-.5.1-.8.4-1.2.6-.4.3-.8.5-1.1.8-.3.2-.6.5-.8.8h-.1c-.6-.2-1.3-.5-1.9-.7-.2-.1-.5-.2-.7-.3-.1 0-.3-.1-.5-.2 0-.1 0-.2-.1-.2-.1-.1-.3-.1-.5 0h-.1c-.1.1-.1.2 0 .3.2.2.5.3.8.5l.9.3h.1-.1c-.4.3-.4.7-.5 1.1-.1.5-.3.9-.3 1.4-.1.4 0 .9.1 1.4.1.5.1.9.2 1.4.1.5.4 1 .8 1.5s.7 1 1.1 1.5c.8.9 1.8 1.7 2.9 2.5.6.4 1.4.7 2 1.1.7.3 1.3.6 2 .8.7.2 1.4.6 2.1.7.4.1.7.1 1 .2.3.1.7.2 1 .3 2.8.6 5.5 0 7.4-.9.6-.3 1.1-.6 1.7-.9.3-.1.5-.3.8-.4l.1.1c.3.2.6.5.8.7.2.2.5.4.8.6.4.2.8 0 1-.1.2-.1.5-.2.7-.5.1-.1.1-.3-.1-.5-.1-.1-.3-.3-.5-.4-.2-.2-.5-.4-.8-.5-.1-.1-.3-.1-.4-.1h-.1s-.1-.1-.2-.1c.2-.2.4-.5.7-.7.2-.3.6-.5.5-.9 0 0 0-.1-.1-.1 0-.1-.1-.2-.3-.3-.4-.1-.9-.3-1.3-.4-.4-.1-.9-.2-1.2-.4h-.1c.4-.4.6-.9.8-1.5.2-.6-.1-1.3-.4-2-.1-.3-.3-.6-.4-1h.2c.3 0 .5.1.8.1.6.1 1.1.2 1.7.3.6.1 1.1.2 1.7.3.4.1.8.1 1.3.2l.1.1c.1.3.1.7.1 1 0 .2 0 .4.1.6.1.2.3.4.2.6 0 .1.1.2.2.2.3.2.6.2.9.3.4.1.7.2 1.1.3.7.2 1.4.3 2.1.4 1.5.1 2.8-.1 4-.4 1.2-.3 2.5-.6 3.6-.9 1.2-.4 2.4-.8 3.5-1.3s2-1.2 3-1.7 1.8-1.1 2.8-1.7c.4-.2.8-.5 1-.9.3-.3.6-.7.8-1 .2-.4.1-.8 0-1.2-.2-.5-.5-.9-1-1.3l-.8-.8c-.3-.2-.6-.5-1-.7-.7-.4-1.5-.8-2.3-1.1-.7-.3-1.4-.7-2.1-.9-.3-.1-.6-.2-.9-.2-.1-.1-.2-.1-.3-.1h-.2c-.1 0-.2-.1-.4-.1s-.3-.1-.5-.1h-.4c-.1 0-.2.1-.2.2v.1c-.5 0-1 .3-1.2.5-.3.2-.5.6-.6.9-.1.3-.2.7-.2 1.1 0 .7.4 1.4.7 2.2.2.4.4.9.6 1.3.2.4.4.9.4 1.3s-.2.6-.3.9c-.1.4-.5.6-.9.8l-1.5.3c-.5.1-1 .1-1.5.1-.5.1-1 0-1.5-.1-.6-.1-1.3 0-1.9 0-.6 0-1.3 0-2-.1-.6 0-1.2 0-1.8-.1-.6-.1-1.1-.1-1.4.1-.3.3-.3.7-.3 1-.3-.1-.7-.1-1-.1-.5-.1-1.1-.2-1.6-.2l-1.8-.3c-.3 0-.7-.1-1-.1-.2 0-.3-.1-.5-.1-.1-.3-.2-.5-.4-.8-.4-.7-.8-1.3-1.5-2h.5c.3 0 .6-.1 1-.1.6 0 1.2 0 1.8.1 1.2.2 2.5.4 3.7.4.4 0 .5-.2.4-.5-.1-.4-.4-.8-.4-1.2-.1-1-.3-1.9-.7-2.9-.2-.5-.3-.9-.4-1.4 0-.3 0-.5.1-.7 0-.1.1-.2.2-.2h.1c.6-.2 1.2-.4 2-.4h.5c.1.1.2.1.3.2.3.2.6.4.9.7.4.3.3.7.7.9.5.3 1 0 1.3-.2.5-.3.6-.8 1.1-1.2.2-.2.5-.2.9 0 .3.2.6.3 1 .4.6.1.9-.1 1-.4.2-.5.3-1.1.5-1.6.1-.3.2-.6.4-.8.1-.1.3-.1.5-.2h.2c.1 0 .1.1.2.1H107.6c.2 0 .3 0 .5-.1H109.6c.1.1.2.1.3.1h.1c.7.2 1.4.6 2 .9.9.5 1.8 1.1 2.7 1.6.9.5 1.8.9 2.8 1.2.5.1.9.2 1.3.2s.8.1 1 0c.1 0 .1-.2 0-.3-.1-.1-.3-.3-.5-.4-.3-.2-.6 0-.3.3h.1c-.3 0-.6 0-.9-.1-.4-.1-.8-.1-1.2-.3-1-.3-1.9-.9-2.8-1.4-1.5-.9-3.2-2.1-5-2.4h-.7c-.3 0-.5 0-.8.1-.2 0-.4 0-.6.1l-.1-.1s0-.1-.1-.1c0-.1-.1-.1-.1-.2s-.1-.1-.1-.2 0-.1-.1-.2c-.1-.2-.1-.4-.3-.6.2-.1-.1-.4-.3-.4-.3-.2-.6-.4-.8-.7 0 0-.1-.1-.2-.1l.1-.1h.5c.3.1.6.2.9.4 0 .1.1.1.2.1.2.2.4.3.5.5.1.1.1.2.2.3 0 0 0 .1.1.1 0 .1 0 .1-.1.2-.2.1.2.5.5.4.6-.2 0-1-.5-1.5-.1-.1-.2-.1-.2-.2.2-.4.5-.8 1.3-.6.6.1 1.1.1 1.7.5.7.4 1.2.9 1.9 1.3s1.3.9 2 1.3c1.3.8 2.6 1.6 4 2.2.7.3 2.1 1 2.5.6.1-.1 0-.2-.1-.3-.2-.2-.4-.2-.6-.1 0 0-.1 0-.1.1-.2 0-.6-.2-.8-.2-.6-.2-1.1-.5-1.6-.8-.2-.1-.4-.2-.7-.4h.1c.1-.1 0-.2.1-.3 0-.1.1-.2.1-.3 0-.3-.1-.5-.2-.8-.2-.3-.2-.6-.4-.9-.2-.3-.4-.6-.7-.9-1.5-1.4-3.2-2.5-4.8-3.4zM94 96.5s.1 0 0 0c.1 0 .1 0 0 0 .1 0 .1 0 0 0 .1.1.1.1 0 0 .1.1 0 .1 0 .1h-.1c-.1.1-.2.1-.3.2-.1.1-.2.1-.3.2 0 0-.1 0-.1.1-.1-.1-.2-.1-.3-.2-.1-.1-.2-.2-.4-.3-.3-.2-.5-.4-.8-.6h-.1c.2-.1.3-.2.5-.3 0 0 0 .1.1.1.2.1.4.2.6.2h.2c.1 0 .2.1.3.1.2.1.4.2.6.4.1-.1.1 0 .1 0zm-1.3-3c0 .1.1.2.3.3-.1.2-.3.3-.4.5-.3.3-.5.6-.8.8-.4.3-.9.5-1.3.8-.4.3-1 .5-1.4.7-1.6 1-3.7 1.6-6.2 1.5-.6 0-1.3-.2-2-.3-.3-.1-.5-.2-.8-.2-.3-.1-.6-.1-1-.2-.7-.2-1.3-.5-2-.7-.7-.2-1.3-.5-1.9-.8-.6-.3-1.2-.6-1.8-1-.5-.4-1-.7-1.5-1.1-.9-.8-1.6-1.7-2.2-2.5-.4-.5-.6-1-.8-1.5-.1-.6-.2-1.1-.2-1.6-.1-.6 0-1.1.2-1.7.1-.5 0-1.2.5-1.6.1-.1.1-.1 0-.2.4.2.9.3 1.3.5l-.6.9c-.4.7-.3 1.5.1 2.3.2.4.4.8.7 1.2.3.5.7.9 1.2 1.3.1.1.2.3.4.4.2.2.3.4.5.6.2.2.5.5.8.7l.1.1c.1.1.2.1.3.1.5.7 1.6 1.2 2.6 1.6.5.2 1.1.4 1.6.6.6.2 1.2.4 1.8.5 1.1.3 2 .3 3.1.3 1 0 2 0 2.8-.3.9-.3 1.8-.7 2.5-1.2s1.3-1 1.9-1.6c0 0 .1.1.2.1s.1.1.2.1c.1.1.2.1.4.1.2.1.5.1.7.2.1.1.4.2.7.3zM94.4 81c.2.5.3.9.4 1.4.1.4.1.8.2 1.2 0 .2.1.4.2.6 0 .1.3.5.2.5H94.8c-.3 0-.6-.1-.9-.1-.6 0-1.2-.1-1.8-.2-.7-.1-1.3-.1-1.9-.1h-2c-.3-.3-.7-.5-1.1-.7-.4-.2-.9-.5-1.4-.7l.2-.2c.2-.2.2-.4.3-.7 0-.3.1-.5.1-.8 0-.3-.1-.6-.2-1-.1-.3-.3-.6-.6-.9.2.2.3.3.5.4.6.5 1.2.9 1.8 1.3 1.1.6 2.4.9 3.5.8 1.1-.1 2.3-.4 2.7-1.1.1-.1.1-.2.1-.2.2.2.2.3.3.5zm-.6-3.9v.6s-.1 0-.1.1h-.1c-.2 0-.3 0-.3.2 0 .1.2.2.3.3h.4v.4c-.1 0-.1-.1-.2-.1-.3-.2-.6.1-.3.3.1.1.1.4.2.4.1.2.1.4.1.5 0 .3-.1.6-.4.8-.6.4-1.4.6-2.3.7-.9.1-1.9-.2-2.8-.7-.5-.3-1-.6-1.4-1-.4-.3-.9-.7-1.1-1.1.2-.1.3-.3.3-.5 0-.3.2-.4.4-.6.2-.2.5-.3.6-.5.1-.1.1-.2.3-.3h.5c.6.1 1.3.3 2 .4.7.1 1.4.2 2.2.4l.1.1c.1.1.3.2.4.1.1 0 .2-.2 0-.3 0 0 0-.1-.1-.2l-.1-.1v-.2-.2c0-.1.1-.1.1-.2l.1-.1h.1c-.1 0 0 0 0 0h.2H93.2l.1.1.2.2.1.1s0 .1.1.1c0 .2 0 .3.1.3z" opacity=".4"/>
            <path d="M107.3 76.9c-.2-.1-.5-.3-.8-.4-.2-.1-.5-.1-.7-.1-.4 0-.8.3-.7.6 0 .2.1.5.4.6.2.1.4.3.6.3.2 0 .1-.3-.1-.4-.2-.1-.2-.2-.3-.3 0-.1 0-.2.1-.2.2-.1.6-.1.9 0 .3.2.7.4.8.7.1.1.1.3.1.4v.1c-.2 0-.2.3.2.4.2 0 .4.1.4 0v-.2-.5l-.3-.6c-.1-.1-.3-.3-.6-.4z" opacity=".4"/>
        </g>
        <path fill="#3E8487" d="M154.3 68.2c-1.1 1.4-3.4 2.5-5 4.2-1.4-.5-10.4-3.9-11.8-4.4-4.6-1.8-9.3-3.4-14-5.1-5.2-1.8-10.2-4.2-15.4-6.1-2.8-1-5.7-2-8.5-3.1-1.6-.6-10.2-3.3-11.9-3.8 1.8-1.3 5.4-2.3 7.3-3.7 2.4.9 10 3.6 12.4 4.5 5.2 1.9 10.3 4.1 15.4 6.1 4.8 1.9 9.6 3.6 14.4 5.2 2.9.8 14.3 5.2 17.1 6.2z"/>
        <path fill="#fff" d="M114.4 92.2l1.4 40.4 13.3-7.5.1-41.9-14.8 9zM114.4 92.2L51.1 68.8l13.3-7.5 64.8 21.9-14.8 9z"/>
        <path stroke="#E2E2E2" stroke-linecap="round" stroke-linejoin="round" stroke-miterlimit="10" stroke-width="2" d="M57.9 69.1l56.4 19.1M117.2 128.7l-.5-33.2"/>
        <path stroke="#000" stroke-linecap="round" stroke-linejoin="round" stroke-miterlimit="10" stroke-width="2" d="M112.6 93.2l-38.9 21.4c-.8.5-1.8.5-2.7.2L53.8 109 14.3 95.5c-2.8-1-3.2-4.8-.5-6.2l87-47.9c.8-.5 1.8-.6 2.7-.2l56.6 19.3c2.8 1 3.2 4.8.6 6.2l-31.5 17.4M128.4 84.5l-9 4.9"/>
        <path stroke="#000" stroke-linecap="round" stroke-linejoin="round" stroke-miterlimit="10" stroke-width="2" d="M12 92.6V131c0 3.2 2 6 5 7l53.9 18.5c.9.3 1.9.2 2.7-.2l83.4-45.9M160.8 78.2l-31.7 17.3"/>
        <path stroke="#000" stroke-linecap="round" stroke-linejoin="round" stroke-miterlimit="10" stroke-width="2" d="M46.4 116.7l25.3 8.9c.9.3 1.9.2 2.7-.2l39.9-21.7M13.3 105.3l25.5 8.8M160.8 88.4l-31.7 17.2"/>
        <path stroke="#000" stroke-linecap="round" stroke-linejoin="round" stroke-miterlimit="10" stroke-width="2" d="M13.3 115.4l58.4 20.2c.9.3 1.9.2 2.7-.2l39.9-21.7M160.8 98.7l-31.7 17.2"/>
        <path stroke="#000" stroke-linecap="round" stroke-linejoin="round" stroke-miterlimit="10" stroke-width="2" d="M13.3 125.7L71.8 146c.9.3 1.9.2 2.7-.2l39.9-21.8M161.7 65.7v40.4M65.3 61.1l63.1 21.3M51.8 69.8l61.7 20.9M129.1 124.9V84.1M114.4 92.2V134"/>
        <path fill="#5EA3AA" d="M29.9 95.6c-.1 0-.1 0-.2-.1-1.2-.4-1.9-.7-2.2-1-.3-.3-.2-.6.3-.8-.1 0-.2-.1-.3-.1-.1 0-.2-.1-.3-.1-.1 0-.1-.1 0-.1.1-.1.2-.1.3-.2h.2c.1 0 .2 0 .3.1.1 0 .2.1.3.1.5-.2 1.1-.3 1.7-.3.7.1 1.4.2 2 .4.3.1.5.2.6.3.1.1 0 .1-.1.2l-.4.2c-.1.1-.3.1-.4.1-.2 0-.3 0-.4-.1H31c-.1 0-.2 0-.3.1.4.1.5.2.9.3.5-.2 1-.3 1.6-.3.6.1 1.2.2 1.7.4.1 0 .2.1.3.1 1 .4 1.5.7 1.7 1 .2.2.1.5-.3.7.1 0 .2.1.3.1.1 0 .2.1.2.1v.1c-.1 0-.1.1-.2.1h-.2c-.1 0-.2 0-.3-.1-.1 0-.1-.1-.2-.1-.4.2-.9.3-1.4.3-.6 0-1.2-.1-1.8-.3-.3-.1-.5-.2-.5-.2-.1-.1 0-.1.1-.2s.2-.1.4-.2c.1-.1.2-.1.4-.1s.3 0 .4.1h.3c.1 0 .2 0 .2-.1-.3-.1-.5-.2-.8-.3-.4.2-1 .3-1.6.3-.7-.1-1.3-.2-2-.4zm.3-.9c.1.1.2.1.3.2.1 0 .2.1.3 0 .1 0 .2 0 .3-.1-.4-.1-.5-.2-.9-.3v.2zm4.6.9c0-.1-.1-.1-.3-.2h-.3c-.1 0-.2 0-.2.1.3.1.5.2.8.3v-.2zM40.7 94.5c.3.1.4.3.2.3-.3.2-.5.3-.9.5-.1.1-.4.1-.7-.1-3.4-1.5-6.4-2.7-10.9-4.6-.2-.1-.4-.1-.5-.1-.1.1-.2.1-.3.2-.2.1-.5.1-.9-.1-.8-.3-1.1-.5-1.8-.7-.4-.2-.5-.3-.3-.4.6-.4.9-.5 1.6-.9.4-.2.9-.1 1.7.2 4.8 2.2 8.8 3.8 12.8 5.7zM39.1 93c-3-1.4-5.1-2.3-8.4-3.8-2.2-1-2.6-1.7-1.8-2.1 1.1-.6 1.6-.9 2.7-1.5.8-.4 2-.2 4.2.8 3.2 1.5 5.2 2.4 8.2 3.9 2 1 2.2 1.6 1.5 2-1 .6-1.5.8-2.5 1.4-.8.4-1.9.3-3.9-.7zm2.7-2.3c-2.5-1.2-4-1.9-6.7-3.2-.7-.3-1.1-.4-1.3-.3-.6.3-.9.5-1.5.8-.2.1-.1.4.6.7 2.7 1.2 4.3 1.9 6.8 3.1.6.3 1 .4 1.3.2.6-.3.8-.5 1.4-.8.2 0 0-.2-.6-.5zM44.6 89.9c-2.9-1.4-4.9-2.3-8.2-3.9-2.2-1-2.6-1.7-1.9-2.1 1-.5 1.4-.8 2.3-1.3.7-.4 1.9-.1 4.2.8 3.3 1.5 5.3 2.3 8.3 3.7 2 .9 2.3 1.5 1.5 2-1 .6-1.5.9-2.5 1.4-.7.5-1.7.4-3.7-.6zm2.7-2.2c-2.5-1.2-4.1-1.8-6.8-3.1-.7-.3-1.1-.4-1.3-.3-.5.3-.8.4-1.3.7-.2.1 0 .3.6.6 2.7 1.3 4.2 1.9 6.7 3.1.6.3 1 .4 1.3.2.6-.3.8-.5 1.4-.8.2 0 0-.2-.6-.4zM52.6 86.9c.8.4 1.2.7 1.3.9.1.2.1.4 0 .5h-.6c0-.2 0-.3-.1-.4-.4.1-.9.1-1.7-.3l-1-.5c-.2-.1-.3-.2-.2-.3.3-.2.5-.3.8-.5.1 0 .2 0 .5.1l1 .5zM51.9 85.8c-3.1-1.3-5.1-2.2-8.5-3.6-2.3-1-2.9-1.6-2.2-1.9.8-.5 1.3-.7 2.1-1.2.6-.4 2-.1 4.4.8 3.6 1.3 5.7 2.1 8.9 3.3 2.2.8 2.6 1.4 1.8 1.8-1 .6-1.5.8-2.5 1.4-.9.5-2 .3-4-.6zm2.5-2.1c-2.7-1.1-4.3-1.7-7.2-2.8-.7-.3-1.2-.4-1.4-.2-.5.3-.7.4-1.2.7-.2.1 0 .3.7.6 2.8 1.2 4.4 1.8 7.1 2.9.7.3 1.1.3 1.3.2.5-.3.8-.5 1.3-.8.3-.2.1-.4-.6-.6zM57.1 82.9c-3.3-1.2-5.4-2-9-3.3-2.4-.9-3.1-1.5-2.5-1.8.8-.5 1.2-.7 2-1.1.6-.3 2-.2 4.6.7 3.8 1.3 5.9 2 9.3 3.1 2.3.8 2.8 1.2 2 1.6-.9.5-1.4.8-2.3 1.3-.7.4-1.9.3-4.1-.5zm2.4-2.1c-2.8-1-4.5-1.5-7.5-2.6-.8-.3-1.2-.3-1.4-.2-.5.3-.7.4-1.2.7-.2.1.1.3.8.6 3 1.1 4.7 1.7 7.4 2.6.7.2 1.1.3 1.3.2.5-.3.8-.4 1.3-.7.2-.2 0-.3-.7-.6zM62.1 80.1c-3.4-1.1-5.6-1.8-9.3-3.1-2.5-.8-3.3-1.4-2.7-1.7.8-.5 1.3-.7 2.1-1.2.7-.4 2.1-.2 4.7.6 3.8 1.2 5.9 1.9 9.3 3.1 2.3.7 2.8 1.2 2.2 1.6-.8.5-1.2.7-2.1 1.2-.7.3-1.9.2-4.2-.5zm2.1-2c-2.9-.9-4.5-1.5-7.6-2.5-.8-.3-1.2-.3-1.4-.2-.5.3-.7.4-1.2.7-.2.1.1.3.8.5 3.1 1 4.8 1.6 7.6 2.5.7.2 1.1.3 1.3.2.5-.3.7-.4 1.2-.7.3-.1.1-.2-.7-.5z"/>
        <path fill="#BC9533" d="M114.8 145.2v6.1c0 6.1 9.9 11 22.2 11 12.3 0 22.2-4.9 22.2-11v-7.6"/>
        <path stroke="#000" stroke-linecap="round" stroke-linejoin="round" stroke-miterlimit="10" stroke-width="2" d="M114.8 144.1v6.1c0 6.1 9.9 11 22.2 11 12.3 0 22.2-4.9 22.2-11v-7.6"/>
        <path fill="#BC9533" d="M114.8 138.1v6.1c0 6.1 9.9 11 22.2 11 12.3 0 22.2-4.9 22.2-11v-7.6"/>
        <path stroke="#000" stroke-linecap="round" stroke-linejoin="round" stroke-miterlimit="10" stroke-width="2" d="M114.8 138.1v6.1c0 6.1 9.9 11 22.2 11 12.3 0 22.2-4.9 22.2-11v-7.6"/>
        <path fill="#BC9533" d="M114.8 132v6.1c0 6.1 9.9 11 22.2 11 12.3 0 22.2-4.9 22.2-11v-7.6"/>
        <path stroke="#000" stroke-linecap="round" stroke-linejoin="round" stroke-miterlimit="10" stroke-width="2" d="M114.8 132v6.1c0 6.1 9.9 11 22.2 11 12.3 0 22.2-4.9 22.2-11v-7.6"/>
        <path fill="#BC9533" d="M114.8 125.9v6.1c0 6.1 9.9 11 22.2 11 12.3 0 22.2-4.9 22.2-11v-7.6"/>
        <path stroke="#000" stroke-linecap="round" stroke-linejoin="round" stroke-miterlimit="10" stroke-width="2" d="M114.8 125.9v6.1c0 6.1 9.9 11 22.2 11 12.3 0 22.2-4.9 22.2-11v-7.6"/>
        <path fill="#BC9533" d="M114.8 119.7v6.1c0 6.1 9.9 11 22.2 11 12.3 0 22.2-4.9 22.2-11v-7.6"/>
        <path stroke="#000" stroke-linecap="round" stroke-linejoin="round" stroke-miterlimit="10" stroke-width="2" d="M114.8 119.7v6.1c0 6.1 9.9 11 22.2 11 12.3 0 22.2-4.9 22.2-11v-7.6"/>
        <path fill="#BC9533" d="M114.8 113.7v6.1c0 6.1 9.9 11 22.2 11 12.3 0 22.2-4.9 22.2-11v-7.6"/>
        <path fill="#FAD45C" d="M137 124.7c12.261 0 22.2-4.925 22.2-11s-9.939-11-22.2-11-22.2 4.925-22.2 11 9.939 11 22.2 11z"/>
        <path fill="#DDB443" d="M137 121.5c9.886 0 17.9-3.582 17.9-8s-8.014-8-17.9-8-17.9 3.582-17.9 8 8.014 8 17.9 8z"/>
        <path fill="#BC9533" d="M154.8 113.5v.6c-.6-4.2-8.4-7.4-17.8-7.4-9.5 0-17.2 3.3-17.8 7.4v-.6c0-4.4 8-8 17.9-8 9.7 0 17.7 3.6 17.7 8z"/>
        <path stroke="#000" stroke-linecap="round" stroke-linejoin="round" stroke-miterlimit="10" stroke-width="2" d="M137 124.7c12.261 0 22.2-4.925 22.2-11s-9.939-11-22.2-11-22.2 4.925-22.2 11 9.939 11 22.2 11z"/>
        <path stroke="#000" stroke-linecap="round" stroke-linejoin="round" stroke-miterlimit="10" stroke-width="2" d="M114.8 113.7v6.1c0 6.1 9.9 11 22.2 11 12.3 0 22.2-4.9 22.2-11v-7.6"/>
        <path fill="#BC9533" d="M129.827 111.924v-.275c.055-1.382.458-2.348 1.208-2.898.742-.549 1.905-.847 3.489-.892v-.316c0-.165.032-.298.096-.398.064-.101.215-.152.453-.152h.92c.147 0 .275.051.385.152.11.1.169.219.178.357v.357c1.566.045 2.724.338 3.475.879.815.595 1.222 1.263 1.222 2.005 0 .375-.082.636-.247.783-.165.137-.467.206-.906.206h-1.429c-.421 0-.714-.069-.879-.206-.164-.147-.251-.275-.261-.385-.009-.11-.123-.206-.343-.288-.137-.055-.348-.092-.632-.11v1.112c1.566.046 2.724.339 3.475.879.751.54 1.154 1.149 1.209 1.827v.357c-.055 1.364-.454 2.316-1.195 2.856-.742.541-1.905.834-3.489.879v.412c-.009.147-.068.275-.178.385-.11.119-.238.16-.385.124h-.961c-.137-.019-.256-.078-.357-.179-.092-.092-.142-.211-.151-.357v-.385c-1.566-.045-2.724-.338-3.475-.879-.815-.586-1.222-1.249-1.222-1.991 0-.375.082-.632.247-.769.165-.147.467-.22.906-.22h1.429c.421 0 .714.073.879.22.165.137.252.261.261.371.009.11.123.206.343.288.137.055.348.092.632.11v-1.085c-1.566-.046-2.724-.339-3.475-.879-.76-.549-1.167-1.181-1.222-1.895zm4.065-1.003c-.183.119-.275.284-.275.495 0 .128.092.224.275.288.137.055.348.096.632.124v-1.072c-.293.028-.504.083-.632.165zm3.31 4.67c.174-.11.261-.261.261-.453-.009-.119-.101-.22-.275-.303-.137-.055-.348-.091-.632-.109v1.043c.293-.036.509-.096.646-.178z"/>
        <path fill="#FAD45C" d="M129.827 110.74v-.274c.055-1.383.458-2.349 1.208-2.898.742-.55 1.905-.847 3.489-.893v-.316c0-.165.032-.297.096-.398.064-.101.215-.151.453-.151h.92c.147 0 .275.05.385.151.11.101.169.22.178.357v.357c1.566.046 2.724.339 3.475.879.815.595 1.222 1.264 1.222 2.005 0 .376-.082.636-.247.783-.165.137-.467.206-.906.206h-1.429c-.421 0-.714-.069-.879-.206-.164-.147-.251-.275-.261-.385-.009-.109-.123-.206-.343-.288-.137-.055-.348-.092-.632-.11v1.113c1.566.045 2.724.338 3.475.879.751.54 1.154 1.149 1.209 1.826v.357c-.055 1.364-.454 2.317-1.195 2.857-.742.54-1.905.833-3.489.879v.412c-.009.146-.068.274-.178.384-.11.119-.238.161-.385.124h-.961c-.137-.018-.256-.078-.357-.179-.092-.091-.142-.21-.151-.357v-.384c-1.566-.046-2.724-.339-3.475-.879-.815-.586-1.222-1.25-1.222-1.992 0-.375.082-.631.247-.769.165-.146.467-.219.906-.219h1.429c.421 0 .714.073.879.219.165.138.252.261.261.371.009.11.123.206.343.289.137.055.348.091.632.109v-1.085c-1.566-.045-2.724-.338-3.475-.878-.76-.55-1.167-1.182-1.222-1.896zm4.065-1.002c-.183.119-.275.284-.275.494 0 .128.092.224.275.289.137.054.348.096.632.123v-1.071c-.293.027-.504.082-.632.165zm3.31 4.669c.174-.11.261-.261.261-.453-.009-.119-.101-.22-.275-.302-.137-.055-.348-.092-.632-.11v1.044c.293-.037.509-.096.646-.179z"/>
        <path fill="#BC9533" d="M84.7 166.5v6.1c0 6.1 9.9 11 22.2 11 12.3 0 22.2-4.9 22.2-11V165"/>
        <path stroke="#000" stroke-linecap="round" stroke-linejoin="round" stroke-miterlimit="10" stroke-width="2" d="M84.7 165.5v6.1c0 6.1 9.9 11 22.2 11 12.3 0 22.2-4.9 22.2-11V164"/>
        <path fill="#BC9533" d="M84.7 159.4v6.1c0 6.1 9.9 11 22.2 11 12.3 0 22.2-4.9 22.2-11v-7.6"/>
        <path stroke="#000" stroke-linecap="round" stroke-linejoin="round" stroke-miterlimit="10" stroke-width="2" d="M84.7 159.4v6.1c0 6.1 9.9 11 22.2 11 12.3 0 22.2-4.9 22.2-11v-7.6"/>
        <path fill="#BC9533" d="M84.7 153.3v6.1c0 6.1 9.9 11 22.2 11 12.3 0 22.2-4.9 22.2-11v-7.6"/>
        <path stroke="#000" stroke-linecap="round" stroke-linejoin="round" stroke-miterlimit="10" stroke-width="2" d="M84.7 153.3v6.1c0 6.1 9.9 11 22.2 11 12.3 0 22.2-4.9 22.2-11v-7.6"/>
        <path fill="#BC9533" d="M84.7 147.3v6.1c0 6.1 9.9 11 22.2 11 12.3 0 22.2-4.9 22.2-11v-7.6"/>
        <path stroke="#000" stroke-linecap="round" stroke-linejoin="round" stroke-miterlimit="10" stroke-width="2" d="M84.7 147.3v6.1c0 6.1 9.9 11 22.2 11 12.3 0 22.2-4.9 22.2-11v-7.6"/>
        <path fill="#BC9533" d="M84.7 141v6.1c0 6.1 9.9 11 22.2 11 12.3 0 22.2-4.9 22.2-11v-7.6"/>
        <path stroke="#000" stroke-linecap="round" stroke-linejoin="round" stroke-miterlimit="10" stroke-width="2" d="M84.7 141v6.1c0 6.1 9.9 11 22.2 11 12.3 0 22.2-4.9 22.2-11v-7.6"/>
        <path fill="#BC9533" d="M84.7 135v6.1c0 6.1 9.9 11 22.2 11 12.3 0 22.2-4.9 22.2-11v-7.6"/>
        <path fill="#FAD45C" d="M106.9 146c12.261 0 22.2-4.925 22.2-11s-9.939-11-22.2-11c-12.26 0-22.2 4.925-22.2 11s9.94 11 22.2 11z"/>
        <path fill="#DDB443" d="M106.9 142.9c9.886 0 17.9-3.582 17.9-8s-8.014-8-17.9-8-17.9 3.582-17.9 8 8.014 8 17.9 8z"/>
        <path fill="#BC9533" d="M124.7 134.9v.6c-.6-4.2-8.4-7.4-17.8-7.4-9.5 0-17.2 3.3-17.8 7.4v-.6c0-4.4 8-8 17.9-8 9.7 0 17.7 3.6 17.7 8z"/>
        <path stroke="#000" stroke-linecap="round" stroke-linejoin="round" stroke-miterlimit="10" stroke-width="2" d="M106.9 146c12.261 0 22.2-4.925 22.2-11s-9.939-11-22.2-11c-12.26 0-22.2 4.925-22.2 11s9.94 11 22.2 11z"/>
        <path stroke="#000" stroke-linecap="round" stroke-linejoin="round" stroke-miterlimit="10" stroke-width="2" d="M84.7 135v6.1c0 6.1 9.9 11 22.2 11 12.3 0 22.2-4.9 22.2-11v-7.6"/>
        <path fill="#BC9533" d="M99.741 133.273v-.274c.055-1.383.458-2.349 1.209-2.898.741-.549 1.904-.847 3.488-.893v-.316c0-.164.032-.297.096-.398.064-.101.215-.151.453-.151h.92c.147 0 .275.05.385.151.11.101.169.22.179.357v.357c1.565.046 2.723.339 3.474.879.815.595 1.222 1.264 1.222 2.005 0 .376-.082.637-.247.783-.165.138-.467.206-.906.206h-1.428c-.422 0-.715-.068-.879-.206-.165-.146-.252-.274-.261-.384-.01-.11-.124-.206-.344-.289-.137-.055-.348-.091-.631-.11v1.113c1.565.046 2.723.339 3.474.879.751.54 1.154 1.149 1.209 1.826v.357c-.055 1.365-.453 2.317-1.195 2.857s-1.905.833-3.488.879v.412c-.01.147-.069.275-.179.385-.11.119-.238.16-.385.123h-.961c-.137-.018-.256-.078-.357-.178-.092-.092-.142-.211-.151-.357v-.385c-1.566-.046-2.724-.339-3.475-.879-.815-.586-1.222-1.25-1.222-1.991 0-.376.082-.632.247-.769.165-.147.467-.22.907-.22h1.428c.421 0 .714.073.879.22.165.137.252.26.261.37.009.11.123.206.343.289.138.055.348.091.632.11v-1.085c-1.566-.046-2.724-.339-3.475-.879-.76-.55-1.167-1.181-1.222-1.896zm4.065-1.002c-.183.119-.275.284-.275.494 0 .128.092.225.275.289.138.055.348.096.632.123v-1.071c-.293.028-.504.082-.632.165zm3.31 4.669c.174-.109.261-.261.261-.453-.009-.119-.101-.22-.275-.302-.137-.055-.348-.092-.631-.11v1.044c.293-.037.508-.096.645-.179z"/>
        <path fill="#FAD45C" d="M99.741 132.09v-.275c.055-1.382.458-2.348 1.209-2.898.741-.549 1.904-.847 3.488-.892v-.316c0-.165.032-.298.096-.398.064-.101.215-.152.453-.152h.92c.147 0 .275.051.385.152.11.1.169.219.179.357v.357c1.565.045 2.723.338 3.474.879.815.595 1.222 1.263 1.222 2.005 0 .375-.082.636-.247.783-.165.137-.467.206-.906.206h-1.428c-.422 0-.715-.069-.879-.206-.165-.147-.252-.275-.261-.385-.01-.11-.124-.206-.344-.288-.137-.055-.348-.092-.631-.11v1.112c1.565.046 2.723.339 3.474.879.751.54 1.154 1.149 1.209 1.827v.357c-.055 1.364-.453 2.316-1.195 2.856-.742.541-1.905.834-3.488.879v.412c-.01.147-.069.275-.179.385-.11.119-.238.16-.385.124h-.961c-.137-.019-.256-.078-.357-.179-.092-.092-.142-.211-.151-.357v-.385c-1.566-.045-2.724-.338-3.475-.879-.815-.586-1.222-1.249-1.222-1.991 0-.375.082-.632.247-.769.165-.147.467-.22.907-.22h1.428c.421 0 .714.073.879.22.165.137.252.261.261.371.009.11.123.206.343.288.138.055.348.092.632.11v-1.085c-1.566-.046-2.724-.339-3.475-.879-.76-.549-1.167-1.181-1.222-1.895zm4.065-1.003c-.183.119-.275.284-.275.495 0 .128.092.224.275.288.138.055.348.096.632.124v-1.071c-.293.027-.504.082-.632.164zm3.31 4.67c.174-.11.261-.261.261-.453-.009-.119-.101-.22-.275-.303-.137-.055-.348-.091-.631-.109v1.043c.293-.036.508-.096.645-.178z"/>
        <path fill="#fff" d="M341.3 297.1H163c-4.9 0-8.9-4-8.9-8.9v-170h196.2v170c-.1 4.9-4.1 8.9-9 8.9z"/>
        <path fill="#C3E0DC" d="M270.3 293.4H168l-6.2-2.8-3.1-7-.7-66.8 88.7-93 98.5.6v84.7l-74.9 84.3z" opacity=".23"/>
        <path fill="#354C48" d="M350.4 77.3H153.7V64.5c0-4.8 3.9-8.6 8.6-8.6h179.5c4.8 0 8.6 3.9 8.6 8.6v12.8z"/>
        <path fill="#73B267" d="M190.7 70.5c1.767 0 3.2-1.433 3.2-3.2 0-1.767-1.433-3.2-3.2-3.2-1.767 0-3.2 1.433-3.2 3.2 0 1.767 1.433 3.2 3.2 3.2z"/>
        <path fill="#FAD45C" d="M178.7 70.5c1.767 0 3.2-1.433 3.2-3.2 0-1.767-1.433-3.2-3.2-3.2-1.767 0-3.2 1.433-3.2 3.2 0 1.767 1.433 3.2 3.2 3.2z"/>
        <path fill="#F79FA8" d="M166.6 70.5c1.767 0 3.2-1.433 3.2-3.2 0-1.767-1.433-3.2-3.2-3.2-1.767 0-3.2 1.433-3.2 3.2 0 1.767 1.433 3.2 3.2 3.2z"/>
        <path fill="#DAEAD6" d="M349.8 77.3H154.7v45.5h195.1V77.3z"/>
        <path stroke="#000" stroke-linecap="round" stroke-linejoin="round" stroke-miterlimit="10" stroke-width="2" d="M341.7 297.1H162.5c-4.6 0-8.5-3.8-8.5-8.5V63.9c0-4.6 3.8-8.5 8.5-8.5h179.2c4.6 0 8.5 3.8 8.5 8.5v224.7c0 4.7-3.8 8.5-8.5 8.5z"/>
        <path stroke="#000" stroke-linecap="round" stroke-linejoin="round" stroke-miterlimit="10" stroke-width="2" d="M185.8 292.3h-19.1c-4.4 0-8.1-3.6-8.1-8.1V79.4M345.5 79.4v204.9c0 4.4-3.6 8.1-8.1 8.1H197.5"/>
        <path fill="#fff" d="M328.6 71H222.2c-2.2 0-3.9-1.8-3.9-3.9 0-2.2 1.8-3.9 3.9-3.9h106.5c2.2 0 3.9 1.8 3.9 3.9 0 2.1-1.8 3.9-4 3.9z"/>
        <path stroke="#000" stroke-linecap="round" stroke-linejoin="round" stroke-miterlimit="10" stroke-width="2" d="M328.6 71H222.2c-2.2 0-3.9-1.8-3.9-3.9 0-2.2 1.8-3.9 3.9-3.9h106.5c2.2 0 3.9 1.8 3.9 3.9 0 2.1-1.8 3.9-4 3.9zM154.1 77.9h196.1M159.3 122.7H296M301.8 122.7h43.9M166.6 70.5c1.767 0 3.2-1.433 3.2-3.2 0-1.767-1.433-3.2-3.2-3.2-1.767 0-3.2 1.433-3.2 3.2 0 1.767 1.433 3.2 3.2 3.2zM178.7 70.5c1.767 0 3.2-1.433 3.2-3.2 0-1.767-1.433-3.2-3.2-3.2-1.767 0-3.2 1.433-3.2 3.2 0 1.767 1.433 3.2 3.2 3.2zM190.7 70.5c1.767 0 3.2-1.433 3.2-3.2 0-1.767-1.433-3.2-3.2-3.2-1.767 0-3.2 1.433-3.2 3.2 0 1.767 1.433 3.2 3.2 3.2z"/>
        <path fill="#5E7C76" d="M240.9 155.8h-52.6c-1.1 0-2-.9-2-2s.9-2 2-2h52.6c1.1 0 2 .9 2 2 .1 1.1-.8 2-2 2z"/>
        <path fill="#000" d="M195.8 149.9h-17.5c-1.1 0-1.9-.9-1.9-1.9v-.2c0-1.1.9-1.9 1.9-1.9h17.5c1.1 0 1.9.9 1.9 1.9v.2c0 1-.8 1.9-1.9 1.9z"/>
        <path fill="#C3CEC0" d="M241.8 149.6h-2.3c-1.1 0-2-.9-2-2s.9-2 2-2h2.3c1.1 0 2 .9 2 2 0 1-.9 2-2 2z"/>
        <path fill="#000" d="M249.6 155.9h-2.3c-1.1 0-2-.9-2-2s.9-2 2-2h2.3c1.1 0 2 .9 2 2 .1 1.1-.9 2-2 2z"/>
        <path fill="#5E7C76" d="M240.9 231.8h-52.6c-1.1 0-2-.9-2-2s.9-2 2-2h52.6c1.1 0 2 .9 2 2 .1 1-.8 2-2 2z"/>
        <path fill="#000" d="M195.8 225.8h-17.5c-1.1 0-1.9-.9-1.9-1.9v-.2c0-1.1.9-1.9 1.9-1.9h17.5c1.1 0 1.9.9 1.9 1.9v.2c0 1-.8 1.9-1.9 1.9z"/>
        <path fill="#C3CEC0" d="M241.8 225.5h-2.3c-1.1 0-2-.9-2-2s.9-2 2-2h2.3c1.1 0 2 .9 2 2 0 1-.9 2-2 2z"/>
        <path fill="#000" d="M249.6 231.8h-2.3c-1.1 0-2-.9-2-2s.9-2 2-2h2.3c1.1 0 2 .9 2 2 .1 1.1-.9 2-2 2z"/>
        <path fill="#5E7C76" d="M230.2 192.8h-22.7c-1.1 0-2-.9-2-2s.9-2 2-2h22.7c1.1 0 2 .9 2 2s-.9 2-2 2zM208.5 187h-12.6c-1.1 0-2-.9-2-2s.9-2 2-2h12.6c1.1 0 2 .9 2 2s-.9 2-2 2z"/>
        <path fill="#000" d="M240.3 186.5h-11.6c-1.1 0-2-.9-2-2s.9-2 2-2h11.6c1.1 0 2 .9 2 2s-.9 2-2 2z"/>
        <path fill="#5E7C76" d="M251.1 192.9h-14.6c-1.1 0-2-.9-2-2s.9-2 2-2h14.6c1.1 0 2 .9 2 2 .1 1.1-.8 2-2 2z"/>
        <path fill="#C3CEC0" d="M200.3 193.1h-19.7c-1.1 0-2-.9-2-2s.9-2 2-2h19.7c1.1 0 2 .9 2 2s-.9 2-2 2z"/>
        <path fill="#5E7C76" d="M230.2 269.4h-22.7c-1.1 0-2-.9-2-2s.9-2 2-2h22.7c1.1 0 2 .9 2 2s-.9 2-2 2zM208.5 263.6h-12.6c-1.1 0-2-.9-2-2s.9-2 2-2h12.6c1.1 0 2 .9 2 2s-.9 2-2 2z"/>
        <path fill="#000" d="M240.3 263.1h-11.6c-1.1 0-2-.9-2-2s.9-2 2-2h11.6c1.1 0 2 .9 2 2s-.9 2-2 2z"/>
        <path fill="#5E7C76" d="M251.1 269.5h-14.6c-1.1 0-2-.9-2-2s.9-2 2-2h14.6c1.1 0 2 .9 2 2 .1 1.1-.8 2-2 2z"/>
        <path fill="#C3CEC0" d="M200.3 269.7h-19.7c-1.1 0-2-.9-2-2s.9-2 2-2h19.7c1.1 0 2 .9 2 2s-.9 2-2 2z"/>
        <path fill="#8AC47E" d="M250.2 103.7c-.3 1.5-1.1 2.6-2.5 3.3-.6.3-1.3.4-2 .4h-6.4c-.6 0-1 .3-1.2.8-.1.2-.1.4-.1.6 0 .6.4 1 1 1.1.6.1 1.3.2 1.9.3 1.2.2 2.3.4 3.5.6.2 0 .3.1.3.3v.4h-19.2v-.4c0-.2.1-.3.3-.3.8-.1 1.6-.3 2.4-.4 1-.2 1.9-.3 2.9-.5.4-.1.8-.3 1-.8.1-.3.1-.7 0-1-.2-.5-.6-.8-1.2-.8h-6.4c-.3 0-.6 0-.9-.1-.2 0-.3-.1-.5-.1-.8-.2-1.6-.7-2.2-1.4-.9-1.1-1.2-2.4-1-3.8.2-.9.6-1.7 1.2-2.3.4-.4.8-1 .9-1.6.1-.3.1-.5.1-.8.4-1.4 1.2-2.4 2.6-2.9.7-.3 1.3-.7 1.7-1.4.3-.6.8-1 1.4-1.4.9-.5 1.8-.7 2.8-.6.7.1 1.3-.1 1.9-.5.9-.6 1.9-.8 3.1-.6.6.1 1.2.4 1.7.7.6.3 1.2.5 1.8.4.6 0 1.1 0 1.7.1 1.1.3 2 .9 2.6 2 .3.5.7.9 1.2 1.2.2.1.4.1.6.2.1 0 .2.1.3.1 1.2.6 2 1.6 2.2 3 .1.3.1.5.1.8.2.6.5 1 .9 1.4 1.3 1.2 1.8 2.5 1.5 4z"/>
        <path fill="#73B267" d="M250.2 103.7c-.3 1.5-1.1 2.6-2.5 3.3-.6.3-1.3.4-2 .4h-6.4c-.6 0-1 .3-1.2.8-.1.2-.1.4-.1.6 0 .6.4 1 1 1.1.6.1 1.3.2 1.9.3 1.2.2 2.3.4 3.5.6.2 0 .3.1.3.3v.4h-19.2v-.4c0-.2.1-.3.3-.3.8-.1 1.6-.3 2.4-.4 1-.2 1.9-.3 2.9-.5.4-.1.8-.3 1-.8.1-.3.1-.7 0-1-.2-.5-.6-.8-1.2-.8h-6.4c-.3 0-.6 0-.9-.1-.2 0-.3-.1-.5-.1 3.7-3.3 11.8-9.7 22.5-12.6 1.2.6 2 1.6 2.2 3 .1.3.1.5.1.8.2.6.5 1 .9 1.4 1.2 1.2 1.7 2.5 1.4 4z"/>
        <path stroke="#000" stroke-linecap="round" stroke-linejoin="round" stroke-miterlimit="10" stroke-width="2" d="M244.8 111.7h-19.2v-.4c0-.2.1-.3.3-.3.8-.1 1.6-.3 2.4-.4 1-.2 1.9-.3 2.9-.5.5-.1.8-.3 1-.8.1-.3.1-.7 0-1-.2-.5-.6-.8-1.2-.8h-6.4c-.3 0-.6 0-.9-.1-1.1-.2-1.9-.7-2.6-1.5-.9-1.1-1.2-2.4-1-3.8.2-.9.6-1.7 1.2-2.3.4-.4.8-.9.9-1.6.1-.3.1-.5.1-.8.3-1.4 1.2-2.4 2.6-2.9.7-.3 1.3-.7 1.7-1.4.3-.6.8-1 1.4-1.4.9-.5 1.8-.7 2.8-.6.7.1 1.3-.1 1.9-.5.9-.6 1.9-.8 3.1-.6.6.1 1.2.4 1.7.7.5.4 1.2.5 1.8.4.6 0 1.1 0 1.7.1 1.1.3 2 .9 2.6 2 .3.5.7.9 1.2 1.2.2.1.4.1.6.2 1.4.6 2.2 1.6 2.5 3.1 0 .3.1.5.1.8.1.6.5 1 .9 1.4 1.1 1.1 1.5 2.4 1.2 3.9-.3 1.5-1.1 2.6-2.5 3.3-.6.3-1.3.4-2 .4h-6.4c-.6 0-1 .3-1.2.8-.1.2-.1.4-.1.6 0 .6.4 1 1 1.1.6.1 1.3.2 1.9.3 1.2.2 2.3.4 3.5.6.2 0 .3.1.3.3.2.2.2.4.2.5z"/>
        <path fill="#73B267" d="M261.3 104.8c1.546 0 2.8-1.254 2.8-2.8 0-1.546-1.254-2.8-2.8-2.8-1.546 0-2.8 1.254-2.8 2.8 0 1.546 1.254 2.8 2.8 2.8zM271.3 104.8c1.546 0 2.8-1.254 2.8-2.8 0-1.546-1.254-2.8-2.8-2.8-1.546 0-2.8 1.254-2.8 2.8 0 1.546 1.254 2.8 2.8 2.8zM281.4 104.8c1.546 0 2.8-1.254 2.8-2.8 0-1.546-1.254-2.8-2.8-2.8-1.546 0-2.8 1.254-2.8 2.8 0 1.546 1.254 2.8 2.8 2.8z"/>
        <path stroke="#000" stroke-linecap="round" stroke-linejoin="round" stroke-miterlimit="10" stroke-width="2" d="M261.3 104.8c1.546 0 2.8-1.254 2.8-2.8 0-1.546-1.254-2.8-2.8-2.8-1.546 0-2.8 1.254-2.8 2.8 0 1.546 1.254 2.8 2.8 2.8zM271.3 104.8c1.546 0 2.8-1.254 2.8-2.8 0-1.546-1.254-2.8-2.8-2.8-1.546 0-2.8 1.254-2.8 2.8 0 1.546 1.254 2.8 2.8 2.8zM281.4 104.8c1.546 0 2.8-1.254 2.8-2.8 0-1.546-1.254-2.8-2.8-2.8-1.546 0-2.8 1.254-2.8 2.8 0 1.546 1.254 2.8 2.8 2.8z"/>
        <path fill="#354C48" d="M272.245 145.831c0 .264-.143.396-.428.396h-1.667c-.285 0-.428-.132-.428-.396v-.737c0-1.425.713-2.137 2.138-2.137h4.617c1.417 0 2.13.712 2.137 2.137v1.176c-.007.641-.221 1.14-.641 1.496.42.356.634.855.641 1.496v1.154c-.007 1.425-.72 2.137-2.137 2.137h-4.617c-1.425 0-2.138-.712-2.138-2.137v-.737c0-.264.143-.396.428-.396h1.667c.285 0 .428.132.428.396v.235c0 .427.213.641.641.641h2.565c.427 0 .641-.214.641-.641v-.513c0-.428-.214-.641-.641-.641h-2.138c-.285 0-.427-.132-.427-.396v-1.207c0-.264.142-.396.427-.396h2.138c.427 0 .641-.214.641-.641v-.524c0-.427-.214-.641-.641-.641h-2.565c-.428 0-.641.214-.641.641v.235zm13.166 4.083v-4.318c0-.427-.214-.641-.641-.641h-2.565c-.428 0-.642.214-.642.641v4.318c0 .427.214.641.642.641h2.565c.427 0 .641-.214.641-.641zm-6.37.502v-5.322c0-1.425.713-2.137 2.138-2.137h4.616c1.418 0 2.131.712 2.138 2.137v5.322c-.007 1.425-.72 2.137-2.138 2.137h-4.616c-1.425 0-2.138-.712-2.138-2.137zm15.689-.502v-4.318c0-.427-.214-.641-.642-.641h-2.564c-.428 0-.642.214-.642.641v4.318c0 .427.214.641.642.641h2.564c.428 0 .642-.214.642-.641zm-6.37.502v-5.322c0-1.425.713-2.137 2.138-2.137h4.616c1.418 0 2.131.712 2.138 2.137v5.322c-.007 1.425-.72 2.137-2.138 2.137h-4.616c-1.425 0-2.138-.712-2.138-2.137zm11.457 1.047c0 .599-.2 1.058-.599 1.379-.292.235-.566.374-.823.417l-.481-.374c.335-.157.56-.307.674-.449-.606-.071-.909-.396-.909-.973v-.748c0-.178.114-.267.342-.267h1.56c.143 0 .221.082.236.246v.769zm6.796-1.549v-4.318c0-.427-.213-.641-.641-.641h-2.565c-.427 0-.641.214-.641.641v4.318c0 .427.214.641.641.641h2.565c.428 0 .641-.214.641-.641zm-6.369.502v-5.322c0-1.425.713-2.137 2.137-2.137h4.617c1.418 0 2.13.712 2.138 2.137v5.322c-.008 1.425-.72 2.137-2.138 2.137h-4.617c-1.424 0-2.137-.712-2.137-2.137zm15.688-.502v-4.318c0-.427-.213-.641-.641-.641h-2.565c-.427 0-.641.214-.641.641v4.318c0 .427.214.641.641.641h2.565c.428 0 .641-.214.641-.641zm-6.369.502v-5.322c0-1.425.712-2.137 2.137-2.137h4.617c1.418 0 2.13.712 2.137 2.137v5.322c-.007 1.425-.719 2.137-2.137 2.137H311.7c-1.425 0-2.137-.712-2.137-2.137zm15.688-.502v-4.318c0-.427-.213-.641-.641-.641h-2.565c-.427 0-.641.214-.641.641v4.318c0 .427.214.641.641.641h2.565c.428 0 .641-.214.641-.641zm-6.369.502v-5.322c0-1.425.712-2.137 2.137-2.137h4.617c1.418 0 2.13.712 2.137 2.137v5.322c-.007 1.425-.719 2.137-2.137 2.137h-4.617c-1.425 0-2.137-.712-2.137-2.137zM272.245 183.631c0 .264-.143.396-.428.396h-1.667c-.285 0-.428-.132-.428-.396v-.737c0-1.425.713-2.138 2.138-2.138h4.617c1.417 0 2.13.713 2.137 2.138v1.175c-.007.642-.221 1.14-.641 1.497.42.356.634.855.641 1.496v1.154c-.007 1.425-.72 2.137-2.137 2.137h-4.617c-1.425 0-2.138-.712-2.138-2.137v-.737c0-.264.143-.396.428-.396h1.667c.285 0 .428.132.428.396v.235c0 .427.213.641.641.641h2.565c.427 0 .641-.214.641-.641v-.513c0-.428-.214-.642-.641-.642h-2.138c-.285 0-.427-.131-.427-.395v-1.208c0-.263.142-.395.427-.395h2.138c.427 0 .641-.214.641-.641v-.524c0-.427-.214-.641-.641-.641h-2.565c-.428 0-.641.214-.641.641v.235zm13.166 4.083v-4.318c0-.427-.214-.641-.641-.641h-2.565c-.428 0-.642.214-.642.641v4.318c0 .427.214.641.642.641h2.565c.427 0 .641-.214.641-.641zm-6.37.502v-5.322c0-1.425.713-2.138 2.138-2.138h4.616c1.418 0 2.131.713 2.138 2.138v5.322c-.007 1.425-.72 2.137-2.138 2.137h-4.616c-1.425 0-2.138-.712-2.138-2.137zm15.689-.502v-4.318c0-.427-.214-.641-.642-.641h-2.564c-.428 0-.642.214-.642.641v4.318c0 .427.214.641.642.641h2.564c.428 0 .642-.214.642-.641zm-6.37.502v-5.322c0-1.425.713-2.138 2.138-2.138h4.616c1.418 0 2.131.713 2.138 2.138v5.322c-.007 1.425-.72 2.137-2.138 2.137h-4.616c-1.425 0-2.138-.712-2.138-2.137zm11.457 1.047c0 .599-.2 1.058-.599 1.379-.292.235-.566.374-.823.417l-.481-.374c.335-.157.56-.307.674-.449-.606-.072-.909-.396-.909-.973v-.748c0-.178.114-.267.342-.267h1.56c.143 0 .221.082.236.246v.769zm6.796-1.549v-4.318c0-.427-.213-.641-.641-.641h-2.565c-.427 0-.641.214-.641.641v4.318c0 .427.214.641.641.641h2.565c.428 0 .641-.214.641-.641zm-6.369.502v-5.322c0-1.425.713-2.138 2.137-2.138h4.617c1.418 0 2.13.713 2.138 2.138v5.322c-.008 1.425-.72 2.137-2.138 2.137h-4.617c-1.424 0-2.137-.712-2.137-2.137zm15.688-.502v-4.318c0-.427-.213-.641-.641-.641h-2.565c-.427 0-.641.214-.641.641v4.318c0 .427.214.641.641.641h2.565c.428 0 .641-.214.641-.641zm-6.369.502v-5.322c0-1.425.712-2.138 2.137-2.138h4.617c1.418 0 2.13.713 2.137 2.138v5.322c-.007 1.425-.719 2.137-2.137 2.137H311.7c-1.425 0-2.137-.712-2.137-2.137zm15.688-.502v-4.318c0-.427-.213-.641-.641-.641h-2.565c-.427 0-.641.214-.641.641v4.318c0 .427.214.641.641.641h2.565c.428 0 .641-.214.641-.641zm-6.369.502v-5.322c0-1.425.712-2.138 2.137-2.138h4.617c1.418 0 2.13.713 2.137 2.138v5.322c-.007 1.425-.719 2.137-2.137 2.137h-4.617c-1.425 0-2.137-.712-2.137-2.137zM272.245 221.432c0 .264-.143.395-.428.395h-1.667c-.285 0-.428-.131-.428-.395v-.737c0-1.425.713-2.138 2.138-2.138h4.617c1.417 0 2.13.713 2.137 2.138v1.175c-.007.641-.221 1.14-.641 1.496.42.357.634.855.641 1.497v1.154c-.007 1.425-.72 2.137-2.137 2.137h-4.617c-1.425 0-2.138-.712-2.138-2.137v-.738c0-.263.143-.395.428-.395h1.667c.285 0 .428.132.428.395v.235c0 .428.213.642.641.642h2.565c.427 0 .641-.214.641-.642v-.513c0-.427-.214-.641-.641-.641h-2.138c-.285 0-.427-.132-.427-.395v-1.208c0-.263.142-.395.427-.395h2.138c.427 0 .641-.214.641-.641v-.524c0-.428-.214-.641-.641-.641h-2.565c-.428 0-.641.213-.641.641v.235zm13.166 4.082v-4.317c0-.428-.214-.641-.641-.641h-2.565c-.428 0-.642.213-.642.641v4.317c0 .428.214.642.642.642h2.565c.427 0 .641-.214.641-.642zm-6.37.503v-5.322c0-1.425.713-2.138 2.138-2.138h4.616c1.418 0 2.131.713 2.138 2.138v5.322c-.007 1.425-.72 2.137-2.138 2.137h-4.616c-1.425 0-2.138-.712-2.138-2.137zm15.689-.503v-4.317c0-.428-.214-.641-.642-.641h-2.564c-.428 0-.642.213-.642.641v4.317c0 .428.214.642.642.642h2.564c.428 0 .642-.214.642-.642zm-6.37.503v-5.322c0-1.425.713-2.138 2.138-2.138h4.616c1.418 0 2.131.713 2.138 2.138v5.322c-.007 1.425-.72 2.137-2.138 2.137h-4.616c-1.425 0-2.138-.712-2.138-2.137zm11.457 1.047c0 .598-.2 1.058-.599 1.379-.292.235-.566.374-.823.416l-.481-.374c.335-.156.56-.306.674-.449-.606-.071-.909-.395-.909-.972v-.748c0-.178.114-.267.342-.267h1.56c.143 0 .221.082.236.246v.769zm6.796-1.55v-4.317c0-.428-.213-.641-.641-.641h-2.565c-.427 0-.641.213-.641.641v4.317c0 .428.214.642.641.642h2.565c.428 0 .641-.214.641-.642zm-6.369.503v-5.322c0-1.425.713-2.138 2.137-2.138h4.617c1.418 0 2.13.713 2.138 2.138v5.322c-.008 1.425-.72 2.137-2.138 2.137h-4.617c-1.424 0-2.137-.712-2.137-2.137zm15.688-.503v-4.317c0-.428-.213-.641-.641-.641h-2.565c-.427 0-.641.213-.641.641v4.317c0 .428.214.642.641.642h2.565c.428 0 .641-.214.641-.642zm-6.369.503v-5.322c0-1.425.712-2.138 2.137-2.138h4.617c1.418 0 2.13.713 2.137 2.138v5.322c-.007 1.425-.719 2.137-2.137 2.137H311.7c-1.425 0-2.137-.712-2.137-2.137zm15.688-.503v-4.317c0-.428-.213-.641-.641-.641h-2.565c-.427 0-.641.213-.641.641v4.317c0 .428.214.642.641.642h2.565c.428 0 .641-.214.641-.642zm-6.369.503v-5.322c0-1.425.712-2.138 2.137-2.138h4.617c1.418 0 2.13.713 2.137 2.138v5.322c-.007 1.425-.719 2.137-2.137 2.137h-4.617c-1.425 0-2.137-.712-2.137-2.137zM272.245 259.232c0 .263-.143.395-.428.395h-1.667c-.285 0-.428-.132-.428-.395v-.738c0-1.424.713-2.137 2.138-2.137h4.617c1.417 0 2.13.713 2.137 2.137v1.176c-.007.641-.221 1.14-.641 1.496.42.356.634.855.641 1.496v1.154c-.007 1.425-.72 2.138-2.137 2.138h-4.617c-1.425 0-2.138-.713-2.138-2.138v-.737c0-.264.143-.395.428-.395h1.667c.285 0 .428.131.428.395v.235c0 .428.213.641.641.641h2.565c.427 0 .641-.213.641-.641v-.513c0-.427-.214-.641-.641-.641h-2.138c-.285 0-.427-.132-.427-.395v-1.208c0-.264.142-.395.427-.395h2.138c.427 0 .641-.214.641-.642v-.523c0-.428-.214-.641-.641-.641h-2.565c-.428 0-.641.213-.641.641v.235zm13.166 4.082v-4.317c0-.428-.214-.641-.641-.641h-2.565c-.428 0-.642.213-.642.641v4.317c0 .428.214.641.642.641h2.565c.427 0 .641-.213.641-.641zm-6.37.502v-5.322c0-1.424.713-2.137 2.138-2.137h4.616c1.418 0 2.131.713 2.138 2.137v5.322c-.007 1.425-.72 2.138-2.138 2.138h-4.616c-1.425 0-2.138-.713-2.138-2.138zm15.689-.502v-4.317c0-.428-.214-.641-.642-.641h-2.564c-.428 0-.642.213-.642.641v4.317c0 .428.214.641.642.641h2.564c.428 0 .642-.213.642-.641zm-6.37.502v-5.322c0-1.424.713-2.137 2.138-2.137h4.616c1.418 0 2.131.713 2.138 2.137v5.322c-.007 1.425-.72 2.138-2.138 2.138h-4.616c-1.425 0-2.138-.713-2.138-2.138zm11.457 1.048c0 .598-.2 1.058-.599 1.378-.292.236-.566.374-.823.417l-.481-.374c.335-.157.56-.306.674-.449-.606-.071-.909-.395-.909-.972v-.748c0-.178.114-.267.342-.267h1.56c.143 0 .221.081.236.245v.77zm6.796-1.55v-4.317c0-.428-.213-.641-.641-.641h-2.565c-.427 0-.641.213-.641.641v4.317c0 .428.214.641.641.641h2.565c.428 0 .641-.213.641-.641zm-6.369.502v-5.322c0-1.424.713-2.137 2.137-2.137h4.617c1.418 0 2.13.713 2.138 2.137v5.322c-.008 1.425-.72 2.138-2.138 2.138h-4.617c-1.424 0-2.137-.713-2.137-2.138zm15.688-.502v-4.317c0-.428-.213-.641-.641-.641h-2.565c-.427 0-.641.213-.641.641v4.317c0 .428.214.641.641.641h2.565c.428 0 .641-.213.641-.641zm-6.369.502v-5.322c0-1.424.712-2.137 2.137-2.137h4.617c1.418 0 2.13.713 2.137 2.137v5.322c-.007 1.425-.719 2.138-2.137 2.138H311.7c-1.425 0-2.137-.713-2.137-2.138zm15.688-.502v-4.317c0-.428-.213-.641-.641-.641h-2.565c-.427 0-.641.213-.641.641v4.317c0 .428.214.641.641.641h2.565c.428 0 .641-.213.641-.641zm-6.369.502v-5.322c0-1.424.712-2.137 2.137-2.137h4.617c1.418 0 2.13.713 2.137 2.137v5.322c-.007 1.425-.719 2.138-2.137 2.138h-4.617c-1.425 0-2.137-.713-2.137-2.138zM61 237.9l31.7 35.4 8.2-6.7-31.8-35 8.7-6.1-27.9-9 1.6 27.8 9.5-6.4zM118.3 237.3l-31.7-35.4-8.2 6.7 31.8 35-8.7 6.1 27.9 9-1.6-27.8-9.5 6.4z"/>
        <path stroke="#000" stroke-linecap="round" stroke-linejoin="round" stroke-miterlimit="10" stroke-width="2" d="M61 237.9l31.7 35.4 8.2-6.7-31.8-35 8.7-6.1-27.9-9 1.6 27.8 9.5-6.4zM118.3 237.3l-31.7-35.4-8.2 6.7 31.8 35-8.7 6.1 27.9 9-1.6-27.8-9.5 6.4z"/>
    </g>
    <defs>
        <clipPath id="clip0">
            <path fill="#fff" d="M0 0H340.2V258.1H0z" transform="translate(11 40)"/>
        </clipPath>
    </defs>
</svg>
