<svg xmlns="http://www.w3.org/2000/svg" width="166" height="155" fill="none" viewBox="0 0 166 155">
    <g clip-path="url(#clip0)">
        <g clip-path="url(#clip1)">
            <path fill="#73B267" d="M22.718 117.321c9.503 0 17.206-7.703 17.206-17.206s-7.703-17.206-17.206-17.206-17.206 7.703-17.206 17.206 7.703 17.206 17.206 17.206z"/>
            <path stroke="#000" stroke-linecap="round" stroke-linejoin="round" stroke-miterlimit="10" stroke-width="2" d="M22.718 117.321c9.503 0 17.206-7.703 17.206-17.206s-7.703-17.206-17.206-17.206-17.206 7.703-17.206 17.206 7.703 17.206 17.206 17.206z"/>
            <path fill="#FAD45C" d="M22.718 114.454c7.918 0 14.338-6.42 14.338-14.339 0-7.919-6.42-14.338-14.338-14.338-7.92 0-14.34 6.42-14.34 14.338 0 7.919 6.42 14.339 14.34 14.339z"/>
            <path fill="#DDB64A" d="M37.056 100.115c0 7.938-6.401 14.339-14.339 14.339-.973 0-1.894-.102-2.765-.256 6.606-1.28 11.573-7.118 11.573-14.083 0-6.964-4.967-12.802-11.573-14.082.922-.154 1.844-.256 2.765-.256 7.938 0 14.339 6.452 14.339 14.338z"/>
            <path stroke="#000" stroke-linecap="round" stroke-linejoin="round" stroke-miterlimit="10" stroke-width="2" d="M22.718 114.454c7.918 0 14.338-6.42 14.338-14.339 0-7.919-6.42-14.338-14.338-14.338-7.92 0-14.34 6.42-14.34 14.338 0 7.919 6.42 14.339 14.34 14.339z"/>
            <path fill="#FAD45C" d="M132.716 55.666c0-3.277-2.663-5.89-5.889-5.89h-53.77c-3.277 0-5.889 2.664-5.889 5.89v2.765h65.599v-2.765h-.051z"/>
            <path fill="#73B267" d="M132.715 58.482H67.116v15.414h65.599V58.482z"/>
            <path fill="#DAEAD6" d="M156.117 172.423c2.51-79.272-16.079-98.475-16.079-98.475H59.793s-18.589 19.203-16.08 98.475"/>
            <path fill="#BCC9B8" d="M131.383 84.496s2.151-1.024 3.073 1.383c.921 2.356 8.398 13.724 10.088 32.825l1.127 9.884s.716 3.635-2.459 4.864c0 0-.46.564-2.253.769-1.792.204-81.883 0-81.883 0s-4.2.204-4.507-4.763c-.307-4.967 1.127-10.651 1.127-10.651s3.073-21.61 9.167-32.16c0 0 1.229-2.611 2.15-2.611"/>
            <path fill="#C3CEC0" d="M156.117 172.422H43.713c-.358-11.009-.307-20.893.052-29.701h112.301c.359 8.808.41 18.64.051 29.701z"/>
            <path stroke="#000" stroke-linecap="round" stroke-linejoin="round" stroke-miterlimit="10" stroke-width="2" d="M49.5 98.374h-9.576M39.412 95.455h10.805M39.924 101.908h8.705M47.862 104.827h-8.45M140.858 134.221H58.974c-2.816 0-5.018-2.663-4.711-5.685 3.482-34.72 12.188-44.347 12.188-44.347h66.981s8.706 9.628 12.188 44.347c.307 3.073-1.895 5.685-4.762 5.685z"/>
            <path fill="#C3E0DC" d="M134.457 130.329H65.376c-2.407 0-4.25-2.202-3.995-4.763 2.92-29.291 10.293-37.434 10.293-37.434h56.535s.768.87 1.946 3.073c2.151 4.097 5.633 12.905 7.733 29.291.204 1.588.409 3.278.563 5.07.256 2.509-1.588 4.763-3.994 4.763z"/>
            <path stroke="#000" stroke-linecap="round" stroke-linejoin="round" stroke-miterlimit="10" stroke-width="2" d="M66.45 84.24l5.224 3.431M133.432 84.24l-5.274 3.431M139.321 129.253l5.326 2.971M55.492 132.582l5.019-2.561"/>
            <path fill="#788974" d="M64.198 147.689h40.097c1.689 0 3.021.768 3.021 1.69v3.584c0 .922-1.383 1.69-3.021 1.69h-46.96c-1.69 0-3.02-.768-3.02-1.69v-3.584c0-.922 1.382-1.69 3.02-1.69h3.227"/>
            <path stroke="#000" stroke-linecap="round" stroke-linejoin="round" stroke-miterlimit="10" stroke-width="2" d="M126.827 49.777h-53.77c-3.277 0-5.889 2.663-5.889 5.889v18.23h65.599v-18.23c-.051-3.226-2.714-5.89-5.94-5.89z"/>
            <path fill="#fff" d="M90.314 61.401c.359 0 .615.051.768.205.154.154.256.358.359.666l2.406 6.862c.103.256.154.46.154.614 0 .256-.051.461-.205.615-.153.153-.358.205-.665.205h-.769c-.307 0-.512-.052-.665-.205-.154-.154-.256-.308-.308-.615l-.256-.768h-2.816l-.256.768c-.103.256-.205.461-.307.615-.154.153-.359.205-.666.205h-.768c-.307 0-.512-.052-.666-.205-.154-.103-.205-.308-.205-.615.051-.205.103-.41.205-.614l2.407-6.862c.102-.308.205-.564.358-.666.154-.154.41-.205.769-.205h1.126zm-.614 3.534l-.564 1.638h1.178l-.614-1.638zM96.101 61.401h6.555c.307 0 .563.051.666.205.102.154.204.358.204.666v1.024c0 .307-.051.512-.204.666-.103.153-.359.204-.666.204h-1.793v5.582c0 .256-.051.461-.204.615-.154.102-.359.205-.666.205h-1.075c-.308 0-.513-.052-.666-.205-.154-.154-.205-.308-.205-.615v-5.582h-1.946c-.307 0-.563-.05-.666-.204-.102-.154-.204-.359-.204-.666v-.922c0-.358.05-.614.204-.768.154-.154.359-.205.666-.205zM113.256 62.272v7.425c0 .256-.051.46-.205.614-.154.103-.359.205-.666.205h-.512c-.307 0-.512-.05-.666-.205-.153-.153-.204-.307-.204-.614v-2.919l-.666 2.868c-.051.307-.154.563-.307.665-.154.154-.41.205-.769.205h-.409c-.359 0-.615-.05-.768-.205-.154-.153-.256-.358-.308-.665l-.665-2.817v2.92c0 .255-.052.46-.205.614-.154.153-.359.205-.666.205h-.512c-.307 0-.512-.052-.666-.205-.153-.154-.205-.308-.205-.615v-7.476c0-.308.052-.564.205-.666.154-.102.359-.205.666-.205h1.127c.307 0 .512.051.665.205.154.154.256.307.308.614l1.229 5.224 1.229-5.224c.051-.256.153-.46.307-.614.153-.154.358-.205.666-.205h1.126c.307 0 .512.051.615.205.205.154.256.358.256.666z"/>
            <path stroke="#000" stroke-miterlimit="10" stroke-width="4" d="M16.675 98.374c0 .256-.154.359-.41.359H14.73c-.256 0-.41-.103-.41-.359v-.665c0-1.332.666-1.998 1.998-1.998h4.301c1.332 0 1.997.666 1.997 1.998v1.843c0 1.332-.665 1.997-1.997 1.997H17.29c-.41 0-.615.205-.615.615v.461c0 .153.051.204.205.204h5.326c.256 0 .41.103.41.359v1.127c0 .256-.154.358-.41.358h-7.477c-.256 0-.41-.102-.41-.358v-2.612c0-1.332.666-1.997 1.998-1.997h3.328c.41 0 .615-.205.615-.615v-.921c0-.41-.205-.615-.615-.615H17.29c-.41 0-.615.205-.615.614v.205zM30.757 104.263c0 .256-.153.359-.41.359h-1.536c-.256 0-.41-.103-.41-.359v-1.485c0-.153-.05-.205-.204-.205h-3.738c-.256 0-.41-.102-.41-.358v-1.741c0-.154.051-.256.154-.359l3.328-4.096c.154-.205.359-.308.615-.308h2.253c.256 0 .41.103.41.359v4.455c0 .154.05.205.204.205h.973c.256 0 .41.102.41.358v1.127c0 .256-.154.358-.41.358h-.973c-.153 0-.205.052-.205.205v1.485h-.05zm-2.509-6.094l-1.895 2.356c-.102.102-.102.205.051.205h1.742c.153 0 .204-.051.204-.205v-2.253c.052-.154 0-.205-.102-.103z"/>
            <path fill="#fff" d="M16.675 98.374c0 .256-.154.359-.41.359H14.73c-.256 0-.41-.103-.41-.359v-.665c0-1.332.666-1.998 1.998-1.998h4.301c1.332 0 1.997.666 1.997 1.998v1.843c0 1.332-.665 1.997-1.997 1.997H17.29c-.41 0-.615.205-.615.615v.461c0 .153.051.204.205.204h5.326c.256 0 .41.103.41.359v1.127c0 .256-.154.358-.41.358h-7.477c-.256 0-.41-.102-.41-.358v-2.612c0-1.332.666-1.997 1.998-1.997h3.328c.41 0 .615-.205.615-.615v-.921c0-.41-.205-.615-.615-.615H17.29c-.41 0-.615.205-.615.614v.205zM30.757 104.263c0 .256-.153.359-.41.359h-1.536c-.256 0-.41-.103-.41-.359v-1.485c0-.153-.05-.205-.204-.205h-3.738c-.256 0-.41-.102-.41-.358v-1.741c0-.154.051-.256.154-.359l3.328-4.096c.154-.205.359-.308.615-.308h2.253c.256 0 .41.103.41.359v4.455c0 .154.05.205.204.205h.973c.256 0 .41.102.41.358v1.127c0 .256-.154.358-.41.358h-.973c-.153 0-.205.052-.205.205v1.485h-.05zm-2.509-6.094l-1.895 2.356c-.102.102-.102.205.051.205h1.742c.153 0 .204-.051.204-.205v-2.253c.052-.154 0-.205-.102-.103z"/>
            <path fill="#FAD45C" d="M38.183 41.89c4.157 0 7.528-3.37 7.528-7.527s-3.37-7.528-7.528-7.528c-4.157 0-7.528 3.37-7.528 7.528 0 4.157 3.37 7.528 7.528 7.528z"/>
            <path stroke="#000" stroke-linecap="round" stroke-linejoin="round" stroke-miterlimit="10" stroke-width="2" d="M38.183 41.89c4.157 0 7.528-3.37 7.528-7.527s-3.37-7.528-7.528-7.528c-4.157 0-7.528 3.37-7.528 7.528 0 4.157 3.37 7.528 7.528 7.528z"/>
            <path fill="#fff" d="M175.321 43.785c-2.202-2.048-4.762-2.56-7.681-1.997-2.049.41-3.892 1.536-5.736 4.455-4.506.154-6.299 2.714-6.299 5.684s1.895 4.814 4.404 5.224c2.1.358 4.865-.41 5.633-.768.82.717 3.124 1.69 5.736 1.587 3.38-.153 4.711-1.792 4.967-1.895 4.763 1.025 7.989-2.253 8.194-5.786.102-2.56-2.407-7.118-9.218-6.504z"/>
            <path stroke="#000" stroke-linecap="round" stroke-linejoin="round" stroke-miterlimit="10" stroke-width="2" d="M175.321 43.785c-2.202-2.048-4.762-2.56-7.681-1.997-2.049.41-3.892 1.536-5.736 4.455-4.506.154-6.299 2.714-6.299 5.684s1.895 4.814 4.404 5.224c2.1.358 4.865-.41 5.633-.768.82.717 3.124 1.69 5.736 1.587 3.38-.153 4.711-1.792 4.967-1.895 4.763 1.025 7.989-2.253 8.194-5.786.102-2.56-2.407-7.118-9.218-6.504zM142.544 154.436c1.999-2.001 2.014-5.227.033-7.206-1.981-1.979-5.208-1.961-7.207.04-1.999 2-2.013 5.227-.032 7.206 1.981 1.979 5.207 1.961 7.206-.04z"/>
            <path fill="#EFEFEF" stroke="#000" stroke-linecap="round" stroke-linejoin="round" stroke-miterlimit="10" stroke-width="2" d="M142.544 154.436c1.999-2.001 2.014-5.227.033-7.206-1.981-1.979-5.208-1.961-7.207.04-1.999 2-2.013 5.227-.032 7.206 1.981 1.979 5.207 1.961 7.206-.04z"/>
            <path fill="#788974" d="M140.842 152.735c1.039-1.041 1.038-2.727-.002-3.766-1.041-1.04-2.727-1.039-3.766.001-1.04 1.041-1.039 2.727.001 3.767 1.041 1.039 2.727 1.038 3.767-.002z"/>
            <path stroke="#000" stroke-linecap="round" stroke-linejoin="round" stroke-miterlimit="10" stroke-width="2" d="M140.842 152.735c1.039-1.041 1.038-2.727-.002-3.766-1.041-1.04-2.727-1.039-3.766.001-1.04 1.041-1.039 2.727.001 3.767 1.041 1.039 2.727 1.038 3.767-.002z"/>
            <path fill="#fff" d="M138.348 150.915c.481 0 .871-.367.871-.82 0-.452-.39-.819-.871-.819s-.87.367-.87.819c0 .453.389.82.87.82z"/>
            <path stroke="#000" stroke-linecap="round" stroke-linejoin="round" stroke-miterlimit="10" stroke-width="2" d="M52.93 87.006c-5.018 13.519-10.65 39.277-9.217 85.365M155.196 128.69c-3.738-43.067-15.107-54.794-15.107-54.794H59.793s-1.843 1.895-4.25 6.965M156.118 172.423c.461-14.032.256-26.168-.41-36.666"/>
            <path fill="#DFF4F0" d="M127.082 88.132l-14.901 42.197h-11.215l14.902-42.197h11.214zM137.887 120.497l-3.482 9.832h-18.077l13.827-39.124c2.15 4.148 5.633 12.905 7.732 29.292zM80.687 88.132L65.785 130.33h-.41c-2.406 0-4.25-2.202-3.994-4.763 2.92-29.291 10.293-37.434 10.293-37.434h9.013z"/>
            <path stroke="#000" stroke-linecap="round" stroke-linejoin="round" stroke-miterlimit="10" stroke-width="2" d="M134.457 130.329H65.376c-2.407 0-4.25-2.202-3.995-4.763 2.92-29.291 10.293-37.434 10.293-37.434h56.484s7.374 8.143 10.293 37.434c.256 2.509-1.588 4.763-3.994 4.763z"/>
            <path stroke="#87AAA4" stroke-linecap="round" stroke-linejoin="round" stroke-miterlimit="10" stroke-width="2" d="M64.863 128.895h70.669"/>
            <path stroke="#fff" stroke-linecap="round" stroke-linejoin="round" stroke-miterlimit="10" stroke-width="2" d="M127.184 89.925H72.8s-6.81 8.245-9.627 36.256"/>
            <path stroke="#000" stroke-linecap="round" stroke-linejoin="round" stroke-miterlimit="10" stroke-width="2" d="M64.198 147.689h40.097c1.689 0 3.021.768 3.021 1.69v3.584c0 .922-1.383 1.69-3.021 1.69h-46.96c-1.69 0-3.02-.768-3.02-1.69v-3.584c0-.922 1.382-1.69 3.02-1.69h3.227"/>
            <path fill="#FAD45C" d="M164.26 46.192c-3.38 6.299-11.215 8.654-17.513 5.326-2.356-1.23-4.148-3.124-5.326-5.275 5.121 2.253 11.215.256 13.878-4.813 2.662-5.07 1.024-11.215-3.739-14.185 2.458-.256 5.019.205 7.374 1.485 6.35 3.328 8.706 11.163 5.326 17.462z"/>
            <path stroke="#000" stroke-linecap="round" stroke-linejoin="round" stroke-miterlimit="10" stroke-width="2" d="M164.26 46.192c-3.38 6.299-11.215 8.654-17.513 5.326-2.356-1.23-4.148-3.124-5.326-5.275 5.121 2.253 11.215.256 13.878-4.813 2.662-5.07 1.024-11.215-3.739-14.185 2.458-.256 5.019.205 7.374 1.485 6.35 3.328 8.706 11.163 5.326 17.462z"/>
            <path stroke="#fff" stroke-linecap="round" stroke-linejoin="round" stroke-miterlimit="10" stroke-width="2" d="M60.612 75.689h79.733M126.263 140.724H46.53s1.434-30.981 6.555-46.242"/>
            <path stroke="#000" stroke-linecap="round" stroke-linejoin="round" stroke-miterlimit="10" stroke-width="2" d="M42.895 19.922l-1.434 4.353M34.906 44.451l-1.383 4.353M35.008 19.512l.973 4.507M40.385 44.707l.973 4.506M28.044 23.097l3.072 3.38M45.25 42.25l3.124 3.38M23.742 29.652l4.353 1.433M48.272 37.64l4.352 1.383M23.333 37.538l4.506-.973M48.527 32.16l4.507-.972M26.917 44.502l3.431-3.072M46.07 27.296l3.38-3.073"/>
            <path fill="#fff" d="M34.803 46.5c-2.202-2.049-4.762-2.561-7.681-1.998-2.048.41-3.892 1.536-5.735 4.455-4.507.154-6.3 2.715-6.3 5.685 0 2.97 1.896 4.813 4.405 5.223 2.1.358 4.865-.41 5.633-.768.82.717 3.124 1.69 5.735 1.587 3.38-.153 4.712-1.792 4.968-1.894 4.762 1.024 7.988-2.254 8.193-5.787.102-2.56-2.407-7.118-9.218-6.504z"/>
            <path stroke="#000" stroke-linecap="round" stroke-linejoin="round" stroke-miterlimit="10" stroke-width="2" d="M34.803 46.5c-2.202-2.049-4.762-2.561-7.681-1.998-2.048.41-3.892 1.536-5.735 4.455-4.507.154-6.3 2.715-6.3 5.685 0 2.97 1.896 4.813 4.405 5.223 2.1.358 4.865-.41 5.633-.768.82.717 3.124 1.69 5.735 1.587 3.38-.153 4.712-1.792 4.968-1.894 4.762 1.024 7.988-2.254 8.193-5.787.102-2.56-2.407-7.118-9.218-6.504z"/>
            <g opacity=".72">
                <path fill="#2C5B5B" d="M78.894 104.776c0 .46-.256.717-.717.717h-2.714c-.46 0-.717-.257-.717-.717v-1.332c0-2.612 1.178-3.892 3.482-3.892h7.528c2.305 0 3.482 1.28 3.482 3.892v3.636c0 2.612-1.177 3.892-3.482 3.892h-5.838c-.717 0-1.024.41-1.024 1.178v.87c0 .256.102.41.358.41h9.372c.46 0 .717.256.717.717v2.202c0 .461-.256.717-.717.717h-13.11c-.46 0-.717-.256-.717-.717v-5.121c0-2.612 1.178-3.892 3.483-3.892h5.837c.717 0 1.024-.41 1.024-1.178v-1.792c0-.768-.358-1.178-1.024-1.178h-4.199c-.717 0-1.024.41-1.024 1.178v.41zM103.525 116.4c0 .461-.256.717-.717.717h-2.714c-.46 0-.717-.256-.717-.717v-2.919c0-.256-.102-.409-.358-.409h-6.555c-.46 0-.717-.257-.717-.717v-3.38c0-.256.103-.512.256-.768l5.787-8.04c.256-.41.614-.564 1.075-.564h3.892c.461 0 .717.257.717.717v8.757c0 .256.102.41.358.41h1.742c.46 0 .716.256.716.717v2.202c0 .461-.256.717-.716.717h-1.742c-.256 0-.358.153-.358.409v2.868h.051zm-4.353-11.932l-3.277 4.558c-.154.256-.154.358.102.358h3.073c.256 0 .358-.153.358-.409v-4.455c-.05-.205-.102-.256-.256-.052zM113.716 101.293v4.558h4.609v-4.558c0-.614.102-1.075.307-1.28.205-.256.614-.359 1.178-.359h1.741c.614 0 1.075.103 1.331.359s.359.717.359 1.331v14.595c0 .512-.103.922-.307 1.178-.205.256-.615.358-1.178.358h-1.895c-.563 0-.922-.102-1.178-.358-.256-.256-.358-.666-.358-1.178v-4.66h-4.609v4.66c0 .512-.103.922-.307 1.178-.205.256-.615.358-1.178.358h-1.895c-.563 0-.922-.102-1.178-.358-.256-.256-.358-.666-.358-1.178v-14.595c0-.614.102-1.075.307-1.28.205-.256.615-.358 1.178-.358h1.741c.614 0 1.075.102 1.331.358.256.154.359.564.359 1.229z"/>
            </g>
        </g>
    </g>
    <defs>
        <clipPath id="clip0">
            <path fill="#fff" d="M0 0H166V154.567H0z"/>
        </clipPath>
        <clipPath id="clip1">
            <path fill="#fff" d="M0 0H180V153.935H0z" transform="translate(5 19)"/>
        </clipPath>
    </defs>
</svg>
