<svg xmlns="http://www.w3.org/2000/svg" width="296" height="289" fill="none" viewBox="0 0 296 289">
    <g clip-path="url(#clip0)">
        <path fill="#fff" d="M229.24 177.41C225.07 163.63 184.8 141 184.8 141h-72.1S55.74 161.53 54 238.08c0 0 25.37 9.09 77.11 10.72 56.18 1.77 95.83-10.72 95.83-10.72"/>
        <path stroke="#000" stroke-linecap="round" stroke-linejoin="round" stroke-width="2" d="M229.24 177.41C225.07 163.63 184.8 141 184.8 141h-72.1S55.74 161.53 54 238.08"/>
        <path fill="#FCE7D2" d="M170 138.44c-8.36-3.9-6.47-11-6.47-11h-29.45s2.08 7-6.47 11c0 0 20.89 10.08 21.52 9.68.63-.4 20.87-9.68 20.87-9.68z"/>
        <path stroke="#000" stroke-linecap="round" stroke-linejoin="round" stroke-width="2" d="M170 138.44c-8.36-3.9-6.47-11-6.47-11h-29.45s2.08 7-6.47 11c0 0 21.2 10.53 21.83 10.12.63-.41 20.56-10.12 20.56-10.12z"/>
        <path fill="#6D6D6D" d="M196.49 64.84C201.18 2 149.55 9.57 149.55 9.57 126.39 5.8 111.06 19.92 102.92 34c-2 3.43-7.24 10.68-26.58 9.3.708 3.652 2.567 6.98 5.304 9.5 2.737 2.52 6.208 4.096 9.906 4.5 44.65 13 79.59-16.73 79.59-16.73s-.94 15.06 20 20.39l.21 4.49 5.14-.61z"/>
        <path fill="#FCE7D2" d="M194.62 94.97c7.136 0 12.92-6.716 12.92-15 0-8.284-5.784-15-12.92-15-7.135 0-12.92 6.716-12.92 15 0 8.284 5.785 15 12.92 15zM103.04 94.97c7.136 0 12.92-6.716 12.92-15 0-8.284-5.784-15-12.92-15-7.135 0-12.92 6.716-12.92 15 0 8.284 5.785 15 12.92 15z"/>
        <path fill="#FCE7D2" d="M192.33 71.76c0 31.64-15.24 56.82-43.56 57.29-27.39.45-43.55-25.65-43.55-57.29.013-4.157.688-8.286 2-12.23 0 0 19.17.32 31.69-2.62 11.56-2.71 32.26-16.29 32.26-16.29 3.41 14.85 11.54 17.18 20.35 20.92.604 3.372.875 6.795.81 10.22z"/>
        <path stroke="#000" stroke-linecap="round" stroke-linejoin="round" stroke-width="2" d="M146.64 72.65s10.16 12.51.36 19.73"/>
        <path fill="#000" d="M130.85 83.69c2.198 0 3.98-1.845 3.98-4.12 0-2.276-1.782-4.12-3.98-4.12s-3.98 1.844-3.98 4.12c0 2.275 1.782 4.12 3.98 4.12zM166.3 83.69c2.198 0 3.98-1.845 3.98-4.12 0-2.276-1.782-4.12-3.98-4.12s-3.98 1.844-3.98 4.12c0 2.275 1.782 4.12 3.98 4.12z"/>
        <path stroke="#000" stroke-linecap="round" stroke-linejoin="round" stroke-width="2" d="M191.15 60.55c2.73 26.12-3.21 68.53-43.27 68.53-37.64 0-44.49-44.23-41.44-68.58"/>
        <path stroke="#000" stroke-linecap="round" stroke-linejoin="round" stroke-width="2" d="M105.81 65.47s-13.63-4.77-15.51 12c-1.9 16.87 13.35 20.24 18.15 16.9M192.08 65.47s13.63-4.77 15.51 12c1.9 16.91-13.35 20.28-18.15 16.94"/>
        <path fill="#fff" d="M124.51 132.26l24.62 16.32s-13 8.22-20 15.89L112.7 141l11.81-8.74z"/>
        <path fill="#fff" d="M173 132.26l-24.63 16.32s13 8.22 20 15.89L184.8 141l-11.8-8.74z"/>
        <path stroke="#000" stroke-linecap="round" stroke-linejoin="round" stroke-width="2" d="M124.51 132.26l24.62 16.32s-13 8.22-20 15.89L112.7 141l11.81-8.74z"/>
        <path stroke="#000" stroke-linecap="round" stroke-linejoin="round" stroke-width="2" d="M173 132.26l-24.63 16.32s13 8.22 20 15.89L184.8 141l-11.8-8.74zM196.49 64.84C201.18 2 149.55 9.57 149.55 9.57 126.39 5.8 113.31 21.49 102.92 34c-2.15 2.6-5.53 8.26-16.58 8.46"/>
        <path stroke="#000" stroke-linecap="round" stroke-linejoin="round" stroke-width="2" d="M191.17 61c-21-5.33-20-20.39-20-20.39s-29.76 28.87-79.62 16.74M84.46 189.56s.7 34.05 6.57 57.82M75.54 44.7s14.71 9.1 34.46 3.14"/>
        <path fill="#3E8487" d="M139.52 157.57s7.09-6.69 19.5 0c0 0 1.42 8.57-5.5 12.75h-8.32s-6.39-5.22-5.68-12.75z"/>
        <path stroke="#000" stroke-linecap="round" stroke-linejoin="round" stroke-width="2" d="M139.52 157.57s7.09-6.69 19.5 0c0 0 1.42 8.57-5.5 12.75h-8.32s-6.39-5.22-5.68-12.75z"/>
        <path fill="#3E8487" d="M157 177.28s-1.42-7-3.52-7h-8.28s-1.66.76-3.2 7.18l-3.1 55.3 12.83 12.83 10.62-13-5.35-55.31z"/>
        <path stroke="#000" stroke-linecap="round" stroke-linejoin="round" stroke-width="2" d="M157 177.28s-1.42-7-3.52-7h-8.28s-1.66.76-3.2 7.18l-3.1 55.3 12.83 12.83 10.62-13-5.35-55.31zM160.75 66.55c1.683-1.452 3.832-2.25 6.055-2.25s4.372.798 6.055 2.25M123.72 66.55c1.683-1.452 3.832-2.25 6.055-2.25s4.372.798 6.055 2.25M163.91 99.61c2.618 3.655 4.122 7.989 4.33 12.48"/>
        <path stroke="#000" stroke-linecap="round" stroke-linejoin="round" stroke-width="2" d="M133.17 106.46c5.118 3.011 10.958 4.575 16.897 4.522 5.938-.053 11.749-1.72 16.813-4.822M135.43 100.81s-3.43 3.98-4.43 12.24M143.1 80.06s7.3-3.32 11 .33M179.55 87.47h-22.49c-1.75 0-3.07-1.87-2.76-3.91l1.27-8.23c.084-.872.475-1.686 1.103-2.296.628-.61 1.453-.976 2.327-1.034h24.26c1.81 0 3.08 2.09 2.51 4.11l-.96 6.89c-.27 1.216-.93 2.311-1.88 3.118-.949.807-2.136 1.282-3.38 1.352v0zM118 87.47h22.5c1.75 0 3.08-1.87 2.76-3.91L142 75.33c-.088-.87-.48-1.682-1.107-2.291-.628-.61-1.451-.977-2.323-1.039h-24.26c-1.81 0-3.08 2-2.51 4.06l1 6.93c.265 1.209.916 2.299 1.853 3.107.938.807 2.112 1.29 3.347 1.373v0z"/>
        <path fill="#fff" stroke="#000" stroke-linecap="round" stroke-linejoin="round" stroke-width="2" d="M179.55 87.47h-22.49c-1.75 0-3.07-1.87-2.76-3.91l1.27-8.23c.084-.872.475-1.686 1.103-2.296.628-.61 1.453-.976 2.327-1.034h24.26c1.81 0 3.08 2.09 2.51 4.11l-.96 6.89c-.27 1.216-.93 2.311-1.88 3.118-.949.807-2.136 1.282-3.38 1.352v0zM118 87.47h22.5c1.75 0 3.08-1.87 2.76-3.91L142 75.33c-.088-.87-.48-1.682-1.107-2.291-.628-.61-1.451-.977-2.323-1.039h-24.26c-1.81 0-3.08 2-2.51 4.06l1 6.93c.265 1.209.916 2.299 1.853 3.107.938.807 2.112 1.29 3.347 1.373v0z" opacity=".36"/>
        <path fill="#fff" d="M237.86 172.72h-57.27v103.1h57.27v-103.1z"/>
        <path fill="#C3E0DC" d="M210.52 273.57h-20.37l20.91-99.69h20.36l-20.9 99.69z" opacity=".23"/>
        <path fill="#fff" stroke="#000" stroke-linecap="round" stroke-linejoin="round" stroke-width="2" d="M175.52 183.36H175c-1.038 0-1.88.842-1.88 1.88v11.96c0 1.038.842 1.88 1.88 1.88h.52c1.038 0 1.88-.842 1.88-1.88v-11.96c0-1.038-.842-1.88-1.88-1.88zM242.66 183.36h-.52c-1.039 0-1.88.842-1.88 1.88v11.96c0 1.038.841 1.88 1.88 1.88h.52c1.038 0 1.88-.842 1.88-1.88v-11.96c0-1.038-.842-1.88-1.88-1.88zM175.52 202.75H175c-1.038 0-1.88.842-1.88 1.88v11.96c0 1.038.842 1.88 1.88 1.88h.52c1.038 0 1.88-.842 1.88-1.88v-11.96c0-1.038-.842-1.88-1.88-1.88z"/>
        <path fill="#C3E0DC" d="M233 167.93h-47.9c-2.042 0-4 .811-5.444 2.255s-2.256 3.403-2.256 5.445v95.8c0 2.042.812 4 2.256 5.444 1.444 1.444 3.402 2.256 5.444 2.256H233c2.043 0 4.001-.812 5.445-2.256 1.444-1.444 2.255-3.402 2.255-5.444v-95.8c0-2.042-.811-4.001-2.255-5.445s-3.402-2.255-5.445-2.255zm2.38 101.14c-.002 1.216-.487 2.382-1.347 3.242-.86.861-2.026 1.345-3.243 1.348h-43.48c-1.216-.003-2.382-.487-3.242-1.348-.861-.86-1.345-2.026-1.348-3.242V179c0-1.219.484-2.387 1.344-3.249.861-.863 2.028-1.349 3.246-1.351h8.34v1.9c0 .718.286 1.408.794 1.916s1.198.794 1.916.794h21.37c.719 0 1.408-.286 1.917-.794.508-.508.793-1.198.793-1.916v-1.9h8.34c1.219.002 2.386.488 3.247 1.351.86.862 1.343 2.03 1.343 3.249l.01 90.07z"/>
        <path stroke="#000" stroke-linecap="round" stroke-linejoin="round" stroke-width="2" d="M233 167.93h-47.9c-2.042 0-4 .811-5.444 2.255s-2.256 3.403-2.256 5.445v95.8c0 2.042.812 4 2.256 5.444 1.444 1.444 3.402 2.256 5.444 2.256H233c2.043 0 4.001-.812 5.445-2.256 1.444-1.444 2.255-3.402 2.255-5.444v-95.8c0-2.042-.811-4.001-2.255-5.445s-3.402-2.255-5.445-2.255v0zm2.38 101.14c-.002 1.216-.487 2.382-1.347 3.242-.86.861-2.026 1.345-3.243 1.348h-43.48c-1.216-.003-2.382-.487-3.242-1.348-.861-.86-1.345-2.026-1.348-3.242V179c0-1.219.484-2.387 1.344-3.249.861-.863 2.028-1.349 3.246-1.351h8.34v1.9c0 .718.286 1.408.794 1.916s1.198.794 1.916.794h21.37c.719 0 1.408-.286 1.917-.794.508-.508.793-1.198.793-1.916v-1.9h8.34c1.219.002 2.386.488 3.247 1.351.86.862 1.343 2.03 1.343 3.249l.01 90.07z"/>
        <path fill="#000" d="M211.9 173.49h-10.65c-.651 0-1.18.528-1.18 1.18 0 .651.529 1.18 1.18 1.18h10.65c.652 0 1.18-.529 1.18-1.18 0-.652-.528-1.18-1.18-1.18zM216.85 173.51h-.19c-.591 0-1.07.479-1.07 1.07v.22c0 .591.479 1.07 1.07 1.07h.19c.591 0 1.07-.479 1.07-1.07v-.22c0-.591-.479-1.07-1.07-1.07z"/>
        <path fill="#73B267" d="M209.22 215.5c7.047 0 12.76-5.726 12.76-12.79 0-7.064-5.713-12.79-12.76-12.79s-12.76 5.726-12.76 12.79c0 7.064 5.713 12.79 12.76 12.79z"/>
        <path stroke="#fff" stroke-linecap="round" stroke-linejoin="round" stroke-width="2" d="M203.2 202.98l5.11 4.99 8.27-9.72"/>
        <path stroke="#000" stroke-linecap="round" stroke-linejoin="round" stroke-width="2" d="M209.22 215.5c7.047 0 12.76-5.726 12.76-12.79 0-7.064-5.713-12.79-12.76-12.79s-12.76 5.726-12.76 12.79c0 7.064 5.713 12.79 12.76 12.79z"/>
        <path fill="#5E7C76" d="M218.86 233.38h-20.05c-.906 0-1.64.734-1.64 1.64 0 .906.734 1.64 1.64 1.64h20.05c.906 0 1.64-.734 1.64-1.64 0-.906-.734-1.64-1.64-1.64z"/>
        <path fill="#000" d="M204.82 228.53h-14.15c-.861 0-1.56.698-1.56 1.56v.16c0 .861.699 1.56 1.56 1.56h14.15c.862 0 1.56-.699 1.56-1.56v-.16c0-.862-.698-1.56-1.56-1.56z"/>
        <path fill="#C3CEC0" d="M219.52 228.29h-1.88c-.906 0-1.64.734-1.64 1.64 0 .906.734 1.64 1.64 1.64h1.88c.906 0 1.64-.734 1.64-1.64 0-.906-.734-1.64-1.64-1.64z"/>
        <path fill="#000" d="M225.86 233.46h-1.88c-.906 0-1.64.734-1.64 1.64 0 .906.734 1.64 1.64 1.64h1.88c.906 0 1.64-.734 1.64-1.64 0-.906-.734-1.64-1.64-1.64z"/>
        <path fill="#5E7C76" d="M218.86 252.82h-20.05c-.906 0-1.64.734-1.64 1.64 0 .906.734 1.64 1.64 1.64h20.05c.906 0 1.64-.734 1.64-1.64 0-.906-.734-1.64-1.64-1.64z"/>
        <path fill="#000" d="M225.96 248.25h-7.43c-.906 0-1.64.734-1.64 1.64 0 .906.734 1.64 1.64 1.64h7.43c.905 0 1.64-.734 1.64-1.64 0-.906-.735-1.64-1.64-1.64z"/>
        <path fill="#C3CEC0" d="M196.72 247.72h-1.88c-.906 0-1.64.734-1.64 1.64 0 .905.734 1.64 1.64 1.64h1.88c.906 0 1.64-.735 1.64-1.64 0-.906-.734-1.64-1.64-1.64z"/>
        <path fill="#000" d="M193.67 252.89h-1.88c-.905 0-1.64.734-1.64 1.64 0 .905.735 1.64 1.64 1.64h1.88c.906 0 1.64-.735 1.64-1.64 0-.906-.734-1.64-1.64-1.64z"/>
    </g>
    <defs>
        <clipPath id="clip0">
            <path fill="#fff" d="M0 0H192.54V272.13H0z" transform="translate(53 8)"/>
        </clipPath>
    </defs>
</svg>
