<svg xmlns="http://www.w3.org/2000/svg" width="166" height="153" fill="none" viewBox="0 0 166 153">
    <g clip-path="url(#clip0)">
        <g clip-path="url(#clip1)">
            <path fill="#3E8487" d="M53.9 139.7L3.1 42.2s-1-.5-2 1.9.6 17.6.6 17.6L43 139.4l10.9.3z"/>
            <path stroke="#000" stroke-linecap="round" stroke-linejoin="round" stroke-miterlimit="10" stroke-width="2" d="M43 139.4L2.8 64.1c-1.2-3.3-1.5-14.1-1.7-20"/>
            <path fill="#fff" d="M185.6 138.9l-83.8.6H96l-12.9.1h-5.5l-24.3.2L3.7 44.1S6.3 37 9.8 36c3.6-1 93-26.5 93-26.5s10.3 2.3 12.6 3.9c2.3 1.7 70.2 125.5 70.2 125.5z"/>
            <path fill="#C3E0DC" d="M130.6 139.7H72.2l-.5-106.9 18.4-5.2 3-3.1-2.3-8 13.9-3.2 9.1 3.3 7.6 11.7 9.2 111.4z" opacity=".23"/>
            <path fill="#90CEDD" d="M123.1 17.1c-4.4-7.7-15.5-11.9-24.9-9.3l-86.4 24c-6.1 1.7-9.9 6-10.7 11.1-.2 1.2-.2 2.5 0 3.8.2 1.6.8 3.2 1.6 4.7L50 139.7l7.4.2L9.8 50.5c-2.9-5.4-.2-11.2 5.9-12.9l9.8-2.8 2.1 4c1.7 3.2 6.1 4.9 9.7 3.8l52.1-14.8c.2-.1.4-.1.6-.2.1 0 .3-.1.4-.2 3-1.3 4.1-4.3 2.5-7.1l-2.2-3.9 9.8-2.8c6.2-1.7 13.5 1 16.4 6.1l66 119 6.2.1-66-121.7z"/>
            <path stroke="#000" stroke-linecap="round" stroke-linejoin="round" stroke-miterlimit="10" stroke-width="2" d="M152.5 71l-29.4-53.9c-4.4-7.7-15.5-11.9-24.9-9.3l-86.4 24c-6.1 1.7-9.9 6-10.7 11.1-.2 1.2-.2 2.5 0 3.8.2 1.6.8 3.2 1.6 4.7l46 86.1m138.9-2.2l-30.7-56.2M56.7 138.4L10 50.3c-2.8-5.3-.2-11.1 5.9-12.8l9.3-2.6.5-.1 2.1 4c1.7 3.1 6 4.8 9.6 3.8l51.8-14.8c.2 0 .3-.1.5-.2.1 0 .3-.1.4-.2 3-1.3 4.2-4.3 2.6-7.1l-2.2-3.9 9.8-2.7c6.1-1.7 13.5 1 16.3 6.1l48.4 85.6 16.3 29.7"/>
            <path fill="#000" d="M65.3 28.1L47.8 33c-1.1.3-2.3-.2-2.8-1.1-.5-.9 0-1.9 1-2.2l17.5-4.9c1.1-.3 2.3.2 2.8 1.1.5.9 0 1.9-1 2.2zM76.6 25.3l-.3.1c-1 .3-2.1-.2-2.6-1l-.2-.3c-.5-.8 0-1.7.9-2l.3-.1c1-.3 2.1.2 2.6 1l.2.3c.5.8.1 1.7-.9 2z"/>
            <path fill="#5E7C76" d="M78.6 66.4l-34 11.7c-1 .3-2.1-.2-2.5-1.2-.3-1 .2-2.1 1.2-2.5l34-11.7c1-.3 2.1.2 2.5 1.2.4 1-.2 2.1-1.2 2.5z"/>
            <path fill="#000" d="M45.8 71.6l-2.3.8c-1 .3-2-.2-2.4-1.1l-.1-.2c-.3-1 .2-2 1.1-2.4l2.3-.8c1-.3 2 .2 2.4 1.1l.1.2c.4 1-.1 2.1-1.1 2.4z"/>
            <path fill="#5E7C76" d="M77.4 60.4l-2.1.7c-1 .3-2.1-.2-2.5-1.2-.3-1 .2-2.1 1.2-2.5l2.1-.7c1-.3 2.1.2 2.5 1.2.4 1.1-.2 2.2-1.2 2.5z"/>
            <path fill="#C3E0DC" d="M86.5 63.7l-2.1.7c-1 .3-2.1-.2-2.5-1.2-.3-1 .2-2.1 1.2-2.5l2.1-.7c1-.3 2.1.2 2.5 1.2.4 1.1-.2 2.2-1.2 2.5z"/>
            <path fill="#5E7C76" d="M71.7 75L63 78c-1 .3-2.1-.2-2.5-1.2-.3-1 .2-2.1 1.2-2.5l8.7-3c1-.3 2.1.2 2.5 1.2.4 1.1-.2 2.2-1.2 2.5zM99.8 102.6l-20.6 7.1c-1 .3-2.1-.2-2.5-1.2-.3-1 .2-2.1 1.2-2.5l20.6-7.1c1-.3 2.1.2 2.5 1.2.4 1.1-.1 2.2-1.2 2.5zM78.4 104.1L67.1 108c-1 .3-2.1-.2-2.5-1.2-.3-1 .2-2.1 1.2-2.5l11.4-3.9c1-.3 2.1.2 2.5 1.2.3 1-.3 2.1-1.3 2.5z"/>
            <path fill="#000" d="M98.6 96.7l-2.1.7c-1 .3-2.1-.2-2.5-1.2-.3-1 .2-2.1 1.2-2.5l2.1-.7c1-.3 2.1.2 2.5 1.2.4 1-.2 2.1-1.2 2.5z"/>
            <path fill="#5E7C76" d="M107.7 100l-2.1.7c-1 .3-2.1-.2-2.5-1.2-.3-1 .2-2.1 1.2-2.5l2.1-.7c1-.3 2.1.2 2.5 1.2.4 1-.2 2.1-1.2 2.5z"/>
            <path fill="#C3E0DC" d="M72.9 112.2l-8.7 3c-1 .3-2.1-.2-2.5-1.2-.3-1 .2-2.1 1.2-2.5l8.7-3c1-.3 2.1.2 2.5 1.2.4 1-.2 2.1-1.2 2.5z"/>
            <path fill="#5E7C76" d="M110.399 130.2l-27.2 9.3h-5.5l-.1-.3c-.3-.9.2-1.9 1.1-2.2l30.5-10.4c.9-.3 1.9.2 2.2 1.1l.1.4c.3.8-.2 1.8-1.1 2.1z"/>
            <path fill="#C3E0DC" d="M85.5 132.7l-15.9 5.5c-1 .3-2.1-.2-2.5-1.2-.3-1 .2-2.1 1.2-2.5l15.9-5.5c1-.3 2.1.2 2.5 1.2.4 1.1-.2 2.2-1.2 2.5zM115.499 122.6l-6.6 2.3c-1 .3-2.1-.2-2.5-1.2-.3-1 .2-2.1 1.2-2.5l6.6-2.3c1-.3 2.1.2 2.5 1.2.3 1-.2 2.1-1.2 2.5z"/>
            <path fill="#000" d="M122 126.3l-5.9 2c-1 .3-2.1-.2-2.5-1.2-.3-1 .2-2.1 1.2-2.5l5.9-2c1-.3 2.1.2 2.5 1.2.3 1-.2 2.1-1.2 2.5z"/>
            <path fill="#5E7C76" d="M107.4 137.5l-5.5 1.9h-5.8l-.1-.3c-.3-.9.2-1.9 1.1-2.2l9-3.1c.9-.3 1.9.2 2.2 1.1l.1.4c.4.9-.1 1.9-1 2.2z"/>
            <path fill="#73B267" d="M111 63.9c5.964 0 10.8-4.835 10.8-10.8 0-5.965-4.836-10.8-10.8-10.8-5.965 0-10.8 4.835-10.8 10.8 0 5.965 4.835 10.8 10.8 10.8z"/>
            <path stroke="#000" stroke-linecap="round" stroke-linejoin="round" stroke-miterlimit="10" stroke-width="2" d="M111 63.9c5.964 0 10.8-4.835 10.8-10.8 0-5.965-4.836-10.8-10.8-10.8-5.965 0-10.8 4.835-10.8 10.8 0 5.965 4.835 10.8 10.8 10.8z"/>
            <path stroke="#fff" stroke-linecap="round" stroke-linejoin="round" stroke-miterlimit="10" stroke-width="2" d="M106.4 55.2l5.6 2.3 3.4-10.3"/>
            <path fill="#73B267" d="M129 94.2c5.964 0 10.8-4.835 10.8-10.8 0-5.965-4.836-10.8-10.8-10.8-5.965 0-10.8 4.835-10.8 10.8 0 5.965 4.835 10.8 10.8 10.8z"/>
            <path stroke="#000" stroke-linecap="round" stroke-linejoin="round" stroke-miterlimit="10" stroke-width="2" d="M129 94.2c5.964 0 10.8-4.835 10.8-10.8 0-5.965-4.836-10.8-10.8-10.8-5.965 0-10.8 4.835-10.8 10.8 0 5.965 4.835 10.8 10.8 10.8z"/>
            <path stroke="#fff" stroke-linecap="round" stroke-linejoin="round" stroke-miterlimit="10" stroke-width="2" d="M124.3 85.6l5.6 2.2 3.4-10.2"/>
            <path fill="#DB5252" d="M145.8 126.8c5.964 0 10.8-4.835 10.8-10.8 0-5.965-4.836-10.8-10.8-10.8-5.965 0-10.8 4.835-10.8 10.8 0 5.965 4.835 10.8 10.8 10.8z"/>
            <path stroke="#000" stroke-linecap="round" stroke-linejoin="round" stroke-miterlimit="10" stroke-width="2" d="M145.8 126.8c5.964 0 10.8-4.835 10.8-10.8 0-5.965-4.836-10.8-10.8-10.8-5.965 0-10.8 4.835-10.8 10.8 0 5.965 4.835 10.8 10.8 10.8z"/>
            <path stroke="#fff" stroke-linecap="round" stroke-linejoin="round" stroke-miterlimit="10" stroke-width="2" d="M141.2 118.1l9.9-3.8"/>
            <path stroke="#E2E2E2" stroke-linecap="round" stroke-linejoin="round" stroke-miterlimit="10" stroke-width="2.5" d="M178.7 137.2L113.2 21.3s-4.2-5-8.2-5c-4 0-10 2-10 2M38.4 46l53.7-15.4"/>
        </g>
    </g>
    <defs>
        <clipPath id="clip0">
            <path fill="#fff" d="M0 0H166V153H0z"/>
        </clipPath>
        <clipPath id="clip1">
            <path fill="#fff" d="M0 0H189.3V134.4H0z" transform="translate(0 6)"/>
        </clipPath>
    </defs>
</svg>
