<svg xmlns="http://www.w3.org/2000/svg" width="166" height="153" fill="none" viewBox="0 0 166 153">
    <g clip-path="url(#clip0)">
        <path fill="#BCC9B8" d="M32 40l9-5.5 3.8-1.6 4.3-1.9 78 14.1.7-4.4 6.2.9 18.9 2.7s-18.1 9-20.2 11.6L32 40z"/>
        <path fill="#DAEAD6" d="M133.1 55.2c-.1.2-.3.5-.4.6-.3.3-.5.4-.5.4-9.2 16-14.4 42.2-17.4 68.8-.8 7.1-1.4 14.2-2 21.1H36.1l-28-.5c.3-5.3 1.3-16.5 1.7-22.5 0-.6.1-1.1.1-1.7C13.6 72.8 26 47 28.9 41.6c.4-.7.6-1.1.6-1.1.3-.3 1-.4 1.6-.4H33.1c.4.1 1.3.2 2.4.3 7.4 1 46.6 6.5 64.6 8.8 14.1 1.8 26.5 3.4 29.1 3.7 3.8.6 4.3 1.6 3.9 2.3z"/>
        <path fill="#C3CEC0" d="M115.3 125.1v.1l-.3 2.3v.7c0 .3 0 .8-.1 1.4v.3c-.1 3.1-.4 8.8-.7 16.2h-.7v0H36.1l-28-.5H8c.3-5.9 1.3-17.2 1.8-22.5.6-5.7 1.3-10.9 2.1-15.5 0 0 66.8 12.7 102.7 17.4.3.1.5.1.7.1z"/>
        <path fill="#788974" d="M55.2 129.7l-37-6.7.1-7.2s-.2-2.4 3.2-1.7c3.4.7 34 6.5 34 6.5l-.3 9.1z"/>
        <path fill="#C3E0DC" d="M120 63L40.1 51s-1.6.5-2.4 1.6c-.8 1.1-7.3 18.4-11.2 40.6 0 0-1.9 6 2 6.7 3.9.7 78.8 12.7 78.8 12.7s2.3-25 12.7-49.6z"/>
        <path fill="#DFF4F0" d="M26 96s4.3-21.1 6.2-28.1c4.3-15.3 6.6-16.6 6.6-16.6l4.9.3 11.7 1.8L26 96zM107.5 112.9l-16.3-2.6 24.5-35.6-6.4 26.2-1.8 12zM68.9 106.4l-11.8-1.7 50.2-43.2 11.8 1.8-50.2 43.1z"/>
        <path fill="#BCC9B8" d="M38.9 51.4s-1.2 0-2.7 4c-1.5 4-8.7 28.6-9.7 37.8 0 0-1.7 4.8.4 6 1 .6 80.4 13.3 80.4 13.3l-.4 2.3s.5 2.3-3.1 2.2c-3.6-.1-82.7-13.9-82.7-13.9s-1.6-.3-.9-5c.7-4.7 6.6-36.8 14.2-50.8 0 0 1.2-2 3.1-1.5 1.9.5 82.3 11.4 82.3 11.4s2.2.5 1.6 2.3c-.6 1.8-1.4 3.5-1.4 3.5L40.8 51l-1.9.4z"/>
        <path fill="#73B267" d="M157.9 133.6l.3 12.1-20.5.5h-24.3v0c.4-5.5.9-11 1.5-16.6 1.2-11.3 2.7-22.6 4.7-33.2 0-.2.1-.3.1-.5.1-.4.1-.8.2-1.2 0-.1 0-.2.1-.3 3-15.6 7.1-29.3 12.6-38.4 0 0 0-.1.1-.2s.2-.3.4-.6l.5-.5c.4-.3.8-.7 1.5-1.1.9-.6 2.1-1.2 3.6-1.7.3-.1.6-.3 1-.5 1.2-.6 2.8-1.6 4.2-2.5 1.7-1 8.3-4.5 8.8-4.6 1.2-.2 1.8.1 2.3 1.3 0 0 0 .1.1.2.2.4.3 1 .4 1.7 0 0 0 .3.1 1V52.8c0 .3 0 .7.1 1v.5c0 .3 0 .6.1 1 0 .9.1 1.8.1 2.9v1.5c0 .4 0 .7.1 1.1 0 .4 0 .7.1 1.1V63.3c0 .5 0 1 .1 1.5V66c0 .5 0 .9.1 1.4v1.9c0 .5 0 .9.1 1.4v.5c0 .6 0 1.1.1 1.7 0 1.1.1 2.3.1 3.5v3.8c0 1.4.1 2.9.1 4.4 0 1.3.1 2.7.1 4.1v3.9c0 1 0 2 .1 3v1.6c.1 3.6.1 7.4.2 11.3v1.7c.7 7 .8 14.8.8 23.4z"/>
        <path fill="#8AC47E" d="M157.6 96.9c-12.8 5.3-30 29.1-37.5 49.3h-6.7c.4-5.3.9-10.8 1.4-16.2 1.4-13.4 3.2-26.8 5.8-38.9.2-.9.4-1.7.6-2.5 2.9-13 6.6-24.4 11.3-32.3l.2-.4c.2-.2.4-.5.8-.9.5-.5 1.3-1.1 2.5-1.8.8-.4 1.6-.8 2.7-1.2.4-.1.7-.4 1.1-.7.5-.5 1-1 1.5-1.1h.2c.3-.1 1.4-.7 2.6-1.4 1.6-.8 8.4-4.3 8.7-4.4 1.4-.3 2.1.1 2.6 1.6.1.4.2.9.3 1.4 0 0 0 .5.1 1.5V52.6c0 .3 0 .7.1 1v.4c.1 1.1.1 2.5.2 3.9v1.5c0 .4 0 .7.1 1.1 0 .8.1 1.6.1 2.4v.1c0 .5 0 1 .1 1.5v1.2c0 .5 0 .9.1 1.4V69c0 .5 0 .9.1 1.4.1 2.1.1 4.4.2 6.8V79.8c0 1.4.1 2.9.1 4.4 0 1.3.1 2.7.1 4.1v3.9c0 1 0 2 .1 3 .4.7.4 1.2.5 1.7z"/>
        <path stroke="#000" stroke-linecap="round" stroke-linejoin="round" stroke-miterlimit="10" stroke-width="2" d="M152.9 44.4c.2-.1.4-.1.7-.1H153.9c.6.1 1.1.6 1.4 1.1 0 .1 0 .1.1.2 0 .1.1.2.1.4v.2s.3 1.8.7 7.4v.5c0 .3 0 .6.1 1 .6 8.6 1.3 24.6 1.5 53v1.7c.1 7.1.5 27.1.5 35.8M113.4 146.2c.5-6.4 1-12.4 1.6-18 .1-1 .2-2.1.3-3.1 1.2-11.2 2.7-20.6 4.3-28.7 0-.2.1-.3.1-.5.1-.4.2-.8.2-1.2 0-.1 0-.2.1-.3.2-1.2.5-2.3.7-3.4.2-.9.4-1.7.6-2.5 4.8-21 10-30.1 12.2-33.4 0 0 0-.1.1-.1 0 0 .1-.1.1-.2.1-.1.1-.2.1-.3.1-.6-.3-1.1-.9-1.2l-32.5-4.2-64.6-8.9L33 40h-.8c-.3 0-.7.1-1 .2-.8.3-1.6.8-2.1 1.5-.1.1-.1.2-.2.3-2.1 3.4-5.9 11-9.8 26M17.8 72.9c.1-.5.2-.9.3-1.4M10.6 119.9c1.8-18.9 4.2-33.5 6.7-44.8"/>
        <path stroke="#000" stroke-linecap="round" stroke-linejoin="round" stroke-miterlimit="10" stroke-width="2" d="M113.6 81.7c2.7-9.8 5.4-16.5 7.7-21 .7-1.5-.2-3.2-1.8-3.4L37.3 45.9c-1-.1-1.9.4-2.4 1.2-4.1 7.7-10.7 24.6-14.9 53.4-.2 1.3.7 2.5 2 2.7l82.4 13.9c1.3.2 2.6-.7 2.8-2 1.6-12 3.5-21.8 5.5-29.7"/>
        <path stroke="#000" stroke-linecap="round" stroke-linejoin="round" stroke-miterlimit="10" stroke-width="2" d="M107.2 112.8l-79.3-13c-1.3-.2-2.1-1.4-1.9-2.7 3.3-20.6 7.8-35.5 11.4-44 .6-1.3 1.9-2.1 3.3-1.8l79.4 12M49.5 119.4l-29-5.4c-1.2-.2-2.2.7-2.2 1.8v6.4M153.9 44.4l-26.8-3.9M31.7 39.8l17.4-8.9 5.7.3M36.2 46.1l2.7 5.2M25.7 99.5l-4.9 2.7M107.062 134.099c.201-2.976-1.914-5.542-4.724-5.732-2.81-.19-5.251 2.068-5.453 5.044-.2 2.975 1.914 5.541 4.724 5.731 2.811.19 5.252-2.068 5.453-5.043z"/>
        <path fill="#EFEFEF" stroke="#000" stroke-linecap="round" stroke-linejoin="round" stroke-miterlimit="10" stroke-width="2" d="M107.062 134.099c.201-2.976-1.914-5.542-4.724-5.732-2.81-.19-5.251 2.068-5.453 5.044-.2 2.975 1.914 5.541 4.724 5.731 2.811.19 5.252-2.068 5.453-5.043z"/>
        <path fill="#788974" d="M104.667 133.937c.105-1.543-1.017-2.875-2.505-2.976-1.487-.1-2.778 1.069-2.882 2.612-.105 1.542 1.017 2.875 2.505 2.975 1.487.101 2.778-1.068 2.882-2.611z"/>
        <path stroke="#000" stroke-linecap="round" stroke-linejoin="round" stroke-miterlimit="10" stroke-width="2" d="M104.667 133.937c.105-1.543-1.017-2.875-2.505-2.976-1.487-.1-2.778 1.069-2.882 2.612-.105 1.542 1.017 2.875 2.505 2.975 1.487.101 2.778-1.068 2.882-2.611zM152.9 44.4l-18.1 9.3"/>
        <path fill="#fff" d="M101.3 133.9c.497 0 .9-.403.9-.9s-.403-.9-.9-.9-.9.403-.9.9.403.9.9.9z"/>
        <path stroke="#fff" stroke-linecap="round" stroke-linejoin="round" stroke-miterlimit="10" stroke-width="2" d="M136.2 58.1s-8.2 12.8-13.7 42.2M121.7 103.8s-.4 2.5-.7 5.4M18.1 83.3c-1 1.6-3.5 22.7-3.5 22.7l35.3 6.9"/>
        <path stroke="#87AAA4" stroke-linecap="round" stroke-linejoin="round" stroke-miterlimit="10" stroke-width="2" d="M31 98l74 12.1"/>
        <path stroke="#fff" stroke-linecap="round" stroke-linejoin="round" stroke-miterlimit="10" stroke-width="2" d="M116.2 65.2l-74-10.8s-1.4 0-2.4 1.8c-.9 1.8-8.2 24.2-11 40.3"/>
        <path fill="#73B267" d="M122 47.5l-67.2-9.1V21.1l67.2 9.1v17.3z"/>
        <path fill="#FAD45C" d="M127 28.8s1.4-11.9-2.6-12.5c-13.8-2.1-59.5-8.7-59.5-8.7-8.9.9-9.6 5.7-9.6 5.7l-.5 7.7 67.2 9.1 5-1.3z"/>
        <path fill="#73B267" d="M122 47.5l5-1.3V28.8l-5 1.4v17.3z"/>
        <path stroke="#000" stroke-linecap="round" stroke-linejoin="round" stroke-miterlimit="10" stroke-width="2" d="M122.2 23.6c0-2.4-1.8-4.4-4.1-4.7l-57.2-8.1-.7-.1c-2.8-.4-5.4 1.8-5.4 4.7v22.8l67.4 9.5V23.6z"/>
        <path stroke="#000" stroke-linecap="round" stroke-linejoin="round" stroke-miterlimit="10" stroke-width="2" d="M57.8 11s5.5-2.9 5.9-2.9c.4-.1.9-.1 1.3-.1l58 8.2c2.4.3 4.1 2.3 4.1 4.7V45l-4.9 2.6"/>
        <path fill="#fff" d="M76.5 37c-.4 0-.6-.1-.8-.3-.2-.1-.3-.4-.4-.7-.2-.4-.3-.6-.4-1-1.8-.2-2.6-.3-4.4-.6-.2.4-.3.5-.4.9-.1.3-.2.5-.4.6-.1.1-.4.1-.8.1-.5-.1-.7-.1-1.2-.1-.4-.1-.7-.2-.8-.3-.1-.1-.2-.3-.2-.6 0-.2.1-.4.2-.6 1.4-3 2.1-4.4 3.4-7.4.1-.3.3-.5.5-.6.1-.1.3-.1.9-.1.8.1 1.1.1 1.9.2.5.1.8.2.9.3.2.1.3.4.5.8 1.4 3.3 2.1 5 3.4 8.3.1.3.2.5.2.7 0 .3-.1.4-.2.5-.1.1-.4.1-.8.1-.4-.1-.6-.1-1.1-.2zm-4.9-4.8c.9.1 1.4.2 2.3.3-.5-1.1-.7-1.6-1.1-2.7-.5 1-.7 1.5-1.2 2.4zM85.6 38.2c-.4 0-.6-.1-.8-.3-.2-.1-.2-.3-.2-.6v-6.5c-1.2-.2-1.8-.2-3-.4-.4 0-.7-.1-.8-.3-.1-.1-.2-.4-.2-.7v-1.1c0-.5.1-.6.2-.7.1-.1.4-.1.8-.1 3.8.5 5.7.7 9.5 1.2.4 0 .7.1.8.3.1.1.2.4.2.7v1.2c0 .3-.1.5-.2.6-.1.1-.4.1-.8.1-1.1-.1-1.7-.2-2.8-.4v6.5c0 .3-.1.4-.2.5-.1.1-.4.1-.8.1-.7 0-1-.1-1.7-.1zM104 40.5c-.4 0-.6-.1-.8-.3-.2-.1-.2-.3-.2-.6v-3.3c-.2 0-.3-.1-.4-.1-.4 1.3-.6 1.9-1 3.2-.1.3-.2.5-.4.6-.1.1-.3.1-.9.1-.3 0-.4-.1-.7-.1-.5-.1-.8-.2-.9-.3-.2-.1-.3-.4-.4-.7-.4-1.3-.6-2-1-3.4h-.4v3.3c0 .3-.1.4-.2.5-.1.1-.4.1-.8.1-.3 0-.5-.1-.8-.1-.4 0-.6-.1-.8-.3-.2-.1-.2-.3-.2-.6V30c0-.3.1-.5.2-.6.1-.1.4-.1.8-.1.7.1 1 .1 1.7.2.4 0 .6.1.8.3.2.1.3.4.4.6.7 2.5 1.1 3.7 1.8 6.2.2 0 .3 0 .4.1.7-2.3 1.1-3.4 1.8-5.7.1-.3.2-.5.4-.6.1-.1.4-.1.8-.1.7.1 1 .1 1.7.2.3 0 .6.1.7.3.2.1.2.4.2.7V40c0 .3-.1.4-.2.5-.1.1-.4.1-.8.1-.4-.1-.5-.1-.8-.1z"/>
        <path stroke="#000" stroke-linecap="round" stroke-linejoin="round" stroke-miterlimit="10" stroke-width="2" d="M53.2 120.1c1.9.3 2.2.3 2.2 3.6 0 3.2-.2 6-.2 6l-35.5-6.4"/>
        <path fill="#2C5B5B" d="M40.073 75.592l.053-.347c.338-1.739 1.035-2.883 2.092-3.432 1.045-.551 2.573-.702 4.586-.453l.061-.4c.032-.208.099-.37.2-.485.1-.114.3-.149.602-.103l1.164.179c.185.028.338.117.457.266.12.148.172.31.157.486l-.07.452c1.973.361 3.381.957 4.226 1.786.916.91 1.301 1.835 1.157 2.774-.073.475-.227.789-.464.942-.235.142-.631.17-1.187.085l-1.807-.277c-.533-.082-.89-.226-1.072-.431-.18-.218-.265-.397-.256-.537.01-.141-.116-.285-.378-.432-.163-.096-.422-.183-.778-.262l-.216 1.408c1.972.361 3.38.957 4.226 1.786.845.829 1.236 1.678 1.174 2.545l-.07.452c-.333 1.715-1.022 2.843-2.065 3.382-1.043.54-2.571.685-4.584.435l-.08.522c-.04.183-.14.334-.3.451-.162.13-.333.157-.51.082l-1.217-.186c-.17-.05-.31-.148-.417-.295-.098-.134-.139-.294-.122-.481l.075-.487c-1.972-.362-3.38-.957-4.226-1.786-.917-.9-1.303-1.818-1.16-2.757.073-.475.227-.783.462-.925.237-.153.634-.187 1.19-.102l1.807.277c.533.082.889.231 1.07.449.18.206.267.379.257.52-.01.14.117.284.379.431.163.096.422.183.778.262l.21-1.373c-1.972-.362-3.38-.957-4.225-1.786-.855-.843-1.248-1.72-1.179-2.635zm5.338-.48c-.255.115-.403.306-.444.573-.025.162.073.301.292.418.163.096.421.189.775.279l.208-1.356c-.376-.022-.653.007-.831.086zm3.281 6.55c.241-.105.38-.28.418-.523.012-.152-.085-.297-.289-.435-.163-.096-.422-.184-.778-.262l-.202 1.32c.377.011.661-.022.851-.1zm10.867-4.647c-.066.429-.33.608-.793.537l-2.71-.416c-.464-.071-.663-.32-.597-.75l.183-1.198c.356-2.317 1.692-3.298 4.008-2.942l7.506 1.15c2.305.354 3.286 1.69 2.942 4.009l-.293 1.91c-.171 1.042-.643 1.8-1.415 2.274.594.683.817 1.548.67 2.592l-.289 1.876c-.366 2.315-1.702 3.296-4.008 2.942l-7.506-1.15c-2.316-.356-3.297-1.692-2.941-4.009l.183-1.199c.066-.428.33-.607.794-.536l2.71.416c.464.071.663.32.597.75l-.059.382c-.106.695.188 1.095.883 1.202l4.17.64c.695.106 1.096-.188 1.202-.883l.128-.834c.107-.695-.188-1.096-.883-1.202l-3.474-.533c-.464-.071-.663-.321-.597-.75l.301-1.963c.066-.429.33-.608.794-.537l3.475.533c.695.107 1.096-.187 1.202-.882l.13-.852c.107-.695-.187-1.095-.882-1.202l-4.17-.64c-.695-.106-1.096.188-1.202.883l-.059.382zm20.388 9.92l1.077-7.019c.106-.695-.188-1.096-.883-1.202l-4.17-.64c-.695-.106-1.096.188-1.202.883l-1.077 7.02c-.106.694.188 1.095.883 1.202l4.17.64c.695.106 1.096-.189 1.202-.883zm-10.48-.771l1.326-8.653c.356-2.316 1.692-3.297 4.008-2.942l7.507 1.151c2.304.354 3.285 1.69 2.941 4.008l-1.327 8.653c-.367 2.315-1.702 3.296-4.007 2.942l-7.507-1.151c-2.316-.355-3.297-1.691-2.942-4.008zm18.126-7.339c-.278-.043-.46-.13-.547-.262-.084-.143-.107-.342-.068-.597l.01-.07c.052-.335.138-.547.258-.636.12-.088.32-.11.598-.068l3.023.464.013-.087c.038-.172.132-.318.28-.438.161-.117.357-.158.589-.123l1.494.23c.208.031.372.127.49.288.129.162.18.33.153.504l-.013.087 2.12.325.013-.087c.026-.174.12-.32.28-.437.172-.116.362-.158.57-.126l1.495.229c.232.035.4.132.507.29.117.161.169.33.154.505l-.014.087 2.989.458c.301.046.496.13.584.25.088.12.107.348.055.684l-.01.07c-.04.254-.121.437-.245.549-.122.1-.333.126-.635.08l-2.988-.458-.08.521 1.633.25c.325.05.57.153.735.309.166.156.217.442.153.86l-.597 3.891c-.057.37-.19.623-.4.757-.199.135-.46.178-.785.129l-4.1-.63-.08.522 5.542.85c.232.035.401.132.507.291.118.16.169.328.154.504l-.781 5.09c-.04.184-.14.335-.3.453-.149.119-.339.16-.57.125l-1.686-.258c-.209-.032-.352-.102-.43-.208l-.148-.2c-.03.042-.099.103-.206.181-.095.08-.246.099-.453.055l-1.563-.24c-.292-.033-.487-.11-.587-.232-.09-.109-.169-.293-.236-.552l-5.245-.235c-.202.004-.37-.069-.5-.22-.121-.136-.159-.356-.113-.657l.102-.66c.03-.28.1-.459.207-.537.118-.077.33-.104.634-.08l1.836.085.328-2.137-3.11-.477-.591 3.857c-.029.186-.129.336-.3.452-.161.118-.346.16-.554.129l-1.703-.261c-.231-.036-.406-.134-.524-.294-.106-.159-.15-.331-.134-.519l.781-5.09c.038-.172.132-.318.28-.438.16-.117.357-.158.588-.123l5.56.853.08-.521-4.065-.624c-.371-.057-.632-.174-.782-.351-.138-.187-.178-.466-.121-.837l.605-3.944c.058-.382.179-.624.36-.727.184-.114.461-.143.832-.086l1.615.248.08-.521-3.023-.464zm3.301 2.712l-.077.503 1.859.285.077-.503-1.859-.285zm-.33 2.154l-.078.504 1.86.285.077-.504-1.86-.285zm7.186-.587l.077-.504-1.86-.285-.077.504 1.86.285zm-.331 2.154l.077-.504-1.859-.285-.077.504 1.859.285zm.625 4.275l-3.11-.477-.072.47 1.546.236c.22.034.374.111.463.231.09.109.159.315.207.619l.438 2.361.528-3.44zm-4.422-9.783l-.08.521 2.12.325.08-.521-2.12-.325z" opacity=".72"/>
        <path stroke="#000" stroke-linecap="round" stroke-linejoin="round" stroke-miterlimit="10" stroke-width="2" d="M8 145.6s.6-9.6 1.4-17.6"/>
    </g>
    <defs>
        <clipPath id="clip0">
            <path fill="#fff" d="M0 0H152.2V140.2H0z" transform="translate(7 7)"/>
        </clipPath>
    </defs>
</svg>
