<svg xmlns="http://www.w3.org/2000/svg" width="166" height="155" fill="none" viewBox="0 0 166 155">
    <path fill="#3E8487" d="M74.266 47.194L73.99 31.05s0-1.51-5.945 2.378c-5.945 3.887-32.102 17.743-32.102 17.743s-1.51 1.418-3.018 1.326c-1.51-.091-26.981-9.237-26.981-9.237l-.778 1.6.458 15.503s.32 2.058 2.15 2.79c1.828.73 24.648 8.46 24.648 8.46S71.75 50.348 71.43 50.623c-.274.274 2.927-1.601 2.927-2.15.046-.595-.091-1.28-.091-1.28z"/>
    <path fill="#90CEDD" d="M73.442 30.502L55.15 40.562 33.657 52.408c-.366.228-.823.228-1.234.091l-7.82-2.652-18.064-6.174c-1.28-.457-1.463-2.195-.228-2.835l39.785-21.905c.366-.228.823-.274 1.235-.091l25.883 8.826c1.28.457 1.417 2.195.228 2.835z"/>
    <g fill="#3E8487" opacity=".4">
        <path d="M44.724 27.53c-.183-.138-.411-.23-.64-.275-.183-.046-.412-.091-.595-.091-.228 0-.411.091-.64.091-.137 0-.228 0-.32.046-.091.046-.183.091-.274.183-.183.091-.366.228-.458.411-.091.183-.091.366-.137.549 0 .091-.045.229-.045.32v.137c0 .092-.046.137-.046.229 0 .046.046.091.091.091.046.275.32.64.686.824 0 .045.046.045.092.045.137.183.274.366.457.503.229.183.457.366.64.55.137.136.275.273.458.41.182.092.411.184.64.23.183.045.366.045.548.045.046 0 .046.046.092.046l.046.046.045.045.046.046.046.046v.137c.046.046.091.091.183.091.045 0 .091 0 .091-.045 0-.046-.045-.138-.091-.183-.046-.046-.092-.138-.183-.183-.046-.046-.092-.092-.137-.092.183-.045.32-.183 0-.366-.138-.091-.32 0-.138.138h.046c-.045 0-.045.045-.091.045.091-.045 0-.045-.046-.045-.183 0-.457-.046-.732-.137-.182-.046-.32-.138-.411-.23-.137-.136-.229-.228-.412-.365-.32-.274-.594-.503-.823-.777.274 0 .412-.23.595-.275.182-.091.457-.046.685 0 .275 0 .504.046.778.092.091 0 .183 0 .229-.046l.045-.046c.046-.046.092 0 .138 0 .137.046.182 0 .274 0-.046.046-.092.137-.137.229 0 .091-.046.183 0 .274.045.092.183.183.274.183.183 0 .091-.183-.046-.183v-.091c0-.046 0-.092.046-.137 0-.046.046-.092.091-.092l.046-.046h.092c.045 0 .091.046.137.046h.046c0 .046 0 .046.045.092 0 .045.046.137.046.182 0 .092-.046.138-.046.23 0 .09-.045.136-.045.228v.091c-.092 0-.138.092 0 .183l.045.046c.046.046.138.046.138 0 .091-.046.045-.137.091-.229 0-.091.046-.183.046-.274 0-.092.045-.183.045-.274 0-.046-.045-.092-.045-.138 0-.045-.046-.091-.046-.137-.091-.091-.229-.183-.366-.183-.091-.046-.228-.046-.32-.046 0 0 .046 0 .046-.045.228-.183.503-.412.366-.778-.092-.32-.55-.594-.824-.869-.137-.228-.274-.365-.457-.503zM49.023 37.407h-.046c-.092-.046-.183.046-.137.092-.092.045-.23.045-.32.045-.138.046-.366.046-.55-.045-.136-.046-.274-.138-.457-.229-.182-.046-.274 0-.411.046-.275.091-.32-.366-.275-.458 0-.091.092-.182.046-.274l-.183-.183c-.091-.091-.183-.183-.32-.229-.046-.045-.091-.045-.137-.045-.046 0-.046 0-.091.045-.092.046.045.183.137.183.091.046.137.092.228.183 0 0 .046.046.046 0 0 0-.046.046-.046.092-.045.091-.045.183-.045.228 0 .183.045.412.32.55.137.09.274.09.366.09.091 0 .182-.09.274-.045.137.046.229.137.366.183.183.045.32.091.503.091s.32-.045.457-.045c.137-.046.275-.046.32-.183.137 0 .046-.092-.045-.092zM36.767 33.337c-.274-.137-.64-.274-.915-.274-.32 0-.594.045-.868.091-.32.046-.686.137-.96.275-.504.274-.55.868-.595 1.371 0 .275.091.595.183.87.045.136.137.32.228.457.137.183.275.274.458.411v.046c0 .046.045.046.045.046.046 0 .046.045.092.045h.183-.046.091c.092 0 .138.046.183 0 0 0 .046 0 .046-.045v-.046c.046 0 .091 0 .091-.046.046-.137.046-.32.046-.457s0-.32.046-.457c.046-.138.091-.275.137-.366.046-.137.092-.32.275-.412.274-.183.731-.045 1.097-.091.183 0 .274 0 .457.045.092.046.229.046.366.092 0 .046.137.137.183.137h.046c.046-.046.091-.046.091-.091 0 0 0-.046.046-.046.046-.046.046-.046.091-.046l.046-.045c.046-.092-.045-.23-.091-.366-.092-.183-.183-.366-.32-.55-.138-.136-.412-.365-.732-.548zM37.498 40.517c-.137.091.092.274.229.183.137-.092-.091-.275-.229-.183z" opacity=".4"/>
        <path d="M50.715 32.01c-.732-.41-1.51-.822-2.287-.914-.366-.045-.686-.045-1.006 0-.32.046-.686.046-.869.229-.274.183-.503.412-.686.686-.091.137-.183.229-.274.366-.046.091-.183.228-.138.366.092.137.32.137.275 0 0 0 .046-.092.091-.138.046-.045.092-.137.092-.182.091-.092.137-.183.229-.275.137-.229.32-.412.548-.549.092-.091.183-.137.32-.183.138-.045.32-.045.458-.091.274-.046.594-.046.914-.046.32 0 .686.092 1.006.229.366.137.686.32 1.052.503.32.183.686.366 1.006.594.137.092.32.23.457.32.183.138.32.23.458.366.274.275.503.55.64.87.046.136.137.274.183.41 0 .047 0 .138-.046.184v.091c-.046 0-.046.046-.046.046-.32-.183-.64-.366-.914-.549-.503-.32-.96-.64-1.418-.96-.183-.137-.411-.275-.64-.366-.183-.046-.366-.092-.549-.092-.457-.09-.686.046-.823.32-.046-.045-.091-.045-.137-.09-.229-.092-.457-.138-.64-.138-.092 0-.183.046-.229.091-.137-.091-.274-.182-.457-.228-.366-.092-.778-.092-1.143-.092-.458.046-.824.138-1.098.32-.274.23-.549.504-.686.824v.045h-.091c-.138.092-.23.138-.275.275-.046.137-.091.228-.091.365 0 .23.137.458.365.687-.182 0-.32 0-.502.045-.092 0-.183.046-.275.092-.046-.046-.137-.046-.183-.046-.045 0-.045.046-.091.046 0-.092 0-.229-.092-.32-.091-.138-.274-.32-.503-.366-.091-.046-.183-.046-.274-.046 0-.183-.092-.412-.274-.595-.23-.228-.458-.502-.824-.685-.32-.183-.686-.366-1.051-.458-.366-.091-.686-.091-1.007-.091-.32 0-.64.045-.868.183-.183.137-.275.411-.366.64-.092.229-.092.503-.046.777.046.32.229.64.366.915 0 0 0 .046.046.046l-.138-.138c-.091-.091-.228-.274-.411-.32-.183-.045-.229.138-.046.183.046 0 .137.092.183.138l.183.182.32.32c.229.23.503.458.64.732.092.229.138.458.092.64 0 .092 0 .23-.046.32 0 .046-.046.092-.091.138 0 0-.046.091-.092.091h-.046c-.365-.137-.731-.183-1.097-.274-.229-.046-.457-.046-.64-.092-.229-.045-.458-.091-.686-.091-.229 0-.412-.046-.595 0-.183-.092-.32-.229-.411-.366-.092-.091-.138-.137-.183-.229-.046-.045-.092-.091-.092-.137 0-.045 0-.091-.045-.137-.092-.046-.183-.046-.23 0-.09.137.184.412.321.549.137.137.229.228.366.32-.092 0-.229.046-.32.046-.412.091-.823.274-1.235.411-.229.046-.366.183-.549.275-.183.137-.366.228-.503.365-.137.092-.274.229-.366.366h-.045c-.275-.091-.595-.228-.87-.32-.09-.046-.228-.091-.32-.137-.045 0-.137-.046-.228-.092 0-.045 0-.091-.046-.091-.046-.046-.137-.046-.228 0h-.046c-.046.046-.046.091 0 .137.091.092.229.137.366.229l.411.137h.046-.046c-.183.137-.183.32-.228.503-.046.229-.137.412-.137.64-.046.183 0 .412.045.64.046.23.046.412.092.64.045.23.183.458.366.687.182.228.32.457.503.686.365.411.823.777 1.326 1.143.274.183.64.32.914.503.32.137.595.274.915.366.32.091.64.274.96.32.183.046.32.046.458.091.137.046.32.092.457.138 1.28.274 2.515 0 3.384-.412.274-.137.503-.274.777-.412.137-.045.229-.137.366-.183l.046.046c.137.092.274.229.366.32.091.092.228.183.365.275.183.091.366 0 .458-.046.091-.046.229-.091.32-.229.046-.045.046-.137-.046-.228-.045-.046-.137-.138-.228-.183-.092-.092-.23-.183-.366-.229-.046-.046-.138-.046-.183-.046h-.046s-.046-.045-.091-.045c.091-.092.182-.229.32-.32.091-.138.274-.23.228-.412 0 0 0-.046-.045-.046 0-.045-.046-.091-.138-.137-.182-.046-.411-.137-.594-.183-.183-.046-.412-.091-.549-.183h-.045c.182-.183.274-.411.365-.686.092-.274-.045-.594-.183-.914-.045-.138-.137-.275-.182-.458h.09c.138 0 .23.046.367.046.274.046.503.092.777.137.275.046.503.092.778.137.182.046.365.046.594.092l.046.046c.046.137.046.32.046.457 0 .091 0 .183.045.274.046.092.137.183.092.275 0 .045.045.091.091.091.137.092.275.092.412.137.183.046.32.092.503.138.32.091.64.137.96.182.686.046 1.28-.045 1.83-.182.548-.138 1.143-.275 1.646-.412.548-.183 1.097-.366 1.6-.594.503-.23.915-.55 1.372-.778.457-.229.823-.503 1.28-.777.183-.092.366-.229.458-.412.137-.137.274-.32.366-.457.091-.183.045-.366 0-.549-.092-.229-.229-.412-.458-.595l-.365-.365c-.138-.092-.275-.229-.458-.32-.32-.183-.686-.366-1.052-.504-.32-.137-.64-.32-.96-.411-.137-.046-.274-.092-.411-.092-.046-.045-.092-.045-.138-.045h-.091c-.046 0-.092-.046-.183-.046s-.137-.046-.229-.046h-.183c-.045 0-.091.046-.091.092v.045c-.229 0-.457.138-.549.23-.137.09-.228.273-.274.41-.046.138-.092.32-.092.504 0 .32.183.64.32 1.006.092.183.183.411.275.594.091.183.183.412.183.595s-.092.274-.137.411c-.046.183-.23.275-.412.366l-.686.137c-.229.046-.457.046-.686.046-.229.046-.457 0-.686-.046-.274-.045-.594 0-.869 0-.274 0-.594 0-.914-.045-.275 0-.55 0-.824-.046-.274-.046-.503-.046-.64.046-.137.137-.137.32-.137.457-.137-.046-.32-.046-.457-.046-.229-.045-.503-.091-.732-.091l-.823-.137c-.137 0-.32-.046-.457-.046-.092 0-.138-.046-.229-.046-.046-.137-.091-.228-.183-.366-.183-.32-.366-.594-.686-.914h.229c.137 0 .274-.046.457-.046.275 0 .549 0 .823.046.549.091 1.144.183 1.692.183.183 0 .229-.092.183-.229-.046-.183-.183-.366-.183-.549-.045-.457-.137-.869-.32-1.326-.091-.229-.137-.412-.183-.64 0-.137 0-.229.046-.32 0-.046.046-.092.091-.092h.046c.275-.091.549-.183.915-.183h.228c.046.046.092.046.138.092.137.091.274.183.411.32.183.137.137.32.32.411.229.138.458 0 .595-.091.228-.137.274-.366.503-.549.091-.091.228-.091.411 0 .138.092.275.137.458.183.274.046.411-.046.457-.183.091-.228.137-.503.229-.731.045-.138.091-.275.182-.366.046-.046.138-.046.23-.092h.09c.046 0 .046.046.092.046h.457c.092 0 .138 0 .229-.046H50.12c.046.046.091.046.137.046h.046c.32.091.64.274.915.412.411.228.823.503 1.234.731.412.229.823.412 1.28.549.23.046.412.091.595.091s.366.046.457 0c.046 0 .046-.091 0-.137-.045-.045-.137-.137-.228-.183-.137-.091-.275 0-.137.138h.045c-.137 0-.274 0-.411-.046-.183-.046-.366-.046-.549-.137-.457-.138-.869-.412-1.28-.64-.686-.412-1.464-.96-2.287-1.098h-.321c-.136 0-.228 0-.365.046-.091 0-.183 0-.274.045l-.046-.045s0-.046-.046-.046c0-.046-.045-.046-.045-.092 0-.045-.046-.045-.046-.091s0-.046-.046-.092c-.046-.091-.046-.182-.137-.274.091-.046-.046-.183-.137-.183-.137-.091-.275-.183-.366-.32 0 0-.046-.046-.092-.046l.046-.045h.229c.137.045.274.091.411.182 0 .046.046.046.092.046.091.092.183.138.228.229.046.046.046.091.092.137 0 0 0 .046.046.046 0 .046 0 .046-.046.091-.092.046.091.229.229.183.274-.091 0-.457-.23-.686-.045-.045-.09-.045-.09-.091.09-.183.228-.366.594-.275.274.046.503.046.777.23.32.182.55.41.87.594.32.182.594.411.914.594.594.366 1.189.732 1.829 1.006.32.137.96.457 1.143.275.046-.046 0-.092-.045-.138-.092-.091-.183-.091-.275-.045 0 0-.046 0-.046.045-.091 0-.274-.091-.365-.091-.275-.092-.503-.229-.732-.366-.092-.046-.183-.091-.32-.183h.046c.045-.046 0-.091.045-.137 0-.046.046-.092.046-.137 0-.138-.046-.229-.091-.366-.092-.137-.092-.275-.183-.412-.092-.137-.183-.274-.32-.411-.686-.64-1.464-1.144-2.195-1.555zm-7.729 12.12s.046 0 0 0c.046 0 .046 0 0 0 .046 0 .046 0 0 0 .046.045.046.045 0 0 .046.045 0 .045 0 .045h-.046c-.045.046-.091.046-.137.092-.046.045-.091.045-.137.091 0 0-.046 0-.046.046-.045-.046-.091-.046-.137-.092-.046-.045-.091-.091-.183-.137-.137-.091-.228-.183-.366-.274h-.045c.091-.046.137-.092.228-.138 0 0 0 .046.046.046.091.046.183.092.274.092h.092c.045 0 .091.045.137.045.091.046.183.092.274.183.046-.045.046 0 .046 0zm-.594-1.373c0 .046.045.092.137.138-.046.091-.137.137-.183.228-.137.138-.229.275-.366.366-.183.137-.411.229-.594.366-.183.137-.458.229-.64.32-.732.457-1.693.732-2.836.686-.274 0-.594-.091-.915-.137-.137-.046-.228-.092-.365-.092-.138-.045-.275-.045-.458-.091-.32-.091-.594-.229-.914-.32-.32-.092-.595-.229-.87-.366-.273-.137-.548-.274-.822-.457-.229-.183-.458-.32-.686-.503-.412-.366-.732-.778-1.006-1.144-.183-.228-.275-.457-.366-.685-.046-.275-.092-.504-.092-.732-.045-.275 0-.503.092-.778.046-.228 0-.548.229-.731.045-.046.045-.046 0-.092.182.092.411.137.594.229l-.274.411c-.183.32-.138.686.045 1.052.092.183.183.366.32.549.138.229.32.412.55.595.045.045.09.137.182.182.092.092.137.183.229.275.091.091.228.228.366.32l.045.046c.046.045.092.045.138.045.228.32.731.55 1.188.732.23.092.504.183.732.274.275.092.549.183.823.23.503.136.915.136 1.418.136.457 0 .915 0 1.28-.137.412-.137.824-.32 1.144-.549.32-.228.594-.457.868-.731 0 0 .046.045.092.045s.046.046.092.046c.045.046.09.046.182.046.092.045.229.045.32.091.046.046.183.092.32.138zm.777-5.716c.092.229.137.412.183.64.046.183.046.366.091.55 0 .09.046.182.092.274 0 .045.137.228.091.228h-.274c-.137 0-.274-.045-.412-.045-.274 0-.548-.046-.823-.092-.32-.046-.594-.046-.869-.046H40.334c-.138-.137-.32-.228-.503-.32-.183-.091-.412-.228-.64-.32l.09-.091c.092-.092.092-.183.138-.32 0-.138.046-.23.046-.366 0-.138-.046-.275-.092-.458-.045-.137-.137-.274-.274-.411.092.091.137.137.229.183.274.228.548.411.823.594.503.275 1.097.412 1.6.366.503-.046 1.052-.183 1.235-.503.046-.046.046-.091.046-.091.091.091.091.137.137.228zm-.274-1.783V35.532s-.046 0-.046.046h-.046c-.091 0-.137 0-.137.091 0 .046.091.092.137.138h.183v.182c-.046 0-.046-.045-.091-.045-.138-.092-.275.045-.138.137.046.046.046.183.092.183.046.091.046.183.046.228 0 .138-.046.275-.183.366-.275.183-.64.275-1.052.32-.412.046-.869-.091-1.28-.32-.23-.137-.458-.274-.64-.457-.184-.137-.412-.32-.504-.503.092-.046.137-.137.137-.229 0-.137.092-.183.183-.274.092-.092.229-.137.275-.229.045-.045.045-.091.137-.137h.229c.274.046.594.137.914.183.32.046.64.091 1.006.183l.046.046c.046.045.137.091.183.045.046 0 .091-.091 0-.137 0 0 0-.045-.046-.091l-.046-.046v-.091-.092c0-.046.046-.046.046-.091l.046-.046h.046c-.046 0 0 0 0 0h.091.137l.046.046.091.091.046.046s0 .046.046.046c0 .091 0 .137.046.137z" opacity=".4"/>
        <path d="M49.068 35.166c-.091-.045-.228-.137-.365-.182-.092-.046-.23-.046-.32-.046-.184 0-.366.137-.32.274 0 .092.045.229.182.274.092.046.183.138.275.138.091 0 .045-.138-.046-.183-.092-.046-.092-.092-.137-.137 0-.046 0-.092.045-.092.092-.046.275-.046.412 0 .137.092.32.183.366.32.046.046.046.137.046.183v.046c-.092 0-.092.137.091.183.092 0 .183.045.183 0v-.092-.228l-.137-.275c-.046-.045-.138-.137-.275-.183z" opacity=".4"/>
    </g>
    <path fill="#3E8487" d="M70.561 31.188c-.503.64-1.555 1.143-2.286 1.92-.64-.228-4.756-1.783-5.397-2.012-2.103-.823-4.252-1.555-6.402-2.332-2.378-.823-4.664-1.92-7.042-2.79-1.28-.457-2.607-.914-3.887-1.417-.732-.274-4.665-1.51-5.442-1.738.823-.594 2.47-1.052 3.338-1.692 1.098.412 4.573 1.646 5.67 2.058 2.379.869 4.711 1.875 7.043 2.79 2.195.868 4.39 1.646 6.585 2.377 1.326.366 6.54 2.378 7.82 2.836z"/>
    <path fill="#fff" d="M52.315 42.163l.64 18.475 6.082-3.43.046-19.16-6.768 4.115zM52.315 42.163l-28.947-10.7 6.082-3.43 29.633 10.014-6.768 4.116z"/>
    <path stroke="#E2E2E2" stroke-linecap="round" stroke-linejoin="round" stroke-miterlimit="10" stroke-width="2" d="M26.477 31.6l25.792 8.734M53.595 58.855l-.228-15.183"/>
    <path stroke="#000" stroke-linecap="round" stroke-linejoin="round" stroke-miterlimit="10" stroke-width="2" d="M51.492 42.62l-17.789 9.787c-.366.228-.823.228-1.235.091l-7.865-2.652-18.064-6.174c-1.28-.457-1.463-2.195-.228-2.835l39.785-21.905c.366-.228.823-.274 1.235-.091l25.883 8.826c1.28.457 1.463 2.195.274 2.835L59.083 38.46M58.717 38.642l-4.115 2.24"/>
    <path stroke="#000" stroke-linecap="round" stroke-linejoin="round" stroke-miterlimit="10" stroke-width="2" d="M5.488 42.346v17.56c0 1.464.914 2.744 2.286 3.201l24.649 8.46c.411.138.869.092 1.234-.091l38.14-20.99M73.534 35.761l-14.496 7.911"/>
    <path stroke="#000" stroke-linecap="round" stroke-linejoin="round" stroke-miterlimit="10" stroke-width="2" d="M21.219 53.367l11.57 4.07c.411.137.868.092 1.234-.091l18.246-9.924M6.082 48.154l11.661 4.024M73.534 40.425l-14.496 7.866"/>
    <path stroke="#000" stroke-linecap="round" stroke-linejoin="round" stroke-miterlimit="10" stroke-width="2" d="M6.082 52.773l26.706 9.237c.412.137.87.092 1.235-.091l18.246-9.924M73.534 45.136L59.038 53"/>
    <path stroke="#000" stroke-linecap="round" stroke-linejoin="round" stroke-miterlimit="10" stroke-width="2" d="M6.082 57.483l26.752 9.283c.412.137.869.091 1.235-.092l18.246-9.969M73.945 30.045V48.52M29.862 27.94l28.856 9.741M23.688 31.92l28.215 9.557M59.038 57.117V38.459M52.315 42.163v19.115"/>
    <path fill="#5EA3AA" d="M13.673 43.718c-.046 0-.046 0-.092-.046-.548-.183-.868-.32-1.006-.457-.137-.137-.091-.275.138-.366-.046 0-.092-.046-.138-.046-.045 0-.091-.045-.137-.045-.046 0-.046-.046 0-.046.046-.046.092-.046.137-.092h.092c.046 0 .091 0 .137.046.046 0 .091.046.137.046.229-.092.503-.137.777-.137.32.045.64.091.915.183.137.045.229.091.275.137.045.045 0 .045-.046.091l-.183.092c-.046.045-.137.045-.183.045-.091 0-.137 0-.183-.045h-.137c-.046 0-.092 0-.137.045.183.046.228.092.411.138.229-.092.458-.138.732-.138.274.046.549.092.777.183.046 0 .092.046.137.046.458.183.686.32.778.457.091.092.046.23-.137.32.046 0 .091.046.137.046.046 0 .091.046.091.046v.046c-.045 0-.045.045-.091.045h-.091c-.046 0-.092 0-.138-.045-.046 0-.046-.046-.091-.046-.183.092-.412.137-.64.137-.275 0-.55-.045-.824-.137-.137-.046-.228-.091-.228-.091-.046-.046 0-.046.046-.092.045-.046.091-.046.182-.091.046-.046.092-.046.183-.046.092 0 .138 0 .183.046h.138c.045 0 .09 0 .09-.046-.136-.046-.228-.092-.365-.137-.183.091-.457.137-.732.137-.32-.046-.594-.092-.914-.183zm.137-.412c.046.046.091.046.137.092.046 0 .092.046.137 0 .046 0 .092 0 .138-.046-.183-.046-.23-.091-.412-.137v.091zm2.104.412c0-.046-.046-.046-.138-.092h-.137c-.045 0-.091 0-.091.046.137.046.228.092.366.137v-.091zM18.612 43.215c.137.046.183.137.091.137-.137.092-.228.137-.411.229-.046.045-.183.045-.32-.046-1.555-.686-2.927-1.235-4.985-2.104-.091-.045-.183-.045-.229-.045-.045.045-.091.045-.137.091-.091.046-.228.046-.411-.046-.366-.137-.503-.228-.824-.32-.182-.091-.228-.137-.137-.183.275-.182.412-.228.732-.411.183-.092.412-.046.777.091 2.196 1.006 4.025 1.738 5.854 2.607zM17.88 42.529c-1.372-.64-2.332-1.052-3.841-1.738-1.006-.457-1.189-.777-.823-.96.503-.275.732-.412 1.235-.686.365-.183.914-.092 1.92.366 1.464.686 2.378 1.097 3.75 1.783.915.458 1.006.732.686.915-.457.274-.686.366-1.143.64-.366.183-.87.137-1.784-.32zm1.235-1.052c-1.143-.549-1.83-.869-3.064-1.463-.32-.137-.503-.183-.594-.137-.275.137-.412.228-.686.365-.092.046-.046.183.274.32 1.235.55 1.966.87 3.11 1.418.274.137.457.183.594.092.275-.138.366-.229.64-.366.092 0 0-.092-.274-.229zM20.395 41.111c-1.326-.64-2.24-1.052-3.75-1.783-1.006-.458-1.188-.778-.868-.96.457-.23.64-.367 1.051-.595.32-.183.87-.046 1.921.366 1.51.686 2.424 1.051 3.796 1.692.914.411 1.051.686.686.914-.458.275-.686.412-1.144.64-.32.23-.777.183-1.692-.274zm1.235-1.006c-1.143-.549-1.875-.823-3.11-1.417-.32-.138-.503-.184-.594-.138-.229.138-.366.183-.595.32-.091.046 0 .138.275.275 1.234.594 1.92.869 3.064 1.417.274.138.457.183.594.092.275-.137.366-.229.64-.366.092 0 0-.091-.274-.183zM24.054 39.74c.366.182.548.32.594.411.046.091.046.183 0 .229h-.274c0-.092 0-.138-.046-.183-.183.045-.412.045-.777-.137l-.458-.23c-.091-.045-.137-.09-.091-.136.137-.092.229-.138.366-.229.045 0 .091 0 .228.046l.458.228zM23.733 39.236c-1.417-.594-2.332-1.006-3.887-1.646-1.052-.457-1.326-.732-1.006-.869.366-.228.595-.32.96-.548.275-.183.915-.046 2.013.365 1.646.595 2.606.96 4.07 1.51 1.006.365 1.189.64.823.823-.457.274-.686.365-1.143.64-.412.228-.915.137-1.83-.275zm1.144-.96c-1.235-.503-1.967-.777-3.293-1.28-.32-.138-.549-.183-.64-.092-.229.137-.32.183-.549.32-.091.046 0 .138.32.275 1.28.548 2.012.823 3.247 1.326.32.137.503.137.595.091.228-.137.365-.228.594-.365.137-.092.046-.183-.274-.275zM26.112 37.91c-1.51-.549-2.47-.914-4.116-1.509-1.098-.412-1.418-.686-1.143-.823.365-.229.548-.32.914-.503.275-.137.915-.092 2.104.32 1.738.594 2.698.915 4.253 1.418 1.052.365 1.28.548.914.731-.411.229-.64.366-1.052.595-.32.183-.868.137-1.874-.229zm1.097-.96c-1.28-.458-2.058-.686-3.43-1.19-.366-.136-.548-.136-.64-.09-.229.137-.32.182-.549.32-.091.045.046.137.366.274 1.372.503 2.15.777 3.384 1.189.32.091.503.137.595.091.228-.137.366-.183.594-.32.092-.091 0-.137-.32-.274zM28.398 36.63c-1.555-.503-2.56-.823-4.253-1.418-1.143-.366-1.509-.64-1.234-.777.365-.229.594-.32.96-.55.32-.182.96-.09 2.15.275 1.737.549 2.697.87 4.252 1.418 1.052.32 1.28.549 1.006.732-.366.228-.549.32-.96.548-.32.138-.869.092-1.92-.228zm.96-.915c-1.326-.412-2.057-.686-3.475-1.143-.366-.137-.549-.137-.64-.092-.229.138-.32.183-.549.32-.091.046.046.138.366.23 1.418.456 2.195.73 3.475 1.142.32.092.503.138.595.092.229-.137.32-.183.549-.32.137-.046.045-.092-.32-.229z"/>
    <path fill="#BC9533" d="M52.498 66.4v2.79c0 2.789 4.527 5.03 10.152 5.03 5.625 0 10.152-2.241 10.152-5.03v-3.476"/>
    <path stroke="#000" stroke-linecap="round" stroke-linejoin="round" stroke-miterlimit="10" stroke-width="2" d="M52.498 65.897v2.79c0 2.789 4.527 5.03 10.152 5.03 5.625 0 10.152-2.241 10.152-5.03V65.21"/>
    <path fill="#BC9533" d="M52.498 63.153v2.79c0 2.79 4.527 5.03 10.152 5.03 5.625 0 10.152-2.24 10.152-5.03v-3.476"/>
    <path stroke="#000" stroke-linecap="round" stroke-linejoin="round" stroke-miterlimit="10" stroke-width="2" d="M52.498 63.153v2.79c0 2.79 4.527 5.03 10.152 5.03 5.625 0 10.152-2.24 10.152-5.03v-3.476"/>
    <path fill="#BC9533" d="M52.498 60.363v2.79c0 2.79 4.527 5.03 10.152 5.03 5.625 0 10.152-2.24 10.152-5.03v-3.475"/>
    <path stroke="#000" stroke-linecap="round" stroke-linejoin="round" stroke-miterlimit="10" stroke-width="2" d="M52.498 60.363v2.79c0 2.79 4.527 5.03 10.152 5.03 5.625 0 10.152-2.24 10.152-5.03v-3.475"/>
    <path fill="#BC9533" d="M52.498 57.574v2.79c0 2.789 4.527 5.03 10.152 5.03 5.625 0 10.152-2.241 10.152-5.03v-3.476"/>
    <path stroke="#000" stroke-linecap="round" stroke-linejoin="round" stroke-miterlimit="10" stroke-width="2" d="M52.498 57.574v2.79c0 2.789 4.527 5.03 10.152 5.03 5.625 0 10.152-2.241 10.152-5.03v-3.476"/>
    <path fill="#BC9533" d="M52.498 54.739v2.79c0 2.789 4.527 5.03 10.152 5.03 5.625 0 10.152-2.241 10.152-5.03v-3.476"/>
    <path stroke="#000" stroke-linecap="round" stroke-linejoin="round" stroke-miterlimit="10" stroke-width="2" d="M52.498 54.739v2.79c0 2.789 4.527 5.03 10.152 5.03 5.625 0 10.152-2.241 10.152-5.03v-3.476"/>
    <path fill="#BC9533" d="M52.498 51.995v2.79c0 2.789 4.527 5.03 10.152 5.03 5.625 0 10.152-2.241 10.152-5.03v-3.476"/>
    <path fill="#FAD45C" d="M62.65 57.025c5.607 0 10.152-2.252 10.152-5.03 0-2.778-4.545-5.03-10.152-5.03-5.607 0-10.152 2.252-10.152 5.03 0 2.778 4.545 5.03 10.152 5.03z"/>
    <path fill="#DDB443" d="M62.65 55.562c4.52 0 8.186-1.638 8.186-3.658 0-2.021-3.665-3.659-8.186-3.659-4.52 0-8.186 1.638-8.186 3.659 0 2.02 3.665 3.658 8.186 3.658z"/>
    <path fill="#BC9533" d="M70.79 51.904v.274c-.274-1.92-3.841-3.384-8.14-3.384-4.344 0-7.865 1.509-8.14 3.384v-.274c0-2.013 3.659-3.659 8.186-3.659 4.436 0 8.094 1.646 8.094 3.659z"/>
    <path stroke="#000" stroke-linecap="round" stroke-linejoin="round" stroke-miterlimit="10" stroke-width="2" d="M62.65 57.025c5.607 0 10.152-2.252 10.152-5.03 0-2.778-4.545-5.03-10.152-5.03-5.607 0-10.152 2.252-10.152 5.03 0 2.778 4.545 5.03 10.152 5.03z"/>
    <path stroke="#000" stroke-linecap="round" stroke-linejoin="round" stroke-miterlimit="10" stroke-width="2" d="M52.498 51.995v2.79c0 2.789 4.527 5.03 10.152 5.03 5.625 0 10.152-2.241 10.152-5.03v-3.476"/>
    <path fill="#BC9533" d="M59.38 51.43v-.136c.028-.689.229-1.17.602-1.443.37-.273.948-.422 1.737-.444v-.157c0-.083.016-.149.048-.199.031-.05.107-.075.225-.075h.458c.073 0 .137.025.192.075.054.05.084.11.088.178v.178c.78.023 1.356.168 1.73.437.406.297.608.63.608.998 0 .187-.04.317-.123.39-.082.068-.232.102-.45.102h-.712c-.21 0-.355-.034-.437-.102-.082-.073-.126-.137-.13-.191-.005-.055-.062-.103-.171-.144-.068-.027-.173-.046-.315-.055v.554c.78.023 1.356.169 1.73.438.374.268.574.571.602.909v.177c-.028.68-.226 1.153-.595 1.422-.37.27-.948.415-1.736.438v.205c-.005.073-.035.137-.09.191-.054.06-.118.08-.19.062h-.48c-.068-.01-.127-.039-.177-.09-.046-.045-.07-.104-.075-.177v-.191c-.78-.023-1.356-.169-1.73-.438-.405-.291-.608-.622-.608-.99 0-.188.04-.315.123-.384.082-.073.232-.11.451-.11h.711c.21 0 .356.037.438.11.081.069.125.13.13.185.004.055.06.102.17.143.069.028.173.046.315.055v-.54c-.78-.023-1.356-.169-1.73-.438-.378-.273-.58-.587-.608-.943zm2.024-.499c-.09.06-.136.141-.136.246 0 .064.045.112.136.144.069.027.173.048.315.061v-.533c-.146.014-.25.041-.315.082zm1.648 2.324c.086-.054.13-.13.13-.225-.005-.06-.05-.11-.137-.15-.068-.028-.173-.046-.315-.055v.52c.146-.019.253-.049.322-.09z"/>
    <path fill="#FAD45C" d="M59.38 50.889v-.137c.028-.688.229-1.169.602-1.442.37-.274.948-.422 1.737-.445v-.157c0-.082.016-.148.048-.198.031-.05.107-.075.225-.075h.458c.073 0 .137.025.192.075.054.05.084.11.088.178v.177c.78.023 1.356.17 1.73.438.406.296.608.629.608.998 0 .187-.04.317-.123.39-.082.068-.232.102-.45.102h-.712c-.21 0-.355-.034-.437-.102-.082-.073-.126-.137-.13-.192-.005-.054-.062-.102-.171-.143-.068-.028-.173-.046-.315-.055v.554c.78.023 1.356.168 1.73.437.374.27.574.572.602.91v.177c-.028.68-.226 1.153-.595 1.422-.37.269-.948.415-1.736.438v.205c-.005.072-.035.136-.09.191-.054.06-.118.08-.19.062h-.48c-.068-.01-.127-.04-.177-.09-.046-.045-.07-.104-.075-.177v-.191c-.78-.023-1.356-.17-1.73-.438-.405-.292-.608-.622-.608-.991 0-.187.04-.315.123-.383.082-.073.232-.11.451-.11h.711c.21 0 .356.037.438.11.081.068.125.13.13.185.004.054.06.102.17.143.069.027.173.046.315.055v-.54c-.78-.023-1.356-.169-1.73-.438-.378-.273-.58-.588-.608-.943zm2.024-.5c-.09.06-.136.142-.136.247 0 .064.045.112.136.143.069.028.173.048.315.062v-.533c-.146.014-.25.04-.315.082zm1.648 2.325c.086-.055.13-.13.13-.225-.005-.06-.05-.11-.137-.15-.068-.028-.173-.046-.315-.056v.52c.146-.018.253-.048.322-.089z"/>
    <path fill="#BC9533" d="M38.733 76.14v2.79c0 2.79 4.528 5.03 10.153 5.03 5.624 0 10.151-2.24 10.151-5.03v-3.475"/>
    <path stroke="#000" stroke-linecap="round" stroke-linejoin="round" stroke-miterlimit="10" stroke-width="2" d="M38.733 75.683v2.79c0 2.79 4.528 5.03 10.153 5.03 5.624 0 10.151-2.24 10.151-5.03v-3.476"/>
    <path fill="#BC9533" d="M38.733 72.894v2.79c0 2.789 4.528 5.03 10.153 5.03 5.624 0 10.151-2.241 10.151-5.03v-3.476"/>
    <path stroke="#000" stroke-linecap="round" stroke-linejoin="round" stroke-miterlimit="10" stroke-width="2" d="M38.733 72.894v2.79c0 2.789 4.528 5.03 10.153 5.03 5.624 0 10.151-2.241 10.151-5.03v-3.476"/>
    <path fill="#BC9533" d="M38.733 70.104v2.79c0 2.79 4.528 5.03 10.153 5.03 5.624 0 10.151-2.24 10.151-5.03v-3.476"/>
    <path stroke="#000" stroke-linecap="round" stroke-linejoin="round" stroke-miterlimit="10" stroke-width="2" d="M38.733 70.104v2.79c0 2.79 4.528 5.03 10.153 5.03 5.624 0 10.151-2.24 10.151-5.03v-3.476"/>
    <path fill="#BC9533" d="M38.733 67.36v2.79c0 2.79 4.528 5.03 10.153 5.03 5.624 0 10.151-2.24 10.151-5.03v-3.475"/>
    <path stroke="#000" stroke-linecap="round" stroke-linejoin="round" stroke-miterlimit="10" stroke-width="2" d="M38.733 67.36v2.79c0 2.79 4.528 5.03 10.153 5.03 5.624 0 10.151-2.24 10.151-5.03v-3.475"/>
    <path fill="#BC9533" d="M38.733 64.48v2.789c0 2.79 4.528 5.03 10.153 5.03 5.624 0 10.151-2.24 10.151-5.03v-3.476"/>
    <path stroke="#000" stroke-linecap="round" stroke-linejoin="round" stroke-miterlimit="10" stroke-width="2" d="M38.733 64.48v2.789c0 2.79 4.528 5.03 10.153 5.03 5.624 0 10.151-2.24 10.151-5.03v-3.476"/>
    <path fill="#BC9533" d="M38.733 61.736v2.789c0 2.79 4.528 5.03 10.153 5.03 5.624 0 10.151-2.24 10.151-5.03V61.05"/>
    <path fill="#FAD45C" d="M48.886 66.766c5.606 0 10.151-2.252 10.151-5.03 0-2.778-4.545-5.03-10.151-5.03-5.607 0-10.153 2.252-10.153 5.03 0 2.778 4.546 5.03 10.153 5.03z"/>
    <path fill="#DDB443" d="M48.885 65.348c4.521 0 8.186-1.638 8.186-3.658s-3.665-3.658-8.186-3.658c-4.52 0-8.185 1.637-8.185 3.658 0 2.02 3.665 3.658 8.185 3.658z"/>
    <path fill="#BC9533" d="M57.026 61.69v.274c-.275-1.92-3.842-3.384-8.14-3.384-4.345 0-7.866 1.51-8.14 3.384v-.274c0-2.012 3.658-3.658 8.185-3.658 4.436 0 8.095 1.646 8.095 3.658z"/>
    <path stroke="#000" stroke-linecap="round" stroke-linejoin="round" stroke-miterlimit="10" stroke-width="2" d="M48.886 66.766c5.606 0 10.151-2.252 10.151-5.03 0-2.778-4.545-5.03-10.151-5.03-5.607 0-10.153 2.252-10.153 5.03 0 2.778 4.546 5.03 10.153 5.03z"/>
    <path stroke="#000" stroke-linecap="round" stroke-linejoin="round" stroke-miterlimit="10" stroke-width="2" d="M38.733 61.736v2.789c0 2.79 4.528 5.03 10.153 5.03 5.624 0 10.151-2.24 10.151-5.03V61.05"/>
    <path fill="#BC9533" d="M45.623 61.194v-.137c.027-.688.228-1.17.602-1.443.369-.273.947-.421 1.736-.444v-.157c0-.082.016-.148.048-.198.032-.05.107-.075.225-.075h.458c.073 0 .137.025.192.075.054.05.084.11.089.177v.178c.779.023 1.355.169 1.73.438.405.296.607.629.607.998 0 .187-.04.316-.123.39-.081.068-.232.102-.45.102h-.712c-.21 0-.355-.034-.437-.103-.082-.073-.125-.136-.13-.191-.005-.055-.061-.103-.17-.144-.07-.027-.174-.045-.315-.054v.553c.779.023 1.355.169 1.73.438.373.269.573.572.6.91v.177c-.027.679-.225 1.153-.594 1.422-.37.269-.948.414-1.736.437v.205c-.005.073-.035.137-.09.192-.054.059-.118.08-.19.061h-.48c-.068-.009-.127-.038-.177-.089-.045-.045-.07-.105-.075-.177v-.192c-.78-.023-1.356-.168-1.73-.437-.405-.292-.608-.622-.608-.991 0-.187.041-.315.123-.383.082-.073.232-.11.451-.11h.711c.21 0 .356.037.438.11.082.068.125.13.13.184.004.055.061.103.17.144.069.027.174.045.315.054v-.54c-.78-.022-1.356-.168-1.73-.437-.378-.273-.58-.588-.608-.943zm2.024-.5c-.092.06-.137.142-.137.247 0 .063.045.111.137.143.068.028.173.048.314.062v-.534c-.146.014-.25.042-.314.083zm1.647 2.325c.087-.055.13-.13.13-.226-.005-.059-.05-.11-.137-.15-.068-.028-.173-.046-.314-.055v.52c.145-.019.253-.048.32-.09z"/>
    <path fill="#FAD45C" d="M45.623 60.652v-.136c.027-.688.228-1.17.602-1.443.369-.273.947-.421 1.736-.444v-.157c0-.082.016-.148.048-.199.032-.05.107-.075.225-.075h.458c.073 0 .137.025.192.075.054.05.084.11.089.178v.178c.779.023 1.355.169 1.73.437.405.297.607.63.607.998 0 .187-.04.317-.123.39-.081.069-.232.103-.45.103h-.712c-.21 0-.355-.035-.437-.103-.082-.073-.125-.137-.13-.191-.005-.055-.061-.103-.17-.144-.07-.027-.174-.045-.315-.054v.553c.779.023 1.355.169 1.73.438.373.269.573.572.6.909v.178c-.027.679-.225 1.153-.594 1.422-.37.268-.948.414-1.736.437v.205c-.005.073-.035.137-.09.191-.054.06-.118.08-.19.062h-.48c-.068-.01-.127-.039-.177-.089-.045-.045-.07-.105-.075-.178v-.191c-.78-.023-1.356-.169-1.73-.437-.405-.292-.608-.623-.608-.992 0-.187.041-.314.123-.383.082-.072.232-.109.451-.109h.711c.21 0 .356.036.438.11.082.068.125.13.13.184.004.055.061.102.17.144.069.027.174.045.315.054v-.54c-.78-.023-1.356-.168-1.73-.437-.378-.274-.58-.588-.608-.944zm2.024-.499c-.092.06-.137.142-.137.246 0 .064.045.112.137.144.068.027.173.048.314.062v-.534c-.146.014-.25.041-.314.082zm1.647 2.325c.087-.055.13-.13.13-.226-.005-.06-.05-.11-.137-.15-.068-.028-.173-.046-.314-.055v.52c.145-.019.253-.048.32-.09z"/>
    <path fill="#fff" d="M156.077 135.864H74.54c-2.24 0-4.07-1.829-4.07-4.07V54.053h89.723v77.741c-.046 2.241-1.875 4.07-4.116 4.07z"/>
    <path fill="#C3E0DC" d="M123.608 134.172H76.826l-2.835-1.281-1.418-3.201-.32-30.547 40.563-42.53 45.044.275v38.733l-34.252 38.551z" opacity=".23"/>
    <path fill="#354C48" d="M160.238 35.35h-89.95v-5.854c0-2.195 1.783-3.933 3.932-3.933h82.085c2.195 0 3.933 1.784 3.933 3.933v5.854z"/>
    <path fill="#73B267" d="M87.207 32.24c.809 0 1.464-.656 1.464-1.464 0-.808-.655-1.463-1.464-1.463-.808 0-1.463.655-1.463 1.463s.655 1.464 1.463 1.464z"/>
    <path fill="#FAD45C" d="M81.72 32.24c.808 0 1.463-.656 1.463-1.464 0-.808-.655-1.463-1.463-1.463s-1.464.655-1.464 1.463.656 1.464 1.464 1.464z"/>
    <path fill="#F79FA8" d="M76.186 32.24c.808 0 1.463-.656 1.463-1.464 0-.808-.655-1.463-1.463-1.463s-1.463.655-1.463 1.463.655 1.464 1.463 1.464z"/>
    <path fill="#DAEAD6" d="M159.964 35.35h-89.22v20.806h89.22V35.35z"/>
    <path stroke="#000" stroke-linecap="round" stroke-linejoin="round" stroke-miterlimit="10" stroke-width="2" d="M156.26 135.864H74.311c-2.103 0-3.887-1.738-3.887-3.887V29.221c0-2.103 1.738-3.887 3.887-3.887h81.949c2.103 0 3.887 1.738 3.887 3.887v102.756c0 2.149-1.738 3.887-3.887 3.887z"/>
    <path stroke="#000" stroke-linecap="round" stroke-linejoin="round" stroke-miterlimit="10" stroke-width="2" d="M84.966 133.669h-8.734c-2.012 0-3.704-1.646-3.704-3.704V36.31M157.997 36.31v93.7c0 2.013-1.646 3.705-3.704 3.705H90.317"/>
    <path fill="#fff" d="M150.269 32.468h-48.657c-1.006 0-1.783-.823-1.783-1.783 0-1.006.823-1.784 1.783-1.784h48.703c1.006 0 1.783.823 1.783 1.784 0 .96-.823 1.783-1.829 1.783z"/>
    <path stroke="#000" stroke-linecap="round" stroke-linejoin="round" stroke-miterlimit="10" stroke-width="2" d="M150.269 32.468h-48.657c-1.006 0-1.783-.823-1.783-1.783 0-1.006.823-1.784 1.783-1.784h48.703c1.006 0 1.783.823 1.783 1.784 0 .96-.823 1.783-1.829 1.783zM70.47 35.624h89.677M72.848 56.11h62.513M138.013 56.11h20.076M76.186 32.24c.808 0 1.463-.656 1.463-1.464 0-.808-.655-1.463-1.463-1.463s-1.463.655-1.463 1.463.655 1.464 1.463 1.464zM81.72 32.24c.808 0 1.463-.656 1.463-1.464 0-.808-.655-1.463-1.463-1.463s-1.464.655-1.464 1.463.656 1.464 1.464 1.464zM87.207 32.24c.809 0 1.464-.656 1.464-1.464 0-.808-.655-1.463-1.464-1.463-.808 0-1.463.655-1.463 1.463s.655 1.464 1.463 1.464z"/>
    <path fill="#5E7C76" d="M110.163 71.247H86.109c-.503 0-.914-.411-.914-.914 0-.503.411-.915.914-.915h24.054c.503 0 .915.412.915.915.046.503-.366.914-.915.914z"/>
    <path fill="#000" d="M89.54 68.55h-8.004c-.503 0-.868-.412-.868-.87v-.09c0-.504.411-.87.868-.87h8.003c.503 0 .869.412.869.87v.09c0 .458-.366.87-.869.87z"/>
    <path fill="#C3CEC0" d="M110.575 68.412h-1.052c-.503 0-.915-.411-.915-.914 0-.503.412-.915.915-.915h1.052c.503 0 .914.412.914.915 0 .457-.411.914-.914.914z"/>
    <path fill="#000" d="M114.142 71.293h-1.052c-.503 0-.915-.412-.915-.915 0-.503.412-.914.915-.914h1.052c.503 0 .914.411.914.915.046.502-.411.914-.914.914z"/>
    <path fill="#5E7C76" d="M110.163 106.002H86.109c-.503 0-.914-.412-.914-.915 0-.503.411-.914.914-.914h24.054c.503 0 .915.411.915.914.046.458-.366.915-.915.915z"/>
    <path fill="#000" d="M89.54 103.258h-8.004c-.503 0-.868-.411-.868-.868v-.092c0-.503.411-.869.868-.869h8.003c.503 0 .869.412.869.869v.092c0 .457-.366.868-.869.868z"/>
    <path fill="#C3CEC0" d="M110.575 103.121h-1.052c-.503 0-.915-.411-.915-.914 0-.503.412-.915.915-.915h1.052c.503 0 .914.412.914.915 0 .457-.411.914-.914.914z"/>
    <path fill="#000" d="M114.142 106.002h-1.052c-.503 0-.915-.412-.915-.915 0-.503.412-.914.915-.914h1.052c.503 0 .914.411.914.914.046.503-.411.915-.914.915z"/>
    <path fill="#5E7C76" d="M105.27 88.167H94.89c-.503 0-.915-.411-.915-.914 0-.503.412-.915.915-.915h10.38c.503 0 .915.412.915.915 0 .503-.412.914-.915.914zM95.347 85.515h-5.762c-.503 0-.915-.411-.915-.914 0-.503.412-.915.915-.915h5.762c.503 0 .915.412.915.915 0 .503-.412.914-.915.914z"/>
    <path fill="#000" d="M109.889 85.287h-5.304c-.504 0-.915-.412-.915-.915 0-.503.411-.915.915-.915h5.304c.503 0 .915.412.915.915 0 .503-.412.915-.915.915z"/>
    <path fill="#5E7C76" d="M114.828 88.213h-6.677c-.503 0-.914-.411-.914-.914 0-.503.411-.915.914-.915h6.677c.503 0 .915.412.915.915.045.503-.366.914-.915.914z"/>
    <path fill="#C3CEC0" d="M91.597 88.305h-9.009c-.503 0-.914-.412-.914-.915 0-.503.411-.915.914-.915h9.01c.502 0 .914.412.914.915 0 .503-.412.915-.915.915z"/>
    <path fill="#5E7C76" d="M105.27 123.197H94.89c-.503 0-.915-.412-.915-.915 0-.503.412-.915.915-.915h10.38c.503 0 .915.412.915.915 0 .503-.412.915-.915.915zM95.347 120.545h-5.762c-.503 0-.915-.412-.915-.915 0-.503.412-.915.915-.915h5.762c.503 0 .915.412.915.915 0 .503-.412.915-.915.915z"/>
    <path fill="#000" d="M109.889 120.316h-5.304c-.504 0-.915-.412-.915-.915 0-.503.411-.914.915-.914h5.304c.503 0 .915.411.915.914 0 .503-.412.915-.915.915z"/>
    <path fill="#5E7C76" d="M114.828 123.243h-6.677c-.503 0-.914-.412-.914-.915 0-.503.411-.915.914-.915h6.677c.503 0 .915.412.915.915.045.503-.366.915-.915.915z"/>
    <path fill="#C3CEC0" d="M91.597 123.334h-9.009c-.503 0-.914-.412-.914-.915 0-.503.411-.914.914-.914h9.01c.502 0 .914.411.914.914 0 .503-.412.915-.915.915z"/>
    <path fill="#8AC47E" d="M114.416 47.422c-.137.686-.503 1.189-1.143 1.51-.274.136-.594.182-.914.182h-2.927c-.274 0-.457.137-.549.366-.046.091-.046.183-.046.274 0 .275.183.458.458.503.274.046.594.092.869.138.548.09 1.051.182 1.6.274.092 0 .137.046.137.137v.183h-8.78v-.183c0-.091.046-.137.137-.137.366-.046.732-.137 1.098-.183.457-.091.869-.137 1.326-.229.183-.045.366-.137.457-.366.046-.137.046-.32 0-.457-.091-.228-.274-.366-.548-.366h-2.927c-.137 0-.275 0-.412-.045-.091 0-.137-.046-.228-.046-.366-.092-.732-.32-1.006-.64-.412-.503-.549-1.098-.458-1.738.092-.412.275-.777.549-1.052.183-.183.366-.457.412-.732.045-.137.045-.228.045-.365.183-.64.549-1.098 1.189-1.327.32-.137.595-.32.778-.64.137-.274.366-.457.64-.64.412-.229.823-.32 1.28-.274.321.045.595-.046.869-.23.412-.273.869-.365 1.418-.273.274.045.549.182.777.32.275.137.549.228.823.183.275 0 .503 0 .778.045.503.138.914.412 1.189.915.137.229.32.411.549.549.091.045.183.045.274.091.046 0 .091.046.137.046.549.274.915.731 1.006 1.372.046.137.046.228.046.366.091.274.229.457.412.64.594.549.823 1.143.685 1.829z"/>
    <path fill="#73B267" d="M114.416 47.422c-.137.686-.503 1.189-1.143 1.51-.274.136-.594.182-.915.182h-2.926c-.275 0-.458.137-.549.366-.046.091-.046.183-.046.274 0 .275.183.458.457.503.275.046.595.092.869.138.549.09 1.052.182 1.601.274.091 0 .137.046.137.137v.183h-8.78v-.183c0-.091.046-.137.137-.137.366-.046.732-.137 1.098-.183.457-.091.869-.137 1.326-.229.183-.045.366-.137.457-.366.046-.137.046-.32 0-.457-.091-.228-.274-.366-.549-.366h-2.926c-.138 0-.275 0-.412-.045-.091 0-.137-.046-.229-.046 1.692-1.51 5.397-4.436 10.29-5.762.548.274.914.731 1.006 1.372.045.137.045.228.045.366.092.274.229.457.412.64.549.549.777 1.143.64 1.829z"/>
    <path stroke="#000" stroke-linecap="round" stroke-linejoin="round" stroke-miterlimit="10" stroke-width="2" d="M111.947 51.08h-8.78v-.182c0-.092.045-.138.137-.138.366-.045.732-.137 1.097-.182.458-.092.869-.138 1.327-.23.228-.045.365-.136.457-.365.046-.137.046-.32 0-.457-.092-.229-.274-.366-.549-.366h-2.927c-.137 0-.274 0-.411-.046-.503-.091-.869-.32-1.189-.686-.412-.503-.549-1.097-.457-1.738.091-.411.274-.777.548-1.051.183-.183.366-.412.412-.732.046-.137.046-.229.046-.366.137-.64.548-1.097 1.189-1.326.32-.137.594-.32.777-.64.137-.275.366-.458.64-.64.412-.23.823-.32 1.281-.275.32.046.594-.046.869-.228.411-.275.868-.366 1.417-.275.275.046.549.183.778.32.228.183.548.229.823.183.274 0 .503 0 .777.046.503.137.915.411 1.189.914.137.23.32.412.549.55.091.045.183.045.274.09.64.275 1.006.732 1.144 1.418 0 .138.045.229.045.366.046.275.229.458.412.64.503.503.686 1.098.549 1.784-.138.686-.503 1.189-1.144 1.509-.274.137-.594.183-.914.183h-2.927c-.274 0-.457.137-.549.366-.045.091-.045.183-.045.274 0 .275.182.457.457.503.274.046.594.092.869.137.548.092 1.051.183 1.6.275.092 0 .137.045.137.137.092.091.092.183.092.229z"/>
    <path fill="#73B267" d="M119.492 47.925c.708 0 1.281-.573 1.281-1.28 0-.708-.573-1.281-1.281-1.281-.707 0-1.28.573-1.28 1.28 0 .708.573 1.28 1.28 1.28zM124.066 47.925c.707 0 1.28-.573 1.28-1.28 0-.708-.573-1.281-1.28-1.281-.708 0-1.281.573-1.281 1.28 0 .708.573 1.28 1.281 1.28zM128.684 47.925c.707 0 1.281-.573 1.281-1.28 0-.708-.574-1.281-1.281-1.281s-1.28.573-1.28 1.28c0 .708.573 1.28 1.28 1.28z"/>
    <path stroke="#000" stroke-linecap="round" stroke-linejoin="round" stroke-miterlimit="10" stroke-width="2" d="M119.492 47.925c.708 0 1.281-.573 1.281-1.28 0-.708-.573-1.281-1.281-1.281-.707 0-1.28.573-1.28 1.28 0 .708.573 1.28 1.28 1.28zM124.066 47.925c.707 0 1.28-.573 1.28-1.28 0-.708-.573-1.281-1.28-1.281-.708 0-1.281.573-1.281 1.28 0 .708.573 1.28 1.281 1.28zM128.684 47.925c.707 0 1.281-.573 1.281-1.28 0-.708-.574-1.281-1.281-1.281s-1.28.573-1.28 1.28c0 .708.573 1.28 1.28 1.28z"/>
    <path fill="#354C48" d="M124.497 66.575c0 .12-.066.181-.196.181h-.761c-.131 0-.196-.06-.196-.18v-.337c0-.651.326-.977.977-.977h2.109c.648 0 .973.326.977.977v.537c-.004.293-.101.52-.293.683.192.163.289.39.293.684v.527c-.004.651-.329.977-.977.977h-2.109c-.651 0-.977-.326-.977-.977v-.337c0-.12.065-.18.196-.18h.761c.13 0 .196.06.196.18v.108c0 .195.097.293.293.293h1.171c.196 0 .293-.098.293-.293v-.235c0-.195-.097-.293-.293-.293h-.976c-.13 0-.195-.06-.195-.18v-.552c0-.12.065-.18.195-.18h.976c.196 0 .293-.098.293-.294v-.239c0-.195-.097-.293-.293-.293h-1.171c-.196 0-.293.098-.293.293v.107zm6.015 1.866v-1.973c0-.195-.097-.293-.293-.293h-1.172c-.195 0-.293.098-.293.293v1.973c0 .195.098.293.293.293h1.172c.196 0 .293-.098.293-.293zm-2.91.23v-2.433c0-.65.326-.976.977-.976h2.109c.648 0 .973.326.977.977v2.431c-.004.651-.329.977-.977.977h-2.109c-.651 0-.977-.326-.977-.977zm7.168-.23v-1.973c0-.195-.098-.293-.293-.293h-1.172c-.195 0-.293.098-.293.293v1.973c0 .195.098.293.293.293h1.172c.195 0 .293-.098.293-.293zm-2.91.23v-2.433c0-.65.325-.976.976-.976h2.11c.648 0 .973.326.976.977v2.431c-.003.651-.328.977-.976.977h-2.11c-.651 0-.976-.326-.976-.977zm5.234.478c0 .273-.091.483-.273.63-.134.107-.259.17-.376.19l-.22-.17c.153-.073.256-.14.308-.206-.277-.032-.415-.18-.415-.444v-.342c0-.082.052-.122.156-.122h.713c.065 0 .101.037.107.112v.352zm3.106-.708v-1.973c0-.195-.098-.293-.293-.293h-1.172c-.195 0-.293.098-.293.293v1.973c0 .195.098.293.293.293h1.172c.195 0 .293-.098.293-.293zm-2.91.23v-2.433c0-.65.325-.976.976-.976h2.109c.648 0 .974.326.977.977v2.431c-.003.651-.329.977-.977.977h-2.109c-.651 0-.976-.326-.976-.977zm7.168-.23v-1.973c0-.195-.098-.293-.293-.293h-1.172c-.196 0-.293.098-.293.293v1.973c0 .195.097.293.293.293h1.172c.195 0 .293-.098.293-.293zm-2.911.23v-2.433c0-.65.326-.976.977-.976h2.109c.648 0 .974.326.977.977v2.431c-.003.651-.329.977-.977.977h-2.109c-.651 0-.977-.326-.977-.977zm7.168-.23v-1.973c0-.195-.097-.293-.293-.293h-1.172c-.195 0-.292.098-.292.293v1.973c0 .195.097.293.292.293h1.172c.196 0 .293-.098.293-.293zm-2.91.23v-2.433c0-.65.326-.976.977-.976h2.109c.648 0 .973.326.977.977v2.431c-.004.651-.329.977-.977.977h-2.109c-.651 0-.977-.326-.977-.977zM124.497 83.861c0 .12-.066.181-.196.181h-.761c-.131 0-.196-.06-.196-.18v-.338c0-.65.326-.976.977-.976h2.109c.648 0 .973.325.977.976v.537c-.004.293-.101.521-.293.684.192.163.289.39.293.684v.527c-.004.651-.329.977-.977.977h-2.109c-.651 0-.977-.326-.977-.977v-.337c0-.12.065-.18.196-.18h.761c.13 0 .196.06.196.18v.108c0 .195.097.292.293.292h1.171c.196 0 .293-.097.293-.292v-.235c0-.195-.097-.293-.293-.293h-.976c-.13 0-.195-.06-.195-.18v-.552c0-.12.065-.18.195-.18h.976c.196 0 .293-.099.293-.294v-.24c0-.194-.097-.292-.293-.292h-1.171c-.196 0-.293.098-.293.293v.107zm6.015 1.866v-1.973c0-.195-.097-.293-.293-.293h-1.172c-.195 0-.293.098-.293.293v1.973c0 .195.098.292.293.292h1.172c.196 0 .293-.097.293-.292zm-2.91.23v-2.433c0-.65.326-.976.977-.976h2.109c.648 0 .973.325.977.976v2.432c-.004.651-.329.977-.977.977h-2.109c-.651 0-.977-.326-.977-.977zm7.168-.23v-1.973c0-.195-.098-.293-.293-.293h-1.172c-.195 0-.293.098-.293.293v1.973c0 .195.098.292.293.292h1.172c.195 0 .293-.097.293-.292zm-2.91.23v-2.433c0-.65.325-.976.976-.976h2.11c.648 0 .973.325.976.976v2.432c-.003.651-.328.977-.976.977h-2.11c-.651 0-.976-.326-.976-.977zm5.234.478c0 .273-.091.483-.273.63-.134.107-.259.17-.376.19l-.22-.171c.153-.072.256-.14.308-.205-.277-.033-.415-.18-.415-.444v-.342c0-.082.052-.122.156-.122h.713c.065 0 .101.037.107.112v.352zm3.106-.708v-1.973c0-.195-.098-.293-.293-.293h-1.172c-.195 0-.293.098-.293.293v1.973c0 .195.098.292.293.292h1.172c.195 0 .293-.097.293-.292zm-2.91.23v-2.433c0-.65.325-.976.976-.976h2.109c.648 0 .974.325.977.976v2.432c-.003.651-.329.977-.977.977h-2.109c-.651 0-.976-.326-.976-.977zm7.168-.23v-1.973c0-.195-.098-.293-.293-.293h-1.172c-.196 0-.293.098-.293.293v1.973c0 .195.097.292.293.292h1.172c.195 0 .293-.097.293-.292zm-2.911.23v-2.433c0-.65.326-.976.977-.976h2.109c.648 0 .974.325.977.976v2.432c-.003.651-.329.977-.977.977h-2.109c-.651 0-.977-.326-.977-.977zm7.168-.23v-1.973c0-.195-.097-.293-.293-.293h-1.172c-.195 0-.292.098-.292.293v1.973c0 .195.097.292.292.292h1.172c.196 0 .293-.097.293-.292zm-2.91.23v-2.433c0-.65.326-.976.977-.976h2.109c.648 0 .973.325.977.976v2.432c-.004.651-.329.977-.977.977h-2.109c-.651 0-.977-.326-.977-.977zM124.497 101.148c0 .12-.066.18-.196.18h-.761c-.131 0-.196-.06-.196-.18v-.337c0-.651.326-.977.977-.977h2.109c.648 0 .973.326.977.977v.537c-.004.293-.101.521-.293.683.192.163.289.391.293.684v.527c-.004.651-.329.977-.977.977h-2.109c-.651 0-.977-.326-.977-.977v-.336c0-.121.065-.181.196-.181h.761c.13 0 .196.06.196.181v.107c0 .195.097.293.293.293h1.171c.196 0 .293-.098.293-.293v-.234c0-.196-.097-.293-.293-.293h-.976c-.13 0-.195-.061-.195-.181v-.552c0-.12.065-.18.195-.18h.976c.196 0 .293-.098.293-.293v-.24c0-.195-.097-.293-.293-.293h-1.171c-.196 0-.293.098-.293.293v.108zm6.015 1.865v-1.973c0-.195-.097-.293-.293-.293h-1.172c-.195 0-.293.098-.293.293v1.973c0 .195.098.293.293.293h1.172c.196 0 .293-.098.293-.293zm-2.91.229v-2.431c0-.651.326-.977.977-.977h2.109c.648 0 .973.326.977.977v2.431c-.004.651-.329.977-.977.977h-2.109c-.651 0-.977-.326-.977-.977zm7.168-.229v-1.973c0-.195-.098-.293-.293-.293h-1.172c-.195 0-.293.098-.293.293v1.973c0 .195.098.293.293.293h1.172c.195 0 .293-.098.293-.293zm-2.91.229v-2.431c0-.651.325-.977.976-.977h2.11c.648 0 .973.326.976.977v2.431c-.003.651-.328.977-.976.977h-2.11c-.651 0-.976-.326-.976-.977zm5.234.479c0 .273-.091.483-.273.63-.134.107-.259.171-.376.19l-.22-.171c.153-.071.256-.14.308-.205-.277-.032-.415-.18-.415-.444v-.342c0-.081.052-.122.156-.122h.713c.065 0 .101.038.107.112v.352zm3.106-.708v-1.973c0-.195-.098-.293-.293-.293h-1.172c-.195 0-.293.098-.293.293v1.973c0 .195.098.293.293.293h1.172c.195 0 .293-.098.293-.293zm-2.91.229v-2.431c0-.651.325-.977.976-.977h2.109c.648 0 .974.326.977.977v2.431c-.003.651-.329.977-.977.977h-2.109c-.651 0-.976-.326-.976-.977zm7.168-.229v-1.973c0-.195-.098-.293-.293-.293h-1.172c-.196 0-.293.098-.293.293v1.973c0 .195.097.293.293.293h1.172c.195 0 .293-.098.293-.293zm-2.911.229v-2.431c0-.651.326-.977.977-.977h2.109c.648 0 .974.326.977.977v2.431c-.003.651-.329.977-.977.977h-2.109c-.651 0-.977-.326-.977-.977zm7.168-.229v-1.973c0-.195-.097-.293-.293-.293h-1.172c-.195 0-.292.098-.292.293v1.973c0 .195.097.293.292.293h1.172c.196 0 .293-.098.293-.293zm-2.91.229v-2.431c0-.651.326-.977.977-.977h2.109c.648 0 .973.326.977.977v2.431c-.004.651-.329.977-.977.977h-2.109c-.651 0-.977-.326-.977-.977zM124.497 118.434c0 .12-.066.18-.196.18h-.761c-.131 0-.196-.06-.196-.18v-.337c0-.651.326-.977.977-.977h2.109c.648 0 .973.326.977.977v.537c-.004.293-.101.521-.293.683.192.163.289.391.293.684v.527c-.004.651-.329.977-.977.977h-2.109c-.651 0-.977-.326-.977-.977v-.337c0-.12.065-.18.196-.18h.761c.13 0 .196.06.196.18v.108c0 .195.097.293.293.293h1.171c.196 0 .293-.098.293-.293v-.235c0-.195-.097-.293-.293-.293h-.976c-.13 0-.195-.06-.195-.18v-.552c0-.12.065-.181.195-.181h.976c.196 0 .293-.097.293-.293v-.239c0-.195-.097-.293-.293-.293h-1.171c-.196 0-.293.098-.293.293v.108zm6.015 1.865v-1.973c0-.195-.097-.293-.293-.293h-1.172c-.195 0-.293.098-.293.293v1.973c0 .195.098.293.293.293h1.172c.196 0 .293-.098.293-.293zm-2.91.229v-2.431c0-.651.326-.977.977-.977h2.109c.648 0 .973.326.977.977v2.431c-.004.651-.329.977-.977.977h-2.109c-.651 0-.977-.326-.977-.977zm7.168-.229v-1.973c0-.195-.098-.293-.293-.293h-1.172c-.195 0-.293.098-.293.293v1.973c0 .195.098.293.293.293h1.172c.195 0 .293-.098.293-.293zm-2.91.229v-2.431c0-.651.325-.977.976-.977h2.11c.648 0 .973.326.976.977v2.431c-.003.651-.328.977-.976.977h-2.11c-.651 0-.976-.326-.976-.977zm5.234.479c0 .273-.091.483-.273.63-.134.107-.259.171-.376.19l-.22-.171c.153-.071.256-.14.308-.205-.277-.032-.415-.18-.415-.444v-.342c0-.081.052-.122.156-.122h.713c.065 0 .101.037.107.112v.352zm3.106-.708v-1.973c0-.195-.098-.293-.293-.293h-1.172c-.195 0-.293.098-.293.293v1.973c0 .195.098.293.293.293h1.172c.195 0 .293-.098.293-.293zm-2.91.229v-2.431c0-.651.325-.977.976-.977h2.109c.648 0 .974.326.977.977v2.431c-.003.651-.329.977-.977.977h-2.109c-.651 0-.976-.326-.976-.977zm7.168-.229v-1.973c0-.195-.098-.293-.293-.293h-1.172c-.196 0-.293.098-.293.293v1.973c0 .195.097.293.293.293h1.172c.195 0 .293-.098.293-.293zm-2.911.229v-2.431c0-.651.326-.977.977-.977h2.109c.648 0 .974.326.977.977v2.431c-.003.651-.329.977-.977.977h-2.109c-.651 0-.977-.326-.977-.977zm7.168-.229v-1.973c0-.195-.097-.293-.293-.293h-1.172c-.195 0-.292.098-.292.293v1.973c0 .195.097.293.292.293h1.172c.196 0 .293-.098.293-.293zm-2.91.229v-2.431c0-.651.326-.977.977-.977h2.109c.648 0 .973.326.977.977v2.431c-.004.651-.329.977-.977.977h-2.109c-.651 0-.977-.326-.977-.977zM27.895 108.792l14.497 16.188 3.75-3.064-14.543-16.005 3.979-2.79-12.759-4.115.732 12.713 4.344-2.927zM54.099 108.517L39.602 92.329l-3.75 3.064 14.543 16.005-3.979 2.79 12.759 4.116-.732-12.713-4.344 2.926z"/>
    <path stroke="#000" stroke-linecap="round" stroke-linejoin="round" stroke-miterlimit="10" stroke-width="2" d="M27.895 108.792l14.497 16.188 3.75-3.064-14.543-16.005 3.979-2.79-12.759-4.115.732 12.713 4.344-2.927zM54.099 108.517L39.602 92.329l-3.75 3.064 14.543 16.005-3.979 2.79 12.759 4.116-.732-12.713-4.344 2.926z"/>
</svg>
