<svg xmlns="http://www.w3.org/2000/svg" width="363" height="338" fill="none" viewBox="0 0 363 338">
    <g clip-path="url(#clip0)">
        <path fill="#73B267" d="M39.6 211c18.557 0 33.6-15.043 33.6-33.6 0-18.557-15.043-33.6-33.6-33.6-18.557 0-33.6 15.043-33.6 33.6C6 195.957 21.043 211 39.6 211z"/>
        <path stroke="#000" stroke-linecap="round" stroke-linejoin="round" stroke-miterlimit="10" stroke-width="2" d="M39.6 211c18.557 0 33.6-15.043 33.6-33.6 0-18.557-15.043-33.6-33.6-33.6-18.557 0-33.6 15.043-33.6 33.6C6 195.957 21.043 211 39.6 211z"/>
        <path fill="#FAD45C" d="M39.6 205.4c15.464 0 28-12.536 28-28s-12.536-28-28-28-28 12.536-28 28 12.536 28 28 28z"/>
        <path fill="#DDB64A" d="M67.6 177.4c0 15.5-12.5 28-28 28-1.9 0-3.7-.2-5.4-.5 12.9-2.5 22.6-13.9 22.6-27.5s-9.7-25-22.6-27.5c1.8-.3 3.6-.5 5.4-.5 15.5 0 28 12.6 28 28z"/>
        <path stroke="#000" stroke-linecap="round" stroke-linejoin="round" stroke-miterlimit="10" stroke-width="2" d="M39.6 205.4c15.464 0 28-12.536 28-28s-12.536-28-28-28-28 12.536-28 28 12.536 28 28 28z"/>
        <path fill="#FAD45C" d="M254.4 90.6c0-6.4-5.2-11.5-11.5-11.5h-105c-6.4 0-11.5 5.2-11.5 11.5V96h128.1v-5.4h-.1z"/>
        <path fill="#73B267" d="M254.4 96.1H126.3v30.1h128.1V96.1z"/>
        <path fill="#DAEAD6" d="M300.1 318.6c4.9-154.8-31.4-192.3-31.4-192.3H112s-36.3 37.5-31.4 192.3"/>
        <path fill="#BCC9B8" d="M251.8 146.9s4.2-2 6 2.7c1.8 4.6 16.4 26.8 19.7 64.1l2.2 19.3s1.4 7.1-4.8 9.5c0 0-.9 1.1-4.4 1.5-3.5.4-159.9 0-159.9 0s-8.2.4-8.8-9.3c-.6-9.7 2.2-20.8 2.2-20.8s6-42.2 17.9-62.8c0 0 2.4-5.1 4.2-5.1"/>
        <path fill="#C3CEC0" d="M300.1 318.6H80.6c-.7-21.5-.6-40.8.1-58H300c.7 17.2.8 36.4.1 58z"/>
        <path stroke="#000" stroke-linecap="round" stroke-linejoin="round" stroke-miterlimit="10" stroke-width="2" d="M91.9 174H73.2M72.2 168.3h21.1M73.2 180.9h17M88.7 186.6H72.2M270.3 244H110.4c-5.5 0-9.8-5.2-9.2-11.1 6.8-67.8 23.8-86.6 23.8-86.6h130.8s17 18.8 23.8 86.6c.6 6-3.7 11.1-9.3 11.1z"/>
        <path fill="#C3E0DC" d="M257.8 236.4H122.9c-4.7 0-8.3-4.3-7.8-9.3 5.7-57.2 20.1-73.1 20.1-73.1h110.4s1.5 1.7 3.8 6c4.2 8 11 25.2 15.1 57.2.4 3.1.8 6.4 1.1 9.9.5 4.9-3.1 9.3-7.8 9.3z"/>
        <path stroke="#000" stroke-linecap="round" stroke-linejoin="round" stroke-miterlimit="10" stroke-width="2" d="M125 146.4l10.2 6.7M255.8 146.4l-10.3 6.7M267.3 234.3l10.4 5.8M103.6 240.8l9.8-5"/>
        <path fill="#788974" d="M120.6 270.3h78.3c3.3 0 5.9 1.5 5.9 3.3v7c0 1.8-2.7 3.3-5.9 3.3h-91.7c-3.3 0-5.9-1.5-5.9-3.3v-7c0-1.8 2.7-3.3 5.9-3.3h6.3"/>
        <path stroke="#000" stroke-linecap="round" stroke-linejoin="round" stroke-miterlimit="10" stroke-width="2" d="M242.9 79.1h-105c-6.4 0-11.5 5.2-11.5 11.5v35.6h128.1V90.6c-.1-6.3-5.3-11.5-11.6-11.5z"/>
        <path fill="#fff" d="M171.6 101.8c.7 0 1.2.1 1.5.4.3.3.5.7.7 1.3l4.7 13.4c.2.5.3.9.3 1.2 0 .5-.1.9-.4 1.2-.3.3-.7.4-1.3.4h-1.5c-.6 0-1-.1-1.3-.4-.3-.3-.5-.6-.6-1.2l-.5-1.5h-5.5l-.5 1.5c-.2.5-.4.9-.6 1.2-.3.3-.7.4-1.3.4h-1.5c-.6 0-1-.1-1.3-.4-.3-.2-.4-.6-.4-1.2.1-.4.2-.8.4-1.2l4.7-13.4c.2-.6.4-1.1.7-1.3.3-.3.8-.4 1.5-.4h2.2zm-1.2 6.9l-1.1 3.2h2.3l-1.2-3.2zM182.899 101.8h12.8c.6 0 1.1.1 1.3.4.2.3.4.7.4 1.3v2c0 .6-.1 1-.4 1.3-.2.3-.7.4-1.3.4h-3.5v10.9c0 .5-.1.9-.4 1.2-.3.2-.7.4-1.3.4h-2.1c-.6 0-1-.1-1.3-.4-.3-.3-.4-.6-.4-1.2v-10.9h-3.8c-.6 0-1.1-.1-1.3-.4-.2-.3-.4-.7-.4-1.3v-1.8c0-.7.1-1.2.4-1.5.3-.3.7-.4 1.3-.4zM216.4 103.5V118c0 .5-.1.9-.4 1.2-.3.2-.7.4-1.3.4h-1c-.6 0-1-.1-1.3-.4-.3-.3-.4-.6-.4-1.2v-5.7l-1.3 5.6c-.1.6-.3 1.1-.6 1.3-.3.3-.8.4-1.5.4h-.8c-.7 0-1.2-.1-1.5-.4-.3-.3-.5-.7-.6-1.3l-1.3-5.5v5.7c0 .5-.1.9-.4 1.2-.3.3-.7.4-1.3.4h-1c-.6 0-1-.1-1.3-.4-.3-.3-.4-.6-.4-1.2v-14.6c0-.6.1-1.1.4-1.3.3-.2.7-.4 1.3-.4h2.2c.6 0 1 .1 1.3.4.3.3.5.6.6 1.2l2.4 10.2 2.4-10.2c.1-.5.3-.9.6-1.2.3-.3.7-.4 1.3-.4h2.2c.6 0 1 .1 1.2.4.4.3.5.7.5 1.3z"/>
        <path stroke="#000" stroke-miterlimit="10" stroke-width="4" d="M27.8 174c0 .5-.3.7-.8.7h-3c-.5 0-.8-.2-.8-.7v-1.3c0-2.6 1.3-3.9 3.9-3.9h8.4c2.6 0 3.9 1.3 3.9 3.9v3.6c0 2.6-1.3 3.9-3.9 3.9H29c-.8 0-1.2.4-1.2 1.2v.9c0 .3.1.4.4.4h10.4c.5 0 .8.2.8.7v2.2c0 .5-.3.7-.8.7H24c-.5 0-.8-.2-.8-.7v-5.1c0-2.6 1.3-3.9 3.9-3.9h6.5c.8 0 1.2-.4 1.2-1.2v-1.8c0-.8-.4-1.2-1.2-1.2H29c-.8 0-1.2.4-1.2 1.2v.4zM55.3 185.5c0 .5-.3.7-.8.7h-3c-.5 0-.8-.2-.8-.7v-2.9c0-.3-.1-.4-.4-.4H43c-.5 0-.8-.2-.8-.7v-3.4c0-.3.1-.5.3-.7l6.5-8c.3-.4.7-.6 1.2-.6h4.4c.5 0 .8.2.8.7v8.7c0 .3.1.4.4.4h1.9c.5 0 .8.2.8.7v2.2c0 .5-.3.7-.8.7h-1.9c-.3 0-.4.1-.4.4v2.9h-.1zm-4.9-11.9l-3.7 4.6c-.2.2-.2.4.1.4h3.4c.3 0 .4-.1.4-.4v-4.4c.1-.3 0-.4-.2-.2z"/>
        <path fill="#fff" d="M27.8 174c0 .5-.3.7-.8.7h-3c-.5 0-.8-.2-.8-.7v-1.3c0-2.6 1.3-3.9 3.9-3.9h8.4c2.6 0 3.9 1.3 3.9 3.9v3.6c0 2.6-1.3 3.9-3.9 3.9H29c-.8 0-1.2.4-1.2 1.2v.9c0 .3.1.4.4.4h10.4c.5 0 .8.2.8.7v2.2c0 .5-.3.7-.8.7H24c-.5 0-.8-.2-.8-.7v-5.1c0-2.6 1.3-3.9 3.9-3.9h6.5c.8 0 1.2-.4 1.2-1.2v-1.8c0-.8-.4-1.2-1.2-1.2H29c-.8 0-1.2.4-1.2 1.2v.4zM55.3 185.5c0 .5-.3.7-.8.7h-3c-.5 0-.8-.2-.8-.7v-2.9c0-.3-.1-.4-.4-.4H43c-.5 0-.8-.2-.8-.7v-3.4c0-.3.1-.5.3-.7l6.5-8c.3-.4.7-.6 1.2-.6h4.4c.5 0 .8.2.8.7v8.7c0 .3.1.4.4.4h1.9c.5 0 .8.2.8.7v2.2c0 .5-.3.7-.8.7h-1.9c-.3 0-.4.1-.4.4v2.9h-.1zm-4.9-11.9l-3.7 4.6c-.2.2-.2.4.1.4h3.4c.3 0 .4-.1.4-.4v-4.4c.1-.3 0-.4-.2-.2z"/>
        <path fill="#FAD45C" d="M69.8 63.7c8.118 0 14.7-6.581 14.7-14.7 0-8.118-6.582-14.7-14.7-14.7-8.119 0-14.7 6.582-14.7 14.7 0 8.119 6.581 14.7 14.7 14.7z"/>
        <path stroke="#000" stroke-linecap="round" stroke-linejoin="round" stroke-miterlimit="10" stroke-width="2" d="M69.8 63.7c8.118 0 14.7-6.581 14.7-14.7 0-8.118-6.582-14.7-14.7-14.7-8.119 0-14.7 6.582-14.7 14.7 0 8.119 6.581 14.7 14.7 14.7z"/>
        <path fill="#fff" d="M337.6 67.4c-4.3-4-9.3-5-15-3.9-4 .8-7.6 3-11.2 8.7-8.8.3-12.3 5.3-12.3 11.1s3.7 9.4 8.6 10.2c4.1.7 9.5-.8 11-1.5 1.6 1.4 6.1 3.3 11.2 3.1 6.6-.3 9.2-3.5 9.7-3.7 9.3 2 15.6-4.4 16-11.3.2-5-4.7-13.9-18-12.7z"/>
        <path stroke="#000" stroke-linecap="round" stroke-linejoin="round" stroke-miterlimit="10" stroke-width="2" d="M337.6 67.4c-4.3-4-9.3-5-15-3.9-4 .8-7.6 3-11.2 8.7-8.8.3-12.3 5.3-12.3 11.1s3.7 9.4 8.6 10.2c4.1.7 9.5-.8 11-1.5 1.6 1.4 6.1 3.3 11.2 3.1 6.6-.3 9.2-3.5 9.7-3.7 9.3 2 15.6-4.4 16-11.3.2-5-4.7-13.9-18-12.7zM273.594 283.477c3.903-3.908 3.932-10.208.063-14.073-3.868-3.864-10.168-3.83-14.072.078-3.903 3.907-3.932 10.208-.064 14.072 3.869 3.865 10.169 3.83 14.073-.077z"/>
        <path fill="#EFEFEF" stroke="#000" stroke-linecap="round" stroke-linejoin="round" stroke-miterlimit="10" stroke-width="2" d="M273.594 283.477c3.903-3.908 3.932-10.208.063-14.073-3.868-3.864-10.168-3.83-14.072.078-3.903 3.907-3.932 10.208-.064 14.072 3.869 3.865 10.169 3.83 14.073-.077z"/>
        <path fill="#788974" d="M270.268 280.155c2.03-2.032 2.028-5.325-.003-7.355-2.032-2.03-5.325-2.028-7.355.004-2.03 2.032-2.028 5.324.004 7.354 2.032 2.03 5.324 2.028 7.354-.003z"/>
        <path stroke="#000" stroke-linecap="round" stroke-linejoin="round" stroke-miterlimit="10" stroke-width="2" d="M270.268 280.155c2.03-2.032 2.028-5.325-.003-7.355-2.032-2.03-5.325-2.028-7.355.004-2.03 2.032-2.028 5.324.004 7.354 2.032 2.03 5.324 2.028 7.354-.003z"/>
        <path fill="#fff" d="M265.4 276.6c.939 0 1.7-.716 1.7-1.6 0-.884-.761-1.6-1.7-1.6s-1.7.716-1.7 1.6c0 .884.761 1.6 1.7 1.6z"/>
        <path stroke="#000" stroke-linecap="round" stroke-linejoin="round" stroke-miterlimit="10" stroke-width="2" d="M98.6 151.8c-9.8 26.4-20.8 76.7-18 166.7M298.3 233.2c-7.3-84.1-29.5-107-29.5-107H112s-3.6 3.7-8.3 13.6M300.1 318.6c.9-27.4.5-51.1-.8-71.6"/>
        <path fill="#DFF4F0" d="M243.4 154l-29.1 82.4h-21.9l29.1-82.4h21.9zM264.5 217.2l-6.8 19.2h-35.3l27-76.4c4.2 8.1 11 25.2 15.1 57.2zM152.8 154l-29.1 82.4h-.8c-4.7 0-8.3-4.3-7.8-9.3 5.7-57.2 20.1-73.1 20.1-73.1h17.6z"/>
        <path stroke="#000" stroke-linecap="round" stroke-linejoin="round" stroke-miterlimit="10" stroke-width="2" d="M257.8 236.4H122.9c-4.7 0-8.3-4.3-7.8-9.3 5.7-57.2 20.1-73.1 20.1-73.1H245.5s14.4 15.9 20.1 73.1c.5 4.9-3.1 9.3-7.8 9.3z"/>
        <path stroke="#87AAA4" stroke-linecap="round" stroke-linejoin="round" stroke-miterlimit="10" stroke-width="2" d="M121.9 233.6h138"/>
        <path stroke="#fff" stroke-linecap="round" stroke-linejoin="round" stroke-miterlimit="10" stroke-width="2" d="M243.6 157.5H137.4s-13.3 16.1-18.8 70.8"/>
        <path stroke="#000" stroke-linecap="round" stroke-linejoin="round" stroke-miterlimit="10" stroke-width="2" d="M120.6 270.3h78.3c3.3 0 5.9 1.5 5.9 3.3v7c0 1.8-2.7 3.3-5.9 3.3h-91.7c-3.3 0-5.9-1.5-5.9-3.3v-7c0-1.8 2.7-3.3 5.9-3.3h6.3"/>
        <path fill="#FAD45C" d="M316 72.1c-6.6 12.3-21.9 16.9-34.2 10.4-4.6-2.4-8.1-6.1-10.4-10.3 10 4.4 21.9.5 27.1-9.4 5.2-9.9 2-21.9-7.3-27.7 4.8-.5 9.8.4 14.4 2.9 12.4 6.5 17 21.8 10.4 34.1z"/>
        <path stroke="#000" stroke-linecap="round" stroke-linejoin="round" stroke-miterlimit="10" stroke-width="2" d="M316 72.1c-6.6 12.3-21.9 16.9-34.2 10.4-4.6-2.4-8.1-6.1-10.4-10.3 10 4.4 21.9.5 27.1-9.4 5.2-9.9 2-21.9-7.3-27.7 4.8-.5 9.8.4 14.4 2.9 12.4 6.5 17 21.8 10.4 34.1z"/>
        <path stroke="#fff" stroke-linecap="round" stroke-linejoin="round" stroke-miterlimit="10" stroke-width="2" d="M113.6 129.7h155.7M241.8 256.7H86.1s2.8-60.5 12.8-90.3"/>
        <path stroke="#000" stroke-linecap="round" stroke-linejoin="round" stroke-miterlimit="10" stroke-width="2" d="M79 20.8l-2.8 8.5M63.4 68.7l-2.7 8.5M63.6 20l1.9 8.8M74.1 69.2L76 78M50 27l6 6.6M83.6 64.4l6.1 6.6M41.6 39.8l8.5 2.8M89.5 55.4l8.5 2.7M40.8 55.2l8.8-1.9M90 44.7l8.8-1.9M47.8 68.8l6.7-6M85.2 35.2l6.6-6"/>
        <path fill="#fff" d="M63.2 72.7c-4.3-4-9.3-5-15-3.9-4 .8-7.6 3-11.2 8.7-8.8.3-12.3 5.3-12.3 11.1s3.7 9.4 8.6 10.2c4.1.7 9.5-.8 11-1.5 1.6 1.4 6.1 3.3 11.2 3.1 6.6-.3 9.2-3.5 9.7-3.7 9.3 2 15.6-4.4 16-11.3.2-5-4.7-13.9-18-12.7z"/>
        <path stroke="#000" stroke-linecap="round" stroke-linejoin="round" stroke-miterlimit="10" stroke-width="2" d="M63.2 72.7c-4.3-4-9.3-5-15-3.9-4 .8-7.6 3-11.2 8.7-8.8.3-12.3 5.3-12.3 11.1s3.7 9.4 8.6 10.2c4.1.7 9.5-.8 11-1.5 1.6 1.4 6.1 3.3 11.2 3.1 6.6-.3 9.2-3.5 9.7-3.7 9.3 2 15.6-4.4 16-11.3.2-5-4.7-13.9-18-12.7z"/>
        <g opacity=".72">
            <path fill="#2C5B5B" d="M149.3 186.5c0 .9-.5 1.4-1.4 1.4h-5.3c-.9 0-1.4-.5-1.4-1.4v-2.6c0-5.1 2.3-7.6 6.8-7.6h14.7c4.5 0 6.8 2.5 6.8 7.6v7.1c0 5.1-2.3 7.6-6.8 7.6h-11.4c-1.4 0-2 .8-2 2.3v1.7c0 .5.2.8.7.8h18.3c.9 0 1.4.5 1.4 1.4v4.3c0 .9-.5 1.4-1.4 1.4h-25.6c-.9 0-1.4-.5-1.4-1.4v-10c0-5.1 2.3-7.6 6.8-7.6h11.4c1.4 0 2-.8 2-2.3v-3.5c0-1.5-.7-2.3-2-2.3h-8.2c-1.4 0-2 .8-2 2.3v.8zM197.4 209.2c0 .9-.5 1.4-1.4 1.4h-5.3c-.9 0-1.4-.5-1.4-1.4v-5.7c0-.5-.2-.8-.7-.8h-12.8c-.9 0-1.4-.5-1.4-1.4v-6.6c0-.5.2-1 .5-1.5l11.3-15.7c.5-.8 1.2-1.1 2.1-1.1h7.6c.9 0 1.4.5 1.4 1.4v17.1c0 .5.2.8.7.8h3.4c.9 0 1.4.5 1.4 1.4v4.3c0 .9-.5 1.4-1.4 1.4H198c-.5 0-.7.3-.7.8v5.6h.1zm-8.5-23.3l-6.4 8.9c-.3.5-.3.7.2.7h6c.5 0 .7-.3.7-.8V186c-.1-.4-.2-.5-.5-.1zM217.3 179.7v8.9h9v-8.9c0-1.2.2-2.1.6-2.5.4-.5 1.2-.7 2.3-.7h3.4c1.2 0 2.1.2 2.6.7.5.5.7 1.4.7 2.6v28.5c0 1-.2 1.8-.6 2.3-.4.5-1.2.7-2.3.7h-3.7c-1.1 0-1.8-.2-2.3-.7-.5-.5-.7-1.3-.7-2.3v-9.1h-9v9.1c0 1-.2 1.8-.6 2.3-.4.5-1.2.7-2.3.7h-3.7c-1.1 0-1.8-.2-2.3-.7-.5-.5-.7-1.3-.7-2.3v-28.5c0-1.2.2-2.1.6-2.5.4-.5 1.2-.7 2.3-.7h3.4c1.2 0 2.1.2 2.6.7.5.3.7 1.1.7 2.4z"/>
        </g>
    </g>
    <defs>
        <clipPath id="clip0">
            <path fill="#fff" d="M0 0H351.5V300.6H0z" transform="translate(5 19)"/>
        </clipPath>
    </defs>
</svg>
