<svg width="675" height="199" viewBox="0 0 675 199" fill="none" xmlns="http://www.w3.org/2000/svg">
<path d="M10.3151 10.6608V8.97898C10.3151 8.02837 9.58387 7.15086 8.63325 7.00461C7.53638 6.93149 6.65892 7.73586 6.65892 8.83273V10.6608C6.65892 12.3427 5.3427 13.659 3.66084 13.659H1.97894C1.02832 13.659 0.150862 14.3902 0.0046135 15.3408C-0.068511 16.4377 0.735858 17.3152 1.83273 17.3152H3.66084C5.3427 17.3152 6.65892 18.6314 6.65892 20.3133V21.9951C6.65892 23.0189 7.39011 23.8964 8.34073 23.9695C8.92573 23.9695 9.36449 23.8232 9.73012 23.4576C10.0957 23.092 10.242 22.6533 10.242 22.1414V20.3133C10.242 18.6314 11.5583 17.3152 13.2401 17.3152H15.0682C15.5801 17.3152 16.0188 17.0958 16.3844 16.8033C16.75 16.4377 16.9695 15.9258 16.8964 15.4139C16.8232 14.4633 15.9457 13.7321 14.9219 13.7321H13.2401C11.6314 13.659 10.3151 12.3427 10.3151 10.6608Z" fill="#73B267"/>
<path d="M668.315 145.661V143.979C668.315 143.028 667.584 142.151 666.633 142.005C665.536 141.931 664.659 142.736 664.659 143.833V145.661C664.659 147.343 663.343 148.659 661.661 148.659H659.979C659.028 148.659 658.151 149.39 658.005 150.341C657.931 151.438 658.736 152.315 659.833 152.315H661.661C663.343 152.315 664.659 153.631 664.659 155.313V156.995C664.659 158.019 665.39 158.896 666.341 158.97C666.926 158.97 667.364 158.823 667.73 158.458C668.096 158.092 668.242 157.653 668.242 157.141V155.313C668.242 153.631 669.558 152.315 671.24 152.315H673.068C673.58 152.315 674.019 152.096 674.384 151.803C674.75 151.438 674.969 150.926 674.896 150.414C674.823 149.463 673.946 148.732 672.922 148.732H671.24C669.631 148.659 668.315 147.343 668.315 145.661Z" fill="#73B267"/>
<path d="M89.605 198.21C85.3637 198.21 82 194.773 82 190.605C82 186.364 85.4369 183 89.605 183C93.8462 183 97.2099 186.437 97.2099 190.605C97.2099 194.773 93.773 198.21 89.605 198.21ZM89.605 186.583C87.4112 186.583 85.6562 188.338 85.6562 190.532C85.6562 192.726 87.4112 194.481 89.605 194.481C91.7987 194.481 93.5537 192.726 93.5537 190.532C93.5537 188.338 91.7987 186.583 89.605 186.583Z" fill="white"/>
<path d="M602.678 15.3561C598.396 15.3561 595 11.8862 595 7.67808C595 3.39608 598.47 0 602.678 0C606.96 0 610.356 3.46991 610.356 7.67808C610.356 11.8862 606.886 15.3561 602.678 15.3561ZM602.678 3.61757C600.463 3.61757 598.691 5.38942 598.691 7.60425C598.691 9.81907 600.463 11.5909 602.678 11.5909C604.893 11.5909 606.665 9.81907 606.665 7.60425C606.665 5.38942 604.893 3.61757 602.678 3.61757Z" fill="white"/>
</svg>
