<svg xmlns="http://www.w3.org/2000/svg" width="314" height="236" fill="none" viewBox="0 0 314 236">
    <path fill="#73B267" d="M10.315 3.66V1.98c0-.95-.731-1.828-1.682-1.974C7.536-.07 6.66.735 6.66 1.833V3.66c0 1.682-1.316 2.998-2.998 2.998H1.979c-.95 0-1.828.731-1.974 1.682-.074 1.097.73 1.974 1.828 1.974H3.66c1.682 0 2.998 1.316 2.998 2.998v1.682c0 1.024.731 1.901 1.682 1.975.585 0 1.023-.147 1.39-.512.365-.366.511-.805.511-1.317v-1.828c0-1.682 1.316-2.998 2.998-2.998h1.828c.512 0 .95-.22 1.316-.512.366-.365.585-.877.512-1.39-.073-.95-.95-1.68-1.974-1.68H13.24c-1.609-.074-2.925-1.39-2.925-3.072zM271.315 193.661v-1.682c0-.951-.731-1.828-1.682-1.974-1.097-.074-1.974.731-1.974 1.828v1.828c0 1.682-1.316 2.998-2.998 2.998h-1.682c-.951 0-1.828.731-1.974 1.682-.074 1.097.731 1.974 1.828 1.974h1.828c1.682 0 2.998 1.316 2.998 2.998v1.682c0 1.024.731 1.901 1.682 1.975.585 0 1.023-.147 1.389-.512.366-.366.512-.805.512-1.317v-1.828c0-1.682 1.316-2.998 2.998-2.998h1.828c.512 0 .951-.219 1.316-.512.366-.365.585-.877.512-1.389-.073-.951-.95-1.682-1.974-1.682h-1.682c-1.609-.073-2.925-1.389-2.925-3.071z"/>
    <path fill="#fff" d="M24.605 235.21c-4.241 0-7.605-3.437-7.605-7.605 0-4.241 3.437-7.605 7.605-7.605 4.241 0 7.605 3.437 7.605 7.605 0 4.168-3.437 7.605-7.605 7.605zm0-11.627c-2.194 0-3.949 1.755-3.949 3.949s1.755 3.949 3.949 3.949 3.949-1.755 3.949-3.949-1.755-3.949-3.949-3.949zM305.703 32.368c-4.282 0-7.678-3.47-7.678-7.678 0-4.282 3.47-7.678 7.678-7.678 4.282 0 7.678 3.47 7.678 7.678s-3.47 7.678-7.678 7.678zm0-11.738c-2.215 0-3.987 1.772-3.987 3.986 0 2.215 1.772 3.987 3.987 3.987s3.987-1.772 3.987-3.987c0-2.214-1.772-3.986-3.987-3.986z"/>
</svg>
