<svg xmlns="http://www.w3.org/2000/svg" width="2049" height="755" fill="none" viewBox="0 0 2049 755">
    <path fill="#73B267" d="M1784.11 546.006v-2.3c0-1.3-1-2.5-2.3-2.7-1.5-.1-2.7 1-2.7 2.5v2.5c0 2.3-1.8 4.1-4.1 4.1h-2.3c-1.3 0-2.5 1-2.7 2.3-.1 1.5 1 2.7 2.5 2.7h2.5c2.3 0 4.1 1.8 4.1 4.1v2.3c0 1.4 1 2.6 2.3 2.7.8 0 1.4-.2 1.9-.7.5-.5.7-1.1.7-1.8v-2.5c0-2.3 1.8-4.1 4.1-4.1h2.5c.7 0 1.3-.3 1.8-.7.5-.5.8-1.2.7-1.9-.1-1.3-1.3-2.3-2.7-2.3h-2.3c-2.2-.1-4-1.9-4-4.2zM117.4 134.9c-5.7 0-10.4-4.7-10.4-10.5s4.7-10.4 10.4-10.4c5.8 0 10.4 4.7 10.4 10.4.1 5.8-4.6 10.5-10.4 10.5zm0-15.9c-3 0-5.4 2.4-5.4 5.4 0 3 2.4 5.4 5.4 5.4 3 0 5.4-2.4 5.4-5.4 0-3-2.4-5.4-5.4-5.4z"/>
    <path fill="#FAD45C" d="M222.4 624.8c-5.8 0-10.4-4.7-10.4-10.4 0-5.8 4.7-10.4 10.4-10.4 5.8 0 10.4 4.7 10.4 10.4s-4.7 10.4-10.4 10.4zm0-15.9c-3 0-5.4 2.4-5.4 5.4 0 3 2.4 5.4 5.4 5.4 3 0 5.4-2.4 5.4-5.4 0-3-2.4-5.4-5.4-5.4zM1931.4 192.8c-5.8 0-10.4-4.7-10.4-10.4 0-5.8 4.7-10.4 10.4-10.4 5.8 0 10.4 4.7 10.4 10.4s-4.7 10.4-10.4 10.4zm0-15.9c-3 0-5.4 2.4-5.4 5.4 0 3 2.4 5.4 5.4 5.4 3 0 5.4-2.4 5.4-5.4 0-3-2.4-5.4-5.4-5.4z"/>
</svg>
