<svg xmlns="http://www.w3.org/2000/svg" width="2048" height="659" fill="none" viewBox="0 0 2048 659">
    <g clip-path="url(#clip0)">
        <path fill="#fff" d="M1793.7 580.4c-5.8 0-10.4-4.7-10.4-10.4 0-5.8 4.7-10.4 10.4-10.4 5.8 0 10.4 4.7 10.4 10.4s-4.7 10.4-10.4 10.4zm0-15.9c-3 0-5.4 2.4-5.4 5.4 0 3 2.4 5.4 5.4 5.4 3 0 5.4-2.4 5.4-5.4 0-3-2.4-5.4-5.4-5.4z"/>
        <path fill="#FAD45C" d="M348.5 323c-5.8 0-10.4-4.7-10.4-10.4 0-5.8 4.7-10.4 10.4-10.4 5.8 0 10.4 4.7 10.4 10.4s-4.6 10.4-10.4 10.4zm0-15.9c-3 0-5.4 2.4-5.4 5.4 0 3 2.4 5.4 5.4 5.4 3 0 5.4-2.4 5.4-5.4 0-3-2.4-5.4-5.4-5.4z"/>
        <path fill="#fff" d="M44.4 295c-5.7 0-10.4-4.7-10.4-10.4 0-5.8 4.7-10.4 10.4-10.4 5.8 0 10.4 4.7 10.4 10.4.1 5.7-4.6 10.4-10.4 10.4zm0-15.9c-3 0-5.4 2.4-5.4 5.4 0 3 2.4 5.4 5.4 5.4 3 0 5.4-2.4 5.4-5.4 0-3-2.4-5.4-5.4-5.4z"/>
        <path fill="#73B267" d="M1866.7 48.2c-5.8 0-10.4-4.7-10.4-10.4 0-5.8 4.7-10.4 10.4-10.4 5.8 0 10.4 4.7 10.4 10.4s-4.7 10.4-10.4 10.4zm0-15.9c-3 0-5.4 2.4-5.4 5.4 0 3 2.4 5.4 5.4 5.4 3 0 5.4-2.4 5.4-5.4 0-3-2.4-5.4-5.4-5.4zM1692.9 232.7c-5.8 0-10.4-4.7-10.4-10.4 0-5.8 4.7-10.4 10.4-10.4 5.8 0 10.4 4.7 10.4 10.4.1 5.7-4.6 10.4-10.4 10.4zm0-15.9c-3 0-5.4 2.4-5.4 5.4 0 3 2.4 5.4 5.4 5.4 3 0 5.4-2.4 5.4-5.4.1-2.9-2.4-5.4-5.4-5.4z"/>
        <path fill="#FAD45C" d="M1985 646.8l1.6-1.6c.9-.9 1.1-2.5.3-3.5-1-1.1-2.7-1.2-3.7-.2l-1.8 1.8c-1.6 1.6-4.2 1.6-5.8 0l-1.6-1.6c-.9-.9-2.5-1.1-3.5-.3-1.1 1-1.2 2.7-.2 3.7l1.8 1.8c1.6 1.6 1.6 4.2 0 5.8l-1.6 1.6c-1 1-1.1 2.5-.2 3.5.5.6 1.2.9 1.9.9.6 0 1.3-.2 1.8-.7l1.8-1.8c1.6-1.6 4.2-1.6 5.8 0l1.8 1.8c.5.5 1.1.7 1.8.7s1.4-.3 1.9-.9c.9-1 .7-2.6-.2-3.5l-1.6-1.6c-1.9-1.7-1.9-4.3-.3-5.9zM1652.7 426.5l1.6-1.6c.9-.9 1.1-2.5.3-3.5-1-1.1-2.7-1.2-3.7-.2l-1.8 1.8c-1.6 1.6-4.2 1.6-5.8 0l-1.6-1.6c-.9-.9-2.5-1.1-3.5-.3-1.1 1-1.2 2.7-.2 3.7l1.8 1.8c1.6 1.6 1.6 4.2 0 5.8l-1.6 1.6c-1 1-1.1 2.5-.2 3.5.5.6 1.2.9 1.9.9.6 0 1.3-.2 1.8-.7l1.8-1.8c1.6-1.6 4.2-1.6 5.8 0l1.8 1.8c.5.5 1.1.7 1.8.7s1.4-.3 1.9-.9c.9-1 .7-2.6-.2-3.5l-1.6-1.6c-1.9-1.7-1.9-4.3-.3-5.9z"/>
        <path fill="#fff" d="M153.5 14.7l1.6-1.6c.9-.9 1.1-2.5.3-3.5-1-1.1-2.7-1.2-3.7-.2l-1.8 1.8c-1.6 1.6-4.2 1.6-5.8 0l-1.6-1.6c-.9-.9-2.5-1.1-3.5-.3-1.1 1-1.2 2.7-.2 3.7l1.8 1.8c1.6 1.6 1.6 4.2 0 5.8l-1.6 1.6c-1 1-1.1 2.5-.2 3.5.5.6 1.2.9 1.9.9.6 0 1.3-.2 1.8-.7l1.8-1.8c1.6-1.6 4.2-1.6 5.8 0l1.8 1.8c.5.5 1.1.7 1.8.7s1.4-.3 1.9-.9c.9-1 .7-2.6-.2-3.5l-1.6-1.6c-1.9-1.7-1.9-4.3-.3-5.9zM514 385.4l1.6-1.6c.9-.9 1.1-2.5.3-3.5-1-1.1-2.7-1.2-3.7-.2l-1.8 1.8c-1.6 1.6-4.2 1.6-5.8 0l-1.6-1.6c-.9-.9-2.5-1.1-3.5-.3-1.1 1-1.2 2.7-.2 3.7l1.8 1.8c1.6 1.6 1.6 4.2 0 5.8l-1.6 1.6c-1 1-1.1 2.5-.2 3.5.5.6 1.2.9 1.9.9.6 0 1.3-.2 1.8-.7l1.8-1.8c1.6-1.6 4.2-1.6 5.8 0l1.8 1.8c.5.5 1.1.7 1.8.7s1.4-.3 1.9-.9c.9-1 .7-2.6-.2-3.5l-1.6-1.6c-2-1.7-2-4.3-.3-5.9z"/>
        <path fill="#FAD45C" d="M261 149.1l1.6-1.6c.9-.9 1.1-2.5.3-3.5-1-1.1-2.7-1.2-3.7-.2l-1.8 1.8c-1.6 1.6-4.2 1.6-5.8 0L250 144c-.9-.9-2.5-1.1-3.5-.3-1.1 1-1.2 2.7-.2 3.7l1.8 1.8c1.6 1.6 1.6 4.2 0 5.8l-1.6 1.6c-1 1-1.1 2.5-.2 3.5.5.6 1.2.9 1.9.9.6 0 1.3-.2 1.8-.7l1.8-1.8c1.6-1.6 4.2-1.6 5.8 0l1.8 1.8c.5.5 1.1.7 1.8.7s1.4-.3 1.9-.9c.9-1 .7-2.6-.2-3.5L261 155c-1.6-1.7-1.6-4.3 0-5.9z"/>
        <path fill="#73B267" d="M274.2 551.3l1.6-1.6c.9-.9 1.1-2.5.3-3.5-1-1.1-2.7-1.2-3.7-.2l-1.8 1.8c-1.6 1.6-4.2 1.6-5.8 0l-1.6-1.6c-.9-.9-2.5-1.1-3.5-.3-1.1 1-1.2 2.7-.2 3.7l1.8 1.8c1.6 1.6 1.6 4.2 0 5.8l-1.6 1.6c-1 1-1.1 2.5-.2 3.5.5.6 1.2.9 1.9.9.6 0 1.3-.2 1.8-.7l1.8-1.8c1.6-1.6 4.2-1.6 5.8 0l1.8 1.8c.5.5 1.1.7 1.8.7s1.4-.3 1.9-.9c.9-1 .7-2.6-.2-3.5l-1.6-1.6c-1.9-1.6-1.9-4.3-.3-5.9zM1127 288.6l2.2.6c1.3.4 2.7-.2 3.2-1.4.5-1.4-.2-2.9-1.6-3.3l-2.4-.7c-2.2-.6-3.4-2.9-2.8-5.1l.6-2.2c.4-1.3-.2-2.7-1.4-3.2-1.4-.5-2.9.2-3.3 1.6l-.7 2.4c-.6 2.2-2.9 3.4-5.1 2.8l-2.2-.6c-1.3-.4-2.8.2-3.2 1.5-.3.7-.2 1.5.2 2.1.3.6.8 1 1.5 1.2l2.4.7c2.2.6 3.4 2.9 2.8 5.1l-.7 2.4c-.2.7-.1 1.3.2 1.9.3.6.9 1.1 1.7 1.2 1.3.3 2.6-.6 3-1.9l.6-2.2c.5-2.2 2.8-3.5 5-2.9z"/>
        <path fill="#fff" d="M1237.2 15.5l2.2.6c1.3.4 2.7-.2 3.2-1.4.5-1.4-.2-2.9-1.6-3.3l-2.4-.7c-2.2-.6-3.4-2.9-2.8-5.1l.6-2.2c.4-1.3-.2-2.7-1.4-3.2-1.4-.5-2.9.2-3.3 1.6l-.7 2.4c-.6 2.2-2.9 3.4-5.1 2.8l-2.2-.6c-1.3-.4-2.8.2-3.2 1.5-.3.7-.2 1.5.2 2.1.3.6.8 1 1.5 1.2l2.4.7c2.2.6 3.4 2.9 2.8 5.1l-.7 2.4c-.2.7-.1 1.3.2 1.9.3.6.9 1.1 1.7 1.2 1.3.3 2.6-.6 3-1.9l.6-2.2c.5-2.3 2.8-3.5 5-2.9zM901.7 423.3l2.2.6c1.3.4 2.7-.2 3.2-1.4.5-1.4-.2-2.9-1.6-3.3l-2.4-.7c-2.2-.6-3.4-2.9-2.8-5.1l.6-2.2c.4-1.3-.2-2.7-1.4-3.2-1.4-.5-2.9.2-3.3 1.6l-.7 2.4c-.6 2.2-2.9 3.4-5.1 2.8l-2.2-.6c-1.3-.4-2.8.2-3.2 1.5-.3.7-.2 1.5.2 2.1.3.6.8 1 1.5 1.2l2.4.7c2.2.6 3.4 2.9 2.8 5.1l-.7 2.4c-.2.7-.1 1.3.2 1.9.3.6.9 1.1 1.7 1.2 1.3.3 2.6-.6 3-1.9l.6-2.2c.5-2.3 2.8-3.6 5-2.9z"/>
    </g>
    <defs>
        <clipPath id="clip0">
            <path fill="#fff" d="M0 0H1953.5V658.7H0z" transform="translate(34)"/>
        </clipPath>
    </defs>
</svg>
