<svg xmlns="http://www.w3.org/2000/svg" width="768" height="961" fill="none" viewBox="0 0 768 961">
    <mask id="di5r2p2pfa" width="768" height="961" x="0" y="0" maskUnits="userSpaceOnUse">
        <path fill="#C4C4C4" d="M0 0H768V961H0z"/>
    </mask>
    <g mask="url(#di5r2p2pfa)">
        <path fill="#73B267" d="M612.73 534.47c-3.753 0-6.73-3.044-6.73-6.735 0-3.756 3.041-6.735 6.73-6.735 3.753 0 6.73 3.044 6.73 6.735 0 3.691-3.042 6.735-6.73 6.735zm0-10.297c-1.941 0-3.494 1.554-3.494 3.497 0 1.943 1.553 3.497 3.494 3.497 1.941 0 3.494-1.554 3.494-3.497 0-1.943-1.553-3.497-3.494-3.497zM720.73 819.47c-3.753 0-6.73-3.044-6.73-6.735 0-3.756 3.041-6.735 6.73-6.735 3.753 0 6.73 3.044 6.73 6.735 0 3.691-3.042 6.735-6.73 6.735zm0-10.297c-1.941 0-3.494 1.554-3.494 3.497 0 1.943 1.553 3.497 3.494 3.497 1.941 0 3.494-1.554 3.494-3.497 0-1.943-1.553-3.497-3.494-3.497zM68.73 392.47c-3.753 0-6.73-3.044-6.73-6.735 0-3.756 3.041-6.735 6.73-6.735 3.753 0 6.73 3.044 6.73 6.735.064 3.691-2.977 6.735-6.73 6.735zm0-10.297c-1.941 0-3.495 1.554-3.495 3.497 0 1.943 1.554 3.497 3.495 3.497s3.494-1.554 3.494-3.497c0-1.943-1.553-3.497-3.494-3.497z"/>
        <path fill="#FAD45C" d="M112.417 15.557c-3.753 0-6.729-3.043-6.729-6.735 0-3.756 3.041-6.735 6.729-6.735 3.754 0 6.73 3.044 6.73 6.735.065 3.692-2.976 6.735-6.73 6.735zm0-10.296c-1.941 0-3.494 1.554-3.494 3.497 0 1.942 1.553 3.497 3.494 3.497 1.942 0 3.495-1.555 3.495-3.497 0-1.943-1.553-3.497-3.495-3.497zM157.73 836.47c-3.753 0-6.73-3.044-6.73-6.735 0-3.756 3.041-6.735 6.73-6.735 3.753 0 6.73 3.044 6.73 6.735.064 3.691-2.977 6.735-6.73 6.735zm0-10.297c-1.941 0-3.494 1.554-3.494 3.497 0 1.943 1.553 3.497 3.494 3.497 1.941 0 3.494-1.554 3.494-3.497 0-1.943-1.553-3.497-3.494-3.497zM677.73 60.47c-3.753 0-6.73-3.044-6.73-6.735 0-3.756 3.041-6.735 6.73-6.735 3.753 0 6.73 3.044 6.73 6.735 0 3.691-3.042 6.735-6.73 6.735zm0-10.297c-1.941 0-3.494 1.554-3.494 3.497 0 1.943 1.553 3.497 3.494 3.497 1.941 0 3.494-1.554 3.494-3.497 0-1.943-1.553-3.497-3.494-3.497z"/>
    </g>
</svg>
