<svg xmlns="http://www.w3.org/2000/svg" width="2048" height="864" fill="none" viewBox="0 0 2048 864">
    <g clip-path="url(#clip0)">
        <path fill="#DEEFCE" d="M2048 27.2v836.1H0V27.2c563.7 169.7 992.7 65.6 1394.9 6 27.4-4.1 54.7-7.9 81.9-11.5C1667.6-3.2 1854.1-13 2048 27.2z" opacity=".2"/>
        <path fill="#73B267" d="M1869.82 355.016c-161.41 0-292.76-131.183-292.76-292.399 0-17.21 1.52-34.166 4.4-50.617-22.98 3.037-46.04 6.243-69.18 9.702-1.52 13.413-2.28 27.08-2.28 40.915C1510 260.784 1671.41 422 1869.82 422c71.45 0 138.1-20.922 194.18-56.944v-83.772c-51.69 45.893-119.77 73.732-194.18 73.732zM163.381 575.134c-59.08 0-114.756 14.911-163.381 41.169v75.693c46.032-33.065 102.518-52.515 163.381-52.515 135.34 0 248.717 96.278 275.137 223.919H504c-27.311-163.381-169.621-288.266-340.619-288.266z" opacity=".2"/>
    </g>
    <defs>
        <clipPath id="clip0">
            <path fill="#fff" d="M0 0H2048V863.4H0z"/>
        </clipPath>
    </defs>
</svg>
