<svg xmlns="http://www.w3.org/2000/svg" width="2048" height="558" fill="none" viewBox="0 0 2048 558">
    <g clip-path="url(#clip0)">
        <path fill="#73B267" d="M1460.3 20.9c-5.8 0-10.4-4.7-10.4-10.4 0-5.8 4.7-10.4 10.4-10.4 5.8 0 10.4 4.7 10.4 10.4s-4.7 10.4-10.4 10.4zm0-15.9c-3 0-5.4 2.4-5.4 5.4 0 3 2.4 5.4 5.4 5.4 3 0 5.4-2.4 5.4-5.4 0-3-2.4-5.4-5.4-5.4z"/>
        <path fill="#FAD45C" d="M1926.3 328.9c-5.8 0-10.4-4.7-10.4-10.4 0-5.8 4.7-10.4 10.4-10.4 5.8 0 10.4 4.7 10.4 10.4s-4.7 10.4-10.4 10.4zm0-15.9c-3 0-5.4 2.4-5.4 5.4 0 3 2.4 5.4 5.4 5.4 3 0 5.4-2.4 5.4-5.4 0-3-2.4-5.4-5.4-5.4z"/>
        <path fill="#73B267" d="M158.4 218.5c-5.8 0-10.4-4.7-10.4-10.4 0-5.8 4.7-10.4 10.4-10.4 5.8 0 10.4 4.7 10.4 10.4.1 5.7-4.6 10.4-10.4 10.4zm0-15.9c-3 0-5.4 2.4-5.4 5.4 0 3 2.4 5.4 5.4 5.4 3 0 5.4-2.4 5.4-5.4 0-3-2.4-5.4-5.4-5.4z"/>
        <path fill="#FAD45C" d="M423.7 558.4c-5.8 0-10.4-4.7-10.4-10.4 0-5.8 4.7-10.4 10.4-10.4 5.8 0 10.4 4.7 10.4 10.4.1 5.7-4.6 10.4-10.4 10.4zm0-15.9c-3 0-5.4 2.4-5.4 5.4 0 3 2.4 5.4 5.4 5.4 3 0 5.4-2.4 5.4-5.4 0-3-2.4-5.4-5.4-5.4z"/>
    </g>
    <defs>
        <clipPath id="clip0">
            <path fill="#fff" d="M0 0H2048V558H0z"/>
        </clipPath>
    </defs>
</svg>
