<svg xmlns="http://www.w3.org/2000/svg" width="417" height="157" fill="none" viewBox="0 0 417 157">
    <path fill="#fff" d="M343.087 113.128L5.417 157 0 91.897l340.861-8.76 2.226 29.991z"/>
    <path fill="#354C48" d="M138.63 107.486c.149-.148.371-.223.668-.297l5.195-.519c.297 0 .52 0 .668.148.148.148.223.371.297.668l.148 1.485c0 .371 0 .668-.074.816l-.965 4.083.668-.074c.297 0 .52.074.668.148.149.149.223.372.297.669l.816 8.165c0 .297 0 .52-.074.743-.074.148-.371.297-.668.297l-3.117.296.297 2.821c0 .297 0 .594-.148.743-.149.148-.371.297-.668.297l-1.188.148c-.296 0-.519-.074-.668-.148-.148-.149-.222-.372-.296-.668l-1.93-19.079c-.148-.296-.074-.593.074-.742zm3.117 3.341l.223 2.301.594-2.376-.817.075zm.965 9.576l.519-.074c.297 0 .446-.223.446-.52l-.223-1.93-.965.074.223 2.45zm3.636-10.987c-.148-.148-.222-.445-.222-.816l-.149-1.559c-.074-.371 0-.594.075-.743.074-.148.222-.148.519.075l2.672 1.336c.297.148.519.297.593.371.075.074.149.371.223.668l.223 1.856c0 .297 0 .52-.074.594-.075.148-.297.074-.594-.074l-2.672-1.337c-.297-.074-.519-.222-.594-.371zm.446 4.157c-.075-.148-.223-.445-.223-.816l-.148-1.559c-.075-.371 0-.594.074-.743.074-.148.222-.148.519.075l2.672 1.336c.297.148.52.223.594.371.074.149.148.371.222.742l.223 1.856c0 .297 0 .52-.074.594-.074.074-.297.074-.594-.074l-2.672-1.336c-.296-.149-.519-.297-.593-.446zm4.527 8.018c0 .519.148.965.297 1.187.148.223.445.297.816.223l8.905-.891c.149 0 .372.074.446.223.148.148.222.371.222.594l.223 2.449c0 .223-.074.446-.148.52-.075.074-.223.149-.371.149l-9.722.965c-.52.074-.965-.075-1.262-.223-.297-.223-.519-.594-.742-1.188l-.816 1.188c-.223.297-.372.52-.446.52-.297 0-.445 0-.519-.149-.074-.148-.149-.371-.149-.668l-.222-2.301c-.075-.446.074-.891.445-1.262l.965-1.336c.148-.223.222-.52.222-.817v-.149c0-.371-.148-.445-.296-.445l-1.188.149c-.148 0-.297-.075-.445-.223-.074-.149-.223-.371-.223-.594l-.222-2.301c0-.223 0-.446.074-.594.074-.149.222-.297.371-.297l2.672-.297c.148 0 .296.074.371.223.148.148.222.371.222.594l.52 4.751zm2.152-15.961c.223 0 .371 0 .519.223.149.148.223.371.223.52l4.898-.52c.297 0 .52 0 .668.074.074.074.148.297.223.668v.297c0 .297 0 .52-.075.594-.074.149-.296.223-.667.223l-4.899.519.075.52 4.378-.445c.371 0 .594 0 .668.074.074.074.149.297.223.668v.223c0 .297 0 .519-.074.594-.075.148-.297.222-.668.297l-.965.074.074.594 1.484-.149c.371 0 .52 0 .668.074.074.075.149.372.223.669v.222c0 .297 0 .52-.074.594-.075.149-.297.223-.668.223l-7.199.742c-.297 0-.519 0-.594-.074-.148.148-.296.223-.371.223-.222 0-.371 0-.519-.149-.149-.074-.223-.297-.223-.445l-.074-.965c0-.223 0-.371.148-.446l.371-.371.446-.445c.074-.149.074-.446.074-.743l-.148-1.336-.372.074c-.296 0-.519 0-.667-.148-.075-.074-.223-.297-.223-.594v-.297c0-.371 0-.594.074-.668.074-.148.297-.223.594-.223l.371-.074c0-.223 0-.445.148-.594.149-.148.297-.297.446-.297h1.484zm6.976 7.572c.074.074.148.223.223.446l.742 7.274c0 .223 0 .372-.075.446-.074.074-.222.148-.445.148l-3.043.297c-.222 0-.371 0-.519-.074-.074-.074-.148-.148-.148-.297l-.075-.594c0-.223 0-.445.075-.519.074-.149.222-.223.445-.223l.445-.074-.074-.594-2.894.297.148 1.781c0 .223 0 .371-.074.446-.074.074-.223.148-.445.148l-2.078.223c-.223 0-.372 0-.446-.074-.074-.075-.148-.223-.148-.372l-.742-7.274c0-.223 0-.372.074-.446.074-.074.223-.148.445-.148l8.089-.817c.223-.074.371-.074.52 0zm-6.382-1.781l1.261-.149-.074-.594-.965.074c0 .223-.148.446-.222.669zm3.488 4.231l-.075-.446-2.894.297.074.446 2.895-.297zm.296 2.153l-.074-.52-2.894.297.074.52 2.894-.297zM164.531 110.159c-.149-.149-.223-.372-.297-.743l-.149-1.707c-.074-.446 0-.743.149-.891.074-.148.371-.223.742-.297l5.492-.594-.074-.891c0-.297.074-.519.222-.668.149-.222.371-.297.594-.371l2.746-.297c.222 0 .445.074.668.223.222.148.297.371.297.668l.074.891 9.425-.965c.371-.074.668 0 .816.074.149.148.297.445.297.891l.148 1.707c0 .371 0 .594-.148.817-.074.148-.371.297-.816.297l-10.019 1.039c-.074.52-.149 1.039-.223 1.485l9.351-.965c.371-.075.668 0 .891.148.148.149.222.445.296.891l.149 1.262c0 .371-.074.668-.371.965l-2.004 1.93 2.523-.223c.371-.074.668 0 .817.149.148.148.222.371.297.742l.148 1.262c.074.445 0 .742-.074.891-.149.148-.371.223-.742.297l-4.527.445.519 4.751c0 .297 0 .52-.148.594-.149.148-.371.223-.817.223l-3.933.371c-.371.074-.668 0-.816-.074-.149-.075-.223-.297-.297-.594l-.149-1.633c-.074-.372 0-.594.149-.743.074-.148.371-.222.742-.297h.223c.296 0 .445-.222.371-.594l-.149-1.633-4.304.446c-.371.074-.668 0-.891-.149-.148-.148-.222-.445-.297-.891l-.148-1.261c0-.372 0-.594.148-.743.149-.148.372-.297.817-.371l4.378-.445c0-.149.075-.297.149-.372.148-.074.371-.148.742-.222h.297l1.261-1.262-6.308.668c-.668.668-1.41 1.336-2.3 1.781l.816 8.018c0 .222 0 .445-.148.668-.149.223-.371.297-.668.371l-2.227.223c-.371 0-.593 0-.742-.223-.222-.148-.297-.371-.371-.594l-.742-7.052c-.148.074-.223.074-.371.074-.223 0-.445-.074-.668-.148-.223-.149-.297-.297-.297-.594l-.222-2.45c0-.297 0-.445.222-.668.149-.148.371-.297.594-.297 1.855-.445 3.191-1.41 4.007-2.747.149-.297.297-.593.371-.89l-4.527.445c-.593.074-.89 0-.964-.148zM195.7 122.63c-.297 0-.593 0-.742-.223-.223-.148-.297-.371-.371-.668l-.223-2.524c0-.223.075-.445.223-.668.148-.223.371-.297.742-.371h.149l-.149-1.708-1.929.223.519 5.271c0 .297 0 .519-.148.594-.149.148-.371.222-.817.222l-1.113.149c-.371.074-.594 0-.816-.074-.149-.075-.223-.297-.297-.594l-1.93-19.153c-.074-.445 0-.742.149-.89.148-.149.371-.223.742-.297l6.16-.594c.371-.075.668 0 .816.074.148.074.223.445.297.891l1.929 19.152c0 .297 0 .52-.148.594-.074.074-.297.223-.594.223l-2.449.371zm-1.558-16.703l-1.93.223.074.965 1.93-.223-.074-.965zm.519 5.345l-1.929.223.074.965 1.929-.223-.074-.965zm15.956-5.567c-.148.222-.371.296-.594.296l-1.41.149c-.297 0-.519 0-.742-.223-.222-.148-.297-.371-.297-.668l-.074-.816-6.16.593.297 2.599 8.164-.817c.371-.074.668 0 .816.148.148.149.223.372.297.669.297 2.969-.297 5.641-1.707 7.943.742.445 1.41.668 2.152.742.297 0 .52.074.668.223.223.148.297.371.371.668l.223 2.524c.074.445 0 .742-.149.965-.148.148-.371.222-.668.222-1.261.075-2.745-.668-4.452-2.078-1.039 1.781-2.375 2.747-3.934 2.969-.296.074-.519 0-.668-.074-.074.074-.296.148-.593.223l-1.41.148c-.371 0-.594 0-.742-.148-.149-.149-.223-.371-.223-.743l-1.93-18.929c-.074-.371 0-.668.075-.817.074-.148.371-.223.668-.297l10.76-1.113c.372-.075.594 0 .817.148.148.074.222.371.297.743l.445 4.082c-.074.297-.149.52-.297.669zm-5.789 10.392c-1.113-1.262-2.003-2.746-2.82-4.528h-.148l.594 5.864c.074-.074.222-.148.371-.148 1.039-.223 1.707-.594 2.003-1.188zm3.192-5.122l-2.895.297c.297.668.817 1.41 1.707 2.376.594-1.04.965-1.931 1.188-2.673zM219.226 120.254c-.371.075-.668 0-.817-.074-.148-.074-.222-.297-.222-.594l-.149-1.484c-.074-.372 0-.594.149-.743.148-.148.371-.223.742-.297h.148c.297 0 .446-.222.446-.519l-.297-2.599c-1.039 1.337-2.004 2.005-2.672 2.079-.297 0-.445-.074-.668-.223-.148-.148-.297-.371-.297-.594l-.148-1.633c0-.297 0-.445.148-.594l.965-.965c.52-.519.965-1.187 1.41-2.004.074-.223.223-.445.297-.668l-2.226.223c-.371.074-.668 0-.817-.149-.148-.074-.222-.371-.222-.742l-.149-1.262c-.074-.371-.074-.668.074-.817.075-.148.372-.222.743-.297l1.781-.148-1.856-1.707c-.222-.372-.296-.594-.148-.743.074-.148.371-.222.742-.297l1.559-.148c.371-.074.593 0 .742.074.148.149.445.371.816.742l.297.297 1.336-2.004-5.492.594c-.371.074-.668 0-.816-.149-.149-.148-.223-.371-.297-.742l-.074-1.039c-.075-.446 0-.743.074-.891.148-.148.371-.223.742-.297l8.534-.89c.371-.075.668 0 .817.148.148.148.222.445.297.89l.074 1.04c0 .371 0 .594-.149.742l-2.671 4.083 2.226-.223c0-.074-.074-.594-.223-1.633 0-.223.075-.445.223-.594.149-.148.371-.297.594-.297h.148c.371 0 .52-.297.594-.668.074-.371.074-1.039-.074-1.856l-.074-.89c0-.297.074-.52.222-.668.149-.223.371-.297.594-.372l1.336-.148c.222 0 .445.074.668.222.222.149.296.372.296.669l.075.816 5.788-.594c.371-.074.668 0 .891.149.148.074.223.445.297.891l.074 1.039c0 .371 0 .594-.148.742-.149.149-.372.297-.817.371l-.89.075c-.075 1.187-.446 2.301-1.114 3.34.743.149 1.559.223 2.598.223.371 0 .594.074.742.148.148.149.223.297.223.52l.148 1.559c0 .223 0 .445-.148.594-.149.222-.371.297-.594.297-1.93-.075-3.636-.446-5.195-1.114l-.668.446c.297.222.445.519.52.742l.148 1.633 4.972-.52c.371-.074.668 0 .891.075.148.148.222.445.297.89l.593 6.162c0 .297 0 .519-.148.594-.074.148-.371.222-.816.297l-3.192.297c-.371.074-.667 0-.816-.075-.148-.074-.222-.297-.222-.594l-.149-1.484c-.074-.371 0-.594.149-.743.148-.148.371-.222.742-.296l.445-.075c.297 0 .445-.222.445-.519l-.148-1.262-2.746.297c.148 1.707-.074 2.895-.445 3.786-.446.89-1.262 1.41-2.301 1.558l-1.707.149c-.223 0-.445-.074-.668-.223-.148-.148-.297-.297-.297-.594l-.148-1.484c0-.297.074-.446.223-.668.148-.149.371-.297.593-.297l.52-.075c.371-.074.668-.222.964-.593.149-.223.297-.669.223-1.262l-1.558.148c-.371.074-.594 0-.817-.148-.148-.149-.222-.372-.297-.743l-.074-.965c-.074-.445 0-.742.149-.965.148-.148.371-.223.742-.297l1.558-.148-.148-1.485c-.52.149-1.039.371-1.633.445 0 .297 0 .52-.074.669-.074.148-.297.297-.52.297l-1.261.148c-.371 0-.594 0-.742-.148-.149-.149-.223-.372-.297-.743l-.149-1.188c0-.297-.222-.445-.519-.371h-.074l1.039 10.17c0 .297 0 .52-.149.594-.074.149-.371.223-.742.297l-2.894.074zm8.609-14.03c-.297-.223-.52-.519-.743-.816-.296.148-.593.222-.964.297l-.965.074.148 1.113c.965-.148 1.781-.371 2.524-.668zm3.117-3.489l-1.856.223c.223.742.594 1.336 1.113 1.781.371-.519.594-1.187.743-2.004zM240.525 106.892c-.149-.148-.223-.371-.297-.742l-.148-1.707c-.075-.446 0-.743.074-.891.148-.149.371-.223.742-.297l3.488-.371-.074-.891-3.043.297c-.371 0-.594 0-.816-.149-.149-.148-.223-.445-.297-.742l-.149-1.707c-.074-.446 0-.743.149-.891.148-.149.371-.223.742-.297l3.043-.297-.075-.965c0-.223.075-.446.223-.668.149-.223.371-.297.742-.371l.891-.075c.297 0 .519.075.742.223.223.148.297.371.371.594l.074.965 1.262-.148c.371-.075.668 0 .816.148.149.074.223.445.297.89l.148 1.708c0 .371 0 .594-.148.817-.148.222-.371.297-.816.297l-1.262.148.074.891 1.262-.149c.371-.074.668 0 .816.149.149.148.223.445.297.891l.149 1.707c0 .371 0 .594-.149.817-.148.148-.371.297-.816.297l-1.262.148.074.891 1.262-.149c.371-.074.668 0 .816.149.149.148.223.445.297.891l.149 1.707c0 .371 0 .594-.149.742-.148.149-.371.297-.816.372l-1.262.148.149 1.707c.89.149 1.929.223 2.968.075l10.242-1.04c.222 0 .445.075.667.223.149.149.297.297.297.594l.223 2.227c0 .297-.074.445-.223.668-.148.149-.371.297-.593.297l-10.316 1.039c-2.746.149-5.046-.148-6.828-1.113-.074.519-.222.816-.371 1.039-.371.52-1.039.891-2.078.965-.371.074-.742 0-1.039-.223-.296-.148-.445-.445-.445-.89l-.148-1.114c-.075-.371 0-.742.148-.965.149-.223.445-.371.816-.445.371-.075.52-.372.52-.817l-.445-4.602c0-.372 0-.669.148-.891.149-.223.445-.446.891-.446h.222c.371-.074.742.075.891.297.222.223.371.52.371.817l.297 2.672c.222.371.445.668.668.965l-.594-5.493-3.488.371c0-.074-.223-.148-.371-.297zM257 102.958c-.371.074-.668 0-.816-.074-.149-.075-.223-.297-.223-.52l-.148-1.633c0-.371 0-.594.148-.742.149-.149.371-.223.742-.297h.149c.297 0 .445-.223.445-.52l-.074-.594-1.707.149.074.742c-.074.965-.445 1.856-1.039 2.672-.594.743-1.558 1.262-2.894 1.411h-.297c-.223 0-.445-.074-.668-.223-.148-.148-.297-.297-.297-.594l-.148-1.559c0-.222.074-.445.222-.594.149-.148.371-.297.594-.297.297 0 .52-.148.742-.296.149-.149.223-.446.223-.891l-.891.074c-.371 0-.593 0-.816-.148-.148-.149-.223-.372-.297-.743l-.074-1.04c-.074-.445 0-.742.148-.89.149-.148.371-.223.743-.297l8.682-.89c.372-.075.668 0 .891.148.148.148.223.445.297.89l.594 5.717c0 .297 0 .519-.149.593-.074.149-.371.223-.816.297l-3.34.149zm-4.304 8.834c-.445.074-.817 0-1.039-.149-.297-.148-.445-.519-.52-1.039l-.445-4.677c-.074-.519 0-.891.223-1.113.222-.223.593-.371.964-.446l7.941-.816c.52-.074.891 0 1.113.222.297.223.372.52.446 1.04l.519 4.751c.074.519 0 .89-.222 1.039-.223.223-.52.297-1.039.371l-7.941.817zm4.824-3.712l-.149-1.113-2.449.222.149 1.114 2.449-.223zM271.695 102.067l1.187 11.729c.074.371 0 .594-.149.742-.148.149-.296.223-.593.297l-2.227.223c-.296 0-.519-.074-.668-.148-.148-.075-.222-.372-.296-.743l-.743-7.349c-.519.594-1.113.891-1.929.965-.297.074-.594 0-.742-.148-.149-.149-.297-.446-.297-.891l-.223-1.93c-.074-.371 0-.743.149-.965.148-.297.371-.52.668-.668 1.039-.223 1.781-1.262 2.3-3.118.446-1.856.594-3.564.446-5.197 0-.222.074-.445.222-.668.149-.148.371-.297.594-.297l1.781-.148c.297 0 .519.074.668.223.148.148.297.37.371.594l.148 1.261c.223 2.524-.074 4.603-.667 6.236zm10.76 4.677c-.222 1.039-.593 2.153-1.261 3.118h1.187l4.453-.446c.223 0 .445.074.668.223.148.148.297.297.297.594l.222 2.078c0 .297-.074.446-.222.668-.149.149-.371.297-.594.297l-4.156.446c-1.484.074-2.894-.149-4.378-.743-.891.817-1.856 1.337-2.895 1.485-.222 0-.445-.074-.668-.223-.148-.148-.297-.297-.297-.593l-.222-2.079c0-.297 0-.445.148-.594.149-.148.371-.223.668-.297-.074-.074-.074-.148-.148-.223-.52-.89-.742-1.484-.594-1.633.148-.222.371-.297.594-.371l1.855-.223c.223 0 .445 0 .52.149.148.074.222.223.371.297.296-.446.445-.891.593-1.411l-3.191.297c-.371.075-.668 0-.816-.148-.149-.149-.223-.371-.297-.742l-.891-8.315c-.074-.445 0-.742.149-.89.148-.149.371-.223.816-.297l3.562-.372-.074-.816-3.562.371c-.371.074-.668 0-.816-.148-.149-.149-.223-.372-.297-.743l-.074-.89c-.075-.446 0-.743.148-.891.148-.149.371-.223.816-.297l10.984-1.114c.371-.074.594 0 .816.149.149.148.297.445.297.89l.074.891c0 .372 0 .594-.148.743-.149.148-.371.297-.742.37l-3.563.372.075.816 3.562-.37c.371-.075.594 0 .816.148.149.074.223.445.297.816l.816 8.24c0 .372 0 .594-.148.817-.148.148-.371.297-.742.297l-4.008.297zm-4.898-6.978l.075.816.593-.074-.074-.816-.594.074zm1.039 3.637l-.593.075.074.816.594-.074-.075-.817zm3.414-4.083l.074.817.594-.074-.074-.817-.594.074zm.52 4.529l.593-.075-.074-.816-.594.074.075.817zM290.322 98.875c-.148-.148-.223-.371-.297-.742l-.148-1.114c-.075-.445 0-.742.148-.89.074-.15.371-.223.742-.298l1.262-.148-.297-3.118c-.074-.371 0-.668.074-.816.149-.149.371-.149.742-.223l1.781-.149c.372-.074.668 0 .817.075.148.148.222.37.297.742l.297 3.118.593-.074c.371-.075.668 0 .817.148.148.148.296.445.296.89l.149 1.114c0 .371 0 .594-.149.743-.074.148-.371.297-.816.297l-.594.074.149 1.262.594-.371c.371-.149.667-.149.742.074.148.148.222.445.222.816l.223 2.376c.074.371 0 .594-.148.742-.149.075-.372.297-.743.52l-.519.297.742 7.275c0 .297 0 .519-.148.594-.149.148-.371.222-.817.222l-3.265.371c-.371.075-.594 0-.816-.074-.149-.074-.223-.297-.297-.594l-.223-2.227c0-.371 0-.593.148-.742.149-.148.372-.223.743-.297h.074c.297 0 .445-.223.445-.52l-.223-2.004-1.261.742c-.223.149-.445.149-.668 0-.223-.148-.371-.445-.371-.816l-.223-2.227c-.074-.371 0-.594.074-.742.149-.149.371-.297.743-.594l1.187-.668-.297-2.97-1.262.149c-.148 0-.445-.075-.519-.223zm8.683-1.633c-.149-.149-.223-.371-.297-.743l-.074-.37c-.074-.446 0-.743.148-.891.149-.149.371-.223.742-.297l3.266-.297-.074-.594-3.934.371c-.371.074-.668 0-.816-.149-.148-.148-.223-.445-.297-.742l-.074-.371c-.074-.445 0-.742.074-.89.149-.15.371-.224.742-.298l3.934-.37v-.224c0-.222.074-.445.222-.668.149-.148.371-.297.742-.37l1.559-.15c.297 0 .519.075.742.223.223.149.297.371.371.594v.223l3.859-.371c.371-.075.668 0 .816.074.149.148.297.445.297.89l.074.372c0 .371 0 .594-.148.817-.074.148-.371.297-.816.297l-3.859.37.074.594 3.117-.296c.371-.075.668 0 .816.148.149.148.297.446.297.89l.223 2.005c.222 0 .445.074.593.149.149.074.223.37.297.816l.074.371c0 .371 0 .594-.148.743-.074.148-.297.222-.52.297l.223 2.078c0 .371 0 .594-.148.817-.149.148-.371.297-.817.297l-3.117.297.075.668 3.413-.371c.371-.075.668 0 .817.148.148.149.297.445.297.891l.148 1.188c0 .371 0 .593-.148.742-.149.148-.371.297-.817.371l-3.414.371.075.668c1.039 0 2.078-.074 3.042-.148l1.039-.074c.297 0 .446.074.668.222.223.149.297.297.297.594l.149 1.633c0 .297 0 .446-.223.668-.148.149-.371.297-.594.297l-2.449.223c-2.375.149-4.527-.223-6.308-1.113-.074.519-.223.816-.371 1.039-.371.52-1.039.891-2.078.965l-.742.074c-.297 0-.594 0-.816-.223-.297-.148-.446-.445-.446-.89l-.148-1.114c-.074-.371 0-.742.148-.965.149-.223.371-.371.668-.445.371-.075.52-.371.52-.817l-.223-2.004c0-.371 0-.594.148-.891.149-.223.446-.371.891-.445l.965-.075c.371-.074.742.075.89.297.223.223.297.52.371.891l.075.594c.222.445.519.742.89.891l-.371-3.489-3.265.297c-.371.074-.668 0-.817-.149-.148-.148-.222-.445-.296-.742l-.075-.371c-.074-.446 0-.743.149-.891.148-.149.371-.223.742-.297l3.265-.297-.074-.594-3.933.371c-.371.075-.668 0-.817-.148-.148-.149-.222-.445-.296-.742l-.075-.372c-.074-.445 0-.742.075-.89.148-.149.371-.223.742-.297l3.933-.371-.074-.594-3.266.297c-.074 0-.296-.075-.519-.223zm7.644-.52l.074.594.668-.074-.074-.594-.668.074zm.371 3.118l.074.594.668-.074-.074-.594-.668.074zM322.976 93.085c-.149-.52-.223-1.114-.297-1.708-.074-1.039.074-1.781.594-2.227.519-.52 1.113-.816 2.003-.965.891-.074 1.559.149 2.153.52.519.371.89 1.04.964 2.079.075.593.075 1.187 0 1.707l-.222 10.467-2.82.297-2.375-10.17zm1.929 11.729c.52-.594 1.113-.965 1.93-1.04.816-.074 1.484.149 2.078.669.668.519.965 1.113 1.039 1.93.074.816-.149 1.484-.594 2.152-.519.594-1.113.965-1.929 1.04-.817.074-1.485-.149-2.078-.594-.668-.52-.965-1.188-1.039-1.93-.149-.891.074-1.633.593-2.227z"/>
    <path fill="#FAD45C" d="M27.236 116.988l-6.234.668c-1.039.149-1.632-.297-1.78-1.336l-.298-2.747c-.593-5.345 1.782-8.24 7.125-8.834l17.217-1.855c5.27-.52 8.238 1.781 8.832 7.126l.816 7.423c.52 5.345-1.855 8.315-7.125 8.834l-13.358 1.411c-1.558.148-2.3 1.039-2.152 2.598l.223 1.781c.074.52.37.817.89.743l21.374-2.227c1.039-.149 1.632.297 1.78 1.336l.446 4.528c.074.965-.371 1.559-1.41 1.708L23.6 141.337c-1.04.148-1.633-.371-1.781-1.337l-1.113-10.392c-.594-5.345 1.78-8.314 7.124-8.834l13.433-1.41c1.558-.149 2.3-1.04 2.152-2.599l-.371-3.711c-.149-1.559-1.04-2.302-2.672-2.153l-9.573 1.039c-1.559.149-2.301 1.039-2.153 2.673l.075.89c.074.817-.446 1.411-1.485 1.485zM84.01 134.953l-6.235.668c-1.039.148-1.632-.371-1.78-1.337l-.594-5.938c-.075-.52-.297-.817-.891-.743l-14.991 1.559c-1.039.149-1.633-.297-1.781-1.336l-.742-6.978c-.075-.519.074-1.039.37-1.559l11.504-17.816c.52-.891 1.336-1.336 2.375-1.484l8.98-.966c1.038-.148 1.632.297 1.78 1.337l1.856 17.816c.074.519.297.816.89.742l4.008-.445c1.039-.149 1.633.297 1.781 1.336l.445 4.528c.075.965-.37 1.559-1.41 1.633l-4.007.446c-.52.074-.742.371-.668.891l.594 5.938c0 .965-.446 1.559-1.485 1.708zm-17.59-14.847c-.37.519-.222.742.298.742l6.976-.742c.52-.074.742-.371.668-.891l-.89-9.056c-.075-.52-.224-.594-.446-.149l-6.605 10.096zM104.492 109.49l10.613-1.113-1.039-9.28c-.149-1.261 0-2.152.445-2.672.445-.594 1.336-.89 2.597-1.113l4.008-.446c1.484-.148 2.523 0 3.117.446.594.445.965 1.336 1.113 2.598l3.117 29.842c.148 1.113 0 1.93-.519 2.45-.446.519-1.336.89-2.598 1.039l-4.304.445c-1.262.149-2.152 0-2.746-.445-.594-.445-.965-1.188-1.113-2.301l-1.039-9.502-10.613 1.113 1.039 9.502c.149 1.114 0 1.93-.519 2.45-.446.52-1.336.891-2.598 1.039l-4.378.446c-1.188.148-2.153 0-2.746-.446-.594-.445-.965-1.188-1.113-2.301l-3.117-29.842c-.149-1.262 0-2.153.445-2.672.445-.594 1.336-.891 2.597-1.114l4.008-.445c1.484-.149 2.523 0 3.117.445.593.445.965 1.336 1.113 2.598l1.113 9.279z"/>
    <path fill="#000" d="M23.229 142.227c-.594 0-1.114-.148-1.485-.445-.37-.297-.742-.816-.89-1.707l-1.113-10.393c-.297-2.895.222-5.271 1.558-6.904s3.488-2.672 6.382-2.969l13.433-1.411c.52-.074.89-.222 1.113-.445.223-.223.297-.594.223-1.188l-.371-3.711c-.149-1.114-.594-1.411-1.633-1.337l-9.573 1.04c-1.114.148-1.41.594-1.336 1.633l.074.891c.148 1.484-.668 2.524-2.3 2.672l-6.235.668c-1.558.149-2.597-.594-2.745-2.153l-.297-2.746c-.594-5.79 2.152-9.205 7.94-9.799l17.218-1.856c5.789-.594 9.128 2.153 9.796 7.943l.816 7.423c.594 5.865-2.152 9.28-7.94 9.874l-13.359 1.41c-.52.074-.89.223-1.113.445-.223.223-.297.594-.223 1.188l.149 1.707 21.225-2.227c.742-.074 1.41.075 1.855.446.52.371.816.965.89 1.707l.446 4.528c.074.966-.223 1.559-.52 1.856-.37.446-.964.743-1.78.817l-29.983 3.192c.075-.149-.074-.149-.222-.149zm17.514-32.365c.816 0 1.484.222 2.004.668.668.519 1.039 1.336 1.113 2.375l.371 3.712c.074 1.039-.074 1.93-.594 2.524-.52.594-1.336.965-2.375 1.113l-13.432 1.411c-2.375.222-4.082 1.039-5.12 2.301-1.04 1.262-1.41 3.118-1.188 5.568l1.113 10.392c0 .223.074.371.148.446.075.074.297.074.594.074l29.982-3.192c.297 0 .445-.074.52-.223.074-.074.074-.223.074-.445l-.445-4.529c0-.222-.075-.371-.149-.445 0 0-.148-.074-.593-.074l-21.374 2.227c-1.039.074-1.781-.52-1.93-1.559l-.222-1.782c-.074-1.039.074-1.93.594-2.524.52-.593 1.335-.965 2.374-1.113l13.359-1.411c4.75-.519 6.753-2.969 6.308-7.868l-.742-7.424c-.52-4.825-3.043-6.829-7.793-6.31l-17.143 2.005c-4.824.519-6.828 2.969-6.308 7.794l.297 2.747c.074.371.074.52.742.445l6.234-.668c.668-.074.668-.297.594-.594l-.075-.89c-.222-2.153.891-3.489 2.969-3.712l9.573-1.039h.52zM77.478 136.511c-1.335 0-2.226-.816-2.374-2.152l-.594-5.865-14.843 1.559c-1.558.149-2.597-.594-2.746-2.153l-.742-6.978c-.074-.742.075-1.484.52-2.152l11.503-17.816c.668-1.04 1.707-1.708 3.043-1.856l8.98-.965c.742-.075 1.41.074 1.855.445.52.371.816.965.89 1.707l1.856 17.668 3.859-.371c1.558-.149 2.597.594 2.745 2.153l.446 4.528c.148 1.485-.668 2.524-2.227 2.672l-3.859.372.594 5.864c.148 1.485-.742 2.524-2.226 2.672l-6.234.668h-.446zm-2.82-9.873c.89 0 1.559.594 1.633 1.559l.594 5.939c.074.445.148.594.742.52l6.234-.668c.593-.075.668-.223.593-.669l-.593-5.938c-.074-.52.074-.965.37-1.336.224-.223.52-.52 1.188-.594l4.008-.446c.668-.074.668-.297.593-.594l-.445-4.528c0-.371-.074-.519-.742-.445l-4.007.445c-.594.074-1.04-.148-1.262-.371-.371-.297-.52-.668-.594-1.262l-1.855-17.816c0-.223-.074-.371-.148-.445 0 0-.149-.075-.594-.075l-8.98.965c-.742.075-1.336.371-1.633.965L58.257 119.66c-.222.297-.297.594-.222.965l.742 6.978c.074.372.074.52.742.446l14.99-1.559c-.073.148 0 .148.15.148zm-8.089-4.825c-.668 0-.965-.371-1.113-.594-.297-.445-.223-.965.223-1.559l6.53-10.095c.371-.743.965-.743 1.262-.668.371.074.816.371.89 1.262l.965 9.056c.075.668-.148 1.114-.37 1.336-.223.223-.52.52-1.188.594l-6.976.742c-.075-.074-.149-.074-.223-.074zm6.16-9.65l-4.972 7.646 5.714-.594-.742-7.052zM98.258 134.953c-.965 0-1.78-.223-2.375-.743-.816-.594-1.335-1.559-1.484-2.969l-3.117-29.842c-.222-1.485 0-2.598.668-3.34.594-.743 1.558-1.188 3.191-1.411l4.008-.445c1.781-.223 2.968 0 3.785.668.742.594 1.261 1.633 1.484 3.192l.89 8.388 8.758-.891-.891-8.314c-.223-1.484 0-2.598.668-3.415.519-.742 1.558-1.187 3.117-1.41l4.007-.445c1.782-.223 2.969 0 3.785.668.742.593 1.262 1.633 1.485 3.192l3.116 29.842c.223 1.336-.074 2.375-.742 3.192-.593.742-1.632 1.187-3.117 1.336l-4.378.445c-1.484.223-2.672 0-3.488-.668-.817-.594-1.336-1.559-1.484-2.969l-.891-8.611-8.757.891.89 8.611c.223 1.336-.074 2.375-.742 3.192-.593.742-1.632 1.187-3.117 1.336l-4.378.445c-.223.075-.52.075-.89.075zm2.078-36.895c-.297 0-.594 0-.965.075l-4.007.445c-1.262.148-1.781.52-1.93.742 0 0 0 .075-.074.075-.297.297-.371.965-.222 1.93l3.116 29.842c.149 1.113.446 1.484.742 1.707.372.297 1.114.445 2.079.297l4.378-.445c1.262-.149 1.781-.52 2.004-.743.297-.297.371-.891.297-1.707l-1.039-9.576c-.074-.52.297-.965.816-1.04l10.613-1.113c.222 0 .519.074.667.223.223.148.297.371.372.594l1.039 9.501c.148 1.114.445 1.485.742 1.708.371.297 1.113.371 2.078.297l4.378-.446c.965-.148 1.633-.371 2.004-.742.297-.297.371-.891.297-1.707l-3.117-29.842c-.149-1.337-.594-1.782-.742-1.93-.223-.223-.817-.446-2.449-.297l-4.008.445c-1.261.148-1.781.52-1.929.742-.297.372-.446 1.04-.297 2.005l.965 9.279c.074.52-.297.965-.817 1.039l-10.612 1.114c-.223 0-.52-.075-.668-.223-.149-.148-.297-.371-.371-.594l-.965-9.279c-.148-1.336-.594-1.782-.742-1.93-.371-.297-.742-.446-1.633-.446z"/>
    <path fill="#fff" d="M23.006 117.508l-6.234.668c-1.039.148-1.633-.297-1.781-1.336l-.297-2.747c-.594-5.345 1.781-8.24 7.125-8.834l17.217-1.856c5.27-.519 8.238 1.782 8.831 7.127l.817 7.423c.52 5.345-1.856 8.314-7.125 8.834l-13.358 1.41c-1.559.149-2.3 1.04-2.152 2.599l.222 1.781c.075.52.371.817.891.742l21.373-2.227c1.04-.148 1.633.297 1.782 1.337l.445 4.528c.074.965-.371 1.559-1.41 1.707l-30.057 3.192c-1.039.149-1.632-.371-1.78-1.336L16.4 130.127c-.594-5.344 1.781-8.314 7.125-8.833l13.432-1.411c1.559-.148 2.3-1.039 2.152-2.598l-.37-3.712c-.15-1.559-1.04-2.301-2.672-2.152l-9.574 1.039c-1.558.148-2.3 1.039-2.152 2.672l.074.891c.148.817-.297 1.41-1.41 1.485zM79.78 135.472l-6.235.668c-1.039.149-1.633-.371-1.78-1.336l-.595-5.939c-.074-.519-.296-.816-.89-.742l-14.991 1.559c-1.04.148-1.633-.297-1.781-1.336l-.742-6.978c-.075-.52.074-1.039.37-1.559l11.504-17.816c.52-.891 1.335-1.336 2.374-1.485l8.98-.965c1.04-.148 1.633.297 1.781 1.336l1.856 17.816c.074.52.296.817.89.743l4.008-.446c1.039-.148 1.632.297 1.78 1.337l.446 4.528c.074.965-.37 1.559-1.41 1.633l-4.007.445c-.52.075-.743.372-.668.891l.593 5.939c.075.965-.445 1.559-1.484 1.707zm-17.59-14.847c-.37.52-.222.743.297.743l6.976-.743c.52-.074.743-.371.668-.89l-.964-9.057c-.075-.519-.223-.594-.446-.148l-6.53 10.095zM100.262 110.01l10.612-1.113-1.039-9.28c-.148-1.262 0-2.152.446-2.672.445-.594 1.336-.89 2.597-1.114l4.008-.445c1.484-.148 2.523 0 3.117.445.593.446.964 1.337 1.113 2.599l3.117 29.842c.148 1.113 0 1.93-.52 2.449-.445.52-1.336.891-2.597 1.04l-4.305.445c-1.261.148-2.152 0-2.745-.445-.594-.446-.965-1.188-1.114-2.302l-1.039-9.502-10.612 1.114 1.039 9.502c.148 1.113 0 1.93-.52 2.45-.445.519-1.335.89-2.597 1.039l-4.379.445c-1.187.149-2.152 0-2.745-.445-.594-.446-.965-1.188-1.114-2.301l-3.117-29.842c-.148-1.262 0-2.153.446-2.673.445-.594 1.335-.89 2.597-1.113l4.008-.446c1.484-.148 2.523 0 3.117.446.593.445.964 1.336 1.113 2.598l1.113 9.279z"/>
    <path fill="#000" d="M18.998 142.747c-.593 0-1.113-.148-1.484-.445-.37-.297-.742-.817-.89-1.708l-1.113-10.392c-.297-2.895.222-5.271 1.558-6.904s3.488-2.673 6.382-2.969l13.433-1.411c.52-.074.89-.223 1.113-.445.223-.223.297-.594.223-1.188l-.371-3.712c-.149-1.113-.594-1.41-1.633-1.336l-9.574 1.039c-1.113.149-1.41.594-1.335 1.633l.074.891c.148 1.485-.668 2.524-2.3 2.673l-6.235.668c-1.558.148-2.597-.594-2.745-2.153l-.297-2.747c-.594-5.79 2.152-9.205 7.94-9.798l17.218-1.856c5.788-.594 9.128 2.152 9.796 7.943l.816 7.423c.594 5.865-2.152 9.279-7.94 9.873l-13.359 1.411c-.52.074-.89.222-1.113.445-.223.223-.297.594-.223 1.188l.149 1.707 21.225-2.227c.742-.074 1.41.074 1.855.446.52.371.816.965.89 1.707l.446 4.528c.074.965-.223 1.559-.52 1.856-.37.445-.964.742-1.78.817l-29.983 3.192c.074-.149-.074-.149-.223-.149zm17.515-32.366c1.781 0 2.968 1.114 3.191 3.044l.371 3.712c.074 1.039-.074 1.93-.594 2.523-.52.594-1.336.965-2.374 1.114l-13.433 1.41c-2.375.223-4.082 1.04-5.12 2.302-1.04 1.262-1.41 3.117-1.188 5.567l1.113 10.393c0 .223.074.371.149.445.074.075.296.075.593.075l29.982-3.193c.297 0 .446-.074.52-.222.074-.074.074-.223.074-.446l-.445-4.528c0-.223-.074-.371-.149-.445 0 0-.148-.075-.593-.075l-21.374 2.227c-1.039.075-1.78-.519-1.93-1.558l-.222-1.782c-.074-1.039.074-1.93.594-2.524.52-.594 1.336-.965 2.374-1.113l13.359-1.411c4.75-.52 6.753-2.969 6.308-7.869l-.742-7.423c-.52-4.825-3.043-6.83-7.792-6.31l-17.218 1.856c-4.824.52-6.827 2.969-6.308 7.794l.297 2.747c.074.371.074.52.742.446l6.234-.669c.668-.074.668-.297.594-.593l-.075-.891c-.222-2.153.89-3.489 2.969-3.712l9.573-1.039c.149.148.371.148.52.148zM73.248 137.031c-1.336 0-2.226-.816-2.374-2.153l-.594-5.864-14.843 1.559c-1.558.148-2.597-.594-2.746-2.153l-.742-6.978c-.074-.742.074-1.485.52-2.153l11.503-17.816c.668-1.039 1.707-1.707 3.042-1.856l8.98-.965c.742-.074 1.41.075 1.856.446.52.37.816.965.89 1.707l1.856 17.668 3.858-.371c1.559-.149 2.598.593 2.746 2.152l.446 4.529c.148 1.484-.668 2.524-2.227 2.672l-3.859.371.594 5.865c.148 1.484-.742 2.524-2.227 2.672l-6.233.668h-.446zm-2.82-9.873c.89 0 1.559.594 1.633 1.559l.594 5.939c.074.445.148.594.742.519l6.234-.668c.593-.074.668-.222.593-.668l-.593-5.939c-.075-.519.074-.965.296-1.262.223-.222.52-.593 1.188-.668l4.008-.445c.667-.074.667-.297.593-.594l-.445-4.528c0-.371-.074-.52-.742-.446l-4.008.446c-.594.074-1.039-.149-1.261-.371-.371-.297-.52-.668-.594-1.262l-1.855-17.816c0-.223-.075-.372-.149-.446 0 0-.148-.074-.594-.074l-8.98.965c-.741.074-1.335.371-1.632.965L53.953 120.18c-.223.297-.297.594-.223.965l.742 6.978c0 .371.075.52.743.446l14.99-1.559c.075.148.149.148.223.148zm-8.089-4.825c-.668 0-.965-.371-1.113-.594-.297-.445-.223-.965.223-1.559l6.53-10.096c.371-.742.965-.742 1.262-.668.37.074.816.371.89 1.262l.965 9.057c.074.519-.074.965-.297 1.262-.222.222-.52.594-1.187.668l-6.976.742c-.149-.074-.223-.074-.297-.074zm6.16-9.651l-4.973 7.647 5.715-.594-.742-7.053zM94.102 135.472c-.965 0-1.78-.222-2.375-.742-.816-.594-1.335-1.559-1.484-2.969l-3.117-29.842c-.222-1.485 0-2.599.668-3.34.594-.743 1.559-1.189 3.191-1.411l4.008-.446c1.78-.222 2.968 0 3.785.668.742.594 1.261 1.633 1.484 3.192l.891 8.389 8.757-.891-.891-8.314c-.223-1.485 0-2.598.668-3.415.52-.742 1.559-1.188 3.117-1.41l4.007-.446c1.782-.223 2.969 0 3.785.668.742.594 1.262 1.633 1.485 3.192l3.117 29.842c.222 1.337-.075 2.376-.743 3.192-.593.743-1.632 1.188-3.117 1.337l-4.378.445c-1.484.223-2.672 0-3.488-.668-.816-.594-1.336-1.559-1.484-2.969l-.891-8.612-8.757.891.89 8.611c.223 1.337-.074 2.376-.742 3.192-.593.743-1.632 1.188-3.117 1.337l-4.378.445c-.223.074-.594.074-.89.074zm2.004-36.894c-.297 0-.594 0-.965.074l-4.007.446c-1.262.148-1.781.52-1.93.742 0 0 0 .074-.074.074-.297.297-.371.965-.223 1.93l3.117 29.842c.149 1.114.446 1.485.742 1.708.371.297 1.114.445 2.078.297l4.379-.446c1.262-.148 1.781-.519 2.004-.742.297-.297.371-.891.297-1.708l-1.039-9.576c-.075-.519.296-.965.816-1.039l10.612-1.113c.223 0 .52.074.668.222.149.149.297.371.371.594l1.039 9.502c.149 1.114.446 1.485.743 1.707.371.297 1.113.372 2.077.297l4.379-.445c.965-.149 1.633-.371 2.004-.742.297-.297.371-.891.297-1.708l-3.266-29.99c-.148-1.336-.593-1.782-.742-1.93-.222-.223-.816-.446-2.449-.297l-4.007.445c-1.262.149-1.782.52-1.93.743-.297.37-.445 1.039-.297 2.004l.965 9.279c.074.52-.297.965-.816 1.039l-10.613 1.114c-.222 0-.52-.074-.668-.223-.222-.148-.297-.371-.37-.594l-.966-9.279c-.148-1.336-.593-1.782-.742-1.93-.222-.148-.593-.297-1.484-.297z"/>
    <path fill="#fff" d="M336.928 66.435l-263.68 8.24-.742-42.24 263.457 5.049.965 28.95z"/>
    <path fill="#354C48" d="M86.384 50.549c-.148-.149-.222-.446-.222-.742v-1.708c0-.445.074-.742.222-.89.149-.15.371-.223.742-.223l5.492-.075v-.89c0-.297.074-.446.223-.669.148-.222.37-.296.593-.296l2.746-.075c.223 0 .445.149.594.297.148.149.297.371.297.668v.891l9.425-.148c.445 0 .668.074.816.148.149.149.223.446.223.891v1.707c0 .371-.074.594-.223.743-.148.148-.371.222-.816.222l-10.019.149c-.074.52-.223.965-.37 1.41l9.35-.148c.371 0 .668.074.816.222.149.149.223.446.223.891v1.262c0 .371-.149.668-.445.891l-2.153 1.782 2.524-.075c.371 0 .668.075.816.223.148.149.223.371.223.742v1.262c0 .446-.075.743-.149.891-.148.149-.371.223-.816.223l-4.527.074.074 4.751c0 .297-.074.446-.148.594-.149.148-.371.148-.817.148l-3.933.075c-.371 0-.668 0-.742-.149-.149-.148-.223-.297-.223-.594v-1.633c0-.37.074-.594.223-.742.148-.148.371-.223.742-.223h.223c.297 0 .445-.148.445-.52v-1.633l-4.379.075c-.37 0-.668-.075-.816-.223-.148-.148-.223-.445-.223-.89v-1.263c0-.37.075-.594.149-.742.148-.149.445-.297.816-.297l4.379-.074c0-.149.074-.297.148-.371.149-.075.371-.149.742-.149h.297l1.41-1.188-6.308.149c-.668.668-1.484 1.188-2.449 1.559l.149 8.017c0 .223-.075.445-.223.668-.223.223-.371.297-.668.297l-2.227.074c-.37 0-.593-.074-.742-.297-.222-.222-.296-.37-.296-.668l-.149-7.052c-.148 0-.297.074-.371.074-.223 0-.445-.074-.594-.223-.222-.148-.296-.37-.296-.593l-.075-2.45c0-.297.075-.446.223-.594.148-.148.371-.223.594-.223 1.855-.297 3.265-1.113 4.156-2.45.222-.296.296-.593.445-.816l-4.527.074c-.223.075-.445-.074-.594-.148zM111.765 51.81c-.148-.148-.223-.445-.223-.742v-.742c0-.445.075-.742.223-.89.148-.15.445-.223.891-.223l2.152-.075v-.52l-2.449.075c-.446 0-.742-.074-.891-.223-.148-.148-.222-.37-.222-.742v-.742c0-.446.074-.743.222-.891.149-.149.445-.223.891-.223l2.449-.074v-.371c0-.223.148-.446.297-.668.222-.223.445-.297.816-.297h1.336c.297 0 .519.074.742.222.223.223.297.372.297.669v.37l2.449-.074c.371 0 .668.075.816.223.149.149.223.446.223.89v.743c0 .371-.074.594-.223.743-.148.148-.371.222-.816.222l-2.449.075v.52l2.152-.075c.371 0 .668.074.816.223.149.148.223.445.223.89v.743c0 .371-.074.594-.223.742-.148.149-.371.223-.816.223l-7.867.148c-.445.074-.668.074-.816-.148zm-.148 10.616c.148-.223.371-.37.668-.37.074-.075.074-.224.148-.372v-.965c0-.297.074-.594.297-.817.148-.222.519-.37.965-.37h.148c.445 0 .742.073.965.37.148.223.297.52.297.891v.965c0 1.262-.223 2.153-.817 2.598-.593.52-1.039.743-1.558.743-.371 0-.668-.075-.965-.297-.297-.149-.371-.446-.371-.891v-.371c0-.594.074-.891.223-1.114zm.074-3.711c-.149-.223-.297-.446-.297-.817v-.52c0-.52.074-.816.297-1.039.148-.148.445-.297.965-.297l7.94-.148c.446 0 .817.074.965.222.149.223.297.52.297 1.04v.445c0 .371-.074.668-.223.89-.148.224-.519.298-.964.298l-2.375.074.074 5.493c0 .297-.074.52-.371.743-.223.222-.52.37-.891.37h-.148c-.371 0-.668-.073-.891-.296-.222-.223-.371-.445-.371-.742l-.074-5.494-2.894.075c-.52 0-.817-.075-1.039-.297zm.222-3.49c-.222-.222-.296-.445-.296-.816v-.594c0-.52.074-.816.222-1.04.223-.222.52-.296.965-.296l7.421-.148c.52 0 .817.074.965.222.149.149.297.52.297 1.04v.445c0 .371-.074.668-.297.89-.148.223-.519.298-1.039.298l-7.421.148c-.297.148-.594.074-.817-.148zm9.203 8.538c-.223.222-.52.37-.891.37h-.148c-.371 0-.668-.074-.891-.296-.222-.223-.371-.52-.371-.817l-.074-2.524c0-.297.074-.52.371-.742.223-.223.52-.371.891-.371h.148c.371 0 .668.074.891.37.222.224.371.52.371.743l.074 2.524c0 .223-.148.445-.371.742zm5.121-19.524c.296 0 .445.074.668.297.148.223.296.371.296.668v.89c0 .52 0 1.114-.074 1.56l4.972-.075c.297 0 .52.075.594.149.149.074.223.371.223.742l.074 3.935c0 .37-.074.668-.148.816-.075.149-.297.223-.594.223h-1.41c-.371 0-.668-.074-.817-.223-.148-.148-.222-.37-.222-.742V51.29c0-.297-.149-.445-.52-.445l-3.117.074c-.964 1.262-1.929 1.93-2.894 1.93h-.297c-.297 0-.519-.074-.668-.223-.222-.148-.297-.37-.297-.594V50.4c0-.297.075-.445.297-.593.223-.149.371-.223.668-.297.446 0 .817-.297.965-.817.223-.52.297-1.336.297-2.45v-.965c0-.297.074-.445.297-.668.148-.222.371-.297.593-.297l1.114-.074zm1.929 7.2c.297 0 .52.075.668.298.223.222.297.37.297.668l.074 3.192c0 1.484.371 2.598.965 3.414.668.743 1.262 1.262 1.781 1.485.52.223.891.371 1.039.52.148.148.223.297.223.594l.074 2.598c0 .297-.074.445-.297.594-.148.148-.371.222-.668.297-1.113 0-2.375-.891-3.933-2.673-.297-.297-.52-.594-.742-.89-.223.296-.446.667-.668.89-1.485 1.856-2.746 2.747-3.859 2.747-.297 0-.52-.074-.668-.223-.223-.148-.297-.371-.297-.594l-.074-2.598c0-.223.074-.445.222-.594.149-.148.52-.37 1.039-.594.52-.222 1.114-.742 1.707-1.559.668-.742.891-1.93.891-3.414l-.074-3.192c0-.223.074-.446.296-.668.223-.223.446-.297.668-.297h1.336zM136.701 48.396c-.149-.148-.223-.445-.223-.742l-.074-2.45c0-.445.074-.742.222-.89.149-.15.372-.224.743-.224l19.443-.37c.446 0 .668 0 .817.148.148.148.222.445.222.89l.075 2.45c0 .372-.075.594-.149.743-.148.148-.445.222-.816.222l-7.57.149c-.074.445-.148.89-.222 1.262h2.003c.223 0 .446.148.594.297.148.222.223.37.223.668.222 1.633.668 2.82 1.41 3.415.742.593 2.078 1.039 4.007 1.262.223 0 .445.074.594.222.223.149.297.371.297.594l.074 3.044c0 .222-.074.445-.223.594-.148.148-.371.297-.593.297-3.266-.149-5.789-1.114-7.57-2.747l.148 6.755c0 .297-.148.446-.297.668-.222.223-.445.297-.667.297l-2.821.074c-.296 0-.519-.074-.742-.222-.222-.223-.297-.371-.297-.668l-.148-7.053c-2.152 2.005-4.601 3.118-7.421 3.341-.223 0-.446-.074-.594-.223-.223-.148-.297-.37-.297-.594l-.074-3.043c0-.223.074-.446.223-.594.148-.149.371-.223.593-.297 1.856-.297 3.637-1.336 5.195-3.044 1.039-1.113 1.707-2.524 2.078-4.082l-7.273.148c-.519-.074-.742-.148-.89-.297zM266.351 58.195c-.148-.148-.223-.446-.223-.742v-.669c0-.445.075-.742.149-.89.148-.149.297-.223.445-.223l3.488-.074v-.594l-2.968.074c-.223 0-.371-.074-.52-.223-.148-.148-.223-.37-.223-.742v-.668c0-.445.075-.742.149-.89.074-.15.297-.224.519-.224l2.969-.074v-.668l-2.598.074c-.371 0-.593-.074-.816-.222-.223-.149-.297-.52-.297-1.114l-.148-7.052c0-.52.074-.89.297-1.114.148-.222.445-.296.742-.296l7.644-.149c.371 0 .668.074.816.297.149.223.297.52.297 1.04l.148 7.126c0 .52-.074.89-.222 1.039-.149.223-.446.297-.817.297l-2.671.074v.668l2.968-.074c.223 0 .446.074.52.223.148.148.222.445.222.89v.669c0 .37-.074.593-.148.742-.074.148-.297.223-.52.223l-2.968.074v.594l3.488-.075c.223 0 .371.075.519.149.149.148.223.445.223.89v.669c0 .371-.074.594-.223.742-.148.149-.296.223-.519.223l-9.351.148c-.148.075-.297 0-.371-.148zm2.004 3.637c-.074.446-.074.669-.149.817-.074.148-.148.223-.371.223h-1.113c-.148 0-.297 0-.371-.149-.074-.148-.074-.371-.074-.742l.445-2.079c.149-.37.149-.668.223-.816.074-.149.148-.223.371-.223h.965c.222 0 .371.074.445.223.074.222.074.37 0 .668l-.371 2.078zm1.781-13.065l-.074-4.231h-1.93l.074 4.231h1.93zm-1.855-3.118c.074-.148.148-.222.222-.148h.668c.074 0 .149 0 .223.074.074.074.074.297.148.52l.297 1.262c.074.223.074.371 0 .445-.074.074-.148.074-.223.074h-.667c-.149 0-.223 0-.223-.074s-.074-.297-.149-.52l-.296-1.187c-.075-.223-.075-.371 0-.446zm.89 13.437c.074-.223.223-.297.371-.297h1.039c.223 0 .297.074.371.148.074.149.149.371.297.817l.445 2.004c.075.371.075.668 0 .742-.074.149-.222.149-.371.149h-1.113c-.222 0-.297-.074-.371-.148-.074-.149-.148-.372-.223-.817l-.519-2.004c0-.149 0-.372.074-.594zm2.523 0c.075-.223.223-.297.446-.297h1.039c.222 0 .297.074.371.148.074.149.148.371.297.817l.519 2.004c.074.371 0 .668-.074.742-.074.149-.223.149-.371.149h-1.113c-.149 0-.297-.074-.371-.223-.075-.148-.149-.37-.223-.816l-.52-2.005c-.074-.148 0-.37 0-.52zm2.672-14.624h-2.004l.075 4.231h2.003l-.074-4.231zm-.297 2.672c-.074.223-.148.446-.148.52 0 .074-.149.074-.223.074h-.668c-.148 0-.222 0-.222-.074-.075-.075-.075-.223 0-.446l.222-1.262c.074-.222.149-.445.149-.52.074-.074.148-.148.222-.074h.668c.074 0 .223 0 .223.149.074.148.074.297.074.371l-.297 1.262zm.149 11.877c.074-.222.222-.296.445-.296h.965c.222 0 .297.074.371.148.074.148.148.371.297.817l.519 2.004c.074.371 0 .668-.074.742-.074.149-.223.149-.371.149h-1.113c-.223 0-.297-.075-.371-.149-.075-.148-.149-.37-.223-.816l-.445-2.005c-.075-.148-.075-.37 0-.593zm4.452 3.638c-.445 0-.742-.074-1.039-.223-.222-.148-.371-.52-.371-1.113l-.148-10.022c0-.52.074-.89.371-1.113.223-.223.594-.371.965-.371h.965l-.149-7.572c0-.223.074-.446.223-.52.148-.148.297-.148.519-.148l2.301-.075c.223 0 .445.075.594.149.148.148.222.297.222.52l.074 2.152 3.414-.074c.446 0 .668.074.817.149.148.148.222.445.222.89v1.708c0 .37-.074.594-.222.742-.149.148-.371.223-.817.223l-3.414.074v1.633l2.821-.074c.519 0 .89.074 1.113.297.222.222.371.594.371 1.039l.148 10.096c0 .52-.074.89-.297 1.04-.222.222-.593.296-1.039.296l-7.644.297zm5.418-3.86l-.074-5.197-3.191.075.074 5.196 3.191-.074zM312.141 48.248c.148.148.222.445.222.89v1.708c0 .371-.074.594-.222.742-.149.149-.371.297-.817.297l-6.753.148v1.708l7.421-.149c.371 0 .668.075.817.223.148.149.222.446.222.89v1.708c0 .372-.074.594-.222.743-.149.148-.372.222-.817.222l-7.421.149.074 3.712c0 .296-.074.445-.223.668-.148.222-.371.297-.667.297l-3.043.074c-.297 0-.52-.075-.742-.223-.223-.223-.297-.371-.297-.668l-.074-3.712-7.496.149c-.371 0-.594-.075-.742-.223-.148-.148-.223-.445-.223-.742V55.15c0-.445.075-.742.223-.89.148-.149.371-.223.742-.223l7.496-.149v-1.707l-6.828.148c-.371 0-.594-.074-.742-.222-.149-.149-.223-.371-.223-.743v-1.707c0-.445.074-.742.223-.89.148-.15.371-.224.742-.224l6.828-.148-.149-6.31c0-.222.149-.445.297-.668.148-.148.371-.297.742-.297l3.043-.074c.297 0 .519.074.668.223.148.222.222.37.222.668l.149 6.31 6.753-.149c.446-.074.668 0 .817.149zm-13.878-1.262c-.223.222-.446.297-.668.297l-2.672.074c-.445 0-.668 0-.816-.149-.149-.148-.297-.37-.52-.816l-1.781-3.192c-.222-.372-.222-.668-.074-.817.148-.148.371-.223.742-.223l3.043-.074c.297 0 .445.074.594.149.074.148.296.37.445.816l1.781 3.192c.148.297.074.52-.074.743zm9.128-4.083c.148-.371.371-.668.445-.817.149-.148.297-.222.594-.222l3.043-.075c.371 0 .668.075.742.223.148.148.074.371-.074.816l-1.707 3.193c-.223.445-.371.668-.52.816-.148.149-.371.223-.816.149l-2.672.074c-.297 0-.519-.074-.742-.223-.223-.223-.223-.445-.074-.742l1.781-3.192zM189.466 53.073c-.371 0-.668-.074-.742-.223-.148-.148-.223-.445-.223-.742V50.4c0-.445.075-.742.223-.89.149-.149.371-.223.742-.223l3.562-.074v-.891l-3.042.074c-.371 0-.668-.074-.742-.223-.149-.148-.223-.445-.223-.742v-1.707c0-.446.074-.743.223-.891.148-.149.371-.223.742-.223l3.042-.074v-.965c0-.223.075-.445.297-.668.149-.223.446-.297.742-.297h.891c.297 0 .519.074.742.297.223.148.297.37.297.594v.965h1.336c.371 0 .668.074.816.222.149.149.223.446.223.891v1.708c0 .37-.074.593-.223.742-.148.148-.445.223-.816.297h-1.336v.89h1.855c.371 0 .668.075.817.223.148.149.222.446.222.891v1.707c0 .372-.074.594-.222.743-.149.148-.446.223-.817.297h-1.855v.89h1.336c.371 0 .668.075.816.223.149.149.223.446.223.891v1.708c0 .37-.074.593-.223.742-.148.148-.445.222-.816.297h-1.336v1.707c.891.223 1.855.371 2.969.371l12.17-.148c.223 0 .446.074.668.223.149.148.297.37.297.593l.074 2.227c0 .223-.074.446-.222.594-.149.149-.371.223-.594.297l-12.171.149c-2.746 0-4.972-.594-6.679-1.634-.148.446-.297.817-.445 1.04-.446.52-1.188.742-2.153.816-.371 0-.742-.074-.964-.296-.223-.149-.371-.52-.371-.891v-1.114c0-.371.074-.742.222-.965.149-.223.446-.371.817-.371.371-.074.593-.297.593-.742l-.074-4.603c0-.297.074-.594.223-.89.148-.223.445-.372.89-.372h.223c.371 0 .668.074.891.371.148.223.296.52.296.891l.075 2.672c.148.446.371.743.593.966l-.074-5.494-3.785-.148z"/>
    <path fill="#354C48" d="M199.337 57.972c-.075-.148-.149-.37-.149-.668v-.965c0-.371 0-.668.149-.816.074-.149.222-.223.445-.223l4.156-.074v-.594l-3.562.074c-.223 0-.371-.074-.446-.223-.074-.148-.148-.37-.148-.668v-.965c0-.371 0-.668.148-.817.149-.148.223-.222.446-.222l10.167-.223c.222 0 .445.074.519.149.075.148.149.37.149.742v.965c0 .297 0 .52-.149.668-.074.148-.222.223-.519.223l-3.562.074v.594l4.156-.074c.222 0 .445.074.519.148.074.149.148.371.148.742v.965c0 .297 0 .52-.148.669-.074.148-.223.222-.519.222l-4.156.075.074 2.45c0 .222 0 .445-.149.593-.074.149-.222.223-.445.223l-1.855.074c-.223 0-.371-.074-.446-.223-.148-.148-.148-.37-.222-.593l-.074-2.45-4.156.074c-.149.297-.297.223-.371.074zm1.039-6.755c-.297 0-.52-.074-.668-.223-.149-.148-.223-.445-.223-.965l-.148-5.864c0-.446.074-.743.222-.965.149-.223.371-.297.594-.297l9.87-.223c.297 0 .52.074.668.297.149.149.223.445.223.89l.148 5.865c0 .446-.074.743-.148.965-.149.149-.371.223-.668.223l-9.87.297zm1.929-5.939v.594l5.64-.148v-.594l-5.64.148zm5.715 3.415v-.594l-5.641.149v.594l5.641-.149z"/>
    <path fill="#3E8487" d="M233.549 38.226c0 1.04-.52 1.485-1.633 1.485h-6.308c-1.113 0-1.633-.52-1.633-1.485v-2.82c0-5.42 2.746-8.166 8.164-8.166h17.588c5.418 0 8.09 2.746 8.164 8.165v4.454c0 2.45-.817 4.306-2.449 5.716 1.632 1.336 2.375 3.267 2.449 5.716v4.38c0 5.419-2.746 8.166-8.164 8.166h-17.588c-5.418 0-8.164-2.747-8.164-8.166v-2.82c0-1.04.52-1.486 1.633-1.486h6.308c1.113 0 1.633.52 1.633 1.485v.89c0 1.634.816 2.45 2.449 2.45h9.722c1.633 0 2.449-.816 2.449-2.45v-1.93c0-1.632-.816-2.449-2.449-2.449h-8.164c-1.113 0-1.632-.52-1.632-1.485v-4.602c0-1.04.519-1.485 1.632-1.485h8.164c1.633 0 2.449-.816 2.449-2.45v-2.004c0-1.633-.816-2.45-2.449-2.45h-9.722c-1.633 0-2.449.817-2.449 2.45v.891z"/>
    <path fill="#000" d="M249.653 64.728h-17.588c-5.937 0-9.054-3.118-9.054-9.057v-2.82c0-1.56.964-2.45 2.523-2.45h6.308c1.633 0 2.523.89 2.523 2.45v.89c0 1.113.371 1.485 1.484 1.485h9.722c1.114 0 1.485-.372 1.485-1.485v-1.93c0-1.114-.371-1.485-1.485-1.485h-8.163c-1.633 0-2.523-.89-2.523-2.45v-4.602c0-1.559.964-2.45 2.523-2.45h8.163c1.114 0 1.485-.37 1.485-1.484v-2.005c0-1.113-.371-1.484-1.485-1.484h-9.573c-1.113 0-1.484.37-1.484 1.484v.891c0 1.559-.965 2.45-2.524 2.45h-6.382c-1.633 0-2.523-.891-2.523-2.45v-2.82c0-5.94 3.117-9.057 9.054-9.057h17.588c5.863 0 9.054 3.117 9.054 9.056v4.454c0 2.301-.742 4.231-2.003 5.716 1.335 1.485 2.003 3.34 2.003 5.716v4.38c-.074 5.939-3.265 9.057-9.128 9.057zm-24.045-12.472c-.668 0-.668.223-.668.594v2.821c0 4.9 2.301 7.2 7.199 7.2h17.588c4.898 0 7.199-2.3 7.199-7.2v-4.38c0-2.153-.742-3.786-2.078-4.973-.223-.149-.297-.446-.297-.743s.149-.52.297-.742c1.41-1.188 2.078-2.821 2.078-4.974v-4.454c0-4.9-2.301-7.2-7.199-7.2h-17.588c-4.898 0-7.199 2.3-7.199 7.2v2.821c0 .371 0 .594.668.594h6.308c.668 0 .668-.223.668-.594v-.89c0-2.154 1.262-3.341 3.34-3.341h9.722c2.152 0 3.339 1.262 3.339 3.34v2.005c0 2.152-1.261 3.34-3.339 3.34h-8.164c-.668 0-.668.223-.668.594v4.602c0 .372 0 .594.668.594h8.164c2.152 0 3.339 1.262 3.339 3.34v1.93c0 2.154-1.261 3.341-3.339 3.341h-9.648c-2.152 0-3.34-1.262-3.34-3.34v-.89c0-.372 0-.595-.668-.595h-6.382z"/>
    <path fill="#fff" d="M228.873 38.449c0 1.039-.519 1.484-1.632 1.484h-6.308c-1.114 0-1.633-.52-1.633-1.484v-2.821c0-5.42 2.746-8.166 8.163-8.166h17.589c5.417 0 8.089 2.747 8.163 8.166v4.454c0 2.45-.816 4.305-2.449 5.716 1.633 1.336 2.375 3.266 2.449 5.716v4.38c0 5.419-2.746 8.165-8.163 8.165h-17.589c-5.417 0-8.163-2.746-8.163-8.165v-2.821c0-1.04.519-1.485 1.633-1.485h6.308c1.113 0 1.632.52 1.632 1.485v.89c0 1.634.817 2.45 2.449 2.45h9.722c1.633 0 2.449-.816 2.449-2.45v-1.93c0-1.633-.816-2.45-2.449-2.45h-8.163c-1.113 0-1.633-.519-1.633-1.484v-4.602c0-1.04.52-1.485 1.633-1.485h8.163c1.633 0 2.449-.817 2.449-2.45v-2.004c0-1.633-.816-2.45-2.449-2.45h-9.722c-1.632 0-2.449.817-2.449 2.45v.89z"/>
    <path fill="#000" d="M244.978 64.95h-17.589c-5.937 0-9.054-3.118-9.054-9.056v-2.821c0-1.56.965-2.45 2.523-2.45h6.308c1.633 0 2.524.89 2.524 2.45v.89c0 1.114.371 1.485 1.484 1.485h9.722c1.113 0 1.484-.37 1.484-1.484v-1.93c0-1.114-.371-1.485-1.484-1.485h-8.164c-1.632 0-2.523-.891-2.523-2.45v-4.602c0-1.56.965-2.45 2.523-2.45h8.164c1.113 0 1.484-.371 1.484-1.485v-2.004c0-1.114-.371-1.485-1.484-1.485h-9.722c-1.113 0-1.484.371-1.484 1.485v.89c0 1.56-.965 2.45-2.524 2.45h-6.308c-1.632 0-2.523-.89-2.523-2.45v-2.82c0-5.939 3.117-9.057 9.054-9.057h17.589c5.862 0 9.054 3.118 9.054 9.057v4.454c0 2.301-.743 4.231-2.004 5.716 1.336 1.485 2.004 3.34 2.004 5.716v4.38c-.075 5.938-3.192 9.056-9.054 9.056zM220.933 52.48c-.668 0-.668.223-.668.594v2.82c0 4.9 2.3 7.201 7.198 7.201h17.589c4.898 0 7.199-2.3 7.199-7.2v-4.38c0-2.153-.743-3.786-2.078-4.974-.223-.148-.297-.445-.297-.742s.148-.52.297-.742c1.41-1.188 2.078-2.821 2.078-4.974v-4.454c0-4.9-2.301-7.2-7.199-7.2h-17.589c-4.898 0-7.198 2.3-7.198 7.2v2.82c0 .372 0 .595.668.595h6.308c.668 0 .668-.223.668-.594v-.891c0-2.153 1.261-3.34 3.339-3.34h9.722c2.152 0 3.34 1.261 3.34 3.34v2.004c0 2.153-1.262 3.34-3.34 3.34h-8.163c-.668 0-.668.224-.668.595v4.602c0 .371 0 .594.668.594h8.163c2.152 0 3.34 1.262 3.34 3.34v1.93c0 2.153-1.262 3.341-3.34 3.341h-9.722c-2.152 0-3.339-1.262-3.339-3.34v-.891c0-.371 0-.594-.668-.594h-6.308z"/>
    <path fill="#354C48" d="M172.694 52.33l5.492-6.235c.222-.074.519-.074.89-.074l2.449-.075c.371 0 .668 0 .743.149.148.148-.001.371-.297.816l-3.711 4.529 1.93-.075c.371 0 .593.075.742.223.148.149.371.371.668.742l2.152 3.341h.816c.371 0 .668.074.816.223.149.148.223.37.223.742l.149 6.161c0 .446-.075.743-.223.891-.149.149-.52.223-.965.297l-14.397.371c-.446 0-.742-.074-.965-.222-.148-.149-.223-.446-.223-.891l-.074-2.376h-1.187v.446c0 1.188-.297 2.004-.965 2.45-.668.445-1.633.668-2.969.742l-2.078.074c-.371 0-.667 0-.89-.148-.223-.075-.297-.297-.297-.743l-.074-3.192c0-.371.074-.668.222-.816.223-.149.446-.223.891-.223h1.039c.445 0 .742-.074.816-.223.149-.148.223-.371.297-.668l-.148-5.939c0-.297.074-.52.297-.668.222-.222.519-.297.964-.297l1.41-.074c.372 0 .743.074.891.223.223.222.297.445.297.742l.148 5.865 1.188-1.41-.149-5.791c0-.371.074-.594.223-.817.148-.148.445-.222.89-.222l1.633-.075c.445 0 .742 0 .965.223.148.149.223.371.223.742l.148 1.263zm.594 6.978l8.163-.222c.297 0 .445-.149.445-.371v-1.337h-.222c-.445 0-.817 0-.965-.148-.148-.149-.371-.371-.668-.817l-2.597-3.86-4.602 5.568v.816c0 .297.149.371.446.371z"/>
    <path fill="#354C48" d="M175.143 49.213l-2.746.074c-.297 0-.519-.149-.668-.445l-2.003-4.455c-.223-.445.148-.965.593-1.039l2.746-.074c.297 0 .52.148.668.445l2.004 4.454c.222.52-.074 1.04-.594 1.04z"/>
    <path stroke="#000" stroke-linecap="round" stroke-linejoin="round" stroke-miterlimit="10" stroke-width="2.5" d="M282.158 2l123.936 27.392M305.61 149.131L415 107.709M328.542 127.603l38.442-10.763M306.055 21.227l63.823 7.423"/>
</svg>
